<?xml version="1.0" encoding="utf-8"?>
<!-- Generator: Adobe Illustrator 22.1.0, SVG Export Plug-In . SVG Version: 6.00 Build 0)  -->
<svg version="1.1" id="组_47" xmlns="http://www.w3.org/2000/svg" xmlns:xlink="http://www.w3.org/1999/xlink" x="0px" y="0px"
	 viewBox="0 0 527.9 132.6" style="enable-background:new 0 0 527.9 132.6;" xml:space="preserve">
<style type="text/css">
	.st0{fill:url(#矩形_27_1_);}
	.st1{fill:#FFFFFF;}
	.st2{fill:url(#椭圆_3_拷贝_12_1_);}
	.st3{fill:url(#形状_2_拷贝_3_1_);}
</style>
<linearGradient id="矩形_27_1_" gradientUnits="userSpaceOnUse" x1="208.012" y1="-1112.6102" x2="598.993" y2="-1112.6102" gradientTransform="matrix(1 0 0 -1 -208 -1047.7703)">
	<stop  offset="0" style="stop-color:#53CBED"/>
	<stop  offset="1" style="stop-color:#C14FC4"/>
</linearGradient>
<path id="矩形_27" class="st0" d="M391,21.3H0v87h391c0,0-9.6-21.5-9.6-43.5C381.4,43.4,391,21.3,391,21.3z"/>
<path id="一般会员_种子轮_" class="st1" d="M48.2,65.3h45.7v-4.9H48.2V65.3z M98.5,66.2h3.2c-0.2,7.1-1.4,13-3.6,17.8
	l3.7,3.6c2.6-5.5,4-12.6,4.3-21.3h9.2v14.3c0,1.5-0.6,2.2-1.7,2.2c-1.1,0-2.5-0.1-4.3-0.3l1.3,4.8h4.5c3.1,0,4.6-1.7,4.6-5V44.3H113
	c0.7-1.6,1.2-3.2,1.6-4.8l-5-0.7c-0.3,1.9-0.9,3.7-1.6,5.5h-6.2v17.3h-3.2V66.2L98.5,66.2z M106.1,61.6V48.8h9.2v12.8H106.1z
	 M107.3,51.8c1.3,2.5,2.3,5,3.1,7.7l3.7-1.1c-0.9-2.7-2.1-5.3-3.4-7.8L107.3,51.8z M107.1,69.6c1.4,3.1,2.4,6.3,3.2,9.5l3.8-1.1
	c-0.9-3.3-2-6.6-3.4-9.7L107.1,69.6z M125.5,41.3c0.1,3-0.2,6.1-0.7,9.1c-0.8,2.2-1.9,4.2-3.4,6l3.7,3.4c1.8-1.8,3.2-4,4.2-6.4
	c0.7-2.5,0.9-5,0.9-7.6h5.3v7.2c0,3.7,1.8,5.5,5.5,5.5h3.9v-4.7h-2.5c-1.4,0-2.2-0.7-2.2-2V41.3L125.5,41.3L125.5,41.3z M122.5,66.1
	h1.2c1.2,4.5,3.4,8.7,6.5,12.2c-2.6,2.2-5.5,4-8.7,5.3l2.6,4.1c3.5-1.4,6.7-3.5,9.6-6c2.6,2.2,5.5,4.1,8.5,5.7l2.4-4.3
	c-2.7-1.4-5.3-3-7.7-4.9c2.7-3.7,4.6-7.9,5.6-12.4v-4.2h-20V66.1z M137.9,66.1c-1,3.2-2.5,6.2-4.5,8.8c-2.4-2.5-4.2-5.5-5.3-8.8
	H137.9L137.9,66.1z M170.2,39.1c-6.2,7.1-13.7,12.9-22,17.2l2.6,4.8c3-1.7,6-3.6,8.8-5.7v4.1h25.1v-3.9c2.7,2,5.5,3.8,8.4,5.4
	l2.6-4.8c-8.3-4.2-15.8-10-21.9-17.1L170.2,39.1L170.2,39.1z M160.2,54.8c4.4-3.2,8.3-7,11.7-11.3c3.4,4.2,7.3,8,11.6,11.3H160.2z
	 M151.6,70.1h11.8c-1.9,3.7-4.3,7.2-7,10.4c-0.7,0.7-1.5,1.2-2.5,1.4l1.3,4.3c11.8-0.7,21.7-1.7,29.5-3c0.8,1.2,1.7,2.6,2.7,4.2
	l4-2.9c-3.2-4.8-6.8-9.3-10.6-13.5l-3.7,2.5c1.9,2.2,3.6,4.2,5,6.2c-6.8,0.8-13.8,1.5-21,1.9c3.1-3.4,5.7-7.2,7.9-11.3h23.5v-4.8
	h-40.9L151.6,70.1L151.6,70.1z M205.8,57.9v20.5h4.8v-16h23.8v15.2h4.9V57.9H205.8L205.8,57.9z M208.3,54.7h28.2V40.6h-28.2
	L208.3,54.7L208.3,54.7z M213.1,50.2v-5h18.6v5H213.1L213.1,50.2z M220.4,65.2c-0.4,6.3-1.7,10.7-4,13.2c-2.6,2.7-8,4.3-16.1,4.7
	l1.9,4.6c9.7-1,15.9-3.1,18.4-6.3c2.4-2.6,4-7.9,4.7-15.7L220.4,65.2z M224,80.8c6.1,1.7,12,4,17.7,7l2.6-4.1
	c-5.7-2.7-11.7-5-17.8-6.7L224,80.8z M252.6,60.7c-1.2,1.6-2.1,3.4-2.7,5.3c-1.5,4.4-1.5,9.2,0,13.6c0.7,1.9,1.6,3.6,2.7,5.3h2.2
	c-1-1.7-1.8-3.5-2.4-5.4c-0.7-2.2-1.1-4.4-1.1-6.7c0-2.3,0.4-4.6,1.1-6.7c0.6-1.9,1.4-3.7,2.4-5.4L252.6,60.7L252.6,60.7z
	 M271.9,65.3h-4.7v12.1h2.3v-1.2h2.5v8.5h2.4v-8.5h2.6v1.2h2.3V65.3h-4.9V61h-2.4L271.9,65.3L271.9,65.3z M269.4,67.6h2.5V74h-2.5
	V67.6z M274.3,67.6h2.6V74h-2.6L274.3,67.6L274.3,67.6z M257.7,64.8c1-0.1,2.1-0.2,3.1-0.4v3.3h-3.6v2.4h3.4c-0.8,2.6-2.1,5-3.9,7.1
	l1,2.6c1.3-1.9,2.4-3.9,3.2-6.1v11.1h2.3V73.4c0.6,0.9,1.4,2.1,2.3,3.5l1.3-2.1c-1.1-1.3-2.3-2.5-3.6-3.7v-1h3v-2.4h-3V64
	c1.2-0.3,2.3-0.6,3.1-0.8l-0.8-2.3c-2.6,0.9-5.3,1.4-8.1,1.6L257.7,64.8z M282.4,74.1h10.3v7.1c0.1,0.5-0.3,1-0.8,1
	c-0.1,0-0.2,0-0.3,0c-1.5,0-2.8,0-4.1-0.1l0.6,2.4h4.4c1.6,0,2.4-0.8,2.4-2.6v-7.9h9.3v-2.4h-9.3v-2.1c2.3-1.6,4.5-3.5,6.5-5.5v-2.3
	H285v2.3h13.4c-1.8,1.6-3.7,3-5.7,4.2v3.3h-10.3L282.4,74.1L282.4,74.1z M311.8,71.7h-2.1c0.7-1.7,1.2-3.5,1.7-5.3h5.4V64H312
	c0.2-0.8,0.4-1.8,0.6-2.8l-2.2-0.3c0,0.2-0.2,1.3-0.6,3.2h-2.8v2.4h2.2c-0.5,1.8-1.1,3.6-1.8,5.3l0.5,2.2h4v3.4
	c-1.5,0.3-3.1,0.5-4.9,0.7l0.3,2.4c1.6-0.2,3.1-0.4,4.6-0.7v5.1h2.3v-5.5l3.2-0.8v-2.3c-1.1,0.3-2.2,0.5-3.2,0.8v-2.9h2.6v-2.2h-2.6
	v-3.7h-2.3L311.8,71.7L311.8,71.7z M321.9,60.9c-1.4,3.2-3.5,6-6.2,8.1l1.3,2.1c2.6-2.1,4.7-4.8,6-7.9c1.2,3.1,3.2,5.7,5.7,7.8
	L330,69c-2.7-2.1-4.8-4.9-6-8.1L321.9,60.9L321.9,60.9z M326.1,84.4c0.8,0.1,1.6-0.2,2.2-0.8c0.5-0.5,0.9-2.2,1.1-5.1l-2.2-0.8
	c0,1.3-0.1,2.6-0.5,3.8c-0.2,0.4-0.6,0.6-1,0.6H322c-0.5,0-1-0.4-1-0.9c0-0.1,0-0.2,0-0.3V77c2.4-1.1,4.7-2.4,6.8-4l-1.4-2
	c-1.6,1.4-3.4,2.6-5.3,3.5v-4.2h-2.3v11c0,2,0.9,3,2.6,3L326.1,84.4L326.1,84.4z M331.9,60.7c1,1.7,1.8,3.5,2.4,5.4
	c0.7,2.2,1.1,4.4,1.1,6.7c0,2.3-0.4,4.6-1.1,6.7c-0.6,1.9-1.4,3.7-2.4,5.4h2.2c1.1-1.6,2-3.4,2.7-5.3c1.5-4.4,1.5-9.2,0-13.6
	c-0.7-1.9-1.6-3.7-2.7-5.3L331.9,60.7L331.9,60.7z"/>
<linearGradient id="椭圆_3_拷贝_12_1_" gradientUnits="userSpaceOnUse" x1="1330.255" y1="-796.1604" x2="1462.5792" y2="-796.1604" gradientTransform="matrix(1 0 0 -1 -935 -729.8504)">
	<stop  offset="0" style="stop-color:#53CBED"/>
	<stop  offset="1" style="stop-color:#C14FC4"/>
</linearGradient>
<path id="椭圆_3_拷贝_12" class="st2" d="M461.4,0c36.6-0.1,66.4,29.6,66.5,66.2s-29.6,66.4-66.2,66.5
	c-36.6,0.1-66.4-29.6-66.5-66.2c0-0.1,0-0.1,0-0.1C395.2,29.7,424.8,0.1,461.4,0L461.4,0z"/>
<linearGradient id="形状_2_拷贝_3_1_" gradientUnits="userSpaceOnUse" x1="1456.3534" y1="-856.6536" x2="1335.9419" y2="-736.2421" gradientTransform="matrix(1 0 0 -1 -935 -729.8504)">
	<stop  offset="0" style="stop-color:#A0FFAB"/>
	<stop  offset="1" style="stop-color:#FFEC43"/>
</linearGradient>
<path id="形状_2_拷贝_3" class="st3" d="M494.2,33.2c0,0-0.9-0.8-2.5-2.2c-0.9-0.9-2-1.7-3.1-2.5c-1.4-1.1-3-2.1-4.5-3
	c-9.7-5.6-21.1-7.4-32.1-5.3c-15.8,3.2-28.8,14.3-34.5,29.3c-3.2,8.4-4,17.5-2.2,26.4c0.9,4.5,2.5,8.9,4.6,12.9
	c4.3,8.2,11,14.9,19.2,19.4c4,2.2,8.4,3.7,12.8,4.6c8.7,1.7,17.8,1,26.1-2.2c7.8-3,14.6-8.1,19.7-14.6c4.6-5.9,7.8-12.8,9.3-20.2
	c2.2-11.1,0.4-22.6-5.2-32.5c-0.9-1.6-1.8-3.1-3-4.5c-0.7-1.1-1.6-2.2-2.5-3.1C495,34,494.2,33.2,494.2,33.2l2.5-2.5
	c0,0,0.8,0.9,2.4,2.7c0.9,1.1,1.9,2.2,2.7,3.4c1.2,1.5,2.2,3.2,3.1,4.9c5.9,10.6,7.9,22.9,5.6,34.9c-1.6,7.9-5,15.3-9.9,21.7
	c-5.5,7-12.9,12.5-21.2,15.7c-4.4,1.7-9,2.7-13.6,3.2c-9.7,0.9-19.5-1.2-28-5.8c-8.8-4.8-15.9-12-20.5-20.8c-2.2-4.4-4-9.1-5-13.9
	c-0.9-4.8-1.2-9.7-0.8-14.5c0.4-4.7,1.5-9.4,3.2-13.8c6.1-16.1,20.1-28,37-31.5c11.8-2.4,24.1-0.4,34.5,5.6c1.7,0.9,3.3,2,4.8,3.2
	c1.2,0.8,2.3,1.7,3.3,2.7c1.7,1.6,2.7,2.4,2.7,2.4L494.2,33.2z M499.9,109.8c-1.4,1.3-3,2.6-4.5,3.7l-1.7-2.3c1.5-1.1,3-2.3,4.3-3.5
	L499.9,109.8z M504.1,105.7l-2.1-1.9c1.2-1.4,2.5-2.9,3.5-4.3l2.3,1.7C506.6,102.6,505.4,104.2,504.1,105.7z M490.5,116.9
	c-1.7,1-3.4,1.9-5.2,2.7l-1.2-2.6c1.7-0.8,3.3-1.7,4.9-2.7L490.5,116.9z M511,96.1l-2.5-1.4c0.9-1.6,1.8-3.3,2.6-5l2.6,1.2
	C512.9,92.7,512,94.4,511,96.1z M479.9,121.8c-1.9,0.6-3.7,1.2-5.6,1.7l-0.6-2.8c1.8-0.4,3.6-0.9,5.3-1.6L479.9,121.8z M515.8,85.4
	l-2.7-0.9c0.6-1.8,1.1-3.6,1.5-5.4l2.8,0.6C517,81.7,516.5,83.5,515.8,85.4z M468.6,124.5c-1.9,0.2-3.9,0.4-5.8,0.4l-0.1-2.9
	c1.9-0.1,3.7-0.2,5.5-0.4L468.6,124.5z M518.5,73.9l-2.9-0.4c0.2-1.9,0.4-3.7,0.4-5.6l2.9,0.1C518.9,70,518.7,71.9,518.5,73.9
	L518.5,73.9z M456.9,124.8c-1.9-0.1-3.9-0.4-5.8-0.7l0.5-2.8c1.8,0.3,3.7,0.6,5.5,0.6L456.9,124.8z M518.8,62.1l-2.8,0.2
	c-0.1-1.9-0.4-3.7-0.7-5.5l2.8-0.5C518.4,58.2,518.6,60.1,518.8,62.1L518.8,62.1z M445.3,122.7c-1.9-0.5-3.7-1.2-5.5-1.9l1-2.7
	c1.7,0.7,3.5,1.3,5.3,1.8L445.3,122.7z M516.8,50.5l-2.7,0.8c-0.5-1.8-1.1-3.6-1.8-5.3l2.7-1.1C515.5,46.7,516.2,48.6,516.8,50.5
	L516.8,50.5z M434.5,118.4c-1.7-0.9-3.4-1.9-5-3l1.6-2.4c1.6,1,3.2,2,4.8,2.9L434.5,118.4z M512.4,39.5l-2.5,1.4
	c-0.9-1.7-1.8-3.3-2.8-4.8l2.4-1.6C510.5,36,511.5,37.8,512.4,39.5z M424.7,111.9c-1.5-1.2-3-2.6-4.3-4l2-2c1.3,1.3,2.7,2.6,4.1,3.7
	L424.7,111.9z M506,29.7l-2.2,1.8c-1.2-1.4-2.4-2.8-3.7-4.2l1.9-2.2l0.1,0.1C503.4,26.7,504.7,28.1,506,29.7z M418.7,101.8l-2.2,1.9
	c-1.2-1.5-2.4-3.1-3.5-4.8l2.4-1.6C416.4,98.7,417.5,100.3,418.7,101.8L418.7,101.8z M495.7,23.4c-1.4-1.2-3-2.3-4.5-3.3l1.6-2.4
	c1.7,1.1,3.2,2.2,4.8,3.5L495.7,23.4z M412.6,92.4l-2.5,1.4c-0.9-1.7-1.7-3.5-2.5-5.3l2.7-1.1C410.9,89,411.7,90.7,412.6,92.4z
	 M486.4,17.2c-1.7-0.9-3.3-1.7-5-2.3l1-2.7c1.8,0.7,3.6,1.6,5.3,2.5L486.4,17.2z M408.4,82l-2.7,0.8c-0.5-1.9-1-3.8-1.3-5.8l2.8-0.5
	C407.4,78.3,407.9,80.2,408.4,82z M476.1,13.1c-1.8-0.5-3.6-0.9-5.4-1.2l0.5-2.8c1.9,0.4,3.8,0.8,5.7,1.3L476.1,13.1z M406.4,70.9
	l-2.8,0.2c-0.1-1.9-0.2-4-0.1-5.9l2.9,0.1C406.2,67.2,406.3,69,406.4,70.9L406.4,70.9z M465.2,11.2c-1.9-0.1-3.7-0.2-5.5-0.1
	l-0.1-2.9c1.9-0.1,3.9,0,5.8,0.1L465.2,11.2z M406.6,59.7l-2.8-0.4c0.2-1.9,0.6-3.9,1-5.8l2.8,0.6C407.2,55.9,406.9,57.8,406.6,59.7
	z M454,11.5c-1.8,0.2-3.7,0.6-5.5,1l-0.6-2.8c1.9-0.4,3.8-0.8,5.8-1.1L454,11.5z M409.2,48.7l-2.7-0.9c0.6-1.9,1.4-3.7,2.2-5.5
	l2.6,1.2C410.4,45.2,409.7,47,409.2,48.7L409.2,48.7z M443.2,14.1c-1.7,0.6-3.5,1.3-5.2,2.1l-1.2-2.6c1.8-0.9,3.6-1.6,5.4-2.2
	L443.2,14.1z M413.7,38.6l-2.5-1.4c1-1.7,2-3.4,3.2-5l2.3,1.7C415.7,35.4,414.6,36.9,413.7,38.6L413.7,38.6z M433.2,18.8
	c-1.6,0.9-3.2,2-4.6,3.1l-1.7-2.3c1.6-1.2,3.2-2.2,4.9-3.2L433.2,18.8z M420.3,29.5l-2.2-1.9c1.3-1.4,2.7-2.9,4.1-4.2l1.9,2.2
	C422.9,26.7,421.6,28.1,420.3,29.5L420.3,29.5z M498.5,104.3c-20.3,20.6-53.6,20.8-74.2,0.5c-0.1-0.1-0.3-0.3-0.5-0.5
	c-20.6-20.9-20.6-54.5,0-75.5C444.2,8.2,477.3,8,498,28.4c0.1,0.1,0.3,0.3,0.4,0.4C519.1,49.8,519.1,83.3,498.5,104.3L498.5,104.3z
	 M424.2,29.3c-20.3,20.7-20.3,53.9,0,74.7c20.2,20.4,53,20.6,73.4,0.4c0.1-0.1,0.3-0.3,0.4-0.4c20.3-20.7,20.4-53.9,0-74.7
	c-20.1-20.4-53-20.6-73.4-0.4C424.5,29,424.4,29.1,424.2,29.3z M503.7,109.6c-23.2,23.5-61.1,23.8-84.6,0.6
	c-0.2-0.2-0.4-0.4-0.6-0.6c-23.5-23.9-23.5-62.2,0-86.1c23.2-23.5,61.1-23.8,84.6-0.6c0.2,0.1,0.4,0.4,0.6,0.6
	C527.2,47.3,527.2,85.8,503.7,109.6L503.7,109.6z M419,23.9c-23.3,23.5-23.3,61.8,0,85.3c23,23.3,60.5,23.5,83.8,0.5
	c0.1-0.1,0.4-0.4,0.5-0.5c23.3-23.5,23.3-61.8,0-85.3c-23-23.3-60.5-23.5-83.8-0.5C419.3,23.6,419.2,23.8,419,23.9L419,23.9z
	 M461.3,64.3v-1c0.1-0.4,0.1-0.7,0-1.1V50.7v-0.1c-0.6-0.6-1.7-2.6-1.9-2.8c-1.6-0.3-9.6,3-10.2,3.4c-0.2,0.1-1.7,0.8-2.3,1.7
	c-0.7,1.2-1.4,8.2-1.7,9.2c-0.1-0.2,0.2-5.5-0.4-9.4c-0.3-1.5-1-2.9-1.9-4.1c-1.3-1.9-3.1-3.7-3-3.7c1.4,0.9,2.8,1.9,4,3.2
	c0.9,1.1,1.6,2.3,2,3.6c3.1-1.5,12.3-4.8,12.3-4.8s-13.1-0.9-13.6-1.2c-2.5-1.7-5.2-3.1-8.1-4c-4-1.2-8.9-1.6-10.5-4.1
	c2.5,7.6,1.5,11,4.8,17.2c1.9,3.7,5.1,6.7,9.1,8.3c-0.1-4-0.7-7.9-1.7-11.7c-1-3.8-3.1-7.4-2.9-7.2c1.8,1.2,3.2,3,4.1,5
	c1.4,3.7,1.5,9,2.1,12c0.4,2.1,0.9,4.1,1.7,6.1c0.1,0.3,0.3,0.6,0.4,0.9c0.7,1.3,1.5,2.5,2.3,3.7c1.7,2.5,3.7,4.9,5.8,7.1
	c3.5,3.5,7.8,6.8,8.5,7.6c0.2,0.1,0.5,0.2,0.7,0.2h0.1v-5.9c0.2-0.1,4,0,5.3-1.6c0.2-0.2,0.4-0.5,0.6-0.7
	C471.2,73.5,474,64.1,461.3,64.3 M436.5,55.5c0.1,1,0.4,2,0.7,3c-2.4-2.2-4.4-4.8-6-7.7c-1.1-2.1-0.6-5-1.4-6.1c0,0,3,0.6,4.8,4.5
	C435.6,51.2,436.2,53.3,436.5,55.5 M459.2,78.1c0.1,0.2,0.2,0.4,0.4,0.5s0.4,0.2,0.6,0.3c0.2,0.1,0.5,0.1,0.7,0.1h2.3v-0.9h-3.1
	l1.2-1.4h3.9v2.4c0,0.8-0.6,1.4-1.4,1.4l0,0h-2.9c-0.5,0-1-0.1-1.4-0.2c-0.4-0.1-0.8-0.4-1.2-0.6c-0.3-0.3-0.6-0.6-0.8-1
	s-0.3-0.8-0.3-1.2c0-0.4,0.1-0.9,0.3-1.2c0.2-0.4,0.4-0.6,0.8-0.9c0.4-0.3,0.7-0.5,1.2-0.6c0.5-0.1,0.9-0.2,1.4-0.2h4.3l-1.2,1.6
	h-3.1c-0.2,0-0.5,0.1-0.7,0.1c-0.2,0.1-0.4,0.1-0.6,0.3c-0.3,0.3-0.5,0.6-0.5,1.1C459,77.7,459.1,77.9,459.2,78.1 M485.8,41.7
	c-2.9,0.9-5.6,2.2-8.1,4c-0.4,0.4-13.6,1.2-13.6,1.2s9.2,3.3,12.3,4.8c0.5-1.3,1.2-2.5,2-3.6c1.2-1.3,2.5-2.4,4-3.2
	c0.1,0.1-1.7,1.9-3,3.7c-0.9,1.2-1.7,2.6-1.9,4.1c-0.6,3.9-0.4,9.2-0.4,9.4c-0.2-0.9-0.9-8-1.7-9.2c-0.6-0.9-2.1-1.6-2.3-1.7
	c-0.6-0.4-8.6-3.7-10.2-3.4c-0.2,0.3-1.4,2.2-1.9,2.8l-0.1,0.1v13.6c-12.5-0.1-9.9,8.9-6.1,14c0.3,0.4,0.5,0.7,0.8,1
	c1.4,1.6,5.1,1.5,5.3,1.6v5.9h0.1c0.3,0,0.5-0.1,0.7-0.2c0.8-0.7,5-4,8.5-7.6c2.1-2.2,4-4.6,5.8-7.1c0.9-1.2,1.6-2.5,2.3-3.7
	c0.1-0.3,0.3-0.6,0.5-0.9c0.7-1.9,1.2-4,1.7-6.1c0.6-3,0.7-8.2,2.1-12c0.9-2,2.3-3.8,4.1-5c0.2-0.1-1.9,3.4-2.9,7.2
	c-0.9,3.8-1.5,7.8-1.7,11.7c3.9-1.6,7.1-4.5,9.1-8.3c3.3-6.1,2.3-9.5,4.8-17.2C494.8,40.1,489.7,40.5,485.8,41.7 M460.8,80.5
	c-0.5,0-1-0.1-1.4-0.2c-0.4-0.1-0.8-0.4-1.2-0.6c-0.3-0.3-0.6-0.6-0.8-1c-0.2-0.4-0.3-0.8-0.3-1.2c0-0.4,0.1-0.9,0.3-1.2
	c0.2-0.4,0.4-0.6,0.8-0.9c0.4-0.3,0.7-0.5,1.2-0.6c0.5-0.1,0.9-0.2,1.4-0.2h4.3l-1.2,1.6h-3.1c-0.2,0-0.5,0.1-0.7,0.1
	c-0.2,0.1-0.4,0.1-0.6,0.3c-0.3,0.3-0.5,0.6-0.5,1.1s0.2,0.8,0.5,1.1c0.1,0.1,0.4,0.2,0.6,0.3c0.2,0.1,0.5,0.1,0.7,0.1h2.3v-0.9
	h-3.1l1.2-1.4h3.9v2.4c0,0.8-0.6,1.4-1.4,1.4l0,0L460.8,80.5 M491.2,50.8c-1.6,2.9-3.6,5.5-6,7.7c0.3-1,0.6-2,0.7-3
	c0.3-2.2,0.9-4.3,1.8-6.3c1.8-3.8,4.8-4.5,4.8-4.5C491.9,45.8,492.3,48.7,491.2,50.8 M439.1,70.7l5,4l1.1,8.6L448,89l2.2,2.3
	l4.8,16.2l-9.7-10.4l-2.4-9.5l-8.9-6.4v-5v-4.1L439.1,70.7z M476,81.2V83l-2.4,4.9c0,0-3.2,4.9-4.6,6.6c-1.4,1.7-7.7,7.4-7.7,7.4
	s-4.7-4.5-7.7-7.8c-1.7-1.9-3.2-4-4.7-6.2l-2.5-5v-1.7l1.7,0.8l1.4,1.6c0,0,10.4,4.5,11.7,5.1c1.4-0.6,11.7-5.1,11.7-5.1l1.4-1.6
	L476,81.2z M435.3,83.9c1.2,0.8,6.8,4.6,6.8,4.6l0.9,4l-7.3-6.3C435.8,86.1,435.3,84.1,435.3,83.9L435.3,83.9z M492.3,62.4l2.2-9.1
	l-0.4-0.9l-4.2,7.5l-7.7,5c0,0-2.5,5.7-3.6,8.6C479.9,72.2,492.3,62.4,492.3,62.4L492.3,62.4z M430.1,62.4l-2.2-9.1l0.4-0.9
	c0,0,2.3,5.4,4.4,7.4c2.1,2,7.4,5.1,7.4,5.1s2.5,5.7,3.6,8.6C442.5,72.2,430.1,62.4,430.1,62.4L430.1,62.4z M483.4,70.7l-5,4l-1,8.6
	l-2.9,5.7l-2.5,2.7l-4.5,15.8l9.7-10.4l2.4-9.5l8.9-6.4v-5v-4.1L483.4,70.7z M487.3,83.9c-1.2,0.8-6.8,4.6-6.8,4.6l-1,3.9l7.4-6.3
	C486.7,86.1,487.3,84.1,487.3,83.9L487.3,83.9z M475.5,75.8l-0.9,3.7l-2.3,2.2l-5,2.2L475.5,75.8z M447.1,75.8l0.9,3.7l2.3,2.2
	l5,2.2L447.1,75.8z M455.1,78.3c0.1,0.5,0.2,0.9,0.4,1.4c0.1,0.1,0.1,0.1,0.1,0.2l-0.4,0.4h0.6c0.3,0.4,0.6,0.7,0.9,1
	c0.6,0.5,1.2,0.9,1.9,1.1c0.7,0.2,1.4,0.4,2.2,0.4h0.4v-1.9c-0.2-0.1-4,0-5.3-1.6C455.6,79,455.3,78.6,455.1,78.3 M457.2,77.4
	L457.2,77.4c0-0.4,0.1-0.9,0.3-1.2c0.2-0.4,0.4-0.6,0.8-0.9c0.4-0.3,0.7-0.5,1.2-0.6c0.5-0.1,0.9-0.2,1.4-0.2h4.3L464,76h-3.2
	c-0.2,0-0.5,0.1-0.7,0.1c-0.2,0.1-0.4,0.1-0.6,0.3c-0.3,0.3-0.5,0.6-0.5,1.1s0.2,0.8,0.5,1.1c0.1,0.1,0.4,0.2,0.6,0.3
	c0.2,0.1,0.5,0.1,0.7,0.1h2.3v-0.9h-3.1l1.2-1.4h3.9v2.4l0,0c0,0.8-0.6,1.4-1.4,1.4l0,0h-2.9c-0.5,0-1-0.1-1.4-0.2
	c-0.4-0.1-0.8-0.4-1.2-0.6c-0.3-0.3-0.6-0.6-0.8-1C457.3,78.3,457.2,77.8,457.2,77.4L457.2,77.4 M469.8,72.1h-8.9
	c-0.7,0-1.4,0.1-2.2,0.3s-1.3,0.6-1.9,1c-1.2,0.9-1.9,2.4-1.9,3.9c0,0.3,0,0.6,0.1,0.9l0,0c0.3,0.4,0.5,0.7,0.8,1
	c1.4,1.6,5.1,1.5,5.3,1.6v1.9h2.4c2,0,3.7-1.7,3.7-3.7l0,0v-3.7L469.8,72.1 M453.2,96.3l7.7,7.6v4.1H457L453.2,96.3z M469.5,96.3
	l-7.7,7.6v4.1h3.9L469.5,96.3z M461.3,64.3v-1c0.1-0.4,0.1-0.7,0-1.1V50.7v-0.1c-0.6-0.6-1.7-2.6-1.9-2.8c-1.6-0.3-9.6,3-10.2,3.4
	c-0.2,0.1-1.7,0.8-2.3,1.7c-0.7,1.2-1.4,8.2-1.7,9.2c-0.1-0.2,0.2-5.5-0.4-9.4c-0.3-1.5-1-2.9-1.9-4.1c-1.3-1.9-3.1-3.7-3-3.7
	c1.4,0.9,2.8,1.9,4,3.2c0.9,1.1,1.6,2.3,2,3.6c3.1-1.5,12.3-4.8,12.3-4.8s-13.1-0.9-13.6-1.2c-2.5-1.7-5.2-3.1-8.1-4
	c-4-1.2-8.9-1.6-10.5-4.1c2.5,7.6,1.5,11,4.8,17.2c1.9,3.7,5.1,6.7,9.1,8.3c-0.1-4-0.7-7.9-1.7-11.7c-1-3.8-3.1-7.4-2.9-7.2
	c1.8,1.2,3.2,3,4.1,5c1.4,3.7,1.5,9,2.1,12c0.4,2.1,0.9,4.1,1.7,6.1c0.1,0.3,0.3,0.6,0.4,0.9c0.7,1.3,1.5,2.5,2.3,3.7
	c1.7,2.5,3.7,4.9,5.8,7.1c3.5,3.5,7.8,6.8,8.5,7.6c0.2,0.1,0.5,0.2,0.7,0.2h0.1v-5.9c0.2-0.1,4,0,5.3-1.6c0.2-0.2,0.4-0.5,0.6-0.7
	C471.2,73.5,474,64.1,461.3,64.3L461.3,64.3z M436.5,55.5c0.1,1,0.4,2,0.7,3c-2.4-2.2-4.4-4.8-6-7.7c-1.1-2.1-0.6-5-1.4-6.1
	c0,0,3,0.6,4.8,4.5C435.6,51.2,436.2,53.3,436.5,55.5L436.5,55.5z M459.2,78.1c0.1,0.2,0.2,0.4,0.4,0.5s0.4,0.2,0.6,0.3
	c0.2,0.1,0.5,0.1,0.7,0.1h2.3v-0.9h-3.1l1.2-1.4h3.9v2.4c0,0.8-0.6,1.4-1.4,1.4l0,0h-2.9c-0.5,0-1-0.1-1.4-0.2
	c-0.4-0.1-0.8-0.4-1.2-0.6c-0.3-0.3-0.6-0.6-0.8-1s-0.3-0.8-0.3-1.2c0-0.4,0.1-0.9,0.3-1.2c0.2-0.4,0.4-0.6,0.8-0.9
	c0.4-0.3,0.7-0.5,1.2-0.6c0.5-0.1,0.9-0.2,1.4-0.2h4.3l-1.2,1.6h-3.1c-0.2,0-0.5,0.1-0.7,0.1c-0.2,0.1-0.4,0.1-0.6,0.3
	c-0.3,0.3-0.5,0.6-0.5,1.1C459,77.7,459.1,77.9,459.2,78.1L459.2,78.1z M485.9,41.7c-2.9,0.9-5.6,2.2-8.1,4
	c-0.4,0.4-13.6,1.2-13.6,1.2s9.2,3.3,12.3,4.8c0.5-1.3,1.2-2.5,2-3.6c1.2-1.3,2.5-2.4,4-3.2c0.1,0.1-1.7,1.9-3,3.7
	c-0.9,1.2-1.7,2.6-1.9,4.1c-0.6,3.9-0.4,9.2-0.4,9.4c-0.2-0.9-0.9-8-1.7-9.2c-0.6-0.9-2.1-1.6-2.3-1.7c-0.6-0.4-8.6-3.7-10.2-3.4
	c-0.2,0.3-1.4,2.2-1.9,2.8l-0.1,0.1v13.6c-12.5-0.1-9.9,8.9-6.1,14c0.3,0.4,0.5,0.7,0.8,1c1.4,1.6,5.1,1.5,5.3,1.6v5.9h0.1
	c0.3,0,0.5-0.1,0.7-0.2c0.8-0.7,5-4,8.5-7.6c2.1-2.2,4-4.6,5.8-7.1c0.9-1.2,1.6-2.5,2.3-3.7c0.1-0.3,0.3-0.6,0.5-0.9
	c0.7-1.9,1.2-4,1.7-6.1c0.6-3,0.7-8.2,2.1-12c0.9-2,2.3-3.8,4.1-5c0.2-0.1-1.9,3.4-2.9,7.2c-0.9,3.8-1.5,7.8-1.7,11.7
	c3.9-1.6,7.1-4.5,9.1-8.3c3.3-6.1,2.3-9.5,4.8-17.2C494.8,40.1,489.8,40.6,485.9,41.7L485.9,41.7z M460.8,80.5c-0.5,0-1-0.1-1.4-0.2
	c-0.4-0.1-0.8-0.4-1.2-0.6c-0.3-0.3-0.6-0.6-0.8-1c-0.2-0.4-0.3-0.8-0.3-1.2c0-0.4,0.1-0.9,0.3-1.2c0.2-0.4,0.4-0.6,0.8-0.9
	c0.4-0.3,0.7-0.5,1.2-0.6c0.5-0.1,0.9-0.2,1.4-0.2h4.3l-1.2,1.6h-3.1c-0.2,0-0.5,0.1-0.7,0.1c-0.2,0.1-0.4,0.1-0.6,0.3
	c-0.3,0.3-0.5,0.6-0.5,1.1s0.2,0.8,0.5,1.1c0.1,0.1,0.4,0.2,0.6,0.3c0.2,0.1,0.5,0.1,0.7,0.1h2.3v-0.9h-3.1l1.2-1.4h3.9v2.4
	c0,0.8-0.6,1.4-1.4,1.4l0,0L460.8,80.5L460.8,80.5z M491.3,50.8c-1.6,2.9-3.6,5.5-6,7.7c0.3-1,0.6-2,0.7-3c0.3-2.2,0.9-4.3,1.8-6.3
	c1.8-3.8,4.8-4.5,4.8-4.5C491.9,45.8,492.3,48.7,491.3,50.8L491.3,50.8z M439.1,70.7l5,4l1.1,8.6L448,89l2.2,2.3l4.8,16.2l-9.7-10.4
	l-2.4-9.5l-8.9-6.4v-5v-4.1L439.1,70.7z M476,81.2V83l-2.4,4.9c0,0-3.2,4.9-4.6,6.6c-1.4,1.7-7.7,7.4-7.7,7.4s-4.7-4.5-7.7-7.8
	c-1.7-1.9-3.2-4-4.7-6.2l-2.5-5v-1.7l1.7,0.8l1.4,1.6c0,0,10.4,4.5,11.7,5.1c1.4-0.6,11.7-5.1,11.7-5.1l1.4-1.6L476,81.2z
	 M435.3,83.9c1.2,0.8,6.8,4.6,6.8,4.6l0.9,4l-7.3-6.3C435.8,86.1,435.3,84.1,435.3,83.9L435.3,83.9z M492.3,62.4l2.2-9.1l-0.4-0.9
	l-4.2,7.5l-7.7,5c0,0-2.5,5.7-3.6,8.6C479.9,72.2,492.3,62.4,492.3,62.4L492.3,62.4z M430.1,62.4l-2.2-9.1l0.4-0.9
	c0,0,2.3,5.4,4.4,7.4c2.1,2,7.4,5.1,7.4,5.1s2.5,5.7,3.6,8.6C442.5,72.2,430.1,62.4,430.1,62.4L430.1,62.4z M483.4,70.7l-5,4l-1,8.6
	l-2.9,5.7l-2.5,2.7l-4.5,15.8l9.7-10.4l2.4-9.5l8.9-6.4v-5v-4.1L483.4,70.7z M487.3,83.9c-1.2,0.8-6.8,4.6-6.8,4.6l-1,3.9l7.4-6.3
	C486.7,86.1,487.3,84.1,487.3,83.9L487.3,83.9z M475.5,75.8l-0.9,3.7l-2.3,2.2l-5,2.2L475.5,75.8z M447.1,75.8l0.9,3.7l2.3,2.2
	l5,2.2L447.1,75.8z M453.2,96.3l7.7,7.6v4.1H457L453.2,96.3z M469.5,96.3l-7.7,7.6v4.1h3.9L469.5,96.3z M426.1,39.4
	c-3.9,5.1-6.6,11-8.1,17.2c-0.1,0.6-0.3,1.3-0.4,1.9c-0.1,0.6-0.2,1.2-0.3,1.8c-0.1,0.6-0.1,1.2-0.2,1.7c0,0.3-0.1,0.6-0.1,0.8
	c0,0.3,0,0.5-0.1,0.7c0,0.5-0.1,0.9-0.1,1.4c0,0.4,0,0.9,0,1.2c0,0.4,0,0.7,0,1c0,0.3,0,0.6,0,0.9c0.1,1,0.1,1.6,0.1,1.6l0.6-0.1
	c0,0,0-0.5-0.1-1.6c0-0.2,0-0.5,0-0.9c0-0.4,0-0.6,0-1c0-0.4,0-0.8,0-1.2c0-0.4,0.1-0.9,0.1-1.4c0-0.2,0-0.5,0.1-0.7
	s0.1-0.5,0.1-0.8c0.1-0.5,0.1-1.1,0.2-1.6c0.1-0.6,0.2-1.2,0.3-1.8c0.1-0.6,0.3-1.2,0.4-1.9c1.4-6.1,4-11.7,7.7-16.7
	C426.3,39.8,426.2,39.6,426.1,39.4L426.1,39.4z M495.2,38.1c-0.9-1.2-1.9-2.2-3-3.3c-1.4-1.4-2.8-2.6-4.3-3.8
	c-0.8-0.6-1.6-1.2-2.4-1.7c-0.4-0.3-0.9-0.5-1.3-0.8l-0.6-0.4l-0.6-0.4c-3.6-2.1-7.6-3.7-11.7-4.6c-2.1-0.5-4.3-0.8-6.3-1
	c-2.2-0.1-4.3-0.2-6.5-0.1c-2.2,0.1-4.3,0.4-6.4,0.9c-2.1,0.4-4.2,1.1-6.2,1.8c-4,1.5-7.6,3.5-11,6.1l-0.6,0.4l-0.6,0.5
	c-0.4,0.3-0.8,0.6-1.2,0.9c-0.7,0.6-1.5,1.3-2.2,2c-1.1,1.1-2.2,2.2-3.1,3.4l0,0c0.1,0.1,0.1,0.1,0.2,0.2c0.1,0,0.1,0.1,0.2,0.1
	c0.9-1.2,1.9-2.3,3-3.4c0.6-0.7,1.4-1.4,2.2-2c0.4-0.3,0.8-0.6,1.2-0.9l0.6-0.5l0.6-0.4c5-3.8,10.8-6.4,16.9-7.8
	c2.1-0.4,4.2-0.7,6.3-0.9c2.2-0.1,4.3-0.1,6.4,0.1c6.3,0.5,12.3,2.5,17.8,5.5l0.6,0.4l0.6,0.4c0.4,0.3,0.9,0.5,1.2,0.8
	c0.8,0.6,1.7,1.1,2.4,1.7c1.5,1.2,3,2.4,4.3,3.7c1,1.1,2,2.1,2.9,3.2C494.9,38.3,495.1,38.2,495.2,38.1L495.2,38.1z M505.2,62.2
	c0-0.3-0.1-0.6-0.1-0.9s-0.1-0.6-0.1-1c-0.1-0.4-0.1-0.8-0.2-1.2c-0.1-0.4-0.1-0.9-0.2-1.3c-0.1-0.2-0.1-0.4-0.1-0.7
	c-0.1-0.2-0.1-0.5-0.2-0.8c-0.1-0.5-0.2-1.1-0.4-1.6c-0.1-0.6-0.4-1.2-0.5-1.7c-0.2-0.6-0.4-1.2-0.6-1.9c-1-2.8-2.3-5.5-3.9-8.1
	c-0.7-1.2-1.5-2.4-2.4-3.5c-0.1,0.2-0.1,0.5-0.2,0.7c0.8,1,1.5,2.1,2.1,3.2c1.5,2.5,2.8,5.2,3.8,7.9c0.2,0.6,0.4,1.2,0.6,1.8
	c0.2,0.6,0.4,1.2,0.5,1.7c0.1,0.5,0.3,1.1,0.4,1.6c0.1,0.3,0.1,0.5,0.2,0.8c0.1,0.3,0.1,0.5,0.1,0.7c0.1,0.4,0.1,0.9,0.2,1.3
	c0.1,0.4,0.1,0.8,0.1,1.2c0.1,0.4,0.1,0.7,0.1,1c0.1,0.3,0.1,0.6,0.1,0.9c0.1,1,0.1,1.5,0.1,1.5l0.6-0.1
	C505.3,63.7,505.2,63.2,505.2,62.2L505.2,62.2z M420.4,64.9c0,0-0.6-0.3-1.2-0.6c-0.6-0.4-1.2-0.7-1.2-0.7s0,0.4-0.1,0.9
	c0,0.1,0,0.3,0,0.4s0,0.3,0,0.5c0,0.4,0,0.7,0,1.1c0,0.7,0,1.4,0.1,2c0,0.6,0,0.9,0,0.9s0.6-0.4,1.2-0.7c0.6-0.4,1.2-0.6,1.2-0.6
	s0-0.2,0-0.5c0-0.3,0-0.6,0-1.1s0-0.8,0-1.1C420.4,65.1,420.4,64.9,420.4,64.9 M422.2,54.3c0,0-0.5-0.5-1-0.9c-0.5-0.4-1-1-1-1
	s-0.1,0.4-0.3,0.9c-0.1,0.3-0.1,0.6-0.3,0.9c-0.1,0.3-0.2,0.6-0.3,1c-0.1,0.4-0.2,0.7-0.3,1c-0.1,0.4-0.1,0.6-0.2,0.9
	c-0.1,0.6-0.2,0.9-0.2,0.9s0.7-0.2,1.4-0.4c0.6-0.2,1.4-0.3,1.4-0.3s0.1-0.2,0.1-0.5c0.1-0.3,0.1-0.6,0.3-1c0.1-0.4,0.2-0.7,0.3-1
	C422.1,54.5,422.3,54.3,422.2,54.3 M426.7,44.5c0,0-0.4-0.6-0.7-1.2c-0.4-0.6-0.7-1.2-0.7-1.2s-0.1,0.1-0.1,0.2
	c-0.1,0.1-0.2,0.4-0.4,0.6c-0.3,0.4-0.6,1.1-1,1.7s-0.7,1.3-0.9,1.7c-0.2,0.5-0.4,0.8-0.4,0.8s0.7,0,1.4,0c0.7,0,1.4,0.1,1.4,0.1
	l0.7-1.4c0.1-0.3,0.4-0.6,0.5-0.9S426.7,44.5,426.7,44.5 M433.5,36.3c0,0-0.2-0.6-0.4-1.4c-0.2-0.7-0.4-1.4-0.4-1.4
	s-0.3,0.2-0.6,0.6c-0.4,0.4-0.9,0.9-1.4,1.4c-0.5,0.5-1,1-1.4,1.4c-0.2,0.2-0.4,0.4-0.4,0.5c-0.1,0.1-0.1,0.1-0.1,0.1
	s0.1,0.1,0.4,0.1c0.3,0.1,0.6,0.1,0.9,0.3c0.6,0.2,1.4,0.4,1.4,0.4s0.1-0.1,0.4-0.4s0.4-0.5,0.7-0.8c0.3-0.3,0.6-0.5,0.7-0.7
	C433.2,36.5,433.4,36.4,433.5,36.3 M442.2,30.1c0,0,0-0.7-0.1-1.4c0-0.7,0-1.4,0-1.4s-0.1,0.1-0.2,0.1c-0.1,0.1-0.4,0.1-0.6,0.3
	c-0.2,0.1-0.5,0.3-0.8,0.4s-0.6,0.4-0.9,0.5c-0.6,0.4-1.2,0.7-1.7,1c-0.4,0.3-0.7,0.5-0.7,0.5s0.6,0.4,1.2,0.7
	c0.6,0.4,1.2,0.7,1.2,0.7s0.6-0.4,1.3-0.8c0.3-0.2,0.6-0.4,0.9-0.5C442.1,30.1,442.2,30.1,442.2,30.1 M452.1,26.4
	c0,0,0.1-0.7,0.3-1.4c0.2-0.7,0.4-1.4,0.4-1.4s-0.4,0.1-0.9,0.1c-0.5,0.1-1.2,0.3-1.9,0.5c-0.7,0.2-1.4,0.4-1.9,0.6
	c-0.3,0.1-0.5,0.1-0.6,0.2c-0.1,0-0.1,0.1-0.2,0.1c0,0,0.5,0.5,1,1s0.9,1.1,0.9,1.1s0.2-0.1,0.4-0.1c0.3-0.1,0.6-0.2,1-0.3
	C451.4,26.6,452.1,26.4,452.1,26.4 M462.7,25.4c0,0,0.1-0.1,0.2-0.4c0.1-0.2,0.3-0.5,0.4-0.9c0.4-0.6,0.7-1.2,0.7-1.2
	s-0.4,0-0.9-0.1c-0.6,0-1.3,0-1.9-0.1c-0.2,0-0.4,0-0.6,0c-0.1,0-0.4,0-0.5,0c-0.4,0-0.6,0-0.9,0.1c-0.3,0-0.5,0-0.6,0
	c-0.1,0-0.1,0-0.2,0c0,0,0.1,0.1,0.2,0.4c0.1,0.2,0.3,0.6,0.5,0.9c0.4,0.6,0.6,1.3,0.6,1.3s0.2,0,0.5,0s0.6,0,1,0
	C461.9,25.4,462.7,25.4,462.7,25.4 M473.2,27.2c0,0,0.5-0.5,0.9-1c0.5-0.5,1-1,1-1s-0.4-0.1-0.9-0.3c-0.2-0.1-0.6-0.2-0.9-0.3
	c-0.4-0.1-0.6-0.1-1-0.3c-0.4-0.1-0.7-0.2-1-0.3c-0.4-0.1-0.6-0.1-0.9-0.2c-0.5-0.1-0.9-0.2-0.9-0.2s0.2,0.7,0.4,1.4
	c0.1,0.6,0.3,1.4,0.3,1.4s0.2,0.1,0.5,0.1c0.3,0.1,0.6,0.1,1,0.3c0.4,0.1,0.7,0.2,1,0.3C473,27,473.2,27.2,473.2,27.2 M482.8,31.6
	c0,0,0.6-0.4,1.2-0.8c0.3-0.2,0.6-0.4,0.9-0.5c0.3-0.1,0.4-0.2,0.4-0.2s-0.1-0.1-0.2-0.1c-0.1-0.1-0.3-0.2-0.6-0.4
	c-0.4-0.3-1.1-0.6-1.7-1c-0.6-0.4-1.3-0.7-1.7-0.9l-0.8-0.4v1.4c0,0.4,0,0.7,0,0.9c0,0.3,0,0.4,0,0.4s0.6,0.4,1.3,0.7
	c0.4,0.2,0.6,0.4,0.9,0.6S482.8,31.6,482.8,31.6 M491,38.5c0,0,0.6-0.2,1.4-0.4c0.6-0.2,1.4-0.4,1.4-0.4s-0.2-0.3-0.6-0.6
	c-0.4-0.4-0.9-0.9-1.4-1.4c-0.5-0.6-1-1-1.4-1.4c-0.2-0.2-0.4-0.4-0.5-0.4c-0.1-0.1-0.2-0.1-0.2-0.1s-0.1,0.1-0.1,0.4
	c-0.1,0.2-0.1,0.6-0.3,0.9c-0.2,0.6-0.4,1.4-0.4,1.4s0.1,0.1,0.4,0.3c0.1,0.1,0.2,0.2,0.4,0.4c0.1,0.1,0.2,0.3,0.4,0.4
	c0.3,0.3,0.5,0.5,0.7,0.8c0.1,0.1,0.2,0.2,0.2,0.2C491,38.5,491,38.5,491,38.5 M497.2,47.2c0,0,0.7-0.1,1.4-0.1c0.4,0,0.7,0,1,0
	s0.4,0,0.4,0c0-0.1-0.1-0.1-0.1-0.2c-0.1-0.1-0.2-0.4-0.3-0.6c-0.3-0.4-0.6-1.2-0.9-1.7c-0.4-0.6-0.7-1.3-1-1.7s-0.5-0.7-0.5-0.7
	s-0.4,0.6-0.7,1.2s-0.7,1.2-0.7,1.2l0.1,0.1c0.1,0.1,0.1,0.2,0.2,0.3c0.1,0.2,0.4,0.6,0.5,0.9c0.1,0.1,0.2,0.4,0.3,0.5
	c0.1,0.1,0.1,0.3,0.2,0.4C497.1,47.1,497.2,47.2,497.2,47.2 M500.8,57.3c0,0,0.2,0.1,0.4,0.1c0.2,0.1,0.6,0.1,0.9,0.2
	c0.6,0.1,1.4,0.4,1.4,0.4s-0.1-0.4-0.1-0.9c-0.1-0.5-0.3-1.2-0.5-1.9c-0.2-0.6-0.4-1.4-0.6-1.9c-0.1-0.3-0.1-0.5-0.2-0.6
	c-0.1-0.1-0.1-0.2-0.1-0.2s-0.5,0.5-1,1c-0.5,0.5-1,0.9-1,0.9s0.2,0.7,0.4,1.5C500.7,56.5,500.8,57.3,500.8,57.3 M417.7,69.3
	c0,0,0.1,0.6,0.1,1.5c0,0.3,0.1,0.6,0.1,0.9s0.1,0.6,0.1,1c0.1,0.4,0.1,0.8,0.1,1.2c0.1,0.4,0.1,0.9,0.2,1.3
	c0.1,0.2,0.1,0.5,0.1,0.7s0.1,0.5,0.1,0.7c0.1,0.5,0.2,1,0.4,1.6c0.1,0.6,0.4,1.2,0.5,1.7c0.1,0.6,0.4,1.2,0.6,1.8
	c2.2,6.1,5.7,11.5,10.3,16.1c1.4,1.4,2.7,2.6,4.3,3.7c0.7,0.6,1.6,1.2,2.4,1.7c0.4,0.3,0.9,0.5,1.3,0.8l0.6,0.4l0.6,0.4
	c3.6,2,7.5,3.6,11.5,4.5c2.1,0.5,4.2,0.8,6.3,1c2.2,0.1,4.3,0.2,6.4,0.1c4.3-0.3,8.4-1.2,12.5-2.7c3.9-1.4,7.5-3.5,10.8-6l0.6-0.4
	l0.6-0.5c0.4-0.3,0.8-0.6,1.2-0.9c0.7-0.6,1.5-1.3,2.2-2c1.4-1.3,2.6-2.7,3.7-4.3c2.2-2.7,4-5.8,5.4-8.9c1.2-2.7,2.2-5.5,2.8-8.4
	c0.1-0.6,0.3-1.3,0.4-1.9c0.1-0.6,0.2-1.2,0.3-1.7c0.1-0.5,0.1-1.1,0.2-1.7c0.1-0.3,0.1-0.5,0.1-0.8c0-0.2,0.1-0.5,0.1-0.7
	c0-0.5,0.1-0.9,0.1-1.4s0-0.8,0-1.2c0-0.4,0-0.7,0-1c0-0.3,0-0.6,0-0.9c-0.1-1-0.1-1.6-0.1-1.6l0.6-0.1c0,0,0,0.6,0.1,1.6
	c0,0.2,0,0.5,0,0.9c0,0.4,0,0.6,0,1c0,0.4,0,0.8,0,1.2s-0.1,0.9-0.1,1.4c0,0.2-0.1,0.5-0.1,0.7s-0.1,0.5-0.1,0.8
	c-0.1,0.5-0.1,1.1-0.2,1.7c-0.1,0.6-0.2,1.2-0.3,1.8c-0.1,0.6-0.3,1.2-0.4,1.9c-0.6,2.9-1.7,5.8-2.9,8.5c-1.4,3.2-3.3,6.3-5.5,9.1
	c-1.2,1.5-2.5,3-3.8,4.3c-0.7,0.7-1.4,1.4-2.2,2c-0.4,0.3-0.8,0.6-1.2,0.9l-0.6,0.5l-0.6,0.4c-3.3,2.5-7.1,4.5-11,6.1
	c-2,0.7-4.1,1.4-6.2,1.8c-2.1,0.4-4.3,0.7-6.4,0.9c-4.3,0.3-8.6-0.1-12.8-1.1c-4.1-0.9-8-2.5-11.7-4.6l-0.6-0.4l-0.6-0.4
	c-0.4-0.2-0.9-0.5-1.3-0.8c-0.8-0.6-1.7-1.2-2.4-1.7c-1.5-1.2-3-2.5-4.3-3.7c-2.5-2.5-4.7-5.3-6.6-8.3c-1.6-2.5-2.9-5.3-3.9-8.1
	c-0.2-0.6-0.4-1.2-0.6-1.8c-0.2-0.6-0.4-1.2-0.5-1.7c-0.1-0.6-0.3-1.1-0.4-1.6c-0.1-0.3-0.1-0.5-0.1-0.8c-0.1-0.2-0.1-0.5-0.1-0.7
	c-0.1-0.4-0.1-0.9-0.3-1.3c-0.1-0.4-0.1-0.9-0.1-1.2c0-0.4-0.1-0.7-0.1-1c-0.1-0.3-0.1-0.6-0.1-0.9c-0.1-1-0.1-1.6-0.1-1.6
	L417.7,69.3z M501.9,68.3c0,0,0.6,0.4,1.2,0.6s1.2,0.7,1.2,0.7s0-0.4,0.1-0.9c0-0.1,0-0.3,0-0.4s0-0.4,0-0.5c0-0.4,0-0.7,0-1.1
	c0-0.7,0-1.4-0.1-2c-0.1-0.6-0.1-0.9-0.1-0.9s-0.6,0.4-1.2,0.7s-1.2,0.6-1.2,0.6s0,0.2,0,0.5s0,0.6,0,1.1s0,0.8,0,1.1
	S501.9,68.3,501.9,68.3 M500.1,78.9c0,0,0.5,0.5,1,0.9c0.5,0.4,1,1,1,1s0.1-0.4,0.3-0.9c0.1-0.2,0.2-0.6,0.3-0.9
	c0.1-0.4,0.2-0.6,0.3-1c0.1-0.4,0.2-0.7,0.3-1c0.1-0.4,0.1-0.6,0.2-0.9c0.1-0.5,0.2-0.9,0.2-0.9s-0.7,0.2-1.4,0.4
	c-0.6,0.1-1.4,0.3-1.4,0.3s-0.1,0.2-0.1,0.5s-0.2,0.6-0.3,1c-0.1,0.4-0.2,0.7-0.3,1C500.1,78.6,500.1,78.9,500.1,78.9 M495.7,88.6
	c0,0,0.4,0.6,0.7,1.2s0.7,1.2,0.7,1.2c0.1-0.1,0.1-0.1,0.1-0.2c0.1-0.1,0.2-0.4,0.4-0.6c0.3-0.5,0.6-1.1,1-1.7
	c0.4-0.6,0.7-1.3,0.9-1.7c0.2-0.5,0.4-0.8,0.4-0.8h-1.4c-0.7,0-1.4-0.1-1.4-0.1s-0.4,0.6-0.7,1.3c-0.2,0.4-0.4,0.6-0.5,0.9
	C495.7,88.4,495.7,88.5,495.7,88.6 M488.8,96.8c0,0,0.2,0.6,0.4,1.4c0.2,0.6,0.4,1.4,0.4,1.4s0.3-0.2,0.6-0.6
	c0.4-0.4,0.9-0.9,1.4-1.4c0.5-0.5,1-1,1.4-1.4c0.2-0.2,0.4-0.4,0.4-0.5c0.1-0.1,0.1-0.1,0.1-0.2c0,0-0.1-0.1-0.4-0.1
	c-0.3-0.1-0.6-0.1-0.9-0.3c-0.6-0.2-1.4-0.4-1.4-0.4s-0.1,0.1-0.3,0.4c-0.2,0.2-0.4,0.5-0.7,0.7s-0.6,0.5-0.7,0.7
	C489,96.7,488.8,96.8,488.8,96.8 M480.2,103c0,0,0,0.7,0.1,1.4c0,0.7,0,1.4,0,1.4s0.1-0.1,0.2-0.1c0.1-0.1,0.4-0.1,0.6-0.3
	s0.5-0.3,0.8-0.4c0.3-0.1,0.6-0.3,0.9-0.5c0.6-0.4,1.2-0.7,1.7-1c0.5-0.3,0.7-0.5,0.7-0.5s-0.6-0.4-1.2-0.7
	c-0.6-0.4-1.2-0.7-1.2-0.7l-1.3,0.8c-0.3,0.2-0.6,0.4-0.9,0.5C480.3,103,480.2,103,480.2,103 M439.5,101.5c0,0-0.6,0.4-1.2,0.8
	c-0.3,0.2-0.6,0.4-0.8,0.5s-0.4,0.2-0.4,0.2c0.1,0.1,0.1,0.1,0.2,0.1c0.1,0.1,0.4,0.2,0.6,0.4c0.4,0.3,1.1,0.6,1.7,1
	c0.6,0.4,1.2,0.7,1.7,0.9c0.5,0.2,0.8,0.4,0.8,0.4s0-0.7,0-1.4c0-0.4,0-0.7,0-0.9c0-0.3,0-0.4,0-0.4s-0.6-0.4-1.3-0.7
	c-0.4-0.2-0.6-0.4-0.9-0.6C439.7,101.6,439.5,101.5,439.5,101.5 M431.4,94.6c0,0-0.6,0.2-1.4,0.4c-0.7,0.2-1.4,0.4-1.4,0.4
	s0.2,0.3,0.6,0.6c0.4,0.4,0.9,0.9,1.4,1.4c0.5,0.6,1.1,1,1.4,1.4c0.2,0.2,0.4,0.4,0.5,0.4c0.1,0.1,0.1,0.1,0.2,0.1
	c0,0,0.1-0.1,0.1-0.4s0.1-0.6,0.3-0.9c0.2-0.7,0.4-1.4,0.4-1.4s-0.1-0.1-0.4-0.3c-0.1-0.1-0.2-0.2-0.4-0.4s-0.3-0.3-0.4-0.4
	c-0.3-0.3-0.5-0.6-0.7-0.7c-0.1-0.1-0.1-0.2-0.2-0.2L431.4,94.6 M425.2,85.9l-1.4,0.1c-0.4,0-0.7,0-1,0s-0.4,0-0.4,0
	c0,0.1,0.1,0.1,0.1,0.2c0.1,0.1,0.2,0.4,0.3,0.6c0.3,0.5,0.6,1.2,0.9,1.7c0.4,0.6,0.7,1.3,1,1.7c0.3,0.5,0.5,0.8,0.5,0.8
	s0.4-0.6,0.7-1.2c0.4-0.6,0.7-1.2,0.7-1.2s0-0.1-0.1-0.1s-0.1-0.2-0.1-0.3c-0.1-0.2-0.4-0.6-0.5-0.9c-0.1-0.1-0.2-0.4-0.3-0.5
	s-0.1-0.3-0.2-0.4L425.2,85.9 M421.4,75.8c0,0-0.1-0.1-0.4-0.1c-0.3-0.1-0.6-0.1-0.9-0.2c-0.6-0.1-1.4-0.4-1.4-0.4s0.1,0.4,0.2,0.9
	c0.1,0.5,0.3,1.2,0.5,1.9c0.2,0.7,0.4,1.4,0.6,1.9c0.1,0.3,0.1,0.5,0.2,0.6c0,0.1,0.1,0.1,0.1,0.2c0,0,0.5-0.5,1-1c0.5-0.5,1-1,1-1
	s-0.2-0.7-0.4-1.5C421.6,76.6,421.5,75.8,421.4,75.8"/>
</svg>
