<svg xmlns="http://www.w3.org/2000/svg" xmlns:xlink="http://www.w3.org/1999/xlink" width="189.687" height="30.31" viewBox="0 0 189.687 30.31">
  <defs>
    <style>
      .cls-1 {
        fill-rule: evenodd;
        fill: url(#linear-gradient);
      }
    </style>
    <linearGradient id="linear-gradient" x1="207.625" y1="1167.595" x2="397.312" y2="1167.595" gradientUnits="userSpaceOnUse">
      <stop offset="0" stop-color="#53cbed"/>
      <stop offset="1" stop-color="#c14fc4"/>
    </linearGradient>
  </defs>
  <path id="當前權限階級" class="cls-1" d="M228.7,1157.51a20.391,20.391,0,0,0,2.42-3.58l-2.484-1.19a21.676,21.676,0,0,1-2.516,3.77l1.871,1h-5.452v-4.93h-2.968v4.93h-5.484l1.775-.9q-1.1-1.935-2.484-3.9l-2.42,1.19a22.054,22.054,0,0,1,2.323,3.61h-5.645V1164H210.6v-3.81h20.9V1164h2.967v-6.49H228.7Zm-15.9,11.17h16.516v-6.78H212.8v6.78Zm2.839-2.2v-2.26h10.838v2.26H215.634Zm-5.871,3.65v12.42h2.968v-1.26H229.44v1.26h2.936v-12.42H209.763Zm2.968,6.58h6.9v2.1h-6.9v-2.1Zm9.87,0h6.839v2.1H222.6v-2.1Zm-9.87-4.13h6.9v2h-6.9v-2Zm16.709,0v2H222.6v-2h6.839Zm29.226-20.13a27.367,27.367,0,0,1-2.387,4H250.44a37.862,37.862,0,0,0-1.968-3.71l-3.225.52a24.987,24.987,0,0,1,1.9,3.19h-8.387v2.97h29.064v-2.97h-8.161a22.46,22.46,0,0,0,1.968-2.97Zm-8.613,29.81q3.065,0,3.065-3.74v-17.1H240.827v21.1h3v-6.84h6.323v2.16c0,1.01-.366,1.51-1.1,1.51l-2.322-.09,0.806,3h2.516Zm-6.226-12.29h6.323v3h-6.323v-3Zm0-5.71h6.323v3h-6.323v-3Zm18.807,17.9q3.16,0,3.161-3.29v-18.13h-3.064v17.36a1.1,1.1,0,0,1-1.162,1.32c-1.269,0-2.58-.07-3.935-0.19l0.645,2.93h4.355Zm-6.549-5.23h2.968v-13.77h-2.968v13.77Zm24-6.38,1.646-2.45a59.624,59.624,0,0,0-3.807-4.78v-1.64h2.807v-2.94h-2.807v-6.06h-2.968v6.06h-3.645v2.94H274.8a30.149,30.149,0,0,1-4.323,9.96l1.259,3.17a38.116,38.116,0,0,0,3.225-7.29v14.83h2.968v-15.74Zm1.968-5.74h7.774v-5.91h-7.774v5.91Zm2.258-2.04v-1.8h3.258v1.8h-3.258Zm7.032,2.04h7.936v-5.91h-7.936v5.91Zm2.258-2.07V1161h3.42v1.74H293.6Zm-10.838,19.52h2.645v-0.87h14.871v-2.49H293.6v-1.74h5.291v-2.19H293.6v-1.65h5.1v-2.22h-5.1v-1.68h6.065v-2.45h-6.355c-0.28-.78-0.516-1.38-0.71-1.81l-3,.45a12.5,12.5,0,0,1,.775,1.36H286.6l0.484-1.23-2.806-.52a19.617,19.617,0,0,1-4.839,7.49l0.871,2.74c0.731-.67,1.549-1.49,2.452-2.48v9.29Zm2.645-5.1h5.484v1.74h-5.484v-1.74Zm0-2.19v-1.65h5.484v1.65h-5.484Zm0-3.87v-1.68h5.484v1.68h-5.484Zm-4.355-14.36h4.29v1.52h2.646v-1.52h4.9v1.52h2.613v-1.52h4.548v-2.48h-4.548v-1.62h-2.613v1.62h-4.9v-1.65h-2.646v1.65h-4.29v2.48Zm23.032,25.74h3v-25.84h4.42a80.747,80.747,0,0,1-3.42,8.75q3.291,4.065,3.291,7.32a1.387,1.387,0,0,1-.452,1.16,4.673,4.673,0,0,1-1.806.39,13.064,13.064,0,0,1-1.646-.16l1,3.09q3.549-.03,5-1.26a4.431,4.431,0,0,0,.968-3.22c-0.129-2.19-1.215-4.79-3.258-7.78q1.968-4.665,3.387-8.74v-2.42H304.085v28.71Zm23.129-20.06v2.93h-8.548v-2.93h8.548Zm-8.548-2.78v-3h8.548v3h-8.548Zm3.032,8.52a20.5,20.5,0,0,0,9.516,14.07l1.71-2.71a17.759,17.759,0,0,1-5.387-4.62,15.293,15.293,0,0,0,4.613-3.77l-1.968-1.97a15.9,15.9,0,0,1-4.064,3.58,15.451,15.451,0,0,1-1.678-4.58h5.774v-14.42H315.666v24.65a0.982,0.982,0,0,1-.806.9l0.741,2.68a74.985,74.985,0,0,0,8.9-2.87l-0.71-2.84a37.65,37.65,0,0,1-5.129,1.93v-10.03H321.7Zm14.613,14.32h3v-25.8h4.226a80.1,80.1,0,0,1-3.323,8.74q3.194,4,3.194,7.29a1.444,1.444,0,0,1-.419,1.16,3.058,3.058,0,0,1-1.678.42,11.392,11.392,0,0,1-1.645-.16l1,3.1q3.451-.075,4.774-1.3a4.436,4.436,0,0,0,.968-3.22,17.328,17.328,0,0,0-3.194-7.74q1.839-4.365,3.323-8.78v-2.42H336.311v28.71Zm18.42-23.8v-2.62h-4.323v-3.29h-2.839v9.58a1.3,1.3,0,0,1-1.064,1.26l0.838,2.65a52.118,52.118,0,0,0,7.646-2.33l-0.42-2.42a36.537,36.537,0,0,1-4.161,1.36v-4.19h4.323Zm1.387,9.09a16.063,16.063,0,0,0,.645-2.16l-3-.35a17.627,17.627,0,0,1-.581,2.51h-4.645v14.68h2.774v-1.32h9.226v1.32h2.774v-14.68h-7.193Zm-4.807,7.94h9.226v2.81h-9.226v-2.81Zm0-5.36h9.226v2.81h-9.226v-2.81Zm7.549-11.22a37.22,37.22,0,0,0,6.129-2.65l-1.613-2.22a25.558,25.558,0,0,1-4.516,2.13v-3.62h-2.775v10.1q0,3.03,2.9,3.03h2.838a3.26,3.26,0,0,0,2.194-.64c0.494-.52.849-1.97,1.064-4.36l-2.613-.84a7.7,7.7,0,0,1-.419,2.78,0.784,0.784,0,0,1-.742.38h-1.419a0.881,0.881,0,0,1-1.032-.96v-3.13Zm10.064,14.97a25.752,25.752,0,0,1-1.258,6.87l2.613,0.8a32.608,32.608,0,0,0,1.161-7.35Zm3.548,0c0.344,2.1.624,4.32,0.839,6.64l2.613-.61q-0.452-3.255-1.129-6.49Zm3.388-8.07a24.9,24.9,0,0,1,.871,2.68c-1.506.39-3.022,0.71-4.549,0.97a78.144,78.144,0,0,0,7.613-10.97l-2.677-.97c-0.775,1.36-1.517,2.61-2.226,3.77-1.226.22-2.473,0.41-3.742,0.59a46.014,46.014,0,0,0,4.581-8.13l-2.871-1.1a51.894,51.894,0,0,1-4,8.42,2.681,2.681,0,0,1-1.226,1.06l0.742,2.62,2.419-.39q1.452-.195,2.355-0.36a28.554,28.554,0,0,1-4.032,5.1,4.205,4.205,0,0,1-1.258.81l0.741,2.61a50.847,50.847,0,0,0,8.742-1.81l0.323,1.36,2.484-.61a56.537,56.537,0,0,0-1.936-6.42Zm0.129,7.49a40.1,40.1,0,0,1,1.483,4.48l2.1-.94a22.134,22.134,0,0,1-1.58,3.17l2.161,1.9q3.194-4.845,4.258-13.52a27.67,27.67,0,0,0,3.71,6.91,23.571,23.571,0,0,1-6.1,4.64l1.58,2.58a20.76,20.76,0,0,0,6.452-4.87,28.793,28.793,0,0,0,5.387,4.48l1.871-2.45a29.15,29.15,0,0,1-5.484-4.38,26.755,26.755,0,0,0,4.033-11.23v-1.61h-3.613q0.708-2.715,1.58-7.07v-1.87H379.569v2.81h2.516v3.16q-0.1,10.83-2.451,17.13a40.037,40.037,0,0,0-1.484-4.07Zm13.871-.26a26.466,26.466,0,0,1-4.968-11.45l0.032-5.26h5.807a81.274,81.274,0,0,1-2,8.71h4.354a22,22,0,0,1-3.225,8h0Z" transform="translate(-207.625 -1152.44)"/>
</svg>
