<?xml version="1.0" encoding="utf-8"?>
<!-- Generator: Adobe Illustrator 22.1.0, SVG Export Plug-In . SVG Version: 6.00 Build 0)  -->
<svg version="1.1" id="科技-线框" xmlns="http://www.w3.org/2000/svg" xmlns:xlink="http://www.w3.org/1999/xlink" x="0px"
	 y="0px" viewBox="0 0 1795.1 749.1" style="enable-background:new 0 0 1795.1 749.1;" xml:space="preserve">
<style type="text/css">
	.st0{fill:#FFFFFF;}
	.st1{fill:#F7DF18;}
</style>
<polygon class="st0" points="1785.3,18.6 1795.1,374.5 1793.7,606.2 1650.8,749.1 9.8,739.2 0,141.3 142.5,12.8 1785.3,10.5 "/>
<path class="st1" d="M1795.1,386.8v38.4V385V0L140.4,3l-2,0L0,141.3v607.7h1650.8l142.8-142.8l1.4-1.4V436.9V386.8z M1646.8,739.2
	H362.5c-9.1-7.9-36.5-31.8-37.4-31.8H98.3l-48.6-48.6V450.1L9.8,410.3V145.4L142.5,12.8l1294.7-2.3c11.1,9.7,33.1,28.8,33.9,28.8
	h226.8l48.6,48.6v208.7l38.8,38.8V385v40.3v-17.8v-7v200.3L1646.8,739.2z"/>
</svg>
