<?xml version="1.0" encoding="utf-8"?>
<!-- Generator: Adobe Illustrator 22.1.0, SVG Export Plug-In . SVG Version: 6.00 Build 0)  -->
<svg version="1.1" id="组_48" xmlns="http://www.w3.org/2000/svg" xmlns:xlink="http://www.w3.org/1999/xlink" x="0px" y="0px"
	 viewBox="0 0 534.4 134" style="enable-background:new 0 0 534.4 134;" xml:space="preserve">
<style type="text/css">
	.st0{fill:url(#矩形_27_拷贝_1_);}
	.st1{fill:#FFFFFF;}
	.st2{font-family:'PingFang-SC-Bold';}
	.st3{font-size:51.6538px;}
	.st4{font-size:25.5502px;}
	.st5{fill:url(#椭圆_3_拷贝_12_1_);}
	.st6{fill:url(#形状_2_拷贝_11_1_);}
</style>
<linearGradient id="矩形_27_拷贝_1_" gradientUnits="userSpaceOnUse" x1="856.01" y1="-1110.1002" x2="1241" y2="-1110.1002" gradientTransform="matrix(1 0 0 -1 -856 -1043.1102)">
	<stop  offset="0" style="stop-color:#53CBED"/>
	<stop  offset="1" style="stop-color:#C14FC4"/>
</linearGradient>
<path id="矩形_27_拷贝" class="st0" d="M385,24H0v86h385c0,0-9.4-21.2-9.4-43C375.6,45.8,385,24,385,24z"/>
<text transform="matrix(0.9618 0 0 1 55.3857 85.8707)" class="st1 st2 st3">黄金会员</text>
<text transform="matrix(0.9618 0 0 1 254.1177 85.8707)" class="st1 st2 st4">(种子轮)</text>
<linearGradient id="椭圆_3_拷贝_12_1_" gradientUnits="userSpaceOnUse" x1="1582.4102" y1="-794.9655" x2="1716.1918" y2="-794.9655" gradientTransform="matrix(1 0 0 -1 -1182 -727.9655)">
	<stop  offset="0" style="stop-color:#53CBED"/>
	<stop  offset="1" style="stop-color:#C14FC4"/>
</linearGradient>
<path id="椭圆_3_拷贝_12" class="st5" d="M467.3,0c37-0.1,67,29.9,67.1,66.9s-29.9,67-66.9,67.1c-37,0.1-67-29.9-67.1-66.9
	c0-0.1,0-0.1,0-0.1C400.4,30,430.3,0.1,467.3,0z"/>
<linearGradient id="形状_2_拷贝_11_1_" gradientUnits="userSpaceOnUse" x1="1709.2518" y1="-855.0619" x2="1589.4229" y2="-735.2328" gradientTransform="matrix(1 0 0 -1 -1182 -727.9655)">
	<stop  offset="0" style="stop-color:#E8C10E"/>
	<stop  offset="0.427" style="stop-color:#FFFD45"/>
	<stop  offset="0.506" style="stop-color:#EBC823"/>
	<stop  offset="0.573" style="stop-color:#FDFF27"/>
	<stop  offset="1" style="stop-color:#F3CB0F"/>
</linearGradient>
<path id="形状_2_拷贝_11" class="st6" d="M500.2,33.4c0,0-0.9-0.8-2.5-2.3c-0.9-0.9-2-1.7-3.1-2.5c-1.4-1.1-2.9-2.1-4.5-3
	c-9.7-5.7-21-7.6-32-5.3c-7.3,1.5-14.1,4.8-19.8,9.5c-6.5,5.4-11.5,12.3-14.5,20.1c-3.2,8.5-3.9,17.7-2.2,26.6
	c0.9,4.5,2.5,8.9,4.6,13.1c2.2,4.1,4.9,7.9,8.1,11.3c3.3,3.3,7,6,11,8.3c4,2.2,8.3,3.7,12.7,4.7c8.7,1.7,17.7,1,26-2.3
	c7.8-3.1,14.5-8.2,19.6-14.8c4.6-6,7.8-12.9,9.2-20.4c2.2-11.2,0.4-22.8-5.2-32.9c-0.9-1.6-1.8-3.1-2.9-4.6
	c-0.7-1.1-1.5-2.2-2.5-3.1C501,34.2,500.2,33.4,500.2,33.4l2.4-2.5c0,0,0.8,0.9,2.3,2.7c0.9,1.1,1.8,2.2,2.6,3.4
	c1.2,1.5,2.2,3.2,3.1,4.9c10.1,18.2,8.4,40.6-4.4,57.1c-8.4,11-20.9,17.9-34.7,19.1c-4.8,0.4-9.6,0.1-14.3-0.8
	c-4.8-1-9.4-2.8-13.7-5c-4.3-2.5-8.3-5.5-11.8-8.9c-7-7.2-11.7-16.2-13.7-26.1c-0.9-4.8-1.2-9.7-0.8-14.6c0.4-4.8,1.5-9.5,3.1-14
	c3.2-8.4,8.5-15.9,15.5-21.7c6.2-5,13.5-8.5,21.4-10.2c11.8-2.4,24-0.4,34.3,5.7c1.7,0.9,3.3,2,4.8,3.2c1.2,0.8,2.3,1.7,3.3,2.7
	c1.7,1.6,2.6,2.4,2.6,2.4L500.2,33.4z M505.9,110.9c-1.5,1.3-2.9,2.6-4.5,3.8l-1.7-2.3c1.5-1.1,2.9-2.3,4.3-3.6L505.9,110.9z
	 M510.1,106.7l-2.1-2c1.2-1.4,2.4-2.9,3.5-4.4l2.3,1.7C512.6,103.6,511.4,105.2,510.1,106.7z M496.6,118c-1.7,1-3.4,2-5.2,2.8
	l-1.2-2.6c1.7-0.8,3.3-1.7,4.9-2.7L496.6,118z M517,97.1l-2.5-1.5c0.9-1.6,1.8-3.3,2.5-5l2.5,1.2C518.9,93.6,517.9,95.3,517,97.1
	L517,97.1z M486.1,123c-1.8,0.7-3.7,1.2-5.6,1.7l-0.7-2.8c1.8-0.4,3.6-0.9,5.3-1.6L486.1,123z M521.8,86.2l-2.7-0.9
	c0.6-1.8,1.1-3.6,1.5-5.5l2.8,0.7C522.9,82.4,522.4,84.3,521.8,86.2L521.8,86.2z M474.7,125.7c-1.9,0.2-3.9,0.4-5.8,0.4l-0.1-2.9
	c1.8-0.1,3.7-0.2,5.5-0.4L474.7,125.7z M524.4,74.6l-2.8-0.4c0.2-1.9,0.4-3.8,0.4-5.7l2.8,0.1C524.8,70.6,524.7,72.6,524.4,74.6
	L524.4,74.6z M463.1,126c-2-0.1-3.9-0.4-5.7-0.7l0.5-2.8c1.8,0.4,3.6,0.6,5.5,0.7L463.1,126z M524.7,62.7l-2.8,0.2
	c-0.1-1.9-0.4-3.8-0.7-5.7l2.8-0.5C524.3,58.7,524.5,60.6,524.7,62.7L524.7,62.7z M451.6,124c-1.9-0.5-3.7-1.2-5.5-1.9l1-2.7
	c1.7,0.7,3.5,1.3,5.2,1.8L451.6,124z M522.6,51l-2.8,0.8c-0.5-1.8-1.1-3.6-1.8-5.4l2.7-1.1C521.5,47.1,522.1,49,522.6,51L522.6,51z
	 M440.8,119.5c-1.7-0.9-3.4-2-5-3.1l1.5-2.4c1.5,1,3.1,2,4.8,2.9L440.8,119.5z M518.3,39.8l-2.5,1.4c-0.9-1.7-1.8-3.3-2.8-4.9
	l2.4-1.6C516.5,36.4,517.4,38.1,518.3,39.8L518.3,39.8z M431.1,113c-1.5-1.2-3-2.6-4.4-4l2-2c1.3,1.3,2.7,2.6,4.1,3.8L431.1,113z
	 M511.9,29.9l-2.2,1.8c-1.2-1.5-2.4-2.8-3.7-4.2l1.8-2.3l0.1,0.1C509.4,26.8,510.7,28.4,511.9,29.9L511.9,29.9z M425.1,102.7
	l-2.2,1.9c-1.2-1.5-2.4-3.1-3.5-4.8l2.4-1.6C422.7,99.7,423.9,101.3,425.1,102.7L425.1,102.7z M501.8,23.6c-1.5-1.2-3-2.3-4.5-3.3
	l1.6-2.4c1.6,1.1,3.2,2.3,4.7,3.5L501.8,23.6z M418.9,93.3l-2.5,1.4c-0.9-1.7-1.7-3.6-2.5-5.5l2.6-1.1
	C417.3,89.9,418.1,91.5,418.9,93.3L418.9,93.3z M492.5,17.3c-1.7-0.9-3.3-1.7-5-2.3l1-2.7c1.8,0.7,3.6,1.6,5.3,2.5L492.5,17.3z
	 M414.8,82.7l-2.8,0.8c-0.5-1.9-0.9-3.9-1.3-5.8l2.8-0.5C413.9,79,414.3,80.9,414.8,82.7L414.8,82.7z M482.2,13.2
	c-1.7-0.5-3.6-0.9-5.4-1.2l0.5-2.9c1.9,0.4,3.8,0.8,5.7,1.3L482.2,13.2z M412.8,71.5l-2.8,0.2c-0.1-2-0.2-4-0.1-6l2.8,0.1
	C412.6,67.8,412.7,69.7,412.8,71.5L412.8,71.5z M471.3,11.2c-1.8-0.1-3.7-0.2-5.5-0.1l-0.1-2.9c2-0.1,3.9,0,5.8,0.1L471.3,11.2z
	 M413.1,60.2l-2.8-0.4c0.2-2,0.6-4,1-5.9l2.8,0.7C413.6,56.4,413.3,58.3,413.1,60.2L413.1,60.2z M460.2,11.6c-1.8,0.2-3.6,0.6-5.5,1
	l-0.7-2.8c1.9-0.4,3.8-0.8,5.7-1.1L460.2,11.6z M415.5,49.2l-2.7-0.9c0.7-1.9,1.3-3.7,2.1-5.5l2.6,1.2
	C416.8,45.6,416.1,47.3,415.5,49.2L415.5,49.2z M449.5,14.1c-1.7,0.7-3.5,1.3-5.2,2.1l-1.2-2.6c1.7-0.8,3.6-1.6,5.4-2.3L449.5,14.1z
	 M420.1,38.8l-2.4-1.5c0.9-1.7,2-3.4,3.2-5l2.3,1.7C422.1,35.6,421.1,37.2,420.1,38.8L420.1,38.8z M439.5,18.9
	c-1.6,0.9-3.1,2-4.6,3.1l-1.7-2.3c1.6-1.2,3.2-2.3,4.9-3.3L439.5,18.9z M426.7,29.7l-2.1-2c1.3-1.5,2.7-2.9,4.1-4.2l1.9,2.2
	C429.2,26.9,427.9,28.3,426.7,29.7L426.7,29.7z M504.5,105.3c-19.8,20.5-52.6,21.1-73.1,1.2c-0.4-0.4-0.8-0.8-1.2-1.2
	c-20.5-21-20.5-55.2,0-76.2c19.8-20.5,52.6-21.1,73.1-1.2c0.4,0.4,0.8,0.8,1.2,1.2C525,50.1,525,84.3,504.5,105.3L504.5,105.3z
	 M430.6,29.4c-20.3,20.8-20.3,54.6,0,75.4c19.6,20.3,52.1,20.9,72.3,1.2c0.4-0.4,0.8-0.8,1.2-1.2c20.3-20.8,20.3-54.6,0-75.4
	c-19.6-20.3-52-20.9-72.3-1.2C431.4,28.6,430.9,29.1,430.6,29.4L430.6,29.4z M509.8,110.7c-22.6,23.4-60,24.1-83.4,1.5
	c-0.5-0.4-0.9-0.9-1.4-1.4c-23.4-24-23.4-63,0-87c22.6-23.4,60-24.1,83.4-1.5c0.5,0.4,0.9,0.9,1.5,1.5
	C533.1,47.6,533.1,86.7,509.8,110.7L509.8,110.7z M425.3,24.1c-23.1,23.8-23.1,62.4,0,86.2c22.4,23.2,59.4,23.8,82.6,1.4
	c0.4-0.4,0.9-0.9,1.4-1.4c23.2-23.8,23.2-62.4,0-86.2c-22.4-23.2-59.4-23.8-82.6-1.4C426.3,23.1,425.8,23.6,425.3,24.1L425.3,24.1z
	 M467.4,64.9v-1c0.1-0.4,0.1-0.7,0-1.1V51.2v-0.1c-0.6-0.7-1.7-2.6-1.9-2.8c-1.5-0.3-9.5,3-10.1,3.4c-0.2,0.1-1.7,0.8-2.3,1.7
	c-0.7,1.2-1.4,8.3-1.7,9.2c-0.1-0.2,0.2-5.5-0.4-9.5c-0.3-1.5-1-2.9-2-4.1c-1.3-1.9-3.1-3.7-2.9-3.8c1.5,0.9,2.8,2,3.9,3.3
	c0.9,1.1,1.6,2.3,2,3.6c3.1-1.5,12.3-4.9,12.3-4.9s-13-0.9-13.5-1.2c-2.4-1.8-5.2-3.1-8-4c-3.9-1.2-8.9-1.6-10.5-4.1
	c2.5,7.7,1.5,11.1,4.8,17.3c3.5,6.5,9,8.4,9,8.4c-0.1-4-0.7-8-1.7-11.9c-1-3.9-3.1-7.4-2.8-7.3c1.8,1.2,3.3,3.1,4.1,5.1
	c1.4,3.8,1.5,9.1,2.1,12.1c0.4,2.1,0.9,4.1,1.7,6.1c0.1,0.3,0.3,0.6,0.4,0.9c0.7,1.3,1.5,2.5,2.3,3.8c1.7,2.5,3.6,4.9,5.7,7.2
	c3.5,3.6,7.8,6.9,8.5,7.7c0.2,0.1,0.5,0.2,0.7,0.2h0.1v-6c0.2-0.1,3.9,0,5.3-1.6c0.2-0.2,0.4-0.5,0.6-0.7
	C477.3,74.2,480.2,64.7,467.4,64.9 M442.8,56c0.1,1,0.4,2,0.7,3.1c-2.3-2.3-4.4-4.9-6-7.8c-1.1-2.1-0.7-5.1-1.4-6.1
	c0,0,3,0.7,4.8,4.5C441.9,51.7,442.5,53.8,442.8,56 M465.4,78.8c0.1,0.2,0.2,0.4,0.4,0.5c0.1,0.1,0.4,0.2,0.6,0.3
	c0.2,0.1,0.4,0.1,0.7,0.1h2.3v-0.9h-3.1l1.1-1.4h3.9v2.4c0,0.8-0.6,1.5-1.4,1.5l0,0H467c-0.5,0-1-0.1-1.5-0.2
	c-0.4-0.1-0.8-0.4-1.2-0.7c-0.3-0.3-0.6-0.6-0.7-1c-0.2-0.4-0.3-0.8-0.3-1.2s0.1-0.9,0.3-1.2c0.2-0.4,0.4-0.7,0.7-0.9
	c0.4-0.3,0.7-0.5,1.2-0.6c0.4-0.1,0.9-0.2,1.5-0.2h4.3l-1.2,1.6h-3.1c-0.2,0-0.5,0.1-0.7,0.1c-0.2,0.1-0.4,0.1-0.6,0.3
	c-0.1,0.1-0.3,0.3-0.4,0.5c-0.1,0.2-0.1,0.4-0.1,0.6C465.3,78.5,465.3,78.6,465.4,78.8 M491.9,42.1c-2.9,0.9-5.6,2.3-8,4
	c-0.4,0.4-13.5,1.2-13.5,1.2s9.2,3.3,12.3,4.9c0.4-1.3,1.2-2.5,2-3.6c1.2-1.3,2.5-2.4,3.9-3.3c0.1,0.1-1.6,1.9-2.9,3.8
	c-0.9,1.2-1.6,2.6-2,4.1c-0.7,4-0.4,9.3-0.4,9.5c-0.2-0.9-0.9-8.1-1.7-9.2c-0.6-0.9-2-1.6-2.3-1.7c-0.6-0.4-8.6-3.7-10.1-3.4
	c-0.2,0.2-1.3,2.2-1.9,2.8l-0.1,0.1v13.7c-12.5-0.1-9.9,8.9-6.1,14.1c0.3,0.4,0.5,0.7,0.8,1c1.4,1.6,5.1,1.5,5.3,1.6v6h0.1
	c0.3,0,0.5-0.1,0.7-0.2c0.7-0.7,5-4.1,8.5-7.7c2.1-2.3,4.1-4.7,5.7-7.2c0.8-1.2,1.6-2.5,2.3-3.8c0.1-0.3,0.3-0.6,0.4-0.9
	c0.7-2,1.2-4,1.7-6.1c0.6-3,0.7-8.3,2.1-12.1c0.9-2,2.3-3.9,4.1-5.1c0.2-0.1-1.8,3.4-2.8,7.3c-0.9,3.9-1.5,7.9-1.7,11.9
	c0,0,5.5-1.8,9-8.4c3.3-6.2,2.3-9.6,4.8-17.3C500.8,40.5,495.8,40.9,491.9,42.1 M467,81.3c-0.5,0-1-0.1-1.5-0.2
	c-0.4-0.1-0.8-0.4-1.2-0.7c-0.3-0.3-0.6-0.6-0.7-1c-0.2-0.4-0.3-0.8-0.3-1.2s0.1-0.9,0.3-1.2c0.2-0.4,0.4-0.7,0.7-0.9
	c0.4-0.3,0.7-0.5,1.2-0.6c0.4-0.1,0.9-0.2,1.5-0.2h4.3l-1.2,1.6h-3.1c-0.2,0-0.5,0.1-0.7,0.1c-0.2,0.1-0.4,0.1-0.6,0.3
	c-0.1,0.1-0.3,0.3-0.4,0.5c-0.1,0.2-0.1,0.4-0.1,0.6s0.1,0.4,0.1,0.6c0.1,0.2,0.2,0.4,0.4,0.5c0.1,0.1,0.4,0.2,0.6,0.3
	c0.2,0.1,0.4,0.1,0.7,0.1h2.3V79h-3.1l1.1-1.4h3.9V80c0,0.8-0.6,1.5-1.4,1.5l0,0L467,81.3 M497.3,51.3c-1.6,2.9-3.6,5.5-6,7.8
	c0.3-1,0.5-2,0.7-3.1c0.3-2.2,0.9-4.3,1.8-6.3c1.8-3.9,4.8-4.5,4.8-4.5C497.9,46.1,498.3,49.1,497.3,51.3 M445.3,71.3l4.9,4l1,8.7
	l2.9,5.7l2.1,2.3l4.7,16.4l-9.7-10.5l-2.3-9.6l-8.9-6.5v-5v-4.1L445.3,71.3z M482.1,81.9v1.7l-2.4,4.9c0,0-3.2,4.9-4.6,6.8
	s-7.7,7.4-7.7,7.4s-4.7-4.5-7.7-7.9c-1.7-2-3.3-4.1-4.7-6.3l-2.4-4.9v-1.7l1.7,0.8l1.4,1.6c0,0,10.3,4.5,11.7,5.2
	c1.4-0.7,11.7-5.2,11.7-5.2l1.4-1.6L482.1,81.9z M441.6,84.6c1.2,0.8,6.8,4.7,6.8,4.7l0.9,4l-7.3-6.3
	C442.1,86.9,441.6,84.9,441.6,84.6L441.6,84.6z M498.3,63l2.1-9.2l-0.4-0.9l-4.1,7.6l-7.6,5.1c0,0-2.5,5.7-3.6,8.7
	C486.1,72.9,498.3,63,498.3,63L498.3,63z M436.5,63l-2.1-9.2l0.4-0.9c0,0,2.3,5.5,4.4,7.5s7.4,5.2,7.4,5.2s2.5,5.7,3.6,8.7
	C448.8,72.9,436.5,63,436.5,63L436.5,63z M489.5,71.3l-4.9,4l-1,8.7l-2.9,5.7l-2.4,2.8l-4.4,16l9.7-10.5l2.3-9.6l8.9-6.5v-5v-4.1
	L489.5,71.3z M493.3,84.6c-1.2,0.8-6.8,4.7-6.8,4.7l-1,3.9l7.3-6.3C492.8,86.9,493.3,84.9,493.3,84.6L493.3,84.6z M481.6,76.5
	l-0.9,3.8l-2.3,2.3l-4.9,2.2L481.6,76.5z M453.3,76.5l0.9,3.8l2.3,2.3l4.9,2.2L453.3,76.5z M461.3,79c0.1,0.5,0.2,0.9,0.4,1.4
	c0.1,0.1,0.1,0.1,0.1,0.3l-0.4,0.4h0.7c0.3,0.4,0.6,0.7,0.9,1c0.5,0.5,1.2,0.9,1.9,1.1s1.5,0.4,2.2,0.4h0.4v-2
	c-0.2-0.1-3.9,0-5.3-1.6C461.8,79.7,461.5,79.4,461.3,79 M463.4,78.2L463.4,78.2c0-0.4,0.1-0.9,0.3-1.2c0.2-0.4,0.4-0.7,0.7-0.9
	c0.4-0.3,0.7-0.5,1.2-0.6c0.4-0.1,0.9-0.2,1.5-0.2h4.3l-1.2,1.6h-3.1c-0.2,0-0.5,0.1-0.7,0.1c-0.2,0.1-0.4,0.1-0.6,0.3
	c-0.1,0.1-0.3,0.3-0.4,0.5c-0.1,0.2-0.1,0.4-0.1,0.6s0.1,0.4,0.1,0.6c0.1,0.2,0.2,0.4,0.4,0.5c0.1,0.1,0.4,0.2,0.6,0.3
	c0.2,0.1,0.4,0.1,0.7,0.1h2.3V79h-3.1l1.1-1.4h3.9V80l0,0c0,0.8-0.6,1.5-1.4,1.5l0,0h-2.8c-0.5,0-1-0.1-1.5-0.2
	c-0.4-0.1-0.8-0.4-1.2-0.7c-0.3-0.3-0.6-0.6-0.7-1C463.5,79,463.4,78.6,463.4,78.2L463.4,78.2 M475.9,72.9H467
	c-0.7,0-1.5,0.1-2.1,0.3c-0.7,0.2-1.3,0.6-1.9,1c-1.2,0.9-1.9,2.5-1.8,4c0,0.3,0,0.6,0.1,0.9l0,0c0.3,0.4,0.5,0.7,0.8,1
	c1.4,1.6,5.1,1.5,5.3,1.6v2h2.4c2,0,3.6-1.7,3.6-3.7l0,0v-3.7L475.9,72.9 M459.4,97.2l7.7,7.6v4.1h-3.9L459.4,97.2z M475.7,97.2
	l-7.7,7.6v4.1h3.9L475.7,97.2z M467.4,64.9v-1c0.1-0.4,0.1-0.7,0-1.1V51.2v-0.1c-0.6-0.7-1.7-2.6-1.9-2.8c-1.5-0.3-9.5,3-10.1,3.4
	c-0.2,0.1-1.7,0.8-2.3,1.7c-0.7,1.2-1.4,8.3-1.7,9.2c-0.1-0.2,0.2-5.5-0.4-9.5c-0.3-1.5-1-2.9-2-4.1c-1.3-1.9-3.1-3.7-2.9-3.8
	c1.5,0.9,2.8,2,3.9,3.3c0.9,1.1,1.6,2.3,2,3.6c3.1-1.5,12.3-4.9,12.3-4.9s-13-0.9-13.5-1.2c-2.4-1.8-5.2-3.1-8-4
	c-3.9-1.2-8.9-1.6-10.5-4.1c2.5,7.7,1.5,11.1,4.8,17.3c3.5,6.5,9,8.4,9,8.4c-0.1-4-0.7-8-1.7-11.9c-1-3.9-3.1-7.4-2.8-7.3
	c1.8,1.2,3.3,3.1,4.1,5.1c1.4,3.8,1.5,9.1,2.1,12.1c0.4,2.1,0.9,4.1,1.7,6.1c0.1,0.3,0.3,0.6,0.4,0.9c0.7,1.3,1.5,2.5,2.3,3.8
	c1.7,2.5,3.7,4.9,5.8,7.2c3.5,3.6,7.8,6.9,8.5,7.7c0.2,0.1,0.5,0.2,0.7,0.2h0.1v-6c0.2-0.1,3.9,0,5.3-1.6c0.2-0.2,0.4-0.5,0.6-0.7
	C477.3,74.2,480.2,64.7,467.4,64.9L467.4,64.9z M442.8,56c0.1,1,0.4,2,0.7,3.1c-2.3-2.3-4.4-4.9-6-7.8c-1.1-2.1-0.7-5.1-1.4-6.1
	c0,0,3,0.7,4.8,4.5C441.9,51.7,442.5,53.8,442.8,56L442.8,56z M465.4,78.8c0.1,0.2,0.2,0.4,0.4,0.5c0.1,0.1,0.4,0.2,0.6,0.3
	c0.2,0.1,0.4,0.1,0.7,0.1h2.3v-0.9h-3.1l1.1-1.4h3.9v2.4c0,0.8-0.6,1.5-1.4,1.5l0,0H467c-0.5,0-1-0.1-1.5-0.2
	c-0.4-0.1-0.8-0.4-1.2-0.7c-0.3-0.3-0.6-0.6-0.7-1c-0.2-0.4-0.3-0.8-0.3-1.2s0.1-0.9,0.3-1.2c0.2-0.4,0.4-0.7,0.7-0.9
	c0.4-0.3,0.7-0.5,1.2-0.6c0.4-0.1,0.9-0.2,1.5-0.2h4.3l-1.2,1.6h-3.1c-0.2,0-0.5,0.1-0.7,0.1c-0.2,0.1-0.4,0.1-0.6,0.3
	c-0.1,0.1-0.3,0.3-0.4,0.5c-0.1,0.2-0.1,0.4-0.1,0.6C465.3,78.5,465.3,78.6,465.4,78.8L465.4,78.8z M491.9,42.1
	c-2.9,0.9-5.6,2.3-8,4c-0.4,0.4-13.5,1.2-13.5,1.2s9.2,3.3,12.3,4.9c0.4-1.3,1.2-2.5,2-3.6c1.2-1.3,2.5-2.4,3.9-3.3
	c0.1,0.1-1.6,1.9-2.9,3.8c-0.9,1.2-1.6,2.6-2,4.1c-0.7,4-0.4,9.3-0.4,9.5c-0.2-0.9-0.9-8.1-1.7-9.2c-0.6-0.9-2-1.6-2.3-1.7
	c-0.6-0.4-8.6-3.7-10.1-3.4c-0.2,0.2-1.3,2.2-1.9,2.8l-0.1,0.1v13.7c-12.5-0.1-9.9,8.9-6.1,14.1c0.3,0.4,0.5,0.7,0.8,1
	c1.4,1.6,5.1,1.5,5.3,1.6v6h0.1c0.3,0,0.5-0.1,0.7-0.2c0.7-0.7,5-4.1,8.5-7.7c2.1-2.3,4.1-4.7,5.7-7.2c0.8-1.2,1.6-2.5,2.3-3.8
	c0.1-0.3,0.3-0.6,0.4-0.9c0.7-2,1.2-4,1.7-6.1c0.6-3,0.7-8.3,2.1-12.1c0.9-2,2.3-3.9,4.1-5.1c0.2-0.1-1.8,3.4-2.8,7.3
	c-0.9,3.9-1.5,7.9-1.7,11.9c0,0,5.5-1.8,9-8.4c3.3-6.2,2.3-9.6,4.8-17.3C500.8,40.5,495.9,40.9,491.9,42.1L491.9,42.1z M467,81.3
	c-0.5,0-1-0.1-1.5-0.2c-0.4-0.1-0.8-0.4-1.2-0.7c-0.3-0.3-0.6-0.6-0.7-1c-0.2-0.4-0.3-0.8-0.3-1.2s0.1-0.9,0.3-1.2
	c0.2-0.4,0.4-0.7,0.7-0.9c0.4-0.3,0.7-0.5,1.2-0.6c0.4-0.1,0.9-0.2,1.5-0.2h4.3l-1.2,1.6h-3.1c-0.2,0-0.5,0.1-0.7,0.1
	c-0.2,0.1-0.4,0.1-0.6,0.3c-0.1,0.1-0.3,0.3-0.4,0.5c-0.1,0.2-0.1,0.4-0.1,0.6s0.1,0.4,0.1,0.6c0.1,0.2,0.2,0.4,0.4,0.5
	c0.1,0.1,0.4,0.2,0.6,0.3c0.2,0.1,0.4,0.1,0.7,0.1h2.3V79h-3.1l1.1-1.4h3.9V80c0,0.8-0.6,1.5-1.4,1.5l0,0L467,81.3L467,81.3z
	 M497.3,51.3c-1.6,2.9-3.6,5.5-6,7.8c0.3-1,0.5-2,0.7-3.1c0.3-2.2,0.9-4.3,1.8-6.3c1.8-3.9,4.8-4.5,4.8-4.5
	C497.9,46.1,498.3,49.1,497.3,51.3L497.3,51.3z M445.3,71.3l4.9,4l1,8.7l2.9,5.7l2.1,2.3l4.7,16.4l-9.7-10.5l-2.3-9.6l-8.9-6.5v-5
	v-4.1L445.3,71.3z M482.1,81.9v1.7l-2.4,4.9c0,0-3.2,4.9-4.6,6.8s-7.7,7.4-7.7,7.4s-4.7-4.5-7.7-7.9c-1.7-2-3.3-4.1-4.7-6.3
	l-2.4-4.9v-1.7l1.7,0.8l1.4,1.6c0,0,10.3,4.5,11.7,5.2c1.4-0.7,11.7-5.2,11.7-5.2l1.4-1.6L482.1,81.9z M441.6,84.6
	c1.2,0.8,6.8,4.7,6.8,4.7l0.9,4l-7.3-6.3C442.1,86.9,441.6,84.9,441.6,84.6L441.6,84.6z M498.3,63l2.1-9.2l-0.4-0.9l-4.1,7.6
	l-7.6,5.1c0,0-2.5,5.7-3.6,8.7C486.1,72.9,498.3,63,498.3,63L498.3,63z M436.5,63l-2.1-9.2l0.4-0.9c0,0,2.3,5.5,4.4,7.5
	s7.4,5.2,7.4,5.2s2.5,5.7,3.6,8.7C448.8,72.9,436.5,63,436.5,63L436.5,63z M489.5,71.3l-4.9,4l-1,8.7l-2.9,5.7l-2.4,2.8l-4.4,16
	l9.7-10.5l2.3-9.6l8.9-6.5v-5v-4.1L489.5,71.3z M493.3,84.6c-1.2,0.8-6.8,4.7-6.8,4.7l-1,3.9l7.3-6.3
	C492.8,86.9,493.3,84.9,493.3,84.6L493.3,84.6z M481.6,76.5l-0.9,3.8l-2.3,2.3l-4.9,2.2L481.6,76.5z M453.3,76.5l0.9,3.8l2.3,2.3
	l4.9,2.2L453.3,76.5z M459.4,97.2l7.7,7.6v4.1h-3.9L459.4,97.2z M475.7,97.2l-7.7,7.6v4.1h3.9L475.7,97.2z M432.5,39.6
	c-2,2.7-3.8,5.7-5.2,8.8c-1.2,2.8-2.2,5.6-2.8,8.6c-0.1,0.7-0.3,1.3-0.4,2c-0.1,0.6-0.2,1.2-0.3,1.8c-0.1,0.6-0.1,1.2-0.2,1.7
	c0,0.3-0.1,0.5-0.1,0.8c0,0.3,0,0.5-0.1,0.7c-0.1,0.5-0.1,0.9-0.1,1.4s0,0.9,0,1.2c0,0.4,0,0.7,0,1s0,0.6,0,0.9
	c0.1,1,0.1,1.6,0.1,1.6L424,70c0,0,0-0.5-0.1-1.6c0-0.2,0-0.5,0-0.9c0-0.3,0-0.7,0-1c0-0.4,0-0.8,0-1.2c0-0.4,0.1-0.9,0.1-1.4
	c0-0.2,0.1-0.5,0.1-0.7s0.1-0.5,0.1-0.8c0.1-0.5,0.1-1.1,0.2-1.6c0.1-0.6,0.2-1.2,0.3-1.8c0.1-0.6,0.2-1.2,0.4-1.9
	c0.7-2.9,1.6-5.7,2.8-8.4c1.3-3,3-5.8,4.9-8.4C432.6,40.1,432.5,39.8,432.5,39.6L432.5,39.6z M501.3,38.4c-0.9-1.2-1.9-2.3-3-3.3
	c-1.4-1.4-2.8-2.6-4.3-3.9c-0.8-0.7-1.6-1.2-2.4-1.7c-0.4-0.3-0.9-0.5-1.3-0.8l-0.7-0.4l-0.7-0.4c-3.6-2.1-7.5-3.7-11.6-4.7
	c-2.1-0.5-4.2-0.8-6.3-1c-4.3-0.4-8.7-0.1-12.9,0.8c-2.1,0.4-4.1,1.1-6.2,1.8c-3.9,1.5-7.6,3.6-10.9,6.1l-0.6,0.4l-0.6,0.5
	c-0.4,0.3-0.8,0.7-1.2,0.9c-0.7,0.7-1.5,1.3-2.2,2c-1.1,1.1-2.1,2.3-3.1,3.5l0,0c0.1,0.1,0.1,0.1,0.2,0.3c0.1,0,0.1,0.1,0.2,0.1
	c0.9-1.2,2-2.3,3.1-3.4c0.7-0.7,1.4-1.4,2.1-2c0.4-0.3,0.7-0.7,1.2-0.9l0.6-0.5l0.6-0.4c3.3-2.5,6.9-4.6,10.8-6c2-0.7,4-1.4,6.1-1.8
	c2.1-0.4,4.2-0.7,6.3-0.9c2.1-0.1,4.3-0.1,6.4,0.1c2.1,0.2,4.2,0.5,6.3,1c4,0.9,7.9,2.5,11.4,4.6l0.7,0.4L490,29
	c0.4,0.3,0.9,0.5,1.2,0.8c0.8,0.6,1.6,1.2,2.4,1.7c1.5,1.2,2.9,2.4,4.3,3.8c1,1.1,2,2.1,2.9,3.2C500.9,38.6,501.1,38.5,501.3,38.4
	L501.3,38.4z M511.1,62.7c0-0.3-0.1-0.6-0.1-0.9s-0.1-0.7-0.1-1s-0.1-0.8-0.1-1.2c-0.1-0.4-0.1-0.9-0.2-1.4
	c-0.1-0.2-0.1-0.4-0.1-0.7c-0.1-0.2-0.1-0.5-0.1-0.8c-0.1-0.5-0.2-1.1-0.4-1.6c-0.1-0.6-0.4-1.2-0.5-1.7c-0.1-0.6-0.4-1.2-0.7-1.9
	c-1-2.8-2.3-5.5-3.9-8.1c-0.7-1.2-1.5-2.4-2.4-3.6c-0.1,0.2-0.1,0.5-0.2,0.7c0.8,1,1.5,2.1,2.1,3.2c1.5,2.5,2.8,5.2,3.9,8
	c0.2,0.7,0.4,1.2,0.6,1.8c0.2,0.6,0.4,1.2,0.5,1.7s0.3,1.1,0.4,1.6c0.1,0.3,0.1,0.5,0.2,0.8c0.1,0.3,0.1,0.5,0.1,0.7
	c0.1,0.4,0.1,0.9,0.2,1.3s0.1,0.8,0.1,1.2s0.1,0.7,0.1,1c0.1,0.3,0.1,0.6,0.1,0.9c0.1,1,0.1,1.6,0.1,1.6l0.6-0.1
	C511.3,64.3,511.2,63.8,511.1,62.7L511.1,62.7z M426.8,65.4c0,0-0.6-0.3-1.2-0.7c-0.6-0.4-1.2-0.7-1.2-0.7s0,0.4-0.1,0.9
	c0,0.1,0,0.3,0,0.4c0,0.1,0,0.3,0,0.5c0,0.4,0,0.7,0,1.1c0,0.7,0,1.5,0.1,2c0,0.6,0,0.9,0,0.9s0.7-0.4,1.2-0.7
	c0.6-0.4,1.2-0.7,1.2-0.7s0-0.2,0-0.5c0-0.3,0-0.7,0-1.1c0-0.4,0-0.8,0-1.1C426.8,65.7,426.8,65.4,426.8,65.4 M428.6,54.7
	c0,0-0.5-0.5-1-0.9c-0.5-0.4-1-1-1-1s-0.1,0.4-0.3,0.9c-0.1,0.3-0.2,0.6-0.3,0.9c-0.1,0.4-0.2,0.7-0.3,1c-0.1,0.4-0.2,0.7-0.3,1
	c-0.1,0.4-0.1,0.7-0.2,0.9c-0.1,0.6-0.2,0.9-0.2,0.9s0.7-0.2,1.4-0.4c0.7-0.2,1.4-0.3,1.4-0.3s0.1-0.2,0.1-0.5
	c0.1-0.3,0.1-0.7,0.3-1s0.2-0.7,0.3-1C428.5,55,428.6,54.7,428.6,54.7 M433.1,44.9c0,0-0.4-0.6-0.7-1.2c-0.4-0.6-0.7-1.2-0.7-1.2
	s-0.1,0.1-0.1,0.2c-0.1,0.1-0.2,0.4-0.4,0.6c-0.3,0.4-0.7,1.1-1,1.7c-0.4,0.7-0.7,1.3-0.9,1.7c-0.2,0.5-0.4,0.8-0.4,0.8s0.7,0,1.4,0
	s1.4,0.1,1.4,0.1s0.4-0.7,0.7-1.4c0.1-0.3,0.4-0.7,0.5-0.9C432.9,45.2,433.1,44.9,433.1,44.9 M439.8,36.6c0,0-0.2-0.7-0.4-1.4
	c-0.2-0.7-0.4-1.4-0.4-1.4s-0.3,0.2-0.7,0.6c-0.4,0.4-0.9,0.9-1.5,1.4c-0.5,0.5-1,1-1.4,1.5c-0.2,0.2-0.4,0.4-0.4,0.5
	c-0.1,0.1-0.1,0.1-0.1,0.1s0.1,0.1,0.4,0.1c0.3,0.1,0.6,0.1,0.9,0.3c0.7,0.2,1.3,0.4,1.3,0.4s0.1-0.1,0.3-0.4
	c0.2-0.2,0.4-0.5,0.7-0.8s0.5-0.5,0.7-0.7C439.5,36.9,439.7,36.7,439.8,36.6 M448.4,30.3c0,0,0-0.7-0.1-1.5c0-0.7,0-1.5,0-1.5
	s-0.1,0.1-0.2,0.1c-0.1,0.1-0.4,0.1-0.6,0.3c-0.2,0.1-0.5,0.3-0.8,0.4c-0.3,0.1-0.7,0.4-0.9,0.5c-0.6,0.4-1.2,0.7-1.7,1
	c-0.4,0.3-0.7,0.5-0.7,0.5s0.6,0.4,1.2,0.7c0.7,0.4,1.2,0.7,1.2,0.7s0.7-0.4,1.3-0.8c0.3-0.2,0.7-0.4,0.9-0.5L448.4,30.3
	 M458.4,26.6c0,0,0.1-0.7,0.3-1.4c0.2-0.7,0.4-1.4,0.4-1.4s-0.4,0.1-0.9,0.1c-0.5,0.1-1.2,0.3-1.9,0.5c-0.7,0.2-1.4,0.4-1.9,0.6
	c-0.3,0.1-0.5,0.1-0.7,0.2c-0.1,0-0.1,0.1-0.2,0.1c0,0,0.5,0.5,0.9,1c0.5,0.5,0.9,1.1,0.9,1.1s0.2-0.1,0.4-0.1
	c0.3-0.1,0.7-0.2,1-0.3C457.6,26.8,458.4,26.6,458.4,26.6 M468.8,25.6l0.2-0.4c0.1-0.2,0.3-0.5,0.4-0.9c0.4-0.7,0.7-1.2,0.7-1.2
	s-0.4,0-0.9-0.1c-0.5,0-1.2,0-2-0.1c-0.2,0-0.4,0-0.6,0c-0.2,0-0.4,0-0.5,0c-0.4,0-0.7,0-0.9,0.1c-0.3,0-0.5,0-0.7,0
	c-0.1,0-0.1,0-0.2,0c0,0,0.1,0.1,0.2,0.4c0.1,0.2,0.3,0.6,0.5,0.9c0.4,0.7,0.7,1.3,0.7,1.3s0.2,0,0.5,0s0.7,0,1,0
	C468.1,25.6,468.8,25.6,468.8,25.6 M479.3,27.4c0,0,0.4-0.5,0.9-1c0.5-0.5,1-1,1-1s-0.4-0.1-0.9-0.3c-0.2-0.1-0.6-0.2-0.9-0.3
	c-0.4-0.1-0.7-0.1-1-0.3c-0.4-0.1-0.7-0.2-1-0.3c-0.4-0.1-0.7-0.1-0.9-0.2c-0.5-0.1-0.9-0.2-0.9-0.2s0.2,0.7,0.4,1.4
	s0.3,1.4,0.3,1.4s0.2,0.1,0.4,0.1c0.3,0.1,0.7,0.1,1,0.3c0.4,0.1,0.7,0.2,1,0.3C479.2,27.3,479.3,27.4,479.3,27.4 M488.9,31.9
	c0,0,0.6-0.4,1.2-0.8c0.3-0.2,0.6-0.4,0.8-0.5c0.2-0.1,0.4-0.2,0.4-0.2c-0.1-0.1-0.1-0.1-0.2-0.1c-0.1-0.1-0.3-0.2-0.6-0.4
	c-0.4-0.3-1.1-0.7-1.7-1c-0.7-0.4-1.2-0.7-1.7-0.9c-0.5-0.2-0.8-0.4-0.8-0.4s0,0.7,0,1.5c0,0.4,0,0.7,0,0.9c0,0.3,0,0.4,0,0.4
	s0.7,0.4,1.3,0.7c0.4,0.2,0.7,0.4,0.9,0.6C488.6,31.8,488.9,31.9,488.9,31.9 M497,38.8c0,0,0.7-0.2,1.3-0.4c0.7-0.2,1.4-0.4,1.4-0.4
	s-0.2-0.3-0.6-0.7c-0.4-0.4-0.9-0.9-1.4-1.5c-0.5-0.5-1-1-1.5-1.4c-0.2-0.2-0.4-0.4-0.5-0.4c-0.1-0.1-0.2-0.1-0.2-0.1
	s-0.1,0.1-0.1,0.4c0,0.3-0.1,0.6-0.3,0.9c-0.2,0.7-0.4,1.4-0.4,1.4s0.1,0.1,0.4,0.3c0.1,0.1,0.2,0.2,0.4,0.4s0.2,0.3,0.4,0.4
	c0.3,0.3,0.5,0.5,0.7,0.8c0.1,0.1,0.2,0.2,0.2,0.2C497,38.8,497,38.8,497,38.8 M503.1,47.6c0,0,0.7-0.1,1.4-0.1c0.4,0,0.7,0,0.9,0
	c0.2,0,0.4,0,0.4,0c0-0.1-0.1-0.1-0.1-0.2c-0.1-0.1-0.2-0.4-0.3-0.6c-0.2-0.5-0.6-1.2-0.9-1.7c-0.4-0.7-0.7-1.3-1-1.7
	c-0.3-0.4-0.5-0.7-0.5-0.7s-0.4,0.7-0.7,1.2c-0.4,0.6-0.7,1.2-0.7,1.2l0.1,0.1c0.1,0.1,0.1,0.2,0.2,0.3c0.1,0.2,0.4,0.6,0.5,0.9
	c0.1,0.1,0.2,0.4,0.3,0.5s0.1,0.3,0.2,0.4C503.1,47.5,503.1,47.6,503.1,47.6 M506.9,57.8c0,0,0.1,0.1,0.4,0.1s0.6,0.1,0.9,0.2
	c0.7,0.1,1.4,0.4,1.4,0.4s-0.1-0.4-0.1-0.9c-0.1-0.5-0.3-1.2-0.5-2c-0.2-0.7-0.4-1.4-0.6-2c-0.1-0.3-0.1-0.5-0.2-0.7
	c-0.1-0.1-0.1-0.2-0.1-0.2s-0.5,0.5-1,1c-0.5,0.5-1,0.9-1,0.9s0.2,0.7,0.4,1.5C506.7,57,506.9,57.8,506.9,57.8 M424,69.9
	c0,0,0.1,0.6,0.1,1.6c0,0.3,0.1,0.6,0.1,0.9c0.1,0.3,0.1,0.7,0.1,1c0.1,0.4,0.1,0.8,0.1,1.2c0.1,0.4,0.1,0.9,0.2,1.3
	c0.1,0.2,0.1,0.5,0.1,0.7c0.1,0.2,0.1,0.5,0.1,0.7c0.1,0.5,0.2,1,0.4,1.6c0.1,0.6,0.3,1.2,0.5,1.7c0.2,0.6,0.4,1.2,0.6,1.8
	c1,2.8,2.3,5.5,3.9,8.1c1.8,3,4,5.7,6.4,8.2c1.3,1.4,2.8,2.6,4.3,3.8c0.7,0.7,1.6,1.2,2.4,1.7c0.4,0.3,0.8,0.5,1.2,0.8l0.7,0.4
	l0.7,0.4c3.6,2.1,7.4,3.6,11.4,4.6c2,0.5,4.1,0.8,6.3,1c2.1,0.1,4.3,0.2,6.4,0.1c2.1-0.1,4.2-0.4,6.3-0.9c2-0.4,4.1-1.1,6.1-1.8
	c3.9-1.5,7.5-3.5,10.8-6l0.6-0.4l0.6-0.5c0.4-0.3,0.8-0.7,1.2-0.9c0.7-0.7,1.5-1.3,2.1-2c1.4-1.3,2.6-2.8,3.8-4.3
	c2.1-2.8,3.9-5.8,5.4-9c1.2-2.7,2.1-5.5,2.8-8.4c0.1-0.7,0.3-1.3,0.4-1.9c0.1-0.6,0.2-1.2,0.3-1.7s0.1-1.1,0.2-1.7
	c0.1-0.3,0.1-0.5,0.1-0.8c0-0.2,0.1-0.5,0.1-0.7c0-0.5,0.1-0.9,0.1-1.4c0-0.4,0-0.8,0-1.2c0-0.4,0-0.7,0-1s0-0.6,0-0.9
	c-0.1-1-0.1-1.6-0.1-1.6l0.6-0.1c0,0,0,0.6,0.1,1.6c0,0.2,0,0.5,0,0.9s0,0.7,0,1c0,0.4,0,0.8,0,1.2s-0.1,0.9-0.1,1.4
	c0,0.2-0.1,0.5-0.1,0.7s-0.1,0.5-0.1,0.8c-0.1,0.5-0.1,1.1-0.2,1.7c-0.1,0.6-0.2,1.2-0.3,1.8c-0.1,0.6-0.2,1.2-0.4,1.9
	c-0.7,3-1.6,5.8-2.8,8.6c-2.3,5-5.4,9.6-9.2,13.5c-0.7,0.7-1.5,1.4-2.2,2c-0.4,0.3-0.8,0.7-1.2,0.9l-0.6,0.5l-0.6,0.4
	c-3.3,2.5-7,4.6-10.9,6.1c-4,1.5-8.3,2.5-12.6,2.8c-8.5,0.6-17-1.5-24.4-5.7l-0.7-0.4l-0.7-0.4c-0.4-0.2-0.9-0.5-1.3-0.8
	c-0.8-0.6-1.7-1.2-2.4-1.7c-1.5-1.2-3-2.5-4.3-3.9c-2.5-2.5-4.7-5.3-6.5-8.4c-1.5-2.6-2.8-5.3-3.9-8.1c-0.2-0.7-0.4-1.2-0.7-1.8
	c-0.2-0.6-0.4-1.2-0.5-1.7c-0.1-0.6-0.3-1.1-0.4-1.6c-0.1-0.3-0.1-0.5-0.1-0.8c-0.1-0.2-0.1-0.5-0.1-0.7c-0.1-0.4-0.1-0.9-0.2-1.4
	c-0.1-0.4-0.1-0.9-0.1-1.2c-0.1-0.4-0.1-0.7-0.1-1c-0.1-0.3-0.1-0.6-0.1-0.9c-0.1-1-0.1-1.6-0.1-1.6L424,69.9z M507.9,68.9
	c0,0,0.6,0.4,1.2,0.7c0.6,0.4,1.2,0.7,1.2,0.7s0-0.4,0.1-0.9c0-0.1,0-0.3,0.1-0.4c0-0.1,0-0.4,0-0.5c0-0.4,0-0.7,0-1.1
	c0-0.7,0-1.5-0.1-2c-0.1-0.6-0.1-0.9-0.1-0.9s-0.6,0.4-1.2,0.7c-0.6,0.4-1.2,0.7-1.2,0.7s0,0.2,0,0.5s0,0.7,0,1.1s0,0.8,0,1.1
	C507.9,68.6,507.9,68.9,507.9,68.9 M506.1,79.5c0,0,0.5,0.5,1,0.9c0.5,0.4,1,1,1,1s0.1-0.4,0.3-0.9c0.1-0.3,0.2-0.6,0.3-0.9
	c0.1-0.4,0.2-0.7,0.3-1c0.1-0.4,0.2-0.7,0.3-1c0.1-0.4,0.1-0.7,0.2-0.9c0.1-0.5,0.2-0.9,0.2-0.9s-0.7,0.2-1.4,0.4l-1.4,0.3
	c0,0-0.1,0.2-0.1,0.5c-0.1,0.3-0.1,0.7-0.3,1c-0.1,0.4-0.2,0.7-0.3,1S506.1,79.5,506.1,79.5 M501.6,89.4c0,0,0.4,0.6,0.7,1.2
	c0.4,0.7,0.7,1.2,0.7,1.2c0.1-0.1,0.1-0.1,0.1-0.2c0.1-0.1,0.2-0.3,0.4-0.6c0.3-0.5,0.7-1.1,1-1.7c0.4-0.7,0.7-1.3,0.9-1.7
	c0.2-0.4,0.4-0.8,0.4-0.8h-1.4c-0.7,0-1.4-0.1-1.4-0.1l-0.7,1.3c-0.2,0.4-0.4,0.7-0.5,0.9C501.8,89.2,501.6,89.4,501.6,89.4
	 M494.9,97.7c0,0,0.2,0.7,0.4,1.4c0.2,0.7,0.4,1.4,0.4,1.4s0.3-0.2,0.7-0.6c0.4-0.4,0.9-0.9,1.5-1.4c0.5-0.5,1-1,1.4-1.5
	c0.2-0.2,0.4-0.4,0.4-0.5c0.1-0.1,0.1-0.2,0.1-0.2s-0.1-0.1-0.4-0.1s-0.6-0.1-0.9-0.3c-0.7-0.2-1.3-0.4-1.3-0.4s-0.1,0.1-0.3,0.4
	c-0.2,0.2-0.4,0.5-0.7,0.7l-0.7,0.7C495,97.6,494.9,97.7,494.9,97.7 M486.3,104c0,0,0,0.7,0.1,1.5c0,0.7,0,1.5,0,1.5
	s0.1-0.1,0.2-0.1c0.1-0.1,0.4-0.1,0.6-0.3c0.2-0.1,0.5-0.3,0.8-0.4c0.3-0.1,0.7-0.3,0.9-0.5c0.6-0.4,1.2-0.7,1.7-1
	c0.4-0.3,0.7-0.5,0.7-0.5s-0.6-0.4-1.2-0.7c-0.7-0.4-1.2-0.7-1.2-0.7l-1.3,0.8c-0.3,0.2-0.7,0.4-0.9,0.5L486.3,104 M445.8,102.4
	c0,0-0.6,0.4-1.2,0.8c-0.3,0.2-0.6,0.4-0.8,0.5c-0.2,0.1-0.4,0.2-0.4,0.2c0.1,0.1,0.1,0.1,0.2,0.1c0.1,0.1,0.3,0.2,0.6,0.4
	c0.4,0.3,1,0.7,1.7,1c0.7,0.4,1.2,0.7,1.7,0.9c0.5,0.2,0.8,0.4,0.8,0.4s0-0.7,0-1.5c0-0.4,0-0.7,0-0.9c0-0.3,0-0.4,0-0.4
	s-0.7-0.4-1.3-0.7c-0.3-0.1-0.6-0.4-0.9-0.6C445.9,102.5,445.8,102.4,445.8,102.4 M437.6,95.5c0,0-0.7,0.2-1.3,0.4
	c-0.7,0.2-1.4,0.4-1.4,0.4s0.2,0.3,0.6,0.7c0.4,0.4,0.9,0.9,1.4,1.5c0.5,0.5,1,1,1.5,1.4c0.2,0.2,0.4,0.4,0.5,0.4
	c0.1,0.1,0.1,0.1,0.2,0.1c0,0,0.1-0.1,0.1-0.4c0.1-0.3,0.1-0.6,0.3-0.9c0.2-0.7,0.4-1.4,0.4-1.4l-0.4-0.3c-0.1-0.1-0.2-0.2-0.4-0.4
	c-0.1-0.1-0.3-0.3-0.4-0.4c-0.3-0.3-0.5-0.6-0.7-0.7c-0.1-0.1-0.2-0.2-0.2-0.2L437.6,95.5 M431.5,86.7c0,0-0.7,0-1.4,0.1
	c-0.4,0-0.7,0-0.9,0c-0.3,0-0.4,0-0.4,0c0,0.1,0.1,0.1,0.1,0.2c0.1,0.1,0.2,0.4,0.3,0.6c0.2,0.5,0.6,1.2,0.9,1.7
	c0.4,0.6,0.7,1.3,1,1.7c0.3,0.5,0.5,0.8,0.5,0.8s0.4-0.7,0.7-1.2c0.4-0.6,0.7-1.2,0.7-1.2s0-0.1-0.1-0.1c-0.1-0.1-0.1-0.1-0.1-0.3
	c-0.1-0.2-0.3-0.6-0.5-0.9c-0.1-0.1-0.2-0.4-0.3-0.5c-0.1-0.1-0.1-0.3-0.2-0.4C431.6,86.9,431.5,86.7,431.5,86.7 M427.8,76.6
	c0,0-0.1-0.1-0.4-0.1s-0.6-0.1-0.9-0.2c-0.7-0.1-1.4-0.4-1.4-0.4s0.1,0.4,0.1,0.9c0.1,0.5,0.3,1.2,0.5,2s0.4,1.4,0.6,2
	c0.1,0.3,0.1,0.5,0.2,0.7c0,0.1,0.1,0.1,0.1,0.2c0,0,0.5-0.5,1-1c0.5-0.5,1-1,1-1s-0.2-0.7-0.4-1.5C428,77.3,427.8,76.6,427.8,76.6"
	/>
</svg>
