<svg id="组_44" data-name="组 44" xmlns="http://www.w3.org/2000/svg" width="56" height="56" viewBox="0 0 56 56">
  <defs>
    <style>
      .cls-1 {
        fill: #7885d7;
      }

      .cls-2 {
        fill: #fff;
        fill-rule: evenodd;
      }
    </style>
  </defs>
  <circle id="椭圆_3_拷贝" data-name="椭圆 3 拷贝" class="cls-1" cx="28" cy="28" r="28"/>
  <path id="形状_2" data-name="形状 2" class="cls-2" d="M240.356,1767.18a2.962,2.962,0,0,1,1.149,0c0.03,0.08.058,0.17,0.084,0.25-0.909.23-1.774,0.59-2.656,0.9a21.148,21.148,0,0,0-3.178,1.6,6.8,6.8,0,0,0-1.522,1.15,5.089,5.089,0,0,0,.9-0.39,23.911,23.911,0,0,1,5.647-1.84,25.566,25.566,0,0,1,3.489-.48c1.194-.04,2.392-0.05,3.585-0.01a31.129,31.129,0,0,1,3.6.54c0.927,0.24,1.846.5,2.751,0.82,1.03,0.36,1.991.91,3.025,1.27a4.594,4.594,0,0,0-1.119-.9,23.73,23.73,0,0,0-5.745-2.55q0.1-.195.2-0.39a9.932,9.932,0,0,1,3.616.59,15.55,15.55,0,0,1,4.261,2.11,2.607,2.607,0,0,1,.818,1.21,38.246,38.246,0,0,1,3.668,14.94,1.554,1.554,0,0,1-.174.97,8.547,8.547,0,0,1-2.258,2.13,11.427,11.427,0,0,1-4.53,1.8c-0.5.05-1,.07-1.5,0.11a1.259,1.259,0,0,1-.82-0.56,12.891,12.891,0,0,1-1.3-1.65,14.863,14.863,0,0,0,2.574-1.11,8.555,8.555,0,0,0,1.644-1.24,3.652,3.652,0,0,0,.863-1.05,14.692,14.692,0,0,0-1.356.76,21.552,21.552,0,0,1-8.554,2.39,14.427,14.427,0,0,1-3.412-.07,21.25,21.25,0,0,1-6.769-1.81,14.429,14.429,0,0,1-1.846-.95,3.346,3.346,0,0,0-.663-0.32,7.9,7.9,0,0,0,2.828,2.44,11.064,11.064,0,0,0,2.142.9,28.663,28.663,0,0,1-1.829,2.29,11.314,11.314,0,0,1-7.636-2.93,4.052,4.052,0,0,1-1.143-1.54,24.664,24.664,0,0,1,.369-4.72,37.217,37.217,0,0,1,1.942-7.62c0.42-1,.775-2.03,1.265-3.01a3.323,3.323,0,0,1,.918-1.36A15.132,15.132,0,0,1,240.356,1767.18Zm-0.421,10.62a3.2,3.2,0,0,0-2.28,2.92,3.238,3.238,0,0,0,2.448,3.34,4.561,4.561,0,0,0,1.224-.03,3.151,3.151,0,0,0,2.1-1.87,3.454,3.454,0,0,0,.2-1.71,3.244,3.244,0,0,0-1.56-2.39A2.972,2.972,0,0,0,239.935,1777.8Zm10.547,0a3.136,3.136,0,0,0-1.717,1.25,3.525,3.525,0,0,0-.534,1.57,3.138,3.138,0,0,0,2.9,3.46,2.937,2.937,0,0,0,2.553-1.29,3.515,3.515,0,0,0,.52-1.97,3.131,3.131,0,0,0-1.957-2.91A2.966,2.966,0,0,0,250.482,1777.8Z" transform="translate(-218 -1752)"/>
</svg>
