<?xml version="1.0" encoding="utf-8"?>
<!-- Generator: Adobe Illustrator 22.1.0, SVG Export Plug-In . SVG Version: 6.00 Build 0)  -->
<svg version="1.1" id="图层_1" xmlns="http://www.w3.org/2000/svg" xmlns:xlink="http://www.w3.org/1999/xlink" x="0px" y="0px"
	 viewBox="0 0 455 455" style="enable-background:new 0 0 455 455;" xml:space="preserve">
<style type="text/css">
	.st0{fill:#01B903;}
	.st1{fill:#FEFEFE;}
	.st2{fill:#03B904;}
	.st3{fill:#02B803;}
	.st4{fill:#02B804;}
	.st5{fill:#03B803;}
</style>
<circle class="st0" cx="227.5" cy="227.5" r="227.5"/>
<g>
	<g>
		<path class="st1" d="M231.2,95.1c40.4-0.1,75,8.6,105.5,30.8c20.2,14.7,36.9,32.8,44.8,56.7c10.7,32.3,6.1,63-14.3,90.9
			c-16.9,23-38.4,41-61,57.9c-22.2,16.5-45.7,31-70,44.2c-1.7,1-3.6,1.8-5.5,2.4c-7.2,2.4-11.3-1-9.7-8.4c1.2-5.5,2.5-11,3.3-16.6
			c1-7.6-1.2-12-7.9-15.5c-5-2.6-10.5-2.9-15.9-3.9c-45.1-8.4-81.8-30-105.2-70.4c-19.3-33.4-15.5-67.3,3.3-99.8
			c19-32.7,48.5-51.9,84.4-61.9C199.7,97,216.9,94.9,231.2,95.1z"/>
		<path class="st2" d="M234.1,213.5c0,11.1,0,22.2,0,33.3c0,4.2-1.3,7.6-5.7,8.8c-6.2,1.7-10.2-1.2-10.2-7.7
			c-0.1-19.1-0.1-38.3-0.1-57.4c0-3.8,0.6-7.5,4.8-9c4.8-1.8,8.5,0.3,11.4,4c5.9,7.6,11.6,15.4,17.4,23.1c3.7,4.9,7.4,9.8,11.1,14.8
			c1.7-1.6,1-3.3,1-4.8c0.1-9.5-0.1-19,0.1-28.5c0.1-5.7,2.6-8.5,6.8-8.8c4.7-0.3,7.5,2.3,8.6,7.8c0.3,1.6,0.3,3.3,0.3,5
			c0,16.8,0,33.6,0.1,50.5c0,4.4-0.2,8.6-4.9,10.5c-5.1,2-8.6-1.1-11.5-4.8c-8-10.4-15.9-21-23.8-31.4c-1.4-1.8-2.8-3.6-4.2-5.5
			C234.9,213.4,234.5,213.5,234.1,213.5z"/>
		<path class="st3" d="M289.9,217.5c0-8.5,0-17,0-25.5c0-8.2,3.1-11.3,11.1-11.3c8.7,0,17.3-0.1,26,0.1c6.2,0.1,9.1,2.8,9,7.6
			c-0.1,4.2-2.8,7-7.3,7.1c-6.2,0.2-12.3,0.2-18.5,0c-3.3-0.1-4.6,0.7-4.6,4.4c0,10.5-0.2,10.5,10.4,10.5c4,0,8-0.2,12,0.2
			c5.5,0.5,8.2,3.6,7.9,8.3c-0.3,4.6-3.1,7-8.5,7.1c-6,0.1-12,0.2-18,0c-2.6-0.1-3.4,0.8-3.5,3.4c-0.4,10.5-0.5,10.5,9.8,10.5
			c4.3,0,8.7-0.1,13,0.1c5.2,0.3,7.7,2.8,7.6,7.3c-0.1,5.3-2.6,8.1-7.9,8.2c-9.2,0.2-18.3,0.1-27.5,0.1c-7.1,0-10.7-3.5-10.8-10.8
			C289.8,235.9,289.9,226.7,289.9,217.5z"/>
		<path class="st4" d="M137.7,217.8c0-9.5,0-19,0-28.5c0-5.9,2.2-8.4,7.4-8.4c5.2-0.1,8.5,2.8,8.5,8.3c0.1,15,0.3,30,0,45
			c-0.1,4.9,0.9,6.9,6.2,6.4c5.1-0.5,10.3-0.3,15.5-0.1c5.4,0.2,7.9,2.7,7.8,7c-0.1,4.9-3.2,8-8.2,8.1c-9.7,0.1-19.3,0.1-29,0
			c-5.8,0-8.1-2.3-8.1-8.3C137.7,237.4,137.7,227.6,137.7,217.8z"/>
		<path class="st5" d="M206.8,218c0,9.8,0,19.7,0,29.5c0,6.5-2.2,8.7-8.2,8.7c-6,0-8.1-2.2-8.1-8.7c0-19.3,0-38.7,0-58
			c0-6.3,2.3-8.7,8.2-8.7c5.9,0,8.1,2.3,8.1,8.8C206.8,199,206.8,208.5,206.8,218z"/>
	</g>
</g>
</svg>
