<?xml version="1.0" encoding="utf-8"?>
<!-- Generator: Adobe Illustrator 22.1.0, SVG Export Plug-In . SVG Version: 6.00 Build 0)  -->
<svg version="1.1" id="图层_1" xmlns="http://www.w3.org/2000/svg" xmlns:xlink="http://www.w3.org/1999/xlink" x="0px" y="0px"
	 viewBox="0 0 183.3 183.9" style="enable-background:new 0 0 183.3 183.9;" xml:space="preserve">
<style type="text/css">
	.st0{fill:url(#椭圆_3_拷贝_12_1_);}
	.st1{fill:url(#形状_2_拷贝_3_1_);}
</style>
<linearGradient id="椭圆_3_拷贝_12_1_" gradientUnits="userSpaceOnUse" x1="934.9998" y1="954.0159" x2="1118.5898" y2="954.0159" gradientTransform="matrix(1 0 0 1 -935 -861.7402)">
	<stop  offset="0" style="stop-color:#53CBED"/>
	<stop  offset="1" style="stop-color:#C14FC4"/>
</linearGradient>
<path id="椭圆_3_拷贝_12" class="st0" d="M91.8,0.3c50.8-0.1,92.1,41,92.2,91.8s-41,92.1-91.8,92.2c-50.8,0.1-92.1-41-92.2-91.8
	c0-0.1,0-0.1,0-0.2C-0.1,41.5,41,0.4,91.8,0.3L91.8,0.3z"/>
<linearGradient id="形状_2_拷贝_3_1_" gradientUnits="userSpaceOnUse" x1="1109.9641" y1="1037.9579" x2="942.9021" y2="870.8958" gradientTransform="matrix(1 0 0 1 -935 -861.7402)">
	<stop  offset="0" style="stop-color:#A0FFAB"/>
	<stop  offset="1" style="stop-color:#FFEC43"/>
</linearGradient>
<path id="形状_2_拷贝_3" class="st1" d="M137.3,46.3c0,0-1.2-1.1-3.4-3.1c-1.3-1.3-2.8-2.4-4.3-3.5c-2-1.5-4.1-2.9-6.2-4.1
	c-13.5-7.8-29.3-10.3-44.6-7.3C56.9,32.8,38.9,48.1,31,69c-4.4,11.7-5.5,24.3-3.1,36.6c1.3,6.2,3.4,12.3,6.4,17.9
	c6,11.4,15.3,20.7,26.6,26.9c5.6,3,11.6,5.1,17.8,6.4c12.1,2.4,24.7,1.4,36.2-3.1c10.8-4.2,20.2-11.3,27.4-20.3
	c6.4-8.2,10.8-17.8,12.9-28c3-15.4,0.5-31.4-7.2-45.1c-1.2-2.2-2.5-4.3-4.1-6.3c-1-1.5-2.2-3-3.4-4.3
	C138.4,47.5,137.3,46.3,137.3,46.3l3.4-3.4c0,0,1.1,1.3,3.3,3.7c1.3,1.5,2.6,3,3.7,4.7c1.6,2.1,3.1,4.4,4.3,6.8
	c8.2,14.7,11,31.8,7.8,48.4c-2.2,11-6.9,21.2-13.8,30.1c-7.7,9.7-17.9,17.3-29.4,21.8c-6.1,2.3-12.5,3.8-18.9,4.4
	c-13.5,1.2-27-1.6-38.9-8c-12.2-6.6-22.1-16.6-28.5-28.8c-3.1-6.1-5.5-12.6-6.9-19.3c-1.2-6.6-1.6-13.4-1.1-20.1
	c0.6-6.5,2.1-13,4.4-19.1C35.2,45.1,54.6,28.6,78,23.8c16.4-3.3,33.4-0.5,47.9,7.8c2.3,1.3,4.6,2.8,6.7,4.4c1.6,1.1,3.2,2.4,4.6,3.7
	c2.4,2.2,3.7,3.3,3.7,3.3L137.3,46.3z M145.2,152.7c-2,1.8-4.1,3.6-6.3,5.2l-2.3-3.2c2.1-1.5,4.1-3.2,6-4.9L145.2,152.7z M151,146.9
	l-2.9-2.7c1.7-1.9,3.4-4,4.9-6l3.2,2.3C154.5,142.7,152.8,144.9,151,146.9z M132.2,162.5c-2.3,1.4-4.7,2.7-7.2,3.8l-1.6-3.6
	c2.3-1.1,4.6-2.3,6.8-3.7L132.2,162.5z M160.6,133.7l-3.4-2c1.3-2.2,2.5-4.6,3.6-6.9l3.6,1.7C163.2,128.9,162,131.3,160.6,133.7z
	 M117.5,169.3c-2.6,0.9-5.2,1.6-7.8,2.3l-0.9-3.9c2.5-0.6,5-1.3,7.4-2.2L117.5,169.3z M167.3,118.8l-3.8-1.3c0.8-2.5,1.5-5,2.1-7.5
	l3.9,0.9C168.9,113.6,168.2,116.2,167.3,118.8z M101.7,173c-2.7,0.3-5.4,0.5-8.1,0.6l-0.1-4c2.6-0.1,5.1-0.3,7.7-0.6L101.7,173z
	 M171,102.8l-4-0.5c0.3-2.6,0.5-5.2,0.6-7.8l4,0.1C171.5,97.4,171.3,100.1,171,102.8L171,102.8z M85.5,173.4c-2.7-0.2-5.4-0.5-8-1
	l0.7-3.9c2.5,0.4,5.1,0.8,7.6,0.9L85.5,173.4z M171.4,86.5l-3.9,0.3c-0.2-2.6-0.5-5.2-1-7.7l3.9-0.7C170.8,81,171.2,83.7,171.4,86.5
	L171.4,86.5z M69.5,170.6c-2.6-0.7-5.2-1.6-7.7-2.6l1.4-3.7c2.4,1,4.8,1.8,7.3,2.5L69.5,170.6z M168.6,70.4l-3.8,1.1
	c-0.7-2.5-1.5-5-2.5-7.4l3.7-1.5C166.9,65.1,167.8,67.7,168.6,70.4L168.6,70.4z M54.5,164.6c-2.4-1.3-4.7-2.7-7-4.2l2.2-3.3
	c2.2,1.4,4.4,2.8,6.7,4L54.5,164.6z M162.5,55.1L159,57c-1.2-2.3-2.5-4.6-3.9-6.7l3.3-2.2C159.9,50.3,161.3,52.7,162.5,55.1z
	 M40.9,155.6c-2.1-1.7-4.1-3.6-6-5.5l2.8-2.8c1.8,1.8,3.7,3.6,5.7,5.2L40.9,155.6z M153.6,41.5l-3.1,2.5c-1.6-2-3.3-3.9-5.2-5.8
	l2.6-3.1l0.2,0.2C150.1,37.3,151.9,39.3,153.6,41.5z M32.5,141.5l-3.1,2.6c-1.7-2.1-3.3-4.3-4.8-6.6l3.3-2.2
	C29.3,137.3,30.9,139.5,32.5,141.5L32.5,141.5z M139.4,32.8c-2-1.6-4.1-3.2-6.2-4.6l2.2-3.3c2.3,1.5,4.4,3.1,6.6,4.8L139.4,32.8z
	 M24,128.5l-3.5,1.9c-1.2-2.4-2.4-4.9-3.4-7.4l3.7-1.5C21.7,123.8,22.8,126.2,24,128.5z M126.5,24.2c-2.3-1.2-4.6-2.3-7-3.2l1.4-3.7
	c2.5,1,5,2.2,7.4,3.4L126.5,24.2z M18.2,114l-3.8,1.1c-0.7-2.6-1.4-5.3-1.8-8l3.9-0.7C16.9,109,17.5,111.6,18.2,114z M112.1,18.5
	c-2.5-0.7-5-1.3-7.5-1.7l0.7-3.9c2.7,0.5,5.3,1.1,7.9,1.8L112.1,18.5z M15.5,98.7L11.6,99c-0.2-2.7-0.3-5.5-0.2-8.2l4,0.1
	C15.2,93.5,15.3,96.1,15.5,98.7L15.5,98.7z M97,15.8c-2.6-0.2-5.1-0.3-7.7-0.2l-0.1-4c2.7-0.1,5.4,0,8.1,0.2L97,15.8z M15.8,83.1
	l-3.9-0.5c0.3-2.7,0.8-5.4,1.4-8.1l3.9,0.9C16.6,77.9,16.2,80.5,15.8,83.1z M81.5,16.3c-2.5,0.3-5.1,0.8-7.6,1.4L73,13.8
	c2.6-0.6,5.3-1.1,8-1.5L81.5,16.3z M19.3,67.9l-3.8-1.3c0.9-2.6,1.9-5.2,3-7.6l3.6,1.7C21,63,20.1,65.5,19.3,67.9L19.3,67.9z
	 M66.5,19.8c-2.4,0.9-4.8,1.8-7.2,2.9l-1.7-3.6c2.5-1.2,5-2.2,7.5-3.1L66.5,19.8z M25.6,53.8l-3.4-2c1.4-2.4,2.8-4.7,4.4-6.9
	l3.2,2.4C28.4,49.4,26.9,51.5,25.6,53.8L25.6,53.8z M52.6,26.4c-2.2,1.3-4.4,2.8-6.4,4.3l-2.4-3.2c2.2-1.6,4.4-3.1,6.8-4.5
	L52.6,26.4z M34.8,41.2l-3-2.7c1.8-2,3.7-4,5.7-5.8l2.7,3C38.3,37.4,36.5,39.3,34.8,41.2L34.8,41.2z M143.2,145
	c-28.2,28.6-74.3,28.9-102.9,0.7c-0.2-0.2-0.4-0.4-0.7-0.7C11,116,11,69.4,39.6,40.3c28.3-28.6,74.3-28.9,103-0.6
	c0.2,0.2,0.4,0.4,0.6,0.6C171.8,69.4,171.8,115.9,143.2,145L143.2,145z M40.2,40.9C12,69.6,12,115.7,40.2,144.5
	c28,28.3,73.6,28.6,101.8,0.6c0.2-0.2,0.4-0.4,0.6-0.6c28.2-28.7,28.3-74.8,0-103.6c-27.9-28.3-73.5-28.6-101.8-0.6
	C40.6,40.5,40.4,40.7,40.2,40.9z M150.5,152.4c-32.2,32.6-84.8,33-117.4,0.8c-0.3-0.3-0.5-0.5-0.8-0.8C-0.3,119.3-0.3,66.1,32.3,33
	c32.2-32.6,84.8-33,117.4-0.8c0.3,0.2,0.5,0.5,0.8,0.8C183.1,65.9,183.1,119.4,150.5,152.4L150.5,152.4z M32.9,33.5
	c-32.3,32.6-32.3,85.7,0,118.3c31.9,32.3,84,32.6,116.3,0.7c0.2-0.2,0.5-0.5,0.7-0.7c32.3-32.6,32.3-85.7,0-118.3
	C118,1.2,65.9,0.9,33.6,32.8C33.4,33,33.2,33.3,32.9,33.5L32.9,33.5z M91.6,89.5v-1.4c0.1-0.5,0.1-1,0-1.5V70.7v-0.1
	c-0.8-0.9-2.4-3.6-2.6-3.9c-2.2-0.4-13.3,4.1-14.1,4.7c-0.3,0.2-2.4,1.1-3.2,2.4c-1,1.6-2,11.4-2.3,12.7c-0.1-0.3,0.3-7.6-0.6-13
	c-0.4-2.1-1.4-4-2.7-5.7c-1.8-2.6-4.3-5.1-4.1-5.2c2,1.2,3.9,2.7,5.5,4.5c1.2,1.5,2.2,3.2,2.8,5c4.3-2.1,17.1-6.7,17.1-6.7
	s-18.2-1.2-18.8-1.7c-3.4-2.4-7.2-4.3-11.2-5.5C51.9,56.5,45,56,42.8,52.5c3.5,10.6,2.1,15.3,6.7,23.8c2.7,5.2,7.1,9.3,12.6,11.5
	c-0.2-5.5-1-11-2.3-16.3c-1.4-5.3-4.3-10.2-4-10c2.5,1.7,4.5,4.2,5.7,7c1.9,5.2,2.1,12.5,2.9,16.6c0.5,2.9,1.3,5.7,2.3,8.4
	c0.2,0.4,0.4,0.8,0.6,1.2c1,1.8,2.1,3.5,3.2,5.2c2.4,3.5,5.1,6.8,8.1,9.9c4.8,4.9,10.8,9.5,11.8,10.6c0.3,0.2,0.7,0.3,1,0.3h0.1
	v-8.2c0.3-0.1,5.5,0,7.4-2.2c0.3-0.3,0.6-0.7,0.8-1C105.3,102.3,109.3,89.3,91.6,89.5 M57.2,77.3c0.2,1.4,0.6,2.8,1,4.2
	c-3.3-3.1-6.1-6.7-8.3-10.7c-1.5-2.9-0.9-7-1.9-8.4c0,0,4.2,0.9,6.7,6.2C56,71.4,56.8,74.3,57.2,77.3 M88.7,108.6
	c0.1,0.3,0.3,0.5,0.5,0.7s0.5,0.3,0.8,0.4s0.7,0.2,1,0.2h3.2v-1.2h-4.3l1.6-1.9h5.4v3.3c0,1.1-0.9,2-1.9,2l0,0h-4
	c-0.7,0-1.4-0.1-2-0.3c-0.6-0.2-1.1-0.5-1.6-0.9c-0.4-0.4-0.8-0.9-1.1-1.4c-0.3-0.5-0.4-1.1-0.4-1.7s0.1-1.2,0.4-1.7
	s0.6-0.9,1.1-1.3s1-0.7,1.6-0.8c0.7-0.2,1.3-0.3,2-0.3h6l-1.7,2.2H91c-0.3,0-0.7,0.1-1,0.2s-0.5,0.2-0.8,0.4
	c-0.4,0.4-0.7,0.9-0.7,1.5C88.5,108.1,88.6,108.4,88.7,108.6 M125.6,58.2c-4,1.2-7.8,3.1-11.2,5.5c-0.6,0.5-18.8,1.7-18.8,1.7
	s12.8,4.6,17.1,6.7c0.7-1.8,1.6-3.5,2.8-5c1.6-1.8,3.4-3.3,5.5-4.5c0.2,0.1-2.3,2.6-4.1,5.2c-1.3,1.7-2.3,3.6-2.7,5.7
	c-0.9,5.4-0.5,12.7-0.6,13c-0.3-1.3-1.3-11.1-2.3-12.7c-0.8-1.3-2.9-2.2-3.2-2.4c-0.8-0.6-11.9-5.1-14.1-4.7c-0.3,0.4-1.9,3-2.6,3.9
	l-0.1,0.1v18.8c-17.4-0.2-13.8,12.3-8.5,19.4c0.4,0.5,0.7,1,1.1,1.4c1.9,2.2,7.1,2.1,7.4,2.2v8.2h0.1c0.4,0,0.7-0.1,1-0.3
	c1.1-1,7-5.6,11.8-10.6c2.9-3.1,5.6-6.4,8.1-9.9c1.2-1.7,2.2-3.4,3.2-5.2c0.2-0.4,0.4-0.8,0.7-1.2c1-2.7,1.7-5.5,2.3-8.4
	c0.8-4.1,1-11.4,2.9-16.6c1.2-2.8,3.2-5.3,5.7-7c0.3-0.2-2.6,4.7-4,10c-1.3,5.3-2.1,10.8-2.3,16.3c5.4-2.2,9.9-6.3,12.6-11.5
	c4.6-8.5,3.2-13.2,6.7-23.8C138.1,56,131.1,56.5,125.6,58.2 M91,112c-0.7,0-1.4-0.1-2-0.3c-0.6-0.2-1.1-0.5-1.6-0.9
	c-0.4-0.4-0.8-0.9-1.1-1.4c-0.3-0.5-0.4-1.1-0.4-1.7s0.1-1.2,0.4-1.7s0.6-0.9,1.1-1.3s1-0.7,1.6-0.8c0.7-0.2,1.3-0.3,2-0.3h6
	l-1.7,2.2H91c-0.3,0-0.7,0.1-1,0.2s-0.5,0.2-0.8,0.4c-0.4,0.4-0.7,0.9-0.7,1.5s0.3,1.1,0.7,1.5c0.2,0.2,0.5,0.3,0.8,0.4
	s0.7,0.2,1,0.2h3.2v-1.2h-4.3l1.6-1.9h5.4v3.3c0,1.1-0.9,2-1.9,2l0,0L91,112 M133.1,70.8c-2.2,4-5,7.6-8.3,10.7
	c0.4-1.4,0.8-2.8,1-4.2c0.4-3,1.3-5.9,2.5-8.7c2.5-5.3,6.7-6.2,6.7-6.2C134.1,63.8,134.6,67.8,133.1,70.8 M60.8,98.4l6.9,5.5l1.5,12
	l4,7.9l3,3.2l6.6,22.5l-13.5-14.4L66,121.9L53.6,113v-6.9v-5.7L60.8,98.4z M112,113v2.4l-3.3,6.8c0,0-4.4,6.8-6.4,9.2
	s-10.7,10.2-10.7,10.2s-6.5-6.2-10.7-10.8c-2.4-2.7-4.5-5.6-6.5-8.6l-3.4-6.9v-2.4l2.3,1.1l1.9,2.2c0,0,14.4,6.2,16.3,7.1
	c1.9-0.9,16.3-7.1,16.3-7.1l1.9-2.2L112,113z M55.5,116.7c1.7,1.1,9.5,6.4,9.5,6.4l1.3,5.5l-10.1-8.7
	C56.3,119.8,55.5,117,55.5,116.7L55.5,116.7z M134.6,86.9l3-12.6L137,73l-5.8,10.4l-10.7,7c0,0-3.4,7.9-5,11.9
	C117.5,100.5,134.6,86.9,134.6,86.9L134.6,86.9z M48.4,86.9l-3-12.6L46,73c0,0,3.2,7.5,6.1,10.3c2.9,2.8,10.3,7.1,10.3,7.1
	s3.4,7.9,5,11.9C65.5,100.5,48.4,86.9,48.4,86.9L48.4,86.9z M122.3,98.4l-6.9,5.5l-1.4,12l-4,7.9l-3.4,3.8l-6.2,21.9l13.5-14.4
	l3.3-13.2l12.4-8.9v-6.9v-5.7L122.3,98.4z M127.7,116.7c-1.7,1.1-9.5,6.4-9.5,6.4l-1.4,5.4l10.2-8.7
	C126.9,119.8,127.7,117,127.7,116.7L127.7,116.7z M111.3,105.4l-1.2,5.2l-3.2,3.1l-6.9,3L111.3,105.4z M72,105.4l1.2,5.2l3.2,3.1
	l6.9,3L72,105.4z M83,108.9c0.1,0.7,0.3,1.3,0.6,1.9c0.1,0.1,0.1,0.2,0.2,0.3l-0.5,0.6h0.9c0.4,0.5,0.8,1,1.3,1.4
	c0.8,0.7,1.6,1.2,2.6,1.5s2,0.5,3,0.5h0.5v-2.7c-0.3-0.1-5.5,0-7.4-2.2C83.7,109.9,83.3,109.4,83,108.9 M86,107.7L86,107.7
	c0-0.6,0.1-1.2,0.4-1.7s0.6-0.9,1.1-1.3s1-0.7,1.6-0.8c0.7-0.2,1.3-0.3,2-0.3h6l-1.7,2.2H91c-0.3,0-0.7,0.1-1,0.2s-0.5,0.2-0.8,0.4
	c-0.4,0.4-0.7,0.9-0.7,1.5s0.3,1.1,0.7,1.5c0.2,0.2,0.5,0.3,0.8,0.4s0.7,0.2,1,0.2h3.2v-1.2h-4.3l1.6-1.9h5.4v3.3l0,0
	c0,1.1-0.9,2-1.9,2l0,0h-4c-0.7,0-1.4-0.1-2-0.3c-0.6-0.2-1.1-0.5-1.6-0.9c-0.4-0.4-0.8-0.9-1.1-1.4C86.1,108.9,86,108.3,86,107.7
	L86,107.7 M103.4,100.4H91c-1,0-2,0.1-3,0.4s-1.8,0.8-2.6,1.4c-1.6,1.3-2.6,3.3-2.6,5.4c0,0.4,0,0.8,0.1,1.2l0,0
	c0.4,0.5,0.7,1,1.1,1.4c1.9,2.2,7.1,2.1,7.4,2.2v2.7h3.3c2.8,0,5.1-2.3,5.1-5.1l0,0v-5.1L103.4,100.4 M80.4,133.9l10.7,10.5v5.7
	h-5.4L80.4,133.9z M103,133.9l-10.7,10.5v5.7h5.4L103,133.9z M91.6,89.5v-1.4c0.1-0.5,0.1-1,0-1.5V70.7v-0.1
	c-0.8-0.9-2.4-3.6-2.6-3.9c-2.2-0.4-13.3,4.1-14.1,4.7c-0.3,0.2-2.4,1.1-3.2,2.4c-1,1.6-2,11.4-2.3,12.7c-0.1-0.3,0.3-7.6-0.6-13
	c-0.4-2.1-1.4-4-2.7-5.7c-1.8-2.6-4.3-5.1-4.1-5.2c2,1.2,3.9,2.7,5.5,4.5c1.2,1.5,2.2,3.2,2.8,5c4.3-2.1,17.1-6.7,17.1-6.7
	s-18.2-1.2-18.8-1.7c-3.4-2.4-7.2-4.3-11.2-5.5C51.9,56.5,45,56,42.8,52.5c3.5,10.6,2.1,15.3,6.7,23.8c2.7,5.2,7.1,9.3,12.6,11.5
	c-0.2-5.5-1-11-2.3-16.3c-1.4-5.3-4.3-10.2-4-10c2.5,1.7,4.5,4.2,5.7,7c1.9,5.2,2.1,12.5,2.9,16.6c0.5,2.9,1.3,5.7,2.3,8.4
	c0.2,0.4,0.4,0.8,0.6,1.2c1,1.8,2.1,3.5,3.2,5.2c2.4,3.5,5.1,6.8,8.1,9.9c4.8,4.9,10.8,9.5,11.8,10.6c0.3,0.2,0.7,0.3,1,0.3h0.1
	v-8.2c0.3-0.1,5.5,0,7.4-2.2c0.3-0.3,0.6-0.7,0.8-1C105.3,102.3,109.3,89.3,91.6,89.5L91.6,89.5z M57.2,77.3c0.2,1.4,0.6,2.8,1,4.2
	c-3.3-3.1-6.1-6.7-8.3-10.7c-1.5-2.9-0.9-7-1.9-8.4c0,0,4.2,0.9,6.7,6.2C56,71.4,56.8,74.3,57.2,77.3L57.2,77.3z M88.7,108.6
	c0.1,0.3,0.3,0.5,0.5,0.7s0.5,0.3,0.8,0.4s0.7,0.2,1,0.2h3.2v-1.2h-4.3l1.6-1.9h5.4v3.3c0,1.1-0.9,2-1.9,2l0,0h-4
	c-0.7,0-1.4-0.1-2-0.3c-0.6-0.2-1.1-0.5-1.6-0.9c-0.4-0.4-0.8-0.9-1.1-1.4c-0.3-0.5-0.4-1.1-0.4-1.7s0.1-1.2,0.4-1.7
	s0.6-0.9,1.1-1.3s1-0.7,1.6-0.8c0.7-0.2,1.3-0.3,2-0.3h6l-1.7,2.2H91c-0.3,0-0.7,0.1-1,0.2s-0.5,0.2-0.8,0.4
	c-0.4,0.4-0.7,0.9-0.7,1.5C88.5,108.1,88.6,108.4,88.7,108.6L88.7,108.6z M125.7,58.2c-4,1.2-7.8,3.1-11.2,5.5
	c-0.6,0.5-18.8,1.7-18.8,1.7s12.8,4.6,17.1,6.7c0.7-1.8,1.6-3.5,2.8-5c1.6-1.8,3.4-3.3,5.5-4.5c0.2,0.1-2.3,2.6-4.1,5.2
	c-1.3,1.7-2.3,3.6-2.7,5.7c-0.9,5.4-0.5,12.7-0.6,13c-0.3-1.3-1.3-11.1-2.3-12.7c-0.8-1.3-2.9-2.2-3.2-2.4
	c-0.8-0.6-11.9-5.1-14.1-4.7c-0.3,0.4-1.9,3-2.6,3.9l-0.1,0.1v18.8c-17.4-0.2-13.8,12.3-8.5,19.4c0.4,0.5,0.7,1,1.1,1.4
	c1.9,2.2,7.1,2.1,7.4,2.2v8.2h0.1c0.4,0,0.7-0.1,1-0.3c1.1-1,7-5.6,11.8-10.6c2.9-3.1,5.6-6.4,8.1-9.9c1.2-1.7,2.2-3.4,3.2-5.2
	c0.2-0.4,0.4-0.8,0.7-1.2c1-2.7,1.7-5.5,2.3-8.4c0.8-4.1,1-11.4,2.9-16.6c1.2-2.8,3.2-5.3,5.7-7c0.3-0.2-2.6,4.7-4,10
	c-1.3,5.3-2.1,10.8-2.3,16.3c5.4-2.2,9.9-6.3,12.6-11.5c4.6-8.5,3.2-13.2,6.7-23.8C138.1,56,131.2,56.6,125.7,58.2L125.7,58.2z
	 M91,112c-0.7,0-1.4-0.1-2-0.3c-0.6-0.2-1.1-0.5-1.6-0.9c-0.4-0.4-0.8-0.9-1.1-1.4c-0.3-0.5-0.4-1.1-0.4-1.7s0.1-1.2,0.4-1.7
	s0.6-0.9,1.1-1.3s1-0.7,1.6-0.8c0.7-0.2,1.3-0.3,2-0.3h6l-1.7,2.2H91c-0.3,0-0.7,0.1-1,0.2s-0.5,0.2-0.8,0.4
	c-0.4,0.4-0.7,0.9-0.7,1.5s0.3,1.1,0.7,1.5c0.2,0.2,0.5,0.3,0.8,0.4s0.7,0.2,1,0.2h3.2v-1.2h-4.3l1.6-1.9h5.4v3.3c0,1.1-0.9,2-1.9,2
	l0,0L91,112L91,112z M133.2,70.8c-2.2,4-5,7.6-8.3,10.7c0.4-1.4,0.8-2.8,1-4.2c0.4-3,1.3-5.9,2.5-8.7c2.5-5.3,6.7-6.2,6.7-6.2
	C134.1,63.8,134.6,67.8,133.2,70.8L133.2,70.8z M60.8,98.4l6.9,5.5l1.5,12l4,7.9l3,3.2l6.6,22.5l-13.5-14.4L66,121.9L53.6,113v-6.9
	v-5.7L60.8,98.4z M112,113v2.4l-3.3,6.8c0,0-4.4,6.8-6.4,9.2s-10.7,10.2-10.7,10.2s-6.5-6.2-10.7-10.8c-2.4-2.7-4.5-5.6-6.5-8.6
	l-3.4-6.9v-2.4l2.3,1.1l1.9,2.2c0,0,14.4,6.2,16.3,7.1c1.9-0.9,16.3-7.1,16.3-7.1l1.9-2.2L112,113z M55.5,116.7
	c1.7,1.1,9.5,6.4,9.5,6.4l1.3,5.5l-10.1-8.7C56.3,119.8,55.5,117,55.5,116.7L55.5,116.7z M134.6,86.9l3-12.6L137,73l-5.8,10.4
	l-10.7,7c0,0-3.4,7.9-5,11.9C117.5,100.5,134.6,86.9,134.6,86.9L134.6,86.9z M48.4,86.9l-3-12.6L46,73c0,0,3.2,7.5,6.1,10.3
	c2.9,2.8,10.3,7.1,10.3,7.1s3.4,7.9,5,11.9C65.5,100.5,48.4,86.9,48.4,86.9L48.4,86.9z M122.3,98.4l-6.9,5.5l-1.4,12l-4,7.9
	l-3.4,3.8l-6.2,21.9l13.5-14.4l3.3-13.2l12.4-8.9v-6.9v-5.7L122.3,98.4z M127.7,116.7c-1.7,1.1-9.5,6.4-9.5,6.4l-1.4,5.4l10.2-8.7
	C126.9,119.8,127.7,117,127.7,116.7L127.7,116.7z M111.3,105.4l-1.2,5.2l-3.2,3.1l-6.9,3L111.3,105.4z M72,105.4l1.2,5.2l3.2,3.1
	l6.9,3L72,105.4z M80.4,133.9l10.7,10.5v5.7h-5.4L80.4,133.9z M103,133.9l-10.7,10.5v5.7h5.4L103,133.9z M42.8,54.9
	c-5.4,7.1-9.2,15.2-11.2,23.8c-0.2,0.9-0.4,1.8-0.5,2.7c-0.2,0.8-0.3,1.7-0.4,2.5c-0.1,0.8-0.2,1.6-0.3,2.3c0,0.4-0.1,0.8-0.1,1.1
	c0,0.4,0,0.7-0.1,1c0,0.7-0.1,1.3-0.1,1.9s0,1.2,0,1.7s0,1,0,1.4s0,0.8,0,1.2c0.1,1.4,0.1,2.2,0.1,2.2l0.8-0.1c0,0,0-0.7-0.1-2.2
	c0-0.3,0-0.7,0-1.2s0-0.9,0-1.4s0-1.1,0-1.7s0.1-1.2,0.1-1.9c0-0.3,0-0.7,0.1-1s0.1-0.7,0.1-1.1c0.1-0.7,0.1-1.5,0.3-2.2
	c0.1-0.8,0.3-1.6,0.4-2.5c0.1-0.8,0.4-1.7,0.5-2.6c1.9-8.4,5.6-16.3,10.7-23.2C43.1,55.5,42.9,55.2,42.8,54.9L42.8,54.9z
	 M138.7,53.1c-1.3-1.6-2.7-3.1-4.2-4.6c-1.9-1.9-3.9-3.6-6-5.3c-1.1-0.8-2.2-1.6-3.3-2.4c-0.6-0.4-1.2-0.7-1.8-1.1l-0.9-0.6
	l-0.9-0.5c-5-2.9-10.5-5.1-16.2-6.4c-2.9-0.7-5.9-1.1-8.8-1.4c-3-0.2-6-0.3-9-0.1c-3,0.2-6,0.6-8.9,1.3c-2.9,0.6-5.8,1.5-8.6,2.5
	c-5.5,2.1-10.6,4.9-15.2,8.4L54,43.5l-0.8,0.7c-0.5,0.4-1.1,0.9-1.6,1.3c-1,0.9-2.1,1.8-3,2.8c-1.5,1.5-3,3.1-4.3,4.7l0,0
	c0.1,0.1,0.2,0.2,0.3,0.3c0.1,0,0.2,0.1,0.3,0.1c1.3-1.6,2.7-3.2,4.2-4.7c0.9-1,2-1.9,3-2.8c0.5-0.4,1.1-0.9,1.6-1.3l0.8-0.7
	l0.8-0.6c7-5.3,15-8.9,23.5-10.8c2.9-0.6,5.8-1,8.8-1.2s5.9-0.1,8.9,0.1c8.7,0.7,17.1,3.4,24.7,7.7l0.9,0.5l0.9,0.6
	c0.6,0.4,1.2,0.7,1.7,1.1c1.1,0.8,2.3,1.5,3.3,2.4c2.1,1.6,4.1,3.3,5.9,5.2c1.4,1.5,2.8,2.9,4,4.4C138.3,53.5,138.5,53.3,138.7,53.1
	L138.7,53.1z M152.5,86.6c0-0.4-0.1-0.8-0.1-1.2s-0.1-0.9-0.2-1.4s-0.1-1.1-0.3-1.7c-0.1-0.6-0.2-1.2-0.3-1.8
	c-0.1-0.3-0.1-0.6-0.2-1c-0.1-0.3-0.2-0.7-0.3-1.1c-0.2-0.7-0.3-1.5-0.6-2.2c-0.2-0.8-0.5-1.6-0.7-2.4c-0.3-0.8-0.6-1.7-0.9-2.6
	c-1.4-3.9-3.2-7.6-5.4-11.2c-1-1.7-2.1-3.3-3.3-4.9c-0.1,0.3-0.2,0.7-0.3,1c1.1,1.4,2.1,2.9,2.9,4.4c2.1,3.5,3.9,7.2,5.3,11
	c0.3,0.9,0.6,1.7,0.8,2.5c0.3,0.8,0.5,1.6,0.7,2.4c0.2,0.7,0.4,1.5,0.6,2.2c0.1,0.4,0.2,0.7,0.3,1.1s0.1,0.7,0.2,1
	c0.1,0.6,0.2,1.3,0.3,1.8s0.2,1.1,0.2,1.6c0.1,0.5,0.1,1,0.2,1.4s0.1,0.8,0.1,1.2c0.1,1.4,0.2,2.1,0.2,2.1l0.8-0.1
	C152.7,88.7,152.6,88,152.5,86.6L152.5,86.6z M34.9,90.3c0,0-0.8-0.4-1.7-0.9c-0.8-0.5-1.7-1-1.7-1s0,0.5-0.1,1.3c0,0.2,0,0.4,0,0.6
	s0,0.4,0,0.7c0,0.5,0,1,0,1.5c0,1,0,2,0.1,2.8c0,0.8,0,1.3,0,1.3s0.9-0.5,1.7-1c0.9-0.5,1.7-0.9,1.7-0.9s0-0.3,0-0.7
	c0-0.4,0-0.9,0-1.5s0-1.1,0-1.5S34.9,90.3,34.9,90.3 M37.4,75.6c0,0-0.7-0.7-1.4-1.3s-1.4-1.4-1.4-1.4s-0.2,0.5-0.4,1.2
	c-0.1,0.4-0.2,0.8-0.4,1.3c-0.1,0.4-0.3,0.9-0.4,1.4c-0.1,0.5-0.3,1-0.4,1.4c-0.1,0.5-0.2,0.9-0.3,1.3c-0.2,0.8-0.3,1.2-0.3,1.2
	s1-0.3,1.9-0.5c0.9-0.3,1.9-0.4,1.9-0.4s0.1-0.3,0.1-0.7c0.1-0.4,0.2-0.9,0.4-1.4s0.3-1,0.4-1.4S37.5,75.6,37.4,75.6 M43.6,62.1
	c0,0-0.5-0.8-1-1.7c-0.5-0.8-1-1.7-1-1.7s-0.1,0.1-0.2,0.3c-0.2,0.2-0.3,0.5-0.5,0.8c-0.4,0.6-0.9,1.5-1.4,2.4s-1,1.8-1.3,2.4
	c-0.3,0.7-0.5,1.1-0.5,1.1s1,0,1.9,0c1,0,2,0.1,2,0.1l1-1.9c0.2-0.4,0.5-0.9,0.7-1.2S43.6,62.1,43.6,62.1 M53.1,50.7
	c0,0-0.3-0.9-0.6-1.9S52,46.9,52,46.9s-0.4,0.3-0.9,0.8c-0.6,0.5-1.3,1.2-2,1.9c-0.7,0.7-1.4,1.4-1.9,2c-0.3,0.3-0.5,0.5-0.6,0.7
	c-0.1,0.1-0.2,0.2-0.2,0.2s0.2,0.1,0.6,0.2s0.8,0.2,1.3,0.4c0.9,0.3,1.9,0.6,1.9,0.6s0.2-0.2,0.5-0.5s0.6-0.7,1-1.1s0.8-0.7,1-1
	C52.7,51,52.9,50.8,53.1,50.7 M65.1,42.1c0,0,0-1-0.1-2c0-1,0-2,0-2s-0.1,0.1-0.3,0.2s-0.5,0.2-0.8,0.4c-0.3,0.2-0.7,0.4-1.1,0.6
	s-0.9,0.5-1.3,0.7c-0.9,0.5-1.7,1-2.4,1.4c-0.6,0.4-1,0.7-1,0.7s0.9,0.5,1.7,1s1.7,1,1.7,1s0.9-0.5,1.8-1.1c0.4-0.3,0.9-0.5,1.3-0.7
	S65.1,42.1,65.1,42.1 M78.9,36.9c0,0,0.2-1,0.4-1.9c0.3-1,0.5-1.9,0.5-1.9s-0.5,0.1-1.2,0.2s-1.7,0.4-2.7,0.7s-1.9,0.6-2.6,0.8
	c-0.4,0.1-0.7,0.2-0.9,0.3c-0.1,0-0.2,0.1-0.3,0.1c0,0,0.7,0.7,1.4,1.4c0.7,0.7,1.3,1.5,1.3,1.5s0.3-0.1,0.6-0.2
	c0.4-0.1,0.9-0.3,1.4-0.4C77.9,37.2,78.9,36.9,78.9,36.9 M93.6,35.5c0,0,0.1-0.2,0.3-0.6c0.2-0.3,0.4-0.7,0.6-1.2
	c0.5-0.9,1-1.7,1-1.7s-0.5,0-1.3-0.1c-0.8,0-1.8,0-2.7-0.1c-0.3,0-0.5,0-0.8,0c-0.2,0-0.5,0-0.7,0c-0.5,0-0.9,0-1.3,0.1
	c-0.4,0-0.7,0-0.9,0c-0.1,0-0.2,0-0.3,0c0,0,0.1,0.2,0.3,0.5c0.2,0.3,0.4,0.8,0.7,1.2c0.5,0.9,0.9,1.8,0.9,1.8s0.3,0,0.7,0
	c0.4,0,0.9,0,1.4,0C92.5,35.5,93.6,35.5,93.6,35.5 M108.1,38c0,0,0.7-0.7,1.3-1.4c0.7-0.7,1.4-1.4,1.4-1.4s-0.5-0.2-1.2-0.4
	c-0.3-0.1-0.8-0.3-1.2-0.4c-0.5-0.1-0.9-0.2-1.4-0.4s-1-0.3-1.4-0.4c-0.5-0.1-0.9-0.2-1.3-0.3c-0.7-0.2-1.2-0.3-1.2-0.3
	s0.3,1,0.5,1.9s0.4,1.9,0.4,1.9s0.3,0.1,0.7,0.1c0.4,0.1,0.9,0.2,1.4,0.4s1,0.3,1.4,0.4S108.1,38,108.1,38 M121.5,44.2
	c0,0,0.8-0.5,1.7-1.1c0.4-0.3,0.8-0.5,1.2-0.7s0.5-0.3,0.5-0.3s-0.1-0.1-0.3-0.2s-0.4-0.3-0.8-0.5c-0.6-0.4-1.5-0.9-2.3-1.4
	c-0.9-0.5-1.8-1-2.4-1.3l-1.1-0.6v2c0,0.5,0,1,0,1.3c0,0.4,0,0.6,0,0.6s0.9,0.5,1.8,1c0.5,0.3,0.9,0.5,1.3,0.8
	S121.5,44.2,121.5,44.2 M132.8,53.7c0,0,0.9-0.3,1.9-0.6c0.9-0.3,1.9-0.5,1.9-0.5s-0.3-0.4-0.8-0.9c-0.5-0.6-1.2-1.3-1.9-2
	c-0.7-0.8-1.4-1.4-2-1.9c-0.3-0.3-0.5-0.5-0.7-0.6s-0.3-0.2-0.3-0.2s-0.1,0.2-0.1,0.6c-0.1,0.3-0.2,0.8-0.4,1.3
	c-0.3,0.9-0.6,1.9-0.6,1.9s0.2,0.2,0.5,0.4c0.1,0.1,0.3,0.3,0.5,0.5s0.3,0.4,0.5,0.6c0.4,0.4,0.7,0.7,1,1.1c0.1,0.1,0.3,0.3,0.3,0.3
	C132.8,53.7,132.8,53.7,132.8,53.7 M141.4,65.8c0,0,1-0.1,1.9-0.1c0.5,0,1,0,1.4,0s0.6,0,0.6,0c0-0.1-0.1-0.2-0.2-0.3
	c-0.1-0.2-0.3-0.5-0.4-0.8c-0.4-0.6-0.8-1.6-1.3-2.4c-0.5-0.9-1-1.8-1.4-2.4s-0.7-1-0.7-1s-0.5,0.9-1,1.7s-1,1.7-1,1.7l0.1,0.1
	c0.1,0.1,0.2,0.3,0.3,0.4c0.2,0.3,0.5,0.8,0.7,1.3c0.2,0.2,0.3,0.5,0.4,0.7s0.2,0.4,0.3,0.6C141.3,65.6,141.4,65.8,141.4,65.8
	 M146.5,79.8c0,0,0.3,0.1,0.6,0.1c0.3,0.1,0.8,0.2,1.3,0.3c0.9,0.2,1.9,0.5,1.9,0.5s-0.1-0.5-0.2-1.2c-0.2-0.7-0.4-1.7-0.7-2.7
	c-0.3-0.9-0.6-1.9-0.8-2.7c-0.1-0.4-0.2-0.7-0.3-0.9c-0.1-0.2-0.1-0.3-0.1-0.3s-0.7,0.7-1.4,1.4c-0.7,0.7-1.4,1.3-1.4,1.3
	s0.3,1,0.6,2.1C146.3,78.7,146.5,79.8,146.5,79.8 M31.1,96.5c0,0,0.1,0.8,0.2,2.1c0,0.4,0.1,0.8,0.1,1.2c0,0.4,0.1,0.9,0.2,1.4
	c0.1,0.5,0.2,1.1,0.2,1.6c0.1,0.6,0.2,1.2,0.3,1.8c0.1,0.3,0.1,0.7,0.2,1c0.1,0.3,0.2,0.7,0.2,1c0.2,0.7,0.3,1.4,0.5,2.2
	c0.2,0.8,0.5,1.6,0.7,2.4s0.6,1.7,0.9,2.5c3.1,8.4,7.9,16,14.3,22.4c1.9,1.9,3.8,3.6,5.9,5.2c1,0.9,2.2,1.6,3.3,2.4
	c0.6,0.4,1.2,0.7,1.8,1.1l0.9,0.6l0.9,0.5c5,2.8,10.4,5,15.9,6.3c2.9,0.7,5.8,1.1,8.7,1.4c3,0.2,5.9,0.3,8.9,0.1
	c5.9-0.4,11.7-1.6,17.3-3.7c5.4-2,10.4-4.8,15-8.3l0.8-0.6l0.8-0.7c0.5-0.4,1.1-0.9,1.6-1.3c1-0.9,2.1-1.8,3-2.8
	c1.9-1.8,3.6-3.8,5.2-5.9c3-3.8,5.5-8,7.5-12.4c1.7-3.7,3-7.6,3.9-11.6c0.2-0.9,0.4-1.8,0.5-2.6s0.3-1.7,0.4-2.4s0.2-1.5,0.3-2.3
	c0.1-0.4,0.1-0.7,0.1-1.1c0-0.3,0.1-0.7,0.1-1c0-0.7,0.1-1.3,0.1-1.9s0-1.1,0-1.7s0-1,0-1.4s0-0.8,0-1.2c-0.1-1.4-0.1-2.2-0.1-2.2
	l0.8-0.1c0,0,0,0.8,0.1,2.2c0,0.3,0,0.7,0,1.2s0,0.9,0,1.4s0,1.1,0,1.7s-0.1,1.2-0.1,1.9c0,0.3-0.1,0.7-0.1,1s-0.1,0.7-0.1,1.1
	c-0.1,0.7-0.2,1.5-0.3,2.3c-0.1,0.8-0.3,1.6-0.4,2.5s-0.4,1.7-0.6,2.6c-0.9,4-2.3,8-4,11.8c-2,4.5-4.6,8.7-7.6,12.6
	c-1.6,2.1-3.4,4.1-5.3,6c-1,1-2,1.9-3,2.8c-0.5,0.4-1.1,0.9-1.6,1.3l-0.8,0.7l-0.9,0.6c-4.6,3.5-9.8,6.3-15.2,8.4
	c-2.8,1-5.7,1.9-8.6,2.5s-5.9,1-8.9,1.2c-6,0.4-12-0.1-17.8-1.5c-5.7-1.3-11.1-3.5-16.2-6.4l-0.9-0.5l-0.9-0.6
	c-0.6-0.3-1.2-0.7-1.8-1.1c-1.1-0.8-2.3-1.6-3.3-2.4c-2.1-1.6-4.1-3.4-6-5.2c-3.5-3.5-6.5-7.3-9.1-11.5c-2.2-3.5-4-7.3-5.4-11.2
	c-0.3-0.9-0.6-1.7-0.9-2.5c-0.3-0.8-0.5-1.6-0.7-2.4s-0.4-1.5-0.6-2.2c-0.1-0.4-0.2-0.7-0.2-1.1c-0.1-0.3-0.1-0.7-0.2-1
	c-0.1-0.6-0.2-1.3-0.4-1.8c-0.1-0.6-0.2-1.2-0.2-1.7s-0.1-1-0.2-1.4s-0.1-0.8-0.1-1.2c-0.1-1.4-0.2-2.2-0.2-2.2L31.1,96.5z
	 M147.9,95c0,0,0.8,0.5,1.7,0.9s1.7,1,1.7,1s0-0.5,0.1-1.3c0-0.2,0-0.4,0-0.6s0-0.5,0-0.7c0-0.5,0-1,0-1.5c0-1,0-2-0.1-2.8
	s-0.1-1.3-0.1-1.3s-0.8,0.5-1.7,1c-0.9,0.5-1.7,0.9-1.7,0.9s0,0.3,0,0.7s0,0.9,0,1.5s0,1.1,0,1.5S147.9,95,147.9,95 M145.4,109.7
	c0,0,0.7,0.7,1.4,1.3s1.4,1.4,1.4,1.4s0.2-0.5,0.4-1.2c0.1-0.3,0.3-0.8,0.4-1.2c0.1-0.5,0.3-0.9,0.4-1.4s0.3-1,0.4-1.4
	c0.1-0.5,0.2-0.9,0.3-1.3c0.2-0.7,0.3-1.2,0.3-1.2s-1,0.3-1.9,0.5s-1.9,0.4-1.9,0.4s-0.1,0.3-0.1,0.7s-0.3,0.9-0.4,1.4
	s-0.3,1-0.4,1.4C145.5,109.4,145.4,109.7,145.4,109.7 M139.3,123.2c0,0,0.5,0.8,1,1.7s1,1.7,1,1.7c0.1-0.1,0.1-0.2,0.2-0.3
	c0.2-0.2,0.3-0.5,0.5-0.8c0.4-0.7,0.9-1.5,1.4-2.4s1-1.8,1.3-2.4c0.3-0.7,0.6-1.1,0.6-1.1h-2c-1,0-1.9-0.1-1.9-0.1s-0.5,0.9-1,1.8
	c-0.3,0.5-0.6,0.9-0.7,1.3C139.4,122.9,139.3,123.1,139.3,123.2 M129.8,134.6c0,0,0.3,0.9,0.6,1.9c0.3,0.9,0.5,1.9,0.5,1.9
	s0.4-0.3,0.9-0.8c0.6-0.5,1.3-1.2,2-1.9c0.7-0.7,1.4-1.4,1.9-2c0.3-0.3,0.5-0.5,0.6-0.7c0.1-0.1,0.2-0.2,0.2-0.3
	c0,0-0.2-0.1-0.6-0.2s-0.8-0.2-1.3-0.4c-0.9-0.3-1.9-0.6-1.9-0.6s-0.2,0.2-0.4,0.5c-0.3,0.3-0.6,0.7-1,1s-0.8,0.7-1,1
	C130,134.4,129.8,134.6,129.8,134.6 M117.8,143.2c0,0,0,1,0.1,2c0,1,0,2,0,2s0.1-0.1,0.3-0.2s0.5-0.2,0.8-0.4
	c0.3-0.2,0.7-0.4,1.1-0.6s0.9-0.4,1.3-0.7c0.9-0.5,1.7-1,2.4-1.4s1-0.7,1-0.7s-0.8-0.5-1.7-1s-1.6-1-1.6-1l-1.8,1.1
	c-0.4,0.3-0.9,0.5-1.3,0.7S117.8,143.2,117.8,143.2 M61.4,141.1c0,0-0.8,0.5-1.7,1.1c-0.4,0.3-0.8,0.5-1.1,0.7s-0.5,0.3-0.5,0.3
	c0.1,0.1,0.2,0.1,0.3,0.2c0.2,0.2,0.5,0.3,0.8,0.5c0.6,0.4,1.5,0.9,2.3,1.4c0.9,0.5,1.7,1,2.4,1.3c0.7,0.3,1.1,0.6,1.1,0.6s0-1,0-2
	c0-0.5,0-1,0-1.3c0-0.4,0-0.6,0-0.6s-0.9-0.5-1.8-1c-0.5-0.3-0.9-0.6-1.2-0.8C61.6,141.2,61.4,141.1,61.4,141.1 M50.1,131.6
	c0,0-0.9,0.3-1.9,0.6s-1.9,0.5-1.9,0.5s0.3,0.4,0.8,0.9c0.5,0.6,1.2,1.3,1.9,2c0.7,0.8,1.5,1.4,2,1.9c0.3,0.3,0.5,0.5,0.7,0.6
	c0.1,0.1,0.2,0.1,0.3,0.2c0,0,0.1-0.2,0.1-0.6s0.2-0.8,0.4-1.3c0.3-1,0.6-1.9,0.6-1.9s-0.2-0.2-0.5-0.4c-0.1-0.2-0.3-0.3-0.5-0.5
	s-0.4-0.4-0.5-0.6c-0.4-0.4-0.7-0.8-1-1c-0.1-0.2-0.2-0.3-0.3-0.3L50.1,131.6 M41.5,119.5l-2,0.1c-0.5,0-1,0-1.4,0s-0.6,0-0.6,0
	c0,0.1,0.1,0.2,0.1,0.3c0.1,0.2,0.3,0.5,0.4,0.8c0.4,0.7,0.8,1.6,1.3,2.4s1,1.8,1.4,2.4c0.4,0.7,0.7,1.1,0.7,1.1s0.5-0.9,1-1.7
	s1-1.7,1-1.7s0-0.1-0.1-0.2s-0.1-0.3-0.2-0.4c-0.2-0.3-0.5-0.8-0.7-1.2c-0.1-0.2-0.3-0.5-0.4-0.7c-0.1-0.2-0.2-0.4-0.3-0.6
	L41.5,119.5 M36.3,105.5c0,0-0.2-0.1-0.6-0.2c-0.4-0.1-0.8-0.2-1.3-0.3c-0.9-0.2-1.9-0.5-1.9-0.5s0.1,0.5,0.3,1.3
	c0.2,0.7,0.4,1.7,0.7,2.7s0.6,1.9,0.8,2.7c0.1,0.4,0.2,0.7,0.3,0.9c0,0.1,0.1,0.2,0.1,0.3c0,0,0.7-0.7,1.4-1.4
	c0.7-0.7,1.4-1.4,1.4-1.4s-0.3-1-0.6-2.1C36.6,106.6,36.4,105.5,36.3,105.5"/>
</svg>
