<svg xmlns="http://www.w3.org/2000/svg" xmlns:xlink="http://www.w3.org/1999/xlink" width="190.72" height="30.13" viewBox="0 0 190.72 30.13">
  <defs>
    <style>
      .cls-1 {
        fill-rule: evenodd;
        fill: url(#linear-gradient);
      }
    </style>
    <linearGradient id="linear-gradient" x1="857.75" y1="1167.685" x2="1048.47" y2="1167.685" gradientUnits="userSpaceOnUse">
      <stop offset="0" stop-color="#53cbed"/>
      <stop offset="1" stop-color="#c14fc4"/>
    </linearGradient>
  </defs>
  <path id="下一權限階級" class="cls-1" d="M857.763,1157.16h12.064v25.29h3.065v-17.81q3.934,2.04,10.161,6.07l1.839-2.78q-6.227-3.765-12-6.54v-4.23h13.742v-3H857.763v3Zm32.1,11.65h29.193v-3.04H889.86v3.04Zm41.387,1.74,1.645-2.45a59.624,59.624,0,0,0-3.807-4.78v-1.64h2.807v-2.94h-2.807v-6.06h-2.967v6.06h-3.646v2.94h3.484a30.169,30.169,0,0,1-4.322,9.96l1.258,3.17a38.117,38.117,0,0,0,3.226-7.29v14.83h2.967v-15.74Zm1.967-5.74h7.775v-5.91h-7.775v5.91Zm2.258-2.04v-1.8h3.259v1.8h-3.259Zm7.033,2.04h7.935v-5.91h-7.935v5.91Zm2.258-2.07V1161h3.419v1.74h-3.419Zm-10.839,19.52h2.645v-0.87H951.44v-2.49h-6.677v-1.74h5.29v-2.19h-5.29v-1.65h5.1v-2.22h-5.1v-1.68h6.064v-2.45h-6.355c-0.279-.78-0.516-1.38-0.709-1.81l-3,.45a12.669,12.669,0,0,1,.774,1.36h-3.774l0.484-1.23-2.807-.52a19.617,19.617,0,0,1-4.839,7.49l0.871,2.74c0.731-.67,1.549-1.49,2.452-2.48v9.29Zm2.645-5.1h5.484v1.74h-5.484v-1.74Zm0-2.19v-1.65h5.484v1.65h-5.484Zm0-3.87v-1.68h5.484v1.68h-5.484Zm-4.355-14.36h4.291v1.52h2.645v-1.52h4.9v1.52h2.613v-1.52h4.548v-2.48h-4.548v-1.62h-2.613v1.62h-4.9v-1.65h-2.645v1.65h-4.291v2.48Zm23.033,25.74h3v-25.84h4.419a80.937,80.937,0,0,1-3.419,8.75q3.29,4.065,3.29,7.32a1.387,1.387,0,0,1-.452,1.16,4.668,4.668,0,0,1-1.806.39,13.035,13.035,0,0,1-1.645-.16l1,3.09q3.548-.03,5-1.26a4.436,4.436,0,0,0,.967-3.22c-0.129-2.19-1.215-4.79-3.258-7.78q1.968-4.665,3.388-8.74v-2.42H955.247v28.71Zm23.129-20.06v2.93h-8.549v-2.93h8.549Zm-8.549-2.78v-3h8.549v3h-8.549Zm3.033,8.52a20.494,20.494,0,0,0,9.516,14.07l1.709-2.71a17.759,17.759,0,0,1-5.387-4.62,15.281,15.281,0,0,0,4.613-3.77l-1.968-1.97a15.9,15.9,0,0,1-4.064,3.58,15.451,15.451,0,0,1-1.678-4.58h5.775v-14.42H966.827v24.65a0.982,0.982,0,0,1-.806.9l0.742,2.68a74.964,74.964,0,0,0,8.9-2.87l-0.71-2.84a37.65,37.65,0,0,1-5.129,1.93v-10.03h3.033Zm14.612,14.32h3v-25.8H994.7a80.28,80.28,0,0,1-3.322,8.74q3.194,4,3.193,7.29a1.444,1.444,0,0,1-.419,1.16,3.058,3.058,0,0,1-1.678.42,11.392,11.392,0,0,1-1.645-.16l1,3.1q3.452-.075,4.774-1.3a4.431,4.431,0,0,0,.968-3.22,17.324,17.324,0,0,0-3.193-7.74q1.838-4.365,3.322-8.78v-2.42H987.472v28.71Zm18.418-23.8v-2.62h-4.32v-3.29h-2.839v9.58a1.294,1.294,0,0,1-1.065,1.26l0.839,2.65a52.254,52.254,0,0,0,7.645-2.33l-0.42-2.42a36.384,36.384,0,0,1-4.16,1.36v-4.19h4.32Zm1.39,9.09a15.727,15.727,0,0,0,.64-2.16l-3-.35a16.242,16.242,0,0,1-.58,2.51H999.7v14.68h2.772v-1.32h9.23v1.32h2.77v-14.68h-7.19Zm-4.81,7.94h9.23v2.81h-9.23v-2.81Zm0-5.36h9.23v2.81h-9.23v-2.81Zm7.55-11.22a37.119,37.119,0,0,0,6.13-2.65l-1.61-2.22a25.528,25.528,0,0,1-4.52,2.13v-3.62h-2.77v10.1c0,2.02.96,3.03,2.9,3.03h2.84a3.236,3.236,0,0,0,2.19-.64c0.5-.52.85-1.97,1.07-4.36l-2.62-.84a7.49,7.49,0,0,1-.42,2.78,0.774,0.774,0,0,1-.74.38h-1.42a0.879,0.879,0,0,1-1.03-.96v-3.13Zm10.07,14.97a26.03,26.03,0,0,1-1.26,6.87l2.61,0.8a32.725,32.725,0,0,0,1.16-7.35Zm3.54,0c0.35,2.1.63,4.32,0.84,6.64l2.62-.61c-0.31-2.17-.68-4.33-1.13-6.49Zm3.39-8.07a25.59,25.59,0,0,1,.87,2.68c-1.5.39-3.02,0.71-4.55,0.97a78.663,78.663,0,0,0,7.62-10.97l-2.68-.97c-0.78,1.36-1.52,2.61-2.23,3.77-1.22.22-2.47,0.41-3.74,0.59a46.077,46.077,0,0,0,4.58-8.13l-2.87-1.1a51.894,51.894,0,0,1-4,8.42,2.659,2.659,0,0,1-1.22,1.06l0.74,2.62,2.42-.39c0.96-.13,1.75-0.25,2.35-0.36a28.844,28.844,0,0,1-4.03,5.1,4.154,4.154,0,0,1-1.26.81l0.74,2.61a50.67,50.67,0,0,0,8.74-1.81l0.33,1.36,2.48-.61a57.871,57.871,0,0,0-1.93-6.42Zm0.13,7.49a40.5,40.5,0,0,1,1.48,4.48l2.1-.94a22.239,22.239,0,0,1-1.58,3.17l2.16,1.9q3.2-4.845,4.26-13.52a27.7,27.7,0,0,0,3.71,6.91,23.57,23.57,0,0,1-6.1,4.64l1.58,2.58a20.716,20.716,0,0,0,6.45-4.87,28.976,28.976,0,0,0,5.39,4.48l1.87-2.45a29.122,29.122,0,0,1-5.48-4.38,26.712,26.712,0,0,0,4.03-11.23v-1.61h-3.61q0.705-2.715,1.58-7.07v-1.87h-14.26v2.81h2.52v3.16q-0.105,10.83-2.45,17.13a40.458,40.458,0,0,0-1.49-4.07Zm13.87-.26a26.564,26.564,0,0,1-4.97-11.45l0.04-5.26h5.8a80.3,80.3,0,0,1-2,8.71h4.36a21.994,21.994,0,0,1-3.23,8h0Z" transform="translate(-857.75 -1152.62)"/>
</svg>
