<svg id="组_41" data-name="组 41" xmlns="http://www.w3.org/2000/svg" xmlns:xlink="http://www.w3.org/1999/xlink" width="1747.969" height="639.81" viewBox="0 0 1747.969 639.81">
  <defs>
    <style>
      .cls-1, .cls-3 {
        fill: #fff;
        opacity: 0.5;
      }

      .cls-1, .cls-2, .cls-3, .cls-4, .cls-5, .cls-6 {
        fill-rule: evenodd;
      }

      .cls-2 {
        fill: url(#linear-gradient);
      }

      .cls-3, .cls-5 {
        stroke-width: 7px;
        stroke: url(#linear-gradient-2);
      }

      .cls-4 {
        fill: #c96ccd;
      }

      .cls-5, .cls-6 {
        fill: none;
      }

      .cls-6 {
        stroke-width: 7.742px;
        stroke: url(#linear-gradient-4);
      }
    </style>
    <linearGradient id="linear-gradient" x1="159.469" y1="732.563" x2="309.438" y2="732.563" gradientUnits="userSpaceOnUse">
      <stop offset="0" stop-color="#53cbed"/>
      <stop offset="1" stop-color="#c14fc4"/>
    </linearGradient>
    <linearGradient id="linear-gradient-2" x1="433.125" y1="720.5" x2="957.125" y2="720.5" xlink:href="#linear-gradient"/>
    <linearGradient id="linear-gradient-4" x1="89.875" y1="1010.908" x2="1830.12" y2="1010.908" xlink:href="#linear-gradient"/>
  </defs>
  <path id="矩形_24_拷贝_7" data-name="矩形 24 拷贝 7" class="cls-1" d="M89.894,694.86H419.48l29.45,65.046H1830.11l0.01,565.254-1740.231.78,0.005-347.874V694.86Z" transform="translate(-86.031 -691)"/>
  <path id="入會任務" class="cls-2" d="M175.159,724q-3.781,14.71-15.7,22.543l2.178,3.094a36.473,36.473,0,0,0,15.473-21.434l0.267,0.726q6.075,15.284,15.053,20.67l2.255-2.865q-8.712-5.617-14.137-18.99-3.7-9.513-8.519-12.876l-3.019,1.911A21.089,21.089,0,0,1,175.159,724h0Zm45.962,4.432a15.159,15.159,0,0,1-1.758,3.477l2.369,0.879a14.988,14.988,0,0,0,1.8-3.745Zm-13.792.726a21.205,21.205,0,0,1,1.834,3.63l2.406-.612a20.893,20.893,0,0,0-1.833-3.782Zm-5.578,6.572h27.431V725.57l2.1,0.993,1.91-3.057a98.812,98.812,0,0,1-16.62-8.6h-2.215a100.671,100.671,0,0,1-16.62,8.635l1.91,3.018q0.382-.19,2.1-0.955v10.125Zm0.229-10.24q4.011-1.949,5.807-2.9v1.338h15.321v-1.414q2.6,1.452,5.921,2.98H201.98Zm15.129,7.565v-4.852h8.749v4.852h-8.749Zm-12.034,0v-4.852h8.749v4.852h-8.749ZM203.2,737.3v12.953h3.477v-1.261h17.613v1.223h3.477V737.3H203.2Zm3.477,6.954h17.613v1.872H206.679v-1.872Zm0-4.279h17.613v1.8H206.679v-1.8Zm3.515-18.722q2.482-1.489,5.272-3.286,2.216,1.491,5.349,3.286H210.194Zm57.614-5.273a71.613,71.613,0,0,1-19.6,2.331l1.184,3.362q3.324,0,7.336-.267v9.361H245.993v3.553h10.736V745.17h-8.864v3.553h21.357V745.17h-8.9V734.319h10.812v-3.553H260.32v-9.7a49.432,49.432,0,0,0,9.284-2.025Zm-23.343-1.108a40.437,40.437,0,0,1-8.75,15.092l1.185,3.859q1.986-2.062,3.553-3.935v20.327h3.591V724.767a44.284,44.284,0,0,0,3.821-8.329Zm49.514,8.368a14.62,14.62,0,0,0,2.98,3.744,29.739,29.739,0,0,1-6.266,2.369l1.338,3.171a31.264,31.264,0,0,0,7.87-3.362,31.02,31.02,0,0,0,8.214,3.439l1.337-3.171a33,33,0,0,1-6.686-2.408,16.517,16.517,0,0,0,4.241-6.075v-3.094h-9.742a15.828,15.828,0,0,0,.879-2.522l-3.477-.42a17.145,17.145,0,0,1-5.54,8.444l2.025,2.674a22.621,22.621,0,0,0,2.827-2.789h0Zm9.361-2.1a15.234,15.234,0,0,1-3.592,4.012,12.344,12.344,0,0,1-3.591-4.012h7.183Zm-26.744,1.72a42.834,42.834,0,0,1,5.96,5H274.8v3.4h4.47a35.607,35.607,0,0,1-5.311,10.163l1.338,3.4a45.044,45.044,0,0,0,5.692-12v12.8A1.125,1.125,0,0,1,279.843,747a23.247,23.247,0,0,1-3.133-.229l0.726,3.171h3.553q3.287,0,3.286-3.515V731.263h2.789a48.539,48.539,0,0,1-2.254,4.7l2.178,1.949a38.021,38.021,0,0,0,3.247-6.992v-3.057h-5.349l1.032-.993a20.531,20.531,0,0,0-1.49-1.49,32.259,32.259,0,0,0,5.2-6.381V716.17H275.411v3.363h10.048a29.716,29.716,0,0,1-3.324,3.782q-1.49-1.26-3.323-2.636Zm23.267,11.577,0.229-3.095h-3.4q-0.153,2.025-.268,3.095h-6.189v3.324h5.616a13.367,13.367,0,0,1-1.49,3.9,17.054,17.054,0,0,1-7.068,5.617l2.216,2.827a19.4,19.4,0,0,0,7.985-6.916,17.869,17.869,0,0,0,1.872-5.425h5a46.565,46.565,0,0,1-.382,6.724,2.649,2.649,0,0,1-2.942,2.255q-0.879,0-3.706-.153l0.726,3.018,3.477,0.153q5.043,0,5.616-3.821,0.535-2.253.535-11.5h-7.832Z" transform="translate(-86.031 -691)"/>
  <path id="矩形_31" data-name="矩形 31" class="cls-3" d="M433.125,694.643h524v51.714L457,746Z" transform="translate(-86.031 -691)"/>
  <path id="完成該任務您與推薦人皆會獲得積分獎勵" class="cls-4" d="M489.774,711.767q-0.45-1.5-.85-2.475l-2.675.45a15.568,15.568,0,0,1,.85,2.025h-9.35v5.9h2.425v-3.6h16.7v3.6H499.3v-5.9h-9.525Zm-8.35,6.975h14.15v-2.275h-14.15v2.275Zm-3.825,4.65h6.625v0.075a7.3,7.3,0,0,1-1.55,4.35q-1.525,1.6-5.5,2.6l1.35,2.125a12.4,12.4,0,0,0,6-3.175,9.471,9.471,0,0,0,2.05-5.9v-0.075h3.75v5.725q0,2.9,2.575,2.9h4.325a2.388,2.388,0,0,0,1.875-.7q0.624-.7.925-4.5l-2.25-.7a15.175,15.175,0,0,1-.325,3.15,0.71,0.71,0,0,1-.65.5h-3.15a0.938,0.938,0,0,1-.95-1.15v-5.225h6.825v-2.275H477.6v2.275Zm40.825-12.825a18.663,18.663,0,0,1,2.575,2.35h-3.85q-0.1-2.3-.1-3.675h-2.4q0,2.5.05,3.675H504.4v8.325q-0.1,6.1-2.45,9.525l1.8,1.6q2.874-4.249,3.025-11.125v-0.15h3.775a35.532,35.532,0,0,1-.275,4.9,0.958,0.958,0,0,1-.875.85q-0.525,0-2.525-.1l0.725,2.15q1.3,0.124,2.075.125a2.522,2.522,0,0,0,2.55-1.6q0.6-1.8.675-8.575h-6.125v-3.65h8.05a38.844,38.844,0,0,0,1.075,7.6q0.45,1.675.925,2.925a16.157,16.157,0,0,1-6.075,4.675l1.35,2a16.992,16.992,0,0,0,5.825-4.275,12.318,12.318,0,0,0,1.075,1.65q1.8,2.224,3.45,2.225,1.8,0,2.75-5.2l-2.15-1.15q-0.476,3.675-.975,3.675-0.6,0-1.75-1.675a14,14,0,0,1-.825-1.525,30.256,30.256,0,0,0,3.8-8.2l-2.175-.925a30.807,30.807,0,0,1-2.625,6.325q-0.225-.725-0.35-1.25a38.641,38.641,0,0,1-.9-6.875h7.45v-2.275h-3l1.15-1.15a22.349,22.349,0,0,0-2.925-2.65Zm9.6,12.675v8.75h2.25v-1.125H535.4v-7.625h-7.375Zm2.25,2.1h2.875v3.425h-2.875v-3.425ZM527.2,714.467h8.95v-2.15h-3.075a21.067,21.067,0,0,0-1.15-3.075l-2.275.6q0.575,1.1,1.15,2.475h-3.6v2.15Zm1.05,3.625h6.9v-2.05h-6.9v2.05Zm0,3.475h6.9v-2.075h-6.9v2.075Zm16.2,6.55a28.692,28.692,0,0,1,3.65,4.175l1.65-1.65a34.2,34.2,0,0,0-3.85-4.025,26.1,26.1,0,0,0,3.675-5.55l-1.975-1.025a19.936,19.936,0,0,1-11.45,10.325l1.325,2.05a21.1,21.1,0,0,0,6.975-4.3h0Zm1.1-12.65a26.343,26.343,0,0,1-1.65,2.975q-2.25.2-3.55,0.25a24.768,24.768,0,0,0,3.075-4.675h6.1v-2.175h-4.975q-0.476-1.525-.9-2.6l-2.425.4a18.777,18.777,0,0,1,1,2.2h-5.475v2.175h4.225q-2.025,3.675-3.275,4.525-0.25.125-.45,0.2l0.475,1.925,4.625-.225a15.831,15.831,0,0,1-6.075,4.125l1.275,1.925q6.575-2.675,9.95-10Zm27.25-5.45a46.862,46.862,0,0,1-12.825,1.525l0.775,2.2q2.175,0,4.8-.175v6.125h-7.025v2.325h7.025v7.1h-5.8v2.325h13.975v-2.325H567.9v-7.1h7.075v-2.325H567.9v-6.35a32.353,32.353,0,0,0,6.075-1.325Zm-15.275-.725a26.47,26.47,0,0,1-5.725,9.875l0.775,2.525q1.3-1.35,2.325-2.575v13.3h2.35v-16.65a29.02,29.02,0,0,0,2.5-5.45Zm32.4,5.475a9.555,9.555,0,0,0,1.95,2.45,19.524,19.524,0,0,1-4.1,1.55l0.875,2.075a20.478,20.478,0,0,0,5.15-2.2,20.26,20.26,0,0,0,5.375,2.25l0.875-2.075a21.639,21.639,0,0,1-4.375-1.575,10.818,10.818,0,0,0,2.775-3.975v-2.025h-6.375a10.357,10.357,0,0,0,.575-1.65l-2.275-.275a11.222,11.222,0,0,1-3.625,5.525l1.325,1.75a14.845,14.845,0,0,0,1.85-1.825h0Zm6.125-1.375a10,10,0,0,1-2.35,2.625,8.084,8.084,0,0,1-2.35-2.625h4.7Zm-17.5,1.125a27.986,27.986,0,0,1,3.9,3.275h-5.075v2.225H580.3a23.3,23.3,0,0,1-3.475,6.65l0.875,2.225a29.483,29.483,0,0,0,3.725-7.85v8.375a0.737,0.737,0,0,1-.75.9,15.218,15.218,0,0,1-2.05-.15l0.475,2.075h2.325q2.149,0,2.15-2.3v-9.925H585.4a31.843,31.843,0,0,1-1.475,3.075l1.425,1.275a24.873,24.873,0,0,0,2.125-4.575v-2h-3.5l0.675-.65a13.586,13.586,0,0,0-.975-0.975,21.1,21.1,0,0,0,3.4-4.175v-1.85h-9.3v2.2h6.575a19.473,19.473,0,0,1-2.175,2.475q-0.975-.825-2.175-1.725Zm15.225,7.575,0.15-2.025H591.7q-0.1,1.325-.175,2.025h-4.05v2.175h3.675a8.766,8.766,0,0,1-.975,2.55,11.165,11.165,0,0,1-4.625,3.675l1.45,1.85a12.7,12.7,0,0,0,5.225-4.525,11.716,11.716,0,0,0,1.225-3.55h3.275a30.6,30.6,0,0,1-.25,4.4,1.734,1.734,0,0,1-1.925,1.475q-0.576,0-2.425-.1l0.475,1.975,2.275,0.1q3.3,0,3.675-2.5a45.985,45.985,0,0,0,.35-7.525h-5.125Zm21.8,1.25q2.2,0,2.2-2.45v-6.3h-2.35v5.75q0,0.95-.65.95a10.225,10.225,0,0,1-1.675-.15l0.525,2.2h1.95Zm-10.5-.075h2.3v-9.525a34.7,34.7,0,0,0,2.175-3.95l-2.3-.525a21.355,21.355,0,0,1-5.425,7.4l1.5,1.8q0.8-.724,1.75-1.725v6.525Zm7.8-14.025a18.068,18.068,0,0,1-4.35,6.075l1.45,1.775a20.334,20.334,0,0,0,3.05-3.525h8.75a13.167,13.167,0,0,1-1,2.425l2.125,0.575a29.319,29.319,0,0,0,1.225-3.7v-1.45h-9.8l0.8-1.65Zm-8.25,15.125a18.456,18.456,0,0,1-2.35,5.65l2,1.275a23.324,23.324,0,0,0,2.65-6.45Zm12.55,7.625a3.384,3.384,0,0,0,2.225-.6q0.8-.651,1.1-4.075l-2.25-.725a5.339,5.339,0,0,1-.525,2.725,1.224,1.224,0,0,1-1,.425h-5.15a0.82,0.82,0,0,1-.875-0.975v-4.625h-2.4v5.125q0,2.724,2.55,2.725h6.325Zm2.5-7.3a49.01,49.01,0,0,1,3.625,5.95l1.975-1.4a44.331,44.331,0,0,0-3.675-5.75Zm-7.45-7.95a18.361,18.361,0,0,1-3.175,4.55l1.8,1.275a19.391,19.391,0,0,0,3.275-4.925Zm6.8,0.825a28.959,28.959,0,0,1,3.15,5.05l2.025-1.025a29.421,29.421,0,0,0-3.2-4.875Zm-6.675,7.15a27.2,27.2,0,0,1,2.65,3.75l1.85-1.3a29.1,29.1,0,0,0-2.7-3.575Zm29.8-11.15v-2.15h-4.525v-1.85h-2.2v8.5h4.7v6.575h-2.35v-5.375H635.6v5.375h-4.05l-0.125-2.625h2.95v-2.2h-3.05l-0.125-2.475h3.35v-2.175H631.1l-0.125-2.275a28.453,28.453,0,0,0,4.075-1.175l-0.875-2.15a20.771,20.771,0,0,1-5.475,1.475l0.55,13.6h-1.875v2.25h7.15a33.051,33.051,0,0,1-7.05,3.525l1.5,1.925a31.276,31.276,0,0,0,7.3-3.975l-1.675-1.475h7.45L641,728.467a33.965,33.965,0,0,1,7.5,3.975l1.325-2.075a39.611,39.611,0,0,0-7.15-3.475H649.7v-2.25h-1.8l0.55-14.2h-5.3v2.25h3.025l-0.125,2.5h-2.625v2.175h2.525l-0.1,2.5h-2.6v2.2h2.5l-0.125,2.575H642.3v-8.7h-4.675v-2.375h4.525Zm25.925,7.2v2.775H664.2v-2.775h3.875Zm0,4.975v3.1H664.2v-3.1h3.875Zm6.7,5.375v-2.275h-4.35v-3.1H674v-2.2h-3.575v-2.775H674v-2.225h-3.575v-2.875H674.5v-2.275h-3.825q-0.4-1.625-1.3-4.15l-2.275.6q0.724,1.65,1.35,3.55h-3.825a27.848,27.848,0,0,0,1.275-3.6l-2.3-.45a24.438,24.438,0,0,1-4.175,8.675l0.8,2.5q1-1.2,1.625-2.125v13.85h2.35v-1.125h10.575Zm-6.7-12.575H664.2v-2.875h3.875v2.875Zm-8.225.85q-1.1.55-2.125,0.975v-4.375h2.325v-2.3h-2.325v-4.4h-2.375v4.4h-3v2.3h3v5.25q-1.75.525-3.475,0.9l0.6,2.4q1.6-.45,2.875-0.9v5.325a0.821,0.821,0,0,1-.975.875,13.479,13.479,0,0,1-1.95-.15l0.525,2.3h2.25q2.524,0,2.525-2.425v-6.825l2.125-.925v-2.425Zm39.725,5.225v-1.55h-14.25l0.225-.975h12.925v-4.425h-5.4v-1.225h6.35v-1.85h-9.35q-0.375-1.125-.575-1.575l-2.3.35a8.724,8.724,0,0,1,.575,1.225h-8.9v7.375q-0.075,5.674-1.875,8.825l1.8,1.575q2.149-3.825,2.3-10.275h2.275l-1.3,5.35h14.575a7.01,7.01,0,0,1-.45,2.675,1.45,1.45,0,0,1-1.175.4,10.72,10.72,0,0,1-1.15-.1l1.125-.45a17.007,17.007,0,0,0-1.325-2.15l-1.6.45a13.3,13.3,0,0,1,1.325,2.325l0.1-.025,0.475,1.65,1.05,0.1q2.25,0,3-.975,0.7-.975,1-5.675H684.7l0.25-1.05h14.625Zm-8.6-6.95h-3.75v-1.225h3.75v1.225Zm-5.85,0H681.1v-1.225h4.025v1.225Zm0,1.525v1.3H681.1v-1.3h4.025Zm5.85,0v1.3h-3.75v-1.3h3.75Zm5.425,0v1.3h-3.325v-1.3H696.4Zm-13.85,8.775a12.445,12.445,0,0,1-2.025,3.25l1.675,1.225a16.517,16.517,0,0,0,2.075-3.625Zm2.575,0.775a26.966,26.966,0,0,1,1.1,3.625l1.825-.675a23.431,23.431,0,0,0-1.2-3.4Zm3.425-.25a27.807,27.807,0,0,1,1.425,3.275l1.8-.675a23.108,23.108,0,0,0-1.55-3.075Zm-11.05-15.85h5.425v1.35H685.2v-1.35h6.725v1.35H694.2v-1.35h5.425v-1.95H694.2v-1.425h-2.275v1.425H685.2v-1.425h-2.275v1.425H677.5v1.95Zm34.775-3.3-0.025,3.925q-0.3,10.75-10.425,16.9l1.45,2.125q7.875-5.1,10.35-12.9a25.188,25.188,0,0,0,10.05,12.85l1.575-2.075a22.908,22.908,0,0,1-10.75-15.225q0.174-2.726.175-5.6h-2.4Zm25.225,4.8v-2.15h-6.325v-2.575h-2.325v7.45a1.154,1.154,0,0,1-.75,1.05l0.75,2.15q5.049-1,9.125-2.225l-0.575-2.05q-3.225.949-6.225,1.55v-3.2H737.5Zm8.8,5.325a3.919,3.919,0,0,0,2.175-.575q0.7-.551,1.125-3.65l-2.2-.7q-0.175,2.175-.7,2.5a2.265,2.265,0,0,1-1.025.25h-3.65a0.642,0.642,0,0,1-.75-0.7v-1.6a52,52,0,0,0,7.725-2.6l-1.35-1.825a35.383,35.383,0,0,1-6.375,2.325v-3.5h-2.3v7.625a2.144,2.144,0,0,0,2.4,2.45H746.3Zm-7.85,1.375a7.8,7.8,0,0,0,.825-1.725l-2.5-.325a11.281,11.281,0,0,1-.875,2.05h-5.575v11.575H732.6v-1.05h12.1v1.025h2.275v-11.55h-8.525Zm-5.85,6.35h12.1v2.025H732.6v-2.025Zm0-4.2h12.1v2.1H732.6v-2.1Zm34.65-4.825a9.963,9.963,0,0,1-1.15,2.275l1.55,0.575a9.825,9.825,0,0,0,1.175-2.45Zm-9.025.475a13.866,13.866,0,0,1,1.2,2.375l1.575-.4a13.7,13.7,0,0,0-1.2-2.475Zm-3.65,4.3h17.95v-6.65l1.375,0.65,1.25-2a64.618,64.618,0,0,1-10.875-5.625h-1.45a65.909,65.909,0,0,1-10.875,5.65l1.25,1.975q0.249-.124,1.375-0.625v6.625Zm0.15-6.7q2.625-1.275,3.8-1.9v0.875h10.025v-0.925q1.7,0.949,3.875,1.95h-17.7Zm9.9,4.95v-3.175h5.725v3.175h-5.725Zm-7.875,0v-3.175h5.725v3.175h-5.725Zm-1.225,2.775v8.475H757.8v-0.825h11.525v0.8H771.6v-8.45H755.524Zm2.275,4.55h11.525v1.225H757.8v-1.225Zm0-2.8h11.525v1.175H757.8v-1.175Zm2.3-12.25q1.625-.975,3.45-2.15,1.449,0.975,3.5,2.15H760.1Zm23.1-3.675a25.45,25.45,0,0,1-1.625,2.625,20.074,20.074,0,0,0-2.275-2.9l-1.875,1.425a14.55,14.55,0,0,1,2.625,3.325,12.235,12.235,0,0,1-2.9,2.275l1.225,2q1.725-1.3,2.65-2.125a16.924,16.924,0,0,1,.65,2.725,16.132,16.132,0,0,1-4.575,5.15l1.325,1.975a17.7,17.7,0,0,0,3.55-3.8q0.049,1,.05,1.675,0,4.7-.65,5.65a1.486,1.486,0,0,1-1.2.4,16.03,16.03,0,0,1-2.075-.175l0.675,2.25,1.925,0.025a3.524,3.524,0,0,0,2.2-.65q1.4-1.275,1.4-7.375a30.255,30.255,0,0,0-1.175-8.85,5.377,5.377,0,0,0-.35-0.8,24.071,24.071,0,0,0,2.375-3.625Zm5.375,0.65H785.2v1.95h3.375v1.2H790.7v-1.2h3.4v1.25h2.1v-1.25h3.3v-1.95h-3.3v-1.125h-2.1v1.125h-3.4v-1.125h-2.125v1.125Zm-1.7,13.375h12.5v-1.625h-4.925v-0.975h4v-1.525h-4v-0.9h3.95v-1.525h-3.95v-0.9h4.725v-1.65h-5.1q-0.4-.975-0.675-1.525l-2.1.35a7.206,7.206,0,0,1,.75,1.175h-2.775l0.3-.825-1.95-.35a11.581,11.581,0,0,1-2.8,4.425l0.7,2.225q0.649-.649,1.35-1.475v5.1Zm2.075-1.625v-0.975h3.475v0.975h-3.475Zm0-2.5v-0.9h3.475v0.9h-3.475Zm0-2.425v-0.9h3.475v0.9h-3.475Zm-1.35,9.2a13.192,13.192,0,0,0,3.1,2.725,45.481,45.481,0,0,1-5.55,1.2l0.825,2a38.423,38.423,0,0,0,7.1-1.9,29.259,29.259,0,0,0,5.9,1.9l1.25-1.825a33.575,33.575,0,0,1-4.8-1.225,9.564,9.564,0,0,0,3.3-2.95v-1.725H786v1.8h1.6Zm5.425,1.875a13.531,13.531,0,0,1-2.875-1.875h5.95a10.912,10.912,0,0,1-3.075,1.875h0Zm12.2,4.05h2.3V719.967a18.535,18.535,0,0,0,2.125-3.4l-2.05-.95a18.029,18.029,0,0,1-5.575,6.525l0.675,2.25q1.374-1,2.525-2v10Zm2.3-23.15a16.724,16.724,0,0,1-5.625,5.975l0.725,2.3a20.158,20.158,0,0,0,6.875-7.35Zm3.375,9.15h12.175v-8.325H810.9v8.325Zm2.275-1.875v-1.4H820.8v1.4h-7.625Zm0-4.55H820.8v1.375h-7.625v-1.375Zm-3.275,9.925h9.375v1.575H809v2.075h10.275v3.775a0.777,0.777,0,0,1-.925.825,21.945,21.945,0,0,1-2.4-.175l0.5,2.25h2.725q2.45,0,2.45-2.325v-4.35h3.425v-2.075h-3.425v-1.575h2.85v-2.075H809.9v2.075Zm1.275,5.275a26.751,26.751,0,0,1,3.05,3.65l1.8-1.25a26.85,26.85,0,0,0-3.15-3.625Zm16.4-9.475H830.3a19.743,19.743,0,0,1-3.45,6.925l1.075,2.725a25.865,25.865,0,0,0,2.475-5.1v10.025h2.275v-10.6q0.924,1.549,1.7,3.05l1.325-1.975q-1.476-1.925-3.025-3.625v-1.425h2.575v-2.2h-2.575v-3.175q1.224-.274,2.625-0.725l-0.8-2.1a28.724,28.724,0,0,1-7,1.525l0.425,2.1q1.624-.2,2.475-0.35v2.725h-2.825v2.2Zm9.3,11.1h3.175a23.164,23.164,0,0,1-5,1.725l0.9,1.925a24,24,0,0,0,5.725-2.4l-1.075-1.25h3.95l-0.8,1.6a27.571,27.571,0,0,1,5.625,1.975l0.8-1.925a28.161,28.161,0,0,0-5.025-1.65h3.25v-9.9H836.874v9.9Zm2.125-1.8v-1h7.275v1H839Zm0-3.675h7.275v1.05H839v-1.05Zm0-2.625h7.275v1H839v-1Zm2.55-10.175h-5.375v1.85h5.375v0.975h-4.575v1.85h4.575v1.025h-5.775v1.875h14.05v-1.875H843.8v-1.025h4.7v-1.85h-4.7v-0.975h5.5v-1.85h-5.5v-1.25h-2.25v1.25Zm18.2-.75a25.209,25.209,0,0,1-3.25,4.8,16.975,16.975,0,0,1-4.45,3.7l1.3,2.1a31.28,31.28,0,0,0,4.95-4.3,28.1,28.1,0,0,0,3.45-5.1Zm0.55,11.525a14.876,14.876,0,0,1-2.2,5.3,15.062,15.062,0,0,1-4.9,3.9l1.475,1.9a16.55,16.55,0,0,0,5.55-4.75,19.08,19.08,0,0,0,2.425-6.35h6.175q-0.225,5.475-.85,7.075a2.678,2.678,0,0,1-2.75,1.6q-1.95,0-4.125-.075l0.625,2.275H866.4a3.885,3.885,0,0,0,2.95-1.25,8.839,8.839,0,0,0,1.35-4.1,76.234,76.234,0,0,0,.5-7.8H855.674v2.275H860.3Zm5.275-10.7a19.783,19.783,0,0,0,7.85,9.6l1.6-1.875a16.716,16.716,0,0,1-7.4-8.875Zm22.95,16.25q3.474,4.076,10.125,5.6l1.25-2.025q-6.15-1.151-9.2-4.025h8.375v-2.15h-3A12.654,12.654,0,0,0,895,722.567l-1.95.65q0.2,0.25.725,1.025H889.6q0.225-.949.375-1.975l-2.3-.15a10.162,10.162,0,0,1-.525,2.125h-9.1v2.15h7.925a8.946,8.946,0,0,1-1.175,1.2,18.366,18.366,0,0,1-7.475,2.925l1.125,1.95a21.08,21.08,0,0,0,8.35-3.6,10.144,10.144,0,0,0,1.725-2.025h0Zm1.75-14.875q1.275,1.05,2.225,2l-1.275.425a23.822,23.822,0,0,0-1.9-1.775,8.075,8.075,0,0,0,.95-0.65h0Zm3.875,1.275q-0.75-.675-1.725-1.5H896.3a8.693,8.693,0,0,1-2.15,1.5h0Zm-2.025-3.125a6.04,6.04,0,0,0,.525-0.8l-2.2-.25a9.1,9.1,0,0,1-4.625,3.125l1.225,1.65,0.85-.4q0.875,0.8,1.475,1.425-1.3.3-2.95,0.525l0.875,1.575h-1.15v1.85h3.05l-1.25.775a18.242,18.242,0,0,1,2.475,2.55l1.625-1.125a20.476,20.476,0,0,0-2.25-2.2h5.375v1.25a0.542,0.542,0,0,1-.6.625,14.4,14.4,0,0,1-1.75-.125l0.425,1.9h2q2.149,0,2.15-1.925v-1.725h2.3v-1.85h-2.3v-1.85h-2.225v1.85h-7.125q8.475-1.625,10.65-5.325v-1.525h-6.575Zm-13.475,4.6h4.55v1.625h-5.45v1.85h1.675a4.124,4.124,0,0,1-1.725,3.25l1.675,1.3q1.774-1.249,2.075-4.55h1.75v4.275h2.225V709.342H883.2v3.575h-2.45v-2.85h-2.1v4.65Zm27.4,0.625h1.9v1h1.825v-1h2.55v1h1.8v-1h1.75v-1.65h-1.75v-0.95h-1.8v0.95h-2.55v-0.95h-1.825v0.95h-1.9v1.65Zm0.425,7.725h3.575v0.925h-4.325v8.175h1.85v-6.45h2.475v2.175l-2.05.225,0.25,1.675a23.3,23.3,0,0,0,4.875-1.075l0.25,0.95,0.9-.325v0.4a0.576,0.576,0,0,1-.625.675l-1.575-.075,0.475,1.7h1.65a1.714,1.714,0,0,0,1.975-1.9v-6.15h-4.2v-0.925H915.7v-6.2h-9.225v6.2Zm7.8,5.275a18.163,18.163,0,0,0-.85-2.15l-1,.275,0.275,0.85q-0.225.05-.725,0.2v-1.8h2.3v2.625Zm-2.3-6.7v-0.975H913.8v0.975h-1.825Zm-3.65,0v-0.975h1.725v0.975h-1.725Zm0-3.35h1.725v1.075h-1.725v-1.075Zm5.475,0v1.075h-1.825v-1.075H913.8Zm-10.75-8.15v9.35a46.28,46.28,0,0,1-1.225,11.5l1.7,1.55a46.676,46.676,0,0,0,1.625-13.05v-7.4h11.225v-1.95H903.049Zm15.5,3.675h-2v2.175h2q-0.075,10.325-2.2,14.975l1.75,1.525q2.5-5.275,2.6-16.5h1.725q-0.075,11.225-.25,13.025-0.15,1.125-.825,1.125-0.426,0-1.725-.1l0.525,1.975,1.525,0.1a2.307,2.307,0,0,0,2.6-2.15q0.324-3.326.325-16.15h-3.9v-4.45h-2.15v4.45Z" transform="translate(-86.031 -691)"/>
  <path id="矩形_31_拷贝" data-name="矩形 31 拷贝" class="cls-5" d="M433.125,694.643h524v51.714L457,746Z" transform="translate(-86.031 -691)"/>
  <path id="矩形_24_拷贝_8" data-name="矩形 24 拷贝 8" class="cls-6" d="M89.894,694.86H419.48l29.45,65.046H1830.11l0.01,566.254-1740.231.78,0.005-348.874V694.86Z" transform="translate(-86.031 -691)"/>
</svg>
