<?xml version="1.0" encoding="utf-8"?>
<!-- Generator: Adobe Illustrator 22.1.0, SVG Export Plug-In . SVG Version: 6.00 Build 0)  -->
<svg version="1.1" id="图层_1" xmlns="http://www.w3.org/2000/svg" xmlns:xlink="http://www.w3.org/1999/xlink" x="0px" y="0px"
	 viewBox="0 0 460.6 460.9" style="enable-background:new 0 0 460.6 460.9;" xml:space="preserve">
<style type="text/css">
	.st0{fill:#5A73F1;}
	.st1{fill:#5C75F1;}
	.st2{fill:#4DC3FD;}
	.st3{fill:#7DF1D5;}
	.st4{fill:#FEFEFE;}
</style>
<g>
	<g>
		<path class="st0" d="M448,138.7c6.5,11.9,8.3,24.6,8,38c-0.4,20.5-0.4,40.9,0,61.4c0.4,19.9-6.2,36.4-21.3,49.5
			c-0.6,0.6-41.2,40-52.8,53.2c-1.7,2-3,6.9-3,8.4c0,27.7-0.1,55.3-0.2,83c0,3.4,1.5,3.7,4.2,3.7c14.5-0.1,29,0.1,43.5-0.1
			c4.3-0.1,5.4,1.3,5.2,5.4c0.1,5.3-0.3,10.3,0,15.5c0.2,3.6-1.2,4.8-4.6,4.4c-0.5-0.1-1,0-1.5,0c-113.9,0-227.8-0.1-341.7,0.1
			c-4.9,0-6.8-1-6.4-6.2c0.6-6.3,0.3-12.6,0.4-18.9c20.3,0,40.7-0.1,61-0.1c8.8,0.1,17.6-0.1,26.4,0.3c3.9,0.2,4.6-1.2,4.6-4.8
			c-0.1-26.1-0.2-52.3-0.1-78.4c0.1-34.2,16.6-58.7,45.4-75.6c15.2-8.8,31.7-12.4,49.2-12.3c18.8,0.1,37.6-0.2,56.4-0.3
			c16.3-6.3,26.9-19.6,39-31.2c4.3-4.1,8.9-8,13.2-12.2c3.1-3,4.4-6.3,4.4-10.6c-0.1-21.5,1.5-90.7,1.3-100.2
			c-0.1-3.3,0.6-4.5,4.3-4.6c22.1-0.8,41.3,5.5,56.8,21.8C443,130.9,445.3,134.9,448,138.7z"/>
		<path class="st1" d="M18.9,447.8c0-0.5,0-1,0-1.5c0-10.8,0-10.6,10.7-10.6c3.2,0,4.3,0.9,4.2,4.2c-0.3,5.8-0.2,11.6,0,17.4
			c0.1,2.9-0.9,3.6-3.7,3.7c-11.1,0.3-11.1,0.4-11.1-10.7C18.9,449.4,18.9,448.6,18.9,447.8z"/>
		<path class="st0" d="M48,448.7c0-0.7,0-1.3,0-2c0-12,0-11.9,11.9-11c2.1,0.2,3,0.7,2.9,2.9c-0.1,6.5,0,13,0,19.5
			c0,0.3,0.1,0.8-0.1,1c-3.5,3.6-8,1-12,1.7c-2.3,0.4-2.8-1.1-2.7-3.1C48.1,454.7,48,451.7,48,448.7z"/>
		<path class="st0" d="M120.7,0c28.2,0,56.3-0.1,84.4,0.1c7,0,14,0.2,20.4,3.6c11.7,6.1,17.9,15.9,17.9,28.9
			c0.2,34.5,0.1,69,0,103.4c-0.1,18.1-11.8,30.9-29.8,32.6c-3.5,0.3-4.3,1.5-4.4,4.8c-0.1,10.8,0.7,21.6-0.4,32.4
			c-0.8,8.1-5.6,13.1-12.8,15.7c-7.5,2.7-16.4-0.3-21.2-6.2c-11.9-14.6-23.9-29.1-35.6-43.8c-2-2.5-4-3.3-7.1-3.2
			c-31.8,0.1-63.6,0-95.4,0.1c-13.1,0-24.3-3.4-31.8-15.1c-3.3-5.1-4.9-10.5-4.9-16.5c0-33.5,0.2-67-0.1-100.4
			C-0.2,15.8,11.1,5.1,24,1.5C28,0.4,32.1,0,36.3,0C64.4,0,92.6,0,120.7,0z"/>
		<path class="st0" d="M321.8,147.6c8,7.7,15.1,16.3,16.2,27.7c1.8,17.2,3.2,34.5-8.6,49.5c-2.6,3.3-5.7,5.9-8.6,8.8
			c-22.1,14.4-46.1,13-63.6-3.9c-8.4-8.2-13.3-18.3-13.5-30.2c-0.1-8.1-0.9-16.3,0.7-24.4c6.1-32.4,43.5-46.9,71.4-31.1
			C317.8,145.2,319.8,146.4,321.8,147.6z"/>
		<path class="st1" d="M460.6,448.4c0,0.7,0,1.3,0,2c0,11.6,0,11.6-11.9,10.5c-2.1-0.2-2.9-0.8-2.9-3c0.1-6.5,0-13,0-19.5
			c0-1.6,0.9-2.1,1.6-2.4s10.5-0.2,10.5-0.2s1.3-0.1,2,0.4c0.7,0.5,0.8,1.7,0.7,2.7C460.5,442,460.6,445.2,460.6,448.4z"/>
		<path class="st2" d="M401.8,129.1c12,3.7,21.4,9.9,27.5,20.6c3.8,6.6,5.7,13.6,5.6,21.4c-0.3,22.5-0.6,45,0.1,67.5
			c0.4,14.5-4.9,25.8-15,35.5c-19.4,18.7-38.8,37.5-58.3,56.1c-2.9,2.8-4,5.6-4,9.6c0.2,30.2,0,60.3,0.2,90.5c0,4.4-1,5.6-5.5,5.6
			c-34.3-0.2-68.7-0.2-103,0c-4.8,0-5.7-1.6-5.7-6c0.2-18.2,0-36.3,0.2-54.5c0-3.8-1.1-5-4.8-4.8c-3.8,0.3-7.7,0.3-11.5,0
			c-3.7-0.3-4.9,1-4.8,4.8c0.2,18.2-0.1,36.3,0.2,54.5c0.1,4.4-0.9,6.2-5.7,5.9c-7-0.4-14-0.2-21-0.1c-3.2,0.1-4.4-0.8-4.4-4.2
			c0.1-27.5-0.4-55,0.2-82.5c0.6-28.2,19.8-48.4,44.8-58.6c9.2-3.7,18.8-4.4,28.3-4.6c18-0.4,36-0.1,54-0.1
			c13.8-0.1,25.6-5.3,35.6-14.5c14.1-12.9,28-26.1,42.1-39c3.6-3.3,5.2-6.6,5.1-11.6c-0.3-28.5-0.1-57-0.1-85.5
			C401.8,133.3,401.8,131.5,401.8,129.1z"/>
		<path class="st3" d="M184,187.6c-5.7-6.8-11.1-13.4-16.6-20c-5.3-6.4-10.6-12.8-15.7-19.4c-2.1-2.7-4.5-3.4-7.8-3.4
			c-36,0.1-72,0.1-107.9,0.1c-9.8,0-11.3-1.5-11.3-11.2c0-33,0-66,0-98.9c0-8.4,2.6-10.9,11.1-10.9c57.3,0,114.6,0,171.9,0
			c9,0,11.2,2.3,11.2,11.1c0,33.3,0,66.6,0,99.9c0,7.9-2.1,10-10.1,10c-6.3,0-12.7,0.2-19-0.1c-3.8-0.2-5.2,0.8-5.1,4.9
			c0.3,10.8,0.1,21.7,0.1,32.5C184.8,183.8,185.3,185.5,184,187.6z"/>
		<path class="st4" d="M312.6,188.9c0.1,6.6,0.3,11.8-2.2,16.6c-4.2,8.2-13.2,12.5-23.1,11.2c-8.9-1.2-15.5-7.6-17-17
			c-0.9-5.9-0.9-11.9,0-17.9c1.9-11.9,10.1-18,23.2-17.3c10.6,0.5,18.2,8.3,19,19.4C312.7,186,312.6,188.2,312.6,188.9z"/>
		<path class="st4" d="M79.8,88.6c0,5.8-4.6,10.8-10.1,10.9c-5.9,0.1-10.9-4.9-10.9-10.8c0-5.9,4.4-10.2,10.5-10.2
			C75.7,78.5,79.8,82.5,79.8,88.6z"/>
		<path class="st4" d="M122.4,78.6c6.3,0,10.4,4,10.4,10.2c0,5.8-4.7,10.8-10.2,10.8c-5.8,0-10.9-5.1-10.9-10.8
			C111.8,82.8,116.3,78.5,122.4,78.6z"/>
		<path class="st4" d="M175.4,78.6c6.3,0,10.4,4,10.4,10.1c0,5.5-4.6,10.6-9.7,10.8c-6.1,0.2-11.4-4.9-11.3-10.8
			C164.9,82.9,169.4,78.5,175.4,78.6z"/>
	</g>
</g>
</svg>
