<?xml version="1.0" encoding="utf-8"?>
<!-- Generator: Adobe Illustrator 22.1.0, SVG Export Plug-In . SVG Version: 6.00 Build 0)  -->
<svg version="1.1" id="图层_1" xmlns="http://www.w3.org/2000/svg" xmlns:xlink="http://www.w3.org/1999/xlink" x="0px" y="0px"
	 viewBox="0 0 510.2 528.7" style="enable-background:new 0 0 510.2 528.7;" xml:space="preserve">
<style type="text/css">
	.st0{fill:#FEFEFE;}
	.st1{fill:#5A73F1;}
	.st2{fill:#4DC3FD;}
	.st3{fill:#FBDDAD;}
	.st4{fill:#4EC4FD;}
	.st5{fill:#F9C93C;}
	.st6{fill:#7DF1D5;}
	.st7{fill:#7EF1D5;}
	.st8{fill:#F8C83D;}
</style>
<g>
	<path class="st0" d="M389,283.4c2.6,0-140.4,145.8-165.3,170.2c-7,6.9-12,14.4-14.7,23.7c-3.2,11.2-14.5,38.1-14.8,38.1
		c-0.3-0.1-0.7-0.2-0.9-0.4c-4.6-7.1-11.7-6.9-19-6.9c-30.5,0.2-61,0.1-91.4,0.1c-1.7,0-3.3,0-5,0c-14.6-0.1-19.6-5-19.6-19.5
		c0-73.9,0-147.9,0-221.8c0-2.8-0.4-5.7,1.2-8.3c2.4-2.4,5.6-1.8,8.5-1.8c32.8-0.1,65.7-0.1,98.5,0c7.6,0,14-2.4,19.2-7.9
		c4.2-4.5,6.6-9.6,6.6-15.7c0.1-41.2,0.2-82.3,0-123.5c0-9.4-5.2-15.9-13.3-20.3c-2.2-1.2-4.6-1.9-6.5-3.6c-1.5-1.6-2.1-3.8-3.1-5.7
		c-4.9-9.6-12.3-15-23.4-14.9c-25,0.1-50,0-75,0c-2,0-4,0.1-6-0.1c-5.1-0.4-6.4-1.6-6.6-6.8c-0.2-7.5-0.3-15,0-22.5
		c0.4-9.9,5.5-14.9,15.5-15c24.2-0.2,48.3-0.1,72.5-0.1c39.5,0,79,0,118.5,0c2,0,4,0,6,0c7.6,0.2,9.8,2.3,9.8,10
		c0.1,18.8,0,37.7,0,56.5c0,3.5,0.1,7,0.8,10.4c2.7,13.2,11.9,20.9,25.3,21c19.5,0.1,39,0,58.5,0c2,0,4-0.1,6,0.1
		c4.8,0.5,6.7,2.5,7.2,7.3c0.2,2.3,0.1,4.7,0.1,7c0,42.8,0,85.6,0,128.5c0,2.5,0,5,0.2,7.5c0.4,5.3,2,9.8,7.4,12
		C387.4,281.6,388.3,282.4,389,283.4z"/>
	<path class="st1" d="M389,283.4c-8-1.3-11.6-5.4-11.7-13.9c-0.1-7.8,0-15.7,0-23.5c0-39.3,0-78.6,0-117.9c0-7.3-0.4-7.6-7.6-7.6
		c-20.5,0-41,0-61.5,0c-18,0-28.8-10.8-28.9-29c-0.1-20.7,0-41.3,0-62c0-6.5-0.6-7.2-7.1-7.2c-65.8,0-131.6,0-197.4,0
		c-10.5,0-14.6,4.1-14.6,14.5c0,7.2,0.3,14.3-0.1,21.5c-0.2,4.4,1.4,5.1,5.4,5.1c25.8-0.2,51.6,0.4,77.5-0.3
		c16.6-0.4,26.8,8.1,30.4,22.3c1.8,2.1,1.6,4.7,1.6,7.1c0,39,0.1,77.9,0,116.9c0,17-10.9,28.4-28.1,29.6c-5,0.3-10,0.1-15,0.1
		c-20.8,0-41.6,0-62.4,0c-7.3,0-7.3,0.2-7.5,7.6c-0.1,3.9,1,8-1.5,11.7c-0.1,1.8-0.2,3.7-0.2,5.5c0,75.6,0,151.2,0,226.8
		c0,11.5,4.1,15.5,15.7,15.5c34.8,0,69.6,0.1,104.4-0.1c7.2,0,11.8,2.4,14.1,9.2c-0.1,9.4-4.2,13.3-13.9,13.3
		c-37.4,0-74.8-0.1-112.3-0.1c-17-2.5-28.2-14.4-30.2-32.2c0-63.8,0-127.6,0.1-191.4c0-20.8-0.1-41.7,0.1-62.5c0-4.1-1-5.6-5.2-5.3
		c-7.4,0.6-14.7-0.4-21.1-4.7c-7.9-5.4-11.6-13.4-11.6-22.6c-0.2-39.7-0.2-79.3,0-119C0.2,75,12.1,63.8,28.4,63.6
		c9.6-0.1,9.6-0.1,9.6-9.7c0-7-0.1-14,0.1-21C38.6,15.4,52.4,1.4,69.8,0.3c2.3-0.1,4.7-0.2,7-0.2c64.6,0,129.3,0.1,193.9-0.1
		c11.5-0.1,20.9,3.1,28.1,12.1c3.9,4.8,8.4,7.6,15.1,8c17.1,0.9,34,3.7,51.1,4.4c4,2,8.5,1.3,12.7,1.7c18.1,2.1,36.2,3.6,54.3,5.2
		c19.1,1.7,33.1,20.3,30.3,39.4c-1.6,11.1-2.2,22.4-3.3,33.6c-1.3,13.3-2.5,26.7-3.8,40c-0.1,2.6-0.2,5.2-0.3,7.8
		c-1.3,11.9-2.6,23.8-3.8,35.7c-0.8,7.9-1.4,15.9-2.2,23.9c-0.6,6-3.5,10.3-9.8,11.7c-8.7,1.7-14.2-2.5-14.6-11.4
		c-0.5-11,1.5-21.9,2.5-32.9c2-22.9,4.3-45.8,6.5-68.6c1.1-11.8,2.2-23.5,3.4-35.3c0.1-0.7,0.2-1.3,0.3-2
		C438,63,438.1,57,423.3,55.7c-28.4-2.5-56.7-5.4-85-8.1c-0.7-0.1-1.3-0.2-2,0.3c0.4,2.1,2.2,3.2,3.6,4.6
		c17.1,17.1,34,34.3,51.3,51.2c7.3,7.1,10.6,15.4,10.6,25.5c-0.1,34.2,0,68.3,0,102.5c0,2.7,0.2,5.4-1.5,7.7c0,9.3,0,18.6-0.1,27.9
		C400,277.5,398.4,280,389,283.4z"/>
	<path class="st1" d="M437.1,289.6c18.7-20.9,45.4-19.1,64.1,3.4c12.7,15.3,12.5,38.4-3.8,54.5c-32.8,32.2-65.1,65-97.6,97.5
		c-18.8,18.9-37.7,37.7-56.4,56.7c-3.3,3.3-6.9,5.5-11.3,6.9c-19.6,6.3-39.2,12.9-58.9,19.2c-7.3,2.4-12.9-0.3-15.4-6.9
		c-1.2-3.1-0.4-6,0.5-8.8c6.9-20.5,13.8-41,20.7-61.5c0.9-2.8,2.8-4.9,4.8-6.9c13.9-13.9,27.8-27.8,41.6-41.8
		C334.6,392.9,427.1,300.7,437.1,289.6z"/>
	<path class="st2" d="M400.1,239.3c0-37.2-0.1-74.3,0-111.5c0-8.6-2.7-15.8-8.9-21.9c-18.4-18.1-36.6-36.5-54.8-54.8
		c-1.5-1.5-3.5-2.6-3.6-5.5c5,0.3,9.9,0.6,14.8,1c16.7,1.6,33.3,3.2,50,4.9c10.4,1,20.8,1.9,31.2,3.1c7.2,0.9,10.6,4.9,10.3,12.2
		c-0.5,13.6-2.3,27.1-3.7,40.6c-1.2,11.9-2.1,23.8-3.3,35.7c-1.2,12.4-2.5,24.7-3.7,37.1c-0.9,9.9-1.9,19.8-2.3,29.8
		c-0.4,9.6,3.4,13.3,13,13.5C426.1,228.8,413.1,234,400.1,239.3z"/>
	<path class="st3" d="M60.2,258.5c-0.1-5.5,0.1-11-0.2-16.5c-0.2-3.7,0.9-4.8,4.7-4.8c26.7,0.2,53.3,0.1,80,0.1
		c6.7,0,12.9-1.5,18.3-5.7c6.8-5.3,10.3-12.5,10.3-21.2c0-40.7-0.1-81.3-0.1-122c0-1,0-2,0.1-3c14.4,4.2,20.9,12.7,20.9,27.6
		c0,39.6,0,79.3,0,118.9c0,15.3-11.2,26.5-26.4,26.5C131.9,258.5,96,258.5,60.2,258.5z"/>
	<path class="st1" d="M131.9,276.3c7.8,0,15.7-0.1,23.5,0c10.6,0.2,17.6,7,17.6,17.6c0.1,15.8,0.1,31.6,0,47.4
		c-0.1,9.5-6.5,16.7-15.8,17.3c-16.6,1-33.3,0.8-49.9,0.2c-10.2-0.4-16.9-7.6-17-17.9c-0.2-15.8-0.2-31.6,0-47.4
		c0.2-10.1,7.4-17,17.7-17.1C115.9,276.2,123.9,276.3,131.9,276.3z"/>
	<path class="st2" d="M259.9,351.5c-14.5,0-29,0-43.4,0c-7.7,0-12.4-4.3-12.5-11.1c0-6.9,4.6-11.6,12.2-11.6
		c29.3-0.1,58.6-0.1,87.9,0c7.4,0,12.7,5,12.7,11.4c0,6.9-5,11.4-12.9,11.4C289.2,351.6,274.5,351.5,259.9,351.5z"/>
	<path class="st4" d="M252.6,176.5c11.8,0,23.6,0,35.4,0c8,0,13,4.3,13.1,11.2c0.1,7.2-4.9,11.7-13.1,11.7c-23.8,0-47.6,0-71.3,0
		c-8,0-12.8-4.4-12.8-11.4c0-7.1,4.8-11.4,12.8-11.4C228.7,176.4,240.6,176.5,252.6,176.5z"/>
	<path class="st2" d="M234.2,130.5c6.1,0,12.3-0.1,18.4,0c6.7,0.1,11.7,4.6,12,10.8c0.3,5.8-4.2,11.5-10.6,11.8
		c-13.6,0.5-27.2,0.5-40.8,0c-6.2-0.2-10.5-6.1-10.2-12c0.3-5.9,5.3-10.5,11.7-10.5C221.2,130.4,227.7,130.5,234.2,130.5z"/>
	<path class="st2" d="M233.6,304.6c-6.3,0-12.7,0.1-19,0c-6.7-0.1-11.5-4.9-11.5-11.2c0-6.3,4.7-11.1,11.5-11.2
		c12.8-0.1,25.6-0.1,38.5,0c6.8,0.1,11.5,4.8,11.5,11.2c0,6.3-4.8,11-11.6,11.2c-0.3,0-0.7,0-1,0
		C245.9,304.6,239.7,304.6,233.6,304.6z"/>
	<path class="st5" d="M86.5,86.3c19.2,0,38.3,0,57.5,0c6,0,6.9,0.9,6.9,7c0,38.1,0,76.3,0,114.4c0,5.6-1.2,6.8-6.7,6.8
		c-38.5,0-77,0-115.4,0c-5.9,0-6.7-0.9-6.7-6.6c0-38.3,0-76.6,0-114.9c0-6.2,0.5-6.7,7-6.7C48.2,86.3,67.4,86.3,86.5,86.3z"/>
	<path class="st6" d="M302.1,48.4C318.5,64.8,334.7,81,351,97.3c-0.6,0.8-2.1,0.2-3.2,0.2c-13.3,0.1-26.6,0-39.9,0.1
		c-4,0-5.8-1.5-5.8-5.6C302.1,77.4,302.1,63,302.1,48.4z"/>
	<path class="st7" d="M332.5,479.3c-1-0.8-1.9-1.5-2.7-2.3c-7.1-7-14-14.2-21.3-21.1c-2.4-2.3-2.2-3.6,0-5.8
		c19.2-19,38.2-38.1,57.3-57.1c12.8-12.8,25.7-25.6,38.5-38.5c2.3-2.3,3.6-3,6.2-0.2c6.7,7.1,13.8,14,20.8,20.8
		c2,1.9,2.7,3.1,0.3,5.5c-32.3,32.2-64.6,64.4-96.8,96.7C334.2,477.8,333.4,478.5,332.5,479.3z"/>
	<path class="st0" d="M488,319.3c0.1,5.5-4.6,9.2-8.7,13.3c-1.3,1.3-2.1,0.1-2.9-0.7c-7.6-7.5-15.2-15-22.8-22.4
		c-0.9-0.9-2.1-1.7-0.7-3.3c6.8-7.7,15.4-13.4,26.1-3.5C485.4,308.7,488.1,313.2,488,319.3z"/>
	<path class="st6" d="M435.1,324.3c0.9,0.8,1.7,1.3,2.4,2c7.2,7.2,14.3,14.4,21.6,21.5c2,1.9,2.1,3.1,0.1,5.2
		c-8.6,9.1-8.5,9.2-17.2,0.5c-5.3-5.3-10.5-10.6-15.9-15.8c-1.8-1.7-2.2-3-0.1-4.8c2.4-2.1,4.5-4.4,6.8-6.6
		C433.3,325.7,434.1,325.1,435.1,324.3z"/>
	<path class="st8" d="M286.9,499.4c2.8-8.6,5.4-16.4,8-24.2c5.4,5.6,10.5,10.9,15.7,16.2C303.4,493.8,295.5,496.4,286.9,499.4z"/>
	<path class="st6" d="M131.3,298.5c5,0,10,0.1,15,0c2.7-0.1,3.9,0.6,3.9,3.6c-0.1,10.3-0.1,20.6,0,30.9c0,2.6-1,3.5-3.5,3.4
		c-10.3-0.1-20.6-0.1-30.9,0c-3,0-3.6-1.2-3.6-3.9c0.1-10.1,0.1-20.3,0-30.4c0-2.9,1-3.8,3.8-3.7C121,298.7,126.2,298.5,131.3,298.5
		z"/>
	<path class="st0" d="M74.1,183.6c-4.1,0.2-6.9-1.5-9.4-3.8c-5.5-5.3-11-10.7-16.3-16.3c-5.3-5.6-5.5-12.5-0.9-16.9
		c4.9-4.7,11.2-4.4,16.9,0.8c0.2,0.2,0.5,0.5,0.7,0.7c2.9,2.5,5.1,7.5,8.3,7.1c3-0.4,5.6-4.8,8.3-7.5c8.4-8.3,16.7-16.8,25.1-25.1
		c4.6-4.5,9.6-5,14.5-2c4.2,2.6,6.1,8.2,4.7,13.1c-0.6,2-1.8,3.6-3.2,5c-13.5,13.6-27,27.2-40.5,40.8
		C80,181.9,77.2,183.8,74.1,183.6z"/>
</g>
</svg>
