<svg id="组_42" data-name="组 42" xmlns="http://www.w3.org/2000/svg" xmlns:xlink="http://www.w3.org/1999/xlink" width="403.03" height="62.969" viewBox="0 0 403.03 62.969">
  <defs>
    <style>
      .cls-1 {
        fill: #fff;
        stroke-width: 4.645px;
        stroke: url(#linear-gradient);
      }

      .cls-1, .cls-2 {
        fill-rule: evenodd;
      }

      .cls-2 {
        fill: url(#linear-gradient-2);
      }
    </style>
    <linearGradient id="linear-gradient" x1="1374.31" y1="835.484" x2="1772.69" y2="835.484" gradientUnits="userSpaceOnUse">
      <stop offset="0" stop-color="#53cbed"/>
      <stop offset="1" stop-color="#c14fc4"/>
    </linearGradient>
    <linearGradient id="linear-gradient-2" x1="1491.62" y1="834.875" x2="1655.91" y2="834.875" xlink:href="#linear-gradient"/>
  </defs>
  <path id="矩形_29" data-name="矩形 29" class="cls-1" d="M1374.3,806.322h398.39v58.334H1374.3V806.322h0Z" transform="translate(-1371.97 -804)"/>
  <path id="奖励已发放" class="cls-2" d="M1492.4,840.9h11.93q-2.865,4.467-12.7,6.467l1.3,2.933q10.935-2.6,14.27-8.066,2.865,5.6,13.63,8l1.3-2.934q-9.375-1.7-12.77-6.4h12.1v-3.1H1508.5c0.08-.977.13-1.766,0.13-2.366h-3.07a17.824,17.824,0,0,1-.16,2.366h-13v3.1Zm8.7-12.966a53.072,53.072,0,0,1-9.1,3.3l1.26,2.933a58.376,58.376,0,0,0,7.84-3.067v4.134h3.2V819.7h-3.2v8.234Zm-8.34-4.534a22.586,22.586,0,0,1,5.44,3.667l1.7-2.633a23.951,23.951,0,0,0-5.44-3.534Zm18.27-3.766a13.817,13.817,0,0,1-6.3,6.2l1.93,2.533a21.756,21.756,0,0,0,4.47-3.533h6.7a11.369,11.369,0,0,1-3.67,4.066,29.078,29.078,0,0,0-2.73-2.666l-2.17,1.633a30.668,30.668,0,0,1,2.6,2.4,29.641,29.641,0,0,1-6.13,2.133l1.53,2.767q11.505-3,13.7-10.533v-2.667h-7.66a17.908,17.908,0,0,0,.96-1.967Zm21,15.7q-0.075,8.833-3.3,12.866l2.2,1.9q3.57-4.366,3.87-13.4h3.23q-0.075,7.134-.33,8.767c-0.2,1.133-.66,1.733-1.37,1.8-0.33,0-1.15-.045-2.43-0.133l0.83,2.6a15.383,15.383,0,0,0,1.93.166,3.356,3.356,0,0,0,3.44-2.7q0.72-2.766.86-13.233h-6.13v-4.3H1541V826.8h-11.54v-3.266h12.4v-2.867h-15.33v15q-0.1,8.234-1.87,12.633l2.2,2q2.43-5.5,2.6-14.633v-6h2.57v5.667Zm13.5-8.9H1542v2.933h3.53q-0.27,13.067-4.93,19.033l2.23,2q5.43-6.8,5.73-21.033h2.97q-0.075,13.467-.33,15.667-0.3,2.234-2.07,2.233c-0.78,0-1.83-.056-3.17-0.167l0.67,2.667,2.97,0.133c2.6,0,4.06-1.233,4.4-3.7q0.465-3.9.46-19.766h-5.86v-6.767h-3.07v6.767Zm39.5-5.334h-25.3v3.034h22.1v7.933h-17.37v-4.533h-3.2V844.9q0,4.333,4.14,4.334h18.5a4.945,4.945,0,0,0,3.2-1.2c0.68-.8,1.23-3.289,1.63-7.467l-3.1-1q-0.27,5.267-1.03,6a2.357,2.357,0,0,1-1.57.6H1566.3a1.637,1.637,0,0,1-1.84-1.867v-9.2h20.57v-14Zm16.8,9.134q-3.4,10.5-10.3,16.6l1.63,2.933a34.179,34.179,0,0,0,9.07-11.8,18.439,18.439,0,0,0,4.87,5.567,49.2,49.2,0,0,1-8.57,3.966l1.67,3a47.74,47.74,0,0,0,9.7-5,52.2,52.2,0,0,0,10.16,4.834l1.64-3a54.057,54.057,0,0,1-9.17-3.9,16.587,16.587,0,0,0,4.97-7.4v-2.667h-13.34c0.62-1.844.97-2.889,1.04-3.133h16.06V827.2H1606c0.6-2.422,1.08-4.888,1.46-7.4l-3.23-.4a77.64,77.64,0,0,1-1.53,7.8h-4.94l1.74-6.166-3.17-.534-2.63,9.734h8.13Zm12.47,6a16.406,16.406,0,0,1-4.57,5.466,17.073,17.073,0,0,1-5.2-5.466h9.77Zm-3.37-14.7a31.388,31.388,0,0,1,5.67,5.433l2.26-2.267a39.653,39.653,0,0,0-5.8-5.266Zm14.3,5.8h3.3V829.8q-0.1,12.635-3.93,18.3l2.46,2.167q3.57-5.332,4.27-15.767h3.53c-0.06,6.378-.18,10.056-0.33,11.034a1.775,1.775,0,0,1-1.93,1.6,26.052,26.052,0,0,1-2.6-.167l0.7,2.733c1.26,0.111,2.05.167,2.36,0.167,2.56,0,4-.967,4.34-2.9q0.42-3.134.43-15.4h-6.37l0.04-4.233h7.83V824.3h-4.8a51.764,51.764,0,0,0-2.03-4.8l-3.24.534a30.765,30.765,0,0,1,2.1,4.266h-6.13v3.034Zm24.5-.034a28.9,28.9,0,0,1-2.6,11.2,37.09,37.09,0,0,1-3.63-8.9c0.35-.888.64-1.655,0.86-2.3h5.37Zm-4.3,14.034a20.537,20.537,0,0,1-7.17,6.2L1640,850.3a25.8,25.8,0,0,0,7.23-6.266,22.208,22.208,0,0,0,6.87,6.266l1.8-2.666a22.681,22.681,0,0,1-6.9-6.234,30.822,30.822,0,0,0,3.73-14.1h2.1v-3.033h-9.6q0.495-2.1.9-4.5l-3.13-.533q-1.2,8.367-4.54,13.3l1.97,2.4a23.566,23.566,0,0,0,1.33-1.967,42.648,42.648,0,0,0,3.67,8.367h0Z" transform="translate(-1371.97 -804)"/>
</svg>
