<?xml version="1.0" encoding="utf-8"?>
<!-- Generator: Adobe Illustrator 22.1.0, SVG Export Plug-In . SVG Version: 6.00 Build 0)  -->
<svg version="1.1" id="图层_1" xmlns="http://www.w3.org/2000/svg" xmlns:xlink="http://www.w3.org/1999/xlink" x="0px" y="0px"
	 viewBox="0 0 555.9 490.5" style="enable-background:new 0 0 555.9 490.5;" xml:space="preserve">
<style type="text/css">
	.st0{fill:#5A73F1;}
	.st1{fill:#F9C93C;}
	.st2{fill:#FEFEFE;}
	.st3{fill:#D8EDFE;}
	.st4{fill:#7EF1D5;}
	.st5{fill:#51D6B5;}
	.st6{fill:#FCFCFE;}
	.st7{fill:#AF93FD;}
	.st8{fill:#AF94FD;}
</style>
<g>
	<g>
		<path class="st0" d="M389.9,1.1c8.9-0.4,17.8-0.9,26.7-1.1c6.5-0.2,10.3,2.7,12.5,8.9c2.1,5.6,4.6,64.1,5.1,80.2
			c0,1.1,0.1,2.2,0.3,3.3c0.1,0.4,0.4,1.3,1,1.9c0.6,0.6,1.6,0.7,1.9,0.8c6,0.6,11.9,1.3,17.9,1.9c8.4,0.8,12.5,5.2,12.4,13.7
			c0,8.5-4.9,59.8-6.6,77c-0.2,2.4,0.5,3.3,2.6,3.9c16.7,4.8,25.5,21.4,25.1,36.7c-0.5,19.3-0.5,61.6,0.5,63.7
			c13.2-6,26.3-12,39.5-18c3.2-1.5,6.4-2.8,9.5-4.4c4.8-2.4,9.4-1.9,13.5,1.3c4.3,3.3,4.5,7.9,3.5,12.7c-2.2,10.7-4.6,21.5-6.9,32.2
			c-10.2,47.1-20.5,94.2-30.7,141.4c-2,9-8.3,12.6-17.1,9.4c-11-4-21.9-7.8-32.8-12.1c-3.6-1.4-6-0.9-9.1,1.2
			c-16,10.9-32.1,21.5-48.2,32.2c-7.3,4.9-15.9,3.1-18.4-4.1c-1-2.9-1.1-6.2-1.2-9.4c-0.2-5-0.1-10,0-15c0.1-2.5-0.8-3.8-3.4-3.5
			c-0.7,0.1-1.3,0-2,0c-71.5,0-143,0-214.4,0c-1.2,0-2.3,0.1-3.5,0.2c-23.8-0.1-47.7-0.1-71.5-0.2c-19.5,0-39,0.1-58.5,0
			C18.1,455.7,3.5,443.5,0.5,425C0.3,336.3,0.2,247.7,0,159.1c0-12.1,2.7-23.1,11.8-31.7c3.8-6.6,10.3-8.6,17.2-9.8
			c11.2-2,11.1-1.9,12.2-13.4c1-9.8,1.7-19.6,3-29.3c1.3-9.7,5.4-13.5,15.2-13.4c14.8,0.1,29.5,2.2,44.3,3.4
			c21.4,1.7,42.8,3.7,64.2,5.6c24.1,2.1,48.1,4.2,72.2,6.4c24.6,2.2,49.1,4.3,73.7,6.5c29,2.6,58.1,5,87.1,7.7
			c7.6,0.7,8.6-0.1,8.1-7.6c-1.3-17.4-2.3-34.9-2.8-52.4c-0.1-4.2-1.9-5.4-5.8-5.4c-9.5,0.1-19,0.9-28.4,1.4c-9,0.5-18,1-26.9,1.5
			c-23.9,1.4-47.9,2.7-71.8,3.9c-15.5,0.7-30.9,1.6-46.4,2.4c-15.6,0.8-31.3,1.6-46.9,2.5c-14.5,0.9-28.9,1.5-43.4,2.3
			c-16.9,0.9-33.9,1.9-50.9,2.7c-15.5,0.8-30.9,1.9-46.4,2.3c-6.6,0.2-7.1,0.8-6.6,7.3c0.9,13.1,1.9,26.2,1.8,39.4
			c0,2.5-0.1,5-1,7.4c-2,5.3-7.4,8.7-13,8.1c-6.2-0.6-9.5-4-10.4-10.7C8.9,76.2,7.7,56.3,6.8,36.4c-0.5-10.8,3.8-14.9,14.8-15.4
			c35.4-1.8,70.8-3.8,106.2-5.7c21.6-1.1,43.2-2.1,64.8-3.3c28.4-1.5,56.8-3.2,85.2-4.7c21.6-1.2,43.2-2.1,64.8-3.3
			C358.4,3.1,374.2,2,389.9,1.1z"/>
		<path class="st1" d="M10,96.2c2.2,6.4,7.5,10.2,12.9,9.3c6.5-1,10.4-5.9,10.1-13.3c-0.6-14.6-1.3-29.3-2.2-43.9
			c-0.2-3.8,0.7-5.1,4.7-5.3c47.6-2.3,95.1-4.8,142.7-7.3c43.9-2.3,87.8-4.6,131.7-7c30.8-1.6,61.5-3.2,92.3-5
			c4.1-0.2,5.4,0.7,5.5,5c0.8,19.8,1.9,39.6,3.1,59.4c0.3,4.2-0.8,5.4-5.1,5c-20.2-1.9-40.4-3.5-60.7-5.3
			c-20.7-1.8-41.4-3.8-62.1-5.7c-24.5-2.2-49.1-4.1-73.6-6.3c-24.4-2.1-48.7-4.5-73.1-6.6c-25-2.2-50.1-4.3-75.1-6.4
			C50.6,62,46.6,65.7,45.6,76.2c-1.2,12.9-2.6,25.8-3.8,38.8c-0.2,2.3-0.9,3.2-3.3,3.1c-10-0.1-19,2.8-26.8,9.2
			C11.2,117,10.6,106.6,10,96.2z"/>
		<path class="st2" d="M23.8,371.9c-0.1-2.2-0.2-4.3-0.2-6.5c0-68.8,0-137.7,0-206.5c0-12,4.1-16.1,16.3-16.1
			c47.8,0,95.7,0.1,143.5-0.1c10.9,0,20.1,3.2,28.5,10c19.1,15.5,38.6,30.7,57.7,46.3c13.1,10.7,27.9,15.8,44.7,15.8
			c45.7,0,91.3,0,137,0c8.7,0,12.9,3.5,13.6,11c0.7,13.4,0.7,26.8,0,40.2l0,0c-3.1,4.1-7.9,5.4-12.2,7.4
			c-21.9,10.1-43.6,20.7-65.5,30.9c-38.8,17.9-77,37.4-116.2,54.5c-23,10-47.3,16-72.2,19.1c-1.9,0.2-3.7,0.3-5.3-1
			c-4-4.9-9.2-6.4-15.5-6.4c-30.3,0.2-60.6,0.2-90.9,0c-7,0-13.6,0.4-19.3,5c-10.6,0.7-21.1-0.6-31.6-1.6
			C32.1,373.6,27.6,374.9,23.8,371.9z"/>
		<path class="st3" d="M23.8,371.9c13.7-0.2,27.2,2.4,40.9,2.1c0.9,0,1.9,0.6,2.8,0.9c1.4,1.3,1,3.1,1.1,4.7
			c0.5,5.5,3.6,8.7,9.1,9.5c1.7,0.2,3.3,0.2,5,0.2c32.1,0,64.2,0,96.3,0c2,0,4,0,6-0.4c3.9-0.8,6.5-3.1,7.7-7c0.5-1.7,0.4-3.7,2-5
			c23-2.6,45.3-7.9,67-16c19.6-7.3,38.2-17.1,57.1-26c37.4-17.7,74.8-35.4,112.2-53.1c11.3-5.3,22.6-10.6,33.9-15.8
			c0.1,11.8,0,23.6,0.2,35.5c0,2.6-1.1,3.8-3.3,4.8c-45.5,20.8-91,41.8-136.5,62.7c-4.8,2.2-9.7,4.5-14.5,6.6c-5,2.2-8.1,5.8-8,11.5
			c0.1,6.1,4,9.3,9.1,11.2c17,6.3,34,12.6,51,18.8c8.1,3,16.2,6,24.3,8.9c2.4,0.8,4.2,1.8,3.7,4.9c-0.6,3.6-3.2,2.3-5.1,2.3
			c-115.9,0.1-231.9,0.1-347.8,0c-9.8,0-14.4-4.5-14.4-14.3C23.6,403.2,23.7,387.6,23.8,371.9z"/>
		<path class="st4" d="M278.1,174.4c-13.9-11-27.5-21.9-41.3-32.6c-8.5-6.6-16.4-14.1-26.5-18.5c-8.2-3.6-16.8-5.3-25.7-5.3
			c-38.2,0-76.3,0-114.5,0c-5.8,0-6-0.4-5.3-5.8c1-7.2,2-14.5,2.6-21.8c0.3-3,1.5-3.6,4.1-3.3c28.4,2.6,56.9,5.3,85.3,7.8
			c21.2,1.9,42.4,3.4,63.6,5.2c24.3,2.1,48.6,4.5,73,6.7c17.4,1.5,34.8,2.8,52.2,4.3c20.9,1.8,41.7,3.8,62.5,5.7
			c9.6,0.9,19.2,1.6,28.8,2.3c6.4,0.5,7.1,1.3,6.5,7.4c-1.7,17.7-3.3,35.4-4.9,53.1c0,0.3,0,0.7,0,1c-0.5,8.6-0.5,8.6-9.1,8.6
			c-4.2,0-8.3-0.2-12.5,0.1c-3.7,0.2-4.7-1.3-4.3-4.6c1-9.6,1.6-19.2,2.8-28.8c1.5-11.8-2.1-16.6-13.9-18c-1.3-0.2-2.6-0.6-3.9-0.7
			c-21-1.8-42.1-3.4-63.1-5.2c-12.9-1.1-25.8-2.3-38.7-3.7c-7.4-0.8-13.3,3.4-14.2,10.7C280.4,150.5,279.3,162.1,278.1,174.4z"/>
		<path class="st5" d="M524.5,316.1c-4,18.4-7.9,35.9-11.8,53.5c-4.9,22.2-9.8,44.3-14.5,66.5c-0.9,4.1-2,5.2-6.2,3.6
			c-22-8.2-44-16.2-66-24.2c-0.6-0.2-1.2-0.6-2.4-1.3C457.3,381.6,490.6,349.1,524.5,316.1z"/>
		<path class="st5" d="M485.1,321.5c-8,8.2-15.8,16.6-24.1,24.4c-12.4,11.6-24.2,23.8-36.4,35.6c-7.5,7.3-15.1,14.5-22.6,21.9
			c-1.6,1.6-2.9,2.2-5.2,1.3c-17.1-6.4-34.2-12.7-52.3-19.5c47.2-21.7,93.6-43.1,140-64.4C484.7,321,484.9,321.2,485.1,321.5z"/>
		<path class="st2" d="M346.4,190.9c-12.7,0-25.3,0.1-38,0c-7.6-0.1-8.2-0.9-7.5-8.3c0.8-7.9,1.5-15.9,2-23.9
			c0.2-3.6,1.5-5.1,5.5-4.7c26.7,2.5,53.3,4.8,80,7.1c2.5,0.2,3.6,1,3.3,3.6c-0.7,7.9-1.4,15.9-2,23.9c-0.2,3.3-2.6,2.4-4.4,2.4
			C372.3,191,359.3,191,346.4,190.9C346.4,191,346.4,190.9,346.4,190.9z"/>
		<path class="st6" d="M435.9,442.9c-7.8,5.2-14.6,9.8-21.8,14.7c0-7.8,0-14.9,0-22.6C421,437.6,427.8,440,435.9,442.9z"/>
		<path class="st3" d="M464.8,266c0-13.4,0-26.8,0-40.2c1.5,4.3,0.7,8.8,0.6,13.2C465.2,248,466.4,257.1,464.8,266z"/>
		<path class="st7" d="M194.8,376.9c-0.2,10.6-3.6,14-14.1,14c-33.3,0-66.5,0-99.8,0c-11,0-15.4-5.4-13.3-16.1c3.4-4.4,7.8-6,13.5-6
			c33.4,0.2,66.8,0.2,100.2,0C187.5,368.9,192,371.2,194.8,376.9z"/>
		<path class="st8" d="M107.7,351.1c-9.6,0-19.3,0.1-28.9,0c-6.8,0-11.7-4.3-12-10c-0.3-5.9,4.1-10.9,10.8-11.3
			c20.6-1.2,41.2-1.2,61.7,0c6.3,0.4,10.7,5.5,10.4,11.2c-0.4,5.7-5.1,10-11.5,10.1C128,351.2,117.8,351.1,107.7,351.1z"/>
	</g>
</g>
</svg>
