<svg id="组_52" data-name="组 52" xmlns="http://www.w3.org/2000/svg" xmlns:xlink="http://www.w3.org/1999/xlink" width="261.062" height="529" viewBox="0 0 261.062 529">
  <defs>
    <style>
      .cls-1 {
        fill: none;
        stroke-width: 5px;
        stroke: url(#linear-gradient);
      }

      .cls-1, .cls-2, .cls-3 {
        fill-rule: evenodd;
      }

      .cls-2 {
        fill: url(#linear-gradient-2);
      }

      .cls-3 {
        fill: #fff;
      }
    </style>
    <linearGradient id="linear-gradient" x1="171.469" y1="1876.5" x2="427.531" y2="1876.5" gradientUnits="userSpaceOnUse">
      <stop offset="0" stop-color="#53cbed"/>
      <stop offset="1" stop-color="#c14fc4"/>
    </linearGradient>
    <linearGradient id="linear-gradient-2" x1="174" y1="1629.5" x2="281" y2="1629.5" gradientUnits="userSpaceOnUse">
      <stop offset="0" stop-color="#55c9ec"/>
      <stop offset="1" stop-color="#8da4e0"/>
    </linearGradient>
  </defs>
  <path id="矩形_555" data-name="矩形 555" class="cls-1" d="M171.472,1614.5H427.528v524H171.472v-524h0Z" transform="translate(-168.969 -1612)"/>
  <path id="矩形_556" data-name="矩形 556" class="cls-2" d="M174,1616H281l-31,27H174v-27Z" transform="translate(-168.969 -1612)"/>
  <path id="当前阶级" class="cls-3" d="M180.324,1627.06h11.765v2.34H181.153v1.76h10.936v2.41h-11.8v1.83h11.8v0.6h1.869v-10.76h-5.891v-5.47h-1.94v5.47h-5.8v1.82Zm11.976-6.52a19.335,19.335,0,0,1-2.046,3.39l1.676,0.89a18.037,18.037,0,0,0,2.063-3.48Zm-11.87,1.11a26.667,26.667,0,0,1,2.081,3.17l1.57-1.08a24.729,24.729,0,0,0-2.081-3.08Zm27.127-2.18a15.753,15.753,0,0,1-1.287,2.14h-3.087c-0.412-.84-0.758-1.5-1.041-1.96l-1.94.32a10.5,10.5,0,0,1,.988,1.64h-4.48v1.82h15.962v-1.82h-4.339a14.776,14.776,0,0,0,1.006-1.5ZM202.918,1636c1.153,0,1.729-.72,1.729-2.18v-9.42h-6.826v11.75h1.8v-3.74h3.245v1q0,0.84-.546.84l-1.27-.07,0.494,1.82h1.375Zm-3.3-6.73h3.245v1.5H199.62v-1.5Zm0-3.14h3.245v1.5H199.62v-1.5Zm10.177,9.82a1.628,1.628,0,0,0,1.8-1.88v-10.01h-1.834v9.53a0.577,0.577,0,0,1-.6.7c-0.682,0-1.393-.04-2.134-0.11l0.388,1.77H209.8Zm-3.668-2.96h1.8v-7.59h-1.8v7.59Zm19.772,2.96h1.8v-10.04h-1.8v10.04Zm-3.828-7.45q-0.052,4.395-2.31,6.4l1.411,1.23q2.646-2.415,2.7-7.63v-2.55h-1.8v2.55Zm1.835-8.84a15.275,15.275,0,0,1-4.621,6.16l1.04,1.61a15.814,15.814,0,0,0,4.427-5.98,14.74,14.74,0,0,0,4.851,5.86l1.041-1.59a14.6,14.6,0,0,1-5.045-6.06h-1.693Zm-9.172,16.38h1.8V1621.9h2.117a45.883,45.883,0,0,1-1.782,4.76,6.868,6.868,0,0,1,1.729,4.02,0.736,0.736,0,0,1-.194.59,1.78,1.78,0,0,1-.812.2,8.252,8.252,0,0,1-.987-0.09l0.617,1.87a4.1,4.1,0,0,0,2.646-.71,2.691,2.691,0,0,0,.529-1.86,9.989,9.989,0,0,0-1.729-4.3q1.075-2.625,1.782-4.77v-1.46h-5.715v15.89ZM237.3,1632a29.76,29.76,0,0,1-5.521,1.43l0.247,1.82a27.575,27.575,0,0,0,5.1-1.43q-0.423.615-.759,1.02l1.394,1.23a16.123,16.123,0,0,0,3.263-7.87,16.45,16.45,0,0,0,1.905,3.8,12.155,12.155,0,0,1-3.475,2.47l1.023,1.69a12.093,12.093,0,0,0,3.686-2.59,16.789,16.789,0,0,0,2.964,2.56l1.164-1.59a17.311,17.311,0,0,1-3-2.36,14.669,14.669,0,0,0,2.276-6.07v-1.04h-2.152c0.27-1.08.535-2.33,0.793-3.76v-1.16h-8.06v1.75h1.534v0.67q-0.053,7.11-2.381,10.97V1632Zm6.7-1.3a14.358,14.358,0,0,1-2.593-5.86c0.047-.95.07-1.71,0.07-2.27v-0.67h2.84c-0.4,2.17-.741,3.78-1.023,4.8h2.434a11.237,11.237,0,0,1-1.728,4h0Zm-9.155-11.18a29.9,29.9,0,0,1-2.257,5.09,1.735,1.735,0,0,1-.759.68l0.441,1.7,2.558-.34a14.683,14.683,0,0,1-1.993,2.64,2.317,2.317,0,0,1-.829.53l0.476,1.68a30.083,30.083,0,0,0,5.485-1.18v-1.67c-1.034.32-2.11,0.59-3.227,0.82a44.2,44.2,0,0,0,3.721-5.73l-1.6-.63q-0.212.405-1.023,1.86c-0.412.06-1.017,0.13-1.817,0.23a30.521,30.521,0,0,0,2.593-4.96Z" transform="translate(-168.969 -1612)"/>
</svg>
