<svg id="组_42" data-name="组 42" xmlns="http://www.w3.org/2000/svg" xmlns:xlink="http://www.w3.org/1999/xlink" width="799.71" height="259.156" viewBox="0 0 799.71 259.156">
  <defs>
    <style>
      .cls-1 {
        fill: #fff;
        opacity: 0.5;
      }

      .cls-1, .cls-2, .cls-3 {
        fill-rule: evenodd;
      }

      .cls-2 {
        fill: none;
        stroke-width: 7.742px;
        stroke: url(#linear-gradient);
      }

      .cls-3 {
        fill: url(#linear-gradient-2);
      }
    </style>
    <linearGradient id="linear-gradient" x1="1037.22" y1="580.328" x2="1829.22" y2="580.328" gradientUnits="userSpaceOnUse">
      <stop offset="0" stop-color="#53cbed"/>
      <stop offset="1" stop-color="#c14fc4"/>
    </linearGradient>
    <linearGradient id="linear-gradient-2" x1="1087.38" y1="499.828" x2="1275.41" y2="499.828" xlink:href="#linear-gradient"/>
  </defs>
  <path id="矩形_24_拷贝_3" data-name="矩形 24 拷贝 3" class="cls-1" d="M1037.23,454.613h328.44l29.35,65.036h434.2l0.01,186.1-792,.282V454.613Z" transform="translate(-1033.38 -450.75)"/>
  <path id="矩形_24_拷贝_4" data-name="矩形 24 拷贝 4" class="cls-2" d="M1037.23,454.613h328.44l29.35,65.036h434.2l0.01,186.1-792,.282V454.613Z" transform="translate(-1033.38 -450.75)"/>
  <path id="我的推荐人" class="cls-3" d="M1105.13,499.672c-2.07.687-4.24,1.337-6.54,1.948v-6h8.56a53.164,53.164,0,0,0,1.26,7.3,35.718,35.718,0,0,0,1.19,3.936,27.82,27.82,0,0,1-9.4,5.616l2.02,3.133a31.211,31.211,0,0,0,8.87-5.234,14.622,14.622,0,0,0,1.94,3.171q2.715,3.4,5.16,3.4,2.76,0,4.21-8.177l-3.21-1.681c-0.49,3.974-.98,5.96-1.49,5.96-0.62,0-1.49-.865-2.64-2.6a23.039,23.039,0,0,1-1.34-2.6,36.667,36.667,0,0,0,6.12-9.055l-3.14-1.643a31.934,31.934,0,0,1-4.31,6.763q-0.345-1.146-.54-1.987a37.269,37.269,0,0,1-1.03-6.3h11.23v-3.477h-11.54q-0.345-4.242-.34-9.858h-3.67q0,5.388.35,9.858h-8.26v-4.853q2.715-.763,5.16-1.6l-1.26-3.4a52.9,52.9,0,0,1-14.21,3.362l0.76,3.439q3.75-.573,5.89-0.993v4.05h-7.57v3.477h7.57v6.839q-3.6.726-7.57,1.375l0.5,3.63c2.14-.331,4.49-0.777,7.07-1.337v6.151a1.288,1.288,0,0,1-1.46,1.452,34.091,34.091,0,0,1-3.82-.229l0.81,3.477h4.27c2.58,0,3.86-1.261,3.86-3.783v-7.909q4.02-1.07,6.54-1.91v-3.706Zm6.8-14.71a41.186,41.186,0,0,1,6.72,5.425l2.64-2.6a49.33,49.33,0,0,0-6.92-5.158Zm21.77,3.553a29.647,29.647,0,0,0,1.69-5.884l-3.63-.5a35.387,35.387,0,0,1-1.53,6.381h-3.63v27.7h3.47v-3.1h6.04v1.987h3.48V488.515h-5.89Zm-3.63,13.717h6.04v7.527h-6.04v-7.527Zm0-10.278h6.04v7.03h-6.04v-7.03Zm13.45,7.565a72.257,72.257,0,0,1,5.89,8.406l2.86-2.025a60.223,60.223,0,0,0-5.81-8.215Zm3.98-10.966a47.412,47.412,0,0,0,1.52-6l-3.59-.459a33.747,33.747,0,0,1-5.19,13.411l2.18,2.866a36.76,36.76,0,0,0,3.74-6.305h9.59q-0.12,16.7-.42,19.219a2.449,2.449,0,0,1-2.64,2.407q-0.99,0-4.35-.153l0.88,3.324q3.165,0.19,4.05.191,4.89,0,5.46-4.126,0.57-4.585.57-24.377h-11.8Zm40.53,11.195v4.241h-5.92v-4.241h5.92Zm0,7.6v4.738h-5.92v-4.738h5.92Zm10.24,8.215v-3.477h-6.65v-4.738h5.47v-3.362h-5.47v-4.241h5.47v-3.4h-5.47v-4.394h6.23v-3.477h-5.84q-0.615-2.484-1.99-6.343l-3.48.917q1.11,2.523,2.07,5.426h-5.85a44.045,44.045,0,0,0,1.95-5.5l-3.52-.688a37.147,37.147,0,0,1-6.38,13.258l1.23,3.821c1.01-1.223,1.84-2.305,2.48-3.248v21.167h3.59v-1.719h16.16Zm-10.24-19.218h-5.92v-4.394h5.92v4.394Zm-12.57,1.3q-1.68.84-3.24,1.49V492.45h3.55v-3.515h-3.55v-6.724h-3.63v6.724H1164v3.515h4.59v8.024q-2.685.8-5.31,1.376l0.91,3.668c1.63-.459,3.1-0.917,4.4-1.376v8.138a1.256,1.256,0,0,1-1.49,1.338,20.463,20.463,0,0,1-2.98-.23l0.8,3.515h3.44q3.855,0,3.86-3.706v-10.43l3.24-1.414v-3.706Zm27.17-9.667h8.4v2.445h3.67V487.98h9.25v2.484h3.66V487.98h8.41v-3.324h-8.41v-2.407h-3.66v2.407h-9.25v-2.407h-3.67v2.407h-8.4v3.324Zm0.61,7.986h8.63a35.5,35.5,0,0,1-10.04,9.4l2.29,2.98a49.317,49.317,0,0,0,4.51-3.439v12.647h3.47V501.506a36.252,36.252,0,0,0,4.01-5.54h19.72v-3.324h-18.07c0.35-.866.61-1.529,0.76-1.987l-3.51-.612c-0.39.917-.77,1.784-1.15,2.6h-10.62v3.324Zm21.16,9.895h-10.12V509.3h10.12v3.706a1.027,1.027,0,0,1-1.18,1.146c-1.02,0-2.43-.076-4.24-0.229l1.07,3.515h4.62q3.4,0,3.4-3.4V509.3h7.99v-3.439h-7.99v-0.878q4.2-3.1,5.54-4.165v-2.6h-16.66v3.286h11.47q-2.52,1.529-4.02,2.521v1.834Zm31.18-23.574-0.04,6q-0.45,16.429-15.93,25.828l2.22,3.248q12.03-7.794,15.81-19.715A38.556,38.556,0,0,0,1273,517.285l2.41-3.171a35.01,35.01,0,0,1-16.43-23.268q0.27-4.164.27-8.559h-3.67Z" transform="translate(-1033.38 -450.75)"/>
</svg>
