<svg id="组_48" data-name="组 48" xmlns="http://www.w3.org/2000/svg" width="327.312" height="327.32" viewBox="0 0 327.312 327.32">
  <defs>
    <style>
      .cls-1 {
        fill: #2cd62c;
      }

      .cls-2 {
        fill: #fff;
        fill-rule: evenodd;
      }
    </style>
  </defs>
  <circle id="椭圆_4" data-name="椭圆 4" class="cls-1" cx="163.656" cy="163.66" r="163.656"/>
  <path id="圆角矩形_4_拷贝_2" data-name="圆角矩形 4 拷贝 2" class="cls-2" d="M213.5,2150.33l63.571,63.57a22,22,0,0,1,0,31.11l-0.449.45a22,22,0,0,1-31.112,0l-63.571-63.57a22,22,0,0,1,0-31.11l0.448-.45A22,22,0,0,1,213.5,2150.33Z" transform="translate(-113 -1994.56)"/>
  <path id="圆角矩形_4_拷贝_8" data-name="圆角矩形 4 拷贝 8" class="cls-2" d="M244.418,2214.28L350.07,2108.63a22,22,0,0,1,31.113,0l0.449,0.45a22,22,0,0,1,0,31.11L275.979,2245.84a21.985,21.985,0,0,1-31.113,0l-0.448-.44A22.008,22.008,0,0,1,244.418,2214.28Z" transform="translate(-113 -1994.56)"/>
</svg>
