<?xml version="1.0" encoding="utf-8"?>
<!-- Generator: Adobe Illustrator 22.1.0, SVG Export Plug-In . SVG Version: 6.00 Build 0)  -->
<svg version="1.1" id="图层_1" xmlns="http://www.w3.org/2000/svg" xmlns:xlink="http://www.w3.org/1999/xlink" x="0px" y="0px"
	 viewBox="0 0 248.3 86.1" style="enable-background:new 0 0 248.3 86.1;" xml:space="preserve">
<style type="text/css">
	.st0{fill:none;stroke:#7DC4E8;stroke-width:4.252;stroke-miterlimit:10;}
	.st1{fill:#7DC4E8;}
	.st2{fill:none;stroke:#7DC4E8;stroke-width:3;stroke-miterlimit:10;}
	.st3{fill:none;stroke:#7DC4E8;stroke-width:1.4173;stroke-miterlimit:10;}
	.st4{fill:#71C8E3;stroke:#71BFD8;stroke-miterlimit:10;}
	.st5{fill:#33B3BA;}
	.st6{fill-rule:evenodd;clip-rule:evenodd;fill:none;stroke:#3BCBDA;stroke-width:10;stroke-miterlimit:10;}
	.st7{fill:#9C9C9C;}
	.st8{fill:#585959;}
</style>
<g>
	<g>
		<path class="st7" d="M231.4,85.8H205h-7.3h-55.3h-6.2h-20.5l-8.9-6.8H55l-7.1,6.8H17C10.5,79.3,6.9,75.6,0.4,69.1v-7.4V57V41.8
			v-3.1V16.9C6.8,10.4,10.4,6.8,16.9,0.4h8.9h8.4h65.2l11.2,8.5h58l10.2-8.5h52.5c6.5,6.5,10.1,10.1,16.6,16.6v52.3
			C241.4,75.7,237.8,79.3,231.4,85.8z"/>
	</g>
	<g>
		<path class="st8" d="M231.5,86.1H115.6l-8.9-6.8H55.1L48,86.1H16.9L0,69.3V16.8L16.8,0h82.8l11.2,8.5h57.8L178.8,0h52.7l16.8,16.8
			v52.6L231.5,86.1z M115.8,85.4h115.4l16.4-16.4v-52L231.2,0.7H179l-10.2,8.5h-58.3L99.3,0.7H17.1L0.7,17.1V69l16.4,16.4h30.6
			l7.1-6.8H107L115.8,85.4z"/>
	</g>
</g>
<g>
	<g>
		<polygon class="st7" points="118.1,78.7 109.2,71.9 52.1,71.9 45,78.7 19.9,78.7 7.5,66.2 7.5,19.9 19.9,7.5 97,7.5 108.2,16 
			171.2,16 181.5,7.5 228.4,7.5 240.8,19.9 240.8,66.3 228.4,78.7 		"/>
	</g>
	<g>
		<path class="st8" d="M228.6,79H118l-8.9-6.8H52.3L45.2,79H19.8L7.1,66.3V19.7L19.7,7.1h77.4l11.2,8.5h62.8l10.2-8.5h47.2
			l12.6,12.6v46.7L228.6,79z M118.2,78.3h110l12.2-12.2V20L228.3,7.8h-46.7l-10.2,8.5h-63.3L96.9,7.8H20L7.8,20v46l12.3,12.3h24.8
			l7.1-6.8h57.4L118.2,78.3z"/>
	</g>
</g>
<g>
	<polygon class="st8" points="166.7,6.8 162,6.8 169.4,0.4 174.1,0.4 	"/>
</g>
<g>
	<polygon class="st8" points="159,6.8 154.3,6.8 161.8,0.4 166.5,0.4 	"/>
</g>
<g>
	<polygon class="st8" points="151.4,6.8 146.7,6.8 154.2,0.4 158.9,0.4 	"/>
</g>
<g>
	<polygon class="st8" points="143.8,6.8 112.4,6.8 104.2,0.4 151.3,0.4 	"/>
</g>
<g>
	<polygon class="st8" points="10.3,21.2 10.3,38.1 7.4,43.2 7.4,19.8 	"/>
</g>
<g>
	<polygon class="st8" points="203.5,10.5 186.6,10.5 181.5,7.6 206.3,7.6 	"/>
</g>
<g>
	<polygon class="st8" points="211.1,75.7 146.9,75.7 142.2,78.5 213.2,78.5 	"/>
</g>
<g>
	<polygon class="st8" points="58.4,80.9 62.4,80.9 56.1,86.4 52.1,86.4 	"/>
</g>
<g>
	<polygon class="st8" points="64.8,80.9 68.8,80.9 62.5,86.4 58.5,86.4 	"/>
</g>
<g>
	<polygon class="st8" points="71.3,80.9 75.3,80.9 69,86.4 65,86.4 	"/>
</g>
<g>
	<polygon class="st8" points="77.8,80.9 104.3,80.9 111.2,86.4 71.4,86.4 	"/>
</g>
</svg>
