<svg id="组_43" data-name="组 43" xmlns="http://www.w3.org/2000/svg" width="56" height="56" viewBox="0 0 56 56">
  <defs>
    <style>
      .cls-1 {
        fill: #3f9ded;
      }

      .cls-2 {
        fill: #fff;
        fill-rule: evenodd;
      }
    </style>
  </defs>
  <circle id="椭圆_3" data-name="椭圆 3" class="cls-1" cx="28" cy="28" r="28"/>
  <path id="形状_1" data-name="形状 1" class="cls-2" d="M239.925,1666.3c-0.292-.03-0.579-0.05-0.863-0.09a6.5,6.5,0,0,1-5.048-4.2c-0.074-.2-0.074-0.2.137-0.17a6.394,6.394,0,0,0,1.853.03,7.3,7.3,0,0,0,.836-0.17c-0.268-.08-0.5-0.13-0.735-0.21a6.314,6.314,0,0,1-2.341-1.38,6.426,6.426,0,0,1-1.653-2.42,6.644,6.644,0,0,1-.432-2.29c0-.11.04-0.09,0.11-0.05a6.9,6.9,0,0,0,1.6.59,6.518,6.518,0,0,0,1.192.15c-0.212-.17-0.417-0.31-0.6-0.48a6.463,6.463,0,0,1-1.522-7.84c0.15-.29.153-0.29,0.368-0.04a17.114,17.114,0,0,0,2.192,2.19,18.128,18.128,0,0,0,8.249,3.97,17.712,17.712,0,0,0,2.513.32,0.5,0.5,0,0,0,.123,0c-0.033-.21-0.069-0.42-0.1-0.63a6.416,6.416,0,0,1-.021-1.46,6.252,6.252,0,0,1,.783-2.51,6.47,6.47,0,0,1,6.293-3.28,6.436,6.436,0,0,1,3.15,1.21,6.065,6.065,0,0,1,.824.72,0.2,0.2,0,0,0,.2.06,12.851,12.851,0,0,0,3.874-1.49,1.028,1.028,0,0,1,.1-0.04,6.611,6.611,0,0,1-2.756,3.52,12.634,12.634,0,0,0,3.572-.94,3.625,3.625,0,0,1-.389.58,12.886,12.886,0,0,1-2.662,2.63,0.239,0.239,0,0,0-.11.23,16.684,16.684,0,0,1-.1,2.72,18.84,18.84,0,0,1-.6,2.98,19.476,19.476,0,0,1-1.866,4.39,18.136,18.136,0,0,1-2.014,2.82,17.741,17.741,0,0,1-2.383,2.3,17.281,17.281,0,0,1-3.872,2.34,18.481,18.481,0,0,1-3.784,1.16,19.873,19.873,0,0,1-5.165.28,18.166,18.166,0,0,1-7.563-2.31,7.148,7.148,0,0,1-.812-0.5,13.518,13.518,0,0,0,4.985-.42A12.542,12.542,0,0,0,239.925,1666.3Z" transform="translate(-218 -1630)"/>
</svg>
