<svg id="组_46" data-name="组 46" xmlns="http://www.w3.org/2000/svg" xmlns:xlink="http://www.w3.org/1999/xlink" width="313.44" height="192.03" viewBox="0 0 313.44 192.03">
  <defs>
    <style>
      .cls-1 {
        fill: #fff;
        opacity: 0.5;
      }

      .cls-1, .cls-2 {
        fill-rule: evenodd;
      }

      .cls-2 {
        stroke-width: 1px;
        fill: url(#linear-gradient);
        stroke: url(#linear-gradient);
      }
    </style>
    <linearGradient id="linear-gradient" x1="1463" y1="1222.985" x2="1776.44" y2="1222.985" gradientUnits="userSpaceOnUse">
      <stop offset="0" stop-color="#53cbed"/>
      <stop offset="1" stop-color="#c14fc4"/>
    </linearGradient>
  </defs>
  <path id="形状_567" data-name="形状 567" class="cls-1" d="M1623.12,1130.49h-52.33l-41.17,25.04-64.11.01v159.95h308.16V1222.5l-0.03-91.35-150.52-.66" transform="translate(-1463 -1126.97)"/>
  <path id="形状_566" data-name="形状 566" class="cls-2" d="M1776.43,1319H1463l0.01-2.61c0-1.53.39-152.64,0.39-159.69v-2.61H1528l42.87-27.11,205.53,0.55Zm-308.19-5.21H1771.2v-90.31l-0.03-90.75-198.79-.53-42.87,27.11h-60.88C1468.59,1179.05,1468.29,1294.82,1468.24,1313.79Zm19.56-92.27h21.49v-13.29h-8.98v-6.49q3.93,4.725,12.63,7.71l1.56-3.27a30.669,30.669,0,0,1-11.02-4.68h9.49v-3.34h-12.66v-2.8h-3.54v2.8h-12.65v3.34h9.55q-3.855,2.775-11.3,4.75l1.99,3.2q8.31-3.1,12.41-7.71v6.49h-8.97v13.29h0Zm3.54-3.23v-1.84h14.4v1.84h-14.4Zm0-6.86h14.4v1.97h-14.4v-1.97Zm-7.92,15.19h30.14v-3.29h-30.14v3.29Zm36.47-22.14h9.21l-1.05,1.49h-10.04v3.19h7.44a50.447,50.447,0,0,1-8.34,6.95l1.94,3.12c1.77-1.24,3.37-2.47,4.8-3.67v12.03h3.44v-1.28h14.78v1.28h3.44v-16.97h-16.75l1.18-1.46h18.81v-3.19h-16.66l0.84-1.49h13.8v-3.05h-12.38l0.63-1.7a92.623,92.623,0,0,0,11.6-1.57l-1.66-2.84a135.862,135.862,0,0,1-24.82,1.95l0.97,2.95c3.15,0,6.62-.09,10.39-0.25l-0.66,1.46h-10.91v3.05Zm22.18,13.22v1.42h-14.78v-1.42h14.78Zm-14.78-2.71v-1.45h14.78v1.45h-14.78Zm14.78,6.84v1.57h-14.78v-1.57h14.78Zm24.13-17.97h-8.76v-3.06a29.651,29.651,0,0,0,9.07-2.64l-2.43-2.77q-3.27,1.935-9.87,2.77v14.79a28.271,28.271,0,0,1-2.55,11.9l2.55,2.64a31.651,31.651,0,0,0,3.02-10.86h8.97v-12.77h0Zm-3.31,3.54v5.94h-5.45v-5.94h5.45Zm13.97,1.84v18.29h3.59v-18.29h3.58v-3.51h-12.37l-0.04-5.1a40.376,40.376,0,0,0,11.3-2.11l-1.84-3.16a39.74,39.74,0,0,1-12.73,2.28v16.21q-0.105,7.71-2.33,12.14l3.31,1.64q2.22-4.575,2.33-13.78v-4.61h5.2Zm33.94-.7v2.78h-12.66v-2.78h12.66Zm0,8.61h-12.66v-2.71h12.66v2.71Zm0,5.94a1.064,1.064,0,0,1-.96,1.16,1.464,1.464,0,0,1-.29-0.02c-0.97,0-2.17-.06-3.62-0.17l0.87,3.26h3.9q3.495-.1,3.5-3.09v-18.81h-15.7c0.53-.91,1.1-1.92,1.7-3.05h18.11v-3.51h-16.58c0.3-.83.66-1.91,1.08-3.23l-3.73-.45a34.543,34.543,0,0,1-1.36,3.68h-10.11v3.51h8.38a36.858,36.858,0,0,1-9.32,10.58l2.36,3.09a47.71,47.71,0,0,0,5.7-5.49v16.94h3.41v-7.22h12.66v2.82h0Zm31.74-15.28a13.2,13.2,0,0,1-1.53,3.05l2.33,0.84a16.675,16.675,0,0,0,1.64-3.27Zm-12.52.7a19.028,19.028,0,0,1,1.68,3.19l2.36-.63a22.367,22.367,0,0,0-1.63-3.29Zm-5.07,6h25.17v-9.16l1.7,0.8,1.95-3.02a86.018,86.018,0,0,1-15.15-7.71h-2.17a85.673,85.673,0,0,1-15.15,7.71l1.95,3.05,1.7-.8v9.13h0Zm0.8-9.51c1.53-.72,3.11-1.5,4.76-2.35v1.13h14.02v-1.21q2.28,1.185,4.86,2.43h-23.64Zm13.42,6.88v-4.18h7.65v4.18h-7.65Zm-10.91,0v-4.18h7.64v4.18h-7.64Zm-1.95,3.84v11.91h3.44v-1.08h15.61v1.04h3.44v-11.87h-22.49Zm3.44,6.5h15.61v1.52h-15.61v-1.52Zm0-3.83h15.61v1.4h-15.61v-1.4Zm3.44-17.24c1.95-1.13,3.4-2.03,4.34-2.67,1.44,0.94,2.91,1.84,4.38,2.67h-8.72Zm28.16,2.71h21.94v-7.61h-21.94v7.61Zm3.44-2.71v-2.02h15.06v2.02h-15.06Zm-5.11,20.37h6.4a52.845,52.845,0,0,1-9.01,3.54l2.13,2.74a46.386,46.386,0,0,0,10.84-4.89l-1.6-1.39h7.51l-1.42,1.36a55.734,55.734,0,0,1,10.22,4.96l2.53-2.53a74.8,74.8,0,0,0-8.48-3.79h6.22v-16.23h-25.34v16.23h0Zm3.45-3.19v-1.64h18.45v1.64h-18.45Zm0-5.87h18.45v1.53h-18.45v-1.53Zm0-4.27h18.45v1.57h-18.45v-1.57Zm35.87,2.78c0.69,1.21,1.38,2.49,2.05,3.86l1.99-2.92a62.134,62.134,0,0,0-4.04-4.97v-1.65h2.92v-3.45H1699v-6.42h-3.54v6.42h-3.8v3.45h3.62a31.355,31.355,0,0,1-4.55,10.33l1.53,3.71a43.9,43.9,0,0,0,3.2-7.18v15.27H1699v-16.45Zm4.18-2.36h8.58v-6.53h-8.58v6.53Zm2.64-2.36v-1.77h3.29v1.77h-3.29Zm7.36,2.33h8.76v-6.5h-8.76v6.5Zm2.65-2.37v-1.73h3.48v1.73h-3.48Zm-11.89,21.11h3.12v-0.84h15.96v-2.92h-7.09v-1.65h5.56v-2.58h-5.56v-1.55h5.36v-2.61h-5.36v-1.59h6.4v-2.85h-6.71c-0.21-.58-0.45-1.19-0.73-1.84l-3.55.52a9.607,9.607,0,0,1,.76,1.32h-3.71l0.24-.6a5.42,5.42,0,0,0,.21-0.58l-3.3-.59a20.354,20.354,0,0,1-5.01,7.81l1.01,3.26q1.245-1.14,2.4-2.4v9.69h0Zm3.12-5.41h5.67v1.66h-5.67v-1.66Zm0-2.58v-1.55h5.67v1.55h-5.67Zm0-4.16v-1.59h5.67v1.59h-5.67Zm-4.9-15.2h4.53v1.49h3.12v-1.49h5.01v1.49h3.1v-1.49h4.79v-2.91h-4.79v-1.7h-3.1v1.7h-5.01v-1.7h-3.12v1.7h-4.53v2.91Zm24.72,27.59h3.55V1199.9h4.34a84.523,84.523,0,0,1-3.61,9.26q3.51,4.35,3.51,7.81a1.337,1.337,0,0,1-.42,1.15,3.519,3.519,0,0,1-1.66.38,10.674,10.674,0,0,1-1.95-.21l1.19,3.68c2.57-.04,4.39-0.52,5.45-1.42a4.952,4.952,0,0,0,1.04-3.58c-0.18-2.35-1.34-5.15-3.47-8.36q1.9-4.59,3.57-9.27v-2.84h-11.54v31.06h0Zm24.9-21.51v2.87h-8.8v-2.87h8.8Zm-8.8-3.27v-2.92h8.8v2.92h-8.8Zm2.96,9.44a22.171,22.171,0,0,0,10.19,15.1l2.01-3.19a19.282,19.282,0,0,1-5.56-4.73,17.889,17.889,0,0,0,4.76-3.95l-2.29-2.32a17.36,17.36,0,0,1-4.17,3.71,17.294,17.294,0,0,1-1.68-4.62h6.12v-15.76H1739.4v26.38a1.057,1.057,0,0,1-.87,1.01l0.87,3.19a68.79,68.79,0,0,0,9.7-3.09l-0.87-3.37a36.376,36.376,0,0,1-5.25,2.05v-10.41h2.96Zm-212.23,47.54c-1.67.42-3.34,0.76-5.01,1.04l0.9,3.68a99.622,99.622,0,0,0,12.77-3.92v-3.65c-1.49.59-3.15,1.19-5.01,1.81v-15.13h4.62v-3.54h-12.9v3.54h4.63v16.17Zm13.94-16.48h-4.8v3.51h4.8v0.73q-0.105,13.305-7.37,19.35l2.99,2.61q7.86-6.975,8.06-21.96v-0.73h5.11q-0.105,14.49-.37,16.62c-0.29,1.41-1.37,2.12-3.28,2.12-0.85,0-2.06-.07-3.61-0.18l0.86,3.4c1.79,0.11,2.91.18,3.38,0.18,3.59,0,5.6-1.26,6.05-3.76q0.525-4.155.52-21.89h-8.66v-6.15h-3.68v6.15h0Zm28.23,14.3v2.25h-6.82v-2.25h6.82Zm-6.82-2.99v-2.39h6.82v2.39h-6.82Zm6.82,8.23v1.59a1.137,1.137,0,0,1-.88,1.36,1.526,1.526,0,0,1-.3.03l-2.4-.17,0.86,3.36h2.68q3.555,0,3.55-3.82v-16.1h-13.84v20.17h3.51v-6.42h6.82Zm15.26-10.28a4.415,4.415,0,0,0,2.88-.79q0.945-.9,1.36-5.24l-3.36-1.11a8.941,8.941,0,0,1-.5,3.36,1.19,1.19,0,0,1-1.07.52h-3.97c-0.81,0-1.22-.57-1.22-1.73v-3.13q5.43-.825,9.74-1.76l-1.19-3.2c-2.1.56-4.95,1.12-8.55,1.71v-3.97h-3.58v11.11c0,2.83,1.27,4.24,3.79,4.23h5.67Zm-5.88,8.05a59.628,59.628,0,0,0,9.74-1.7l-1.19-3.22a45.989,45.989,0,0,1-8.55,1.66v-3.64h-3.58v11.63c0,2.22,1.26,3.33,3.76,3.32h5.7a4.333,4.333,0,0,0,2.85-.79c0.63-.56,1.08-2.3,1.36-5.24l-3.3-1.08a8.043,8.043,0,0,1-.53,3.4,1.139,1.139,0,0,1-1.07.52h-4c-0.79,0-1.19-.3-1.19-0.89v-3.97h0Zm-11.12-19.36c1.02,1.53,1.63,2.44,1.8,2.74-3.05.33-5.48,0.54-7.29,0.66a24.387,24.387,0,0,0,4.72-6.59l-3.47-1.04a31.819,31.819,0,0,1-4.66,6.9,4.683,4.683,0,0,1-1.63.91l0.97,3.01a126.591,126.591,0,0,0,12.9-1.28l1.11,2.16,2.99-2.12a68.6,68.6,0,0,0-4.66-7.12Zm32.61,3.16q-0.15,15.3-8.45,22.28l2.82,2.46q6.57-5.685,8.51-16.1a29,29,0,0,0,6.02,8.29,39.846,39.846,0,0,1-10.04,4.76l2.11,3.37a36.123,36.123,0,0,0,10.96-5.52,45.564,45.564,0,0,0,8.97,5.31l2.43-3.23a46.742,46.742,0,0,1-8.56-4.61,23.519,23.519,0,0,0,6.16-11.63v-2.12h-6.88c0.71-2.31,1.35-4.67,1.9-7.08v-2.35h-21.55v3.53h5.6v2.64h0Zm11.75,14.68a24.791,24.791,0,0,1-8.13-12.67c0.04-.87.07-1.55,0.07-2.01v-2.64h8.27a75.082,75.082,0,0,1-2.44,9.2h7.55a18.974,18.974,0,0,1-5.32,8.12h0Zm15.61-19.36a33.922,33.922,0,0,1,5.74,5.62l2.61-2.57a45.494,45.494,0,0,0-5.85-5.42Zm30.25,28.9,0.87-3.57c-0.93.07-2.29,0.13-4.07,0.21l-5.29.03c-1.99,0-4.3-.02-6.95-0.07a11.468,11.468,0,0,1-4.52-.86,9.123,9.123,0,0,1-2.36-2.06l-0.35-.34v-13.22h-7.96v3.32h4.59v9.51c-1.34.74-2.9,2.52-4.66,5.31l2.68,2.47c1.71-3.1,2.91-4.65,3.58-4.65a1.791,1.791,0,0,1,1.28.87,7.726,7.726,0,0,0,3.59,2.4,24.676,24.676,0,0,0,5.49.58q4.365,0.075,6.11.07h7.97Zm-19.99-23.07h3.68v2.35a25.835,25.835,0,0,1-.21,3.51h-4.69v3.4h4a10.738,10.738,0,0,1-3.86,5.87l2.19,2.88q3.8-2.85,5.25-8.75h5.21v9.24h3.55v-9.24h5.11v-3.4h-5.11v-5.86h4v-3.37h-4v-5.1h-3.55v5.1h-4.38V1237h-3.51v5.17h-3.68v3.37h0Zm11.57,0v5.86h-4.62a43.248,43.248,0,0,0,.24-4.34v-1.52h4.38Zm19.47,13.64h2.4a23.684,23.684,0,0,0,5.11,4.68,47.628,47.628,0,0,1-10.01,2.35l1.56,3.24a47.982,47.982,0,0,0,12.07-3.55,42.4,42.4,0,0,0,11.81,3.55l1.57-3.19a47.114,47.114,0,0,1-9.87-2.27,25.613,25.613,0,0,0,6.09-5.23v-2.67h-20.73v3.09h0Zm15.78,0a31.584,31.584,0,0,1-4.89,3.19,20.469,20.469,0,0,1-4.53-3.19h9.42Zm-12.13-10.14v5.34h14.78v-5.34h5.14v-3.34h-5.14v-2.18h-3.52v2.18h-7.71v-2.14h-3.55v2.14h-4.93v-2.91h24.85v-3.4h-11.6c-0.27-.74-0.62-1.6-1.08-2.6l-3.86.62a19.5,19.5,0,0,1,1.14,1.98h-13.07v11.28q-0.09,10.17-2.84,15.96l2.74,2.46q3.51-6.9,3.72-18.42v-1.63h4.93Zm11.26,0v2.36h-7.71v-2.36h7.71Zm-129.15-98.59h168.34a10.835,10.835,0,0,0,0,4.17,36.053,36.053,0,0,0,2.1,6.24l-188.22.01Zm13.59-9.39h156.85l-2.1,5.21-163.11-.08Zm170.45,16.49a6.931,6.931,0,0,1-.14-13.86h0.15a6.931,6.931,0,0,1,.15,13.86c-0.06,0-.11.57-0.16,0.57m0.01-16.22h-0.19a8.716,8.716,0,0,0,.18,17.43,1.34,1.34,0,0,0,.2-0.01,8.658,8.658,0,0,0,4.86-1.6,1.448,1.448,0,0,1,.39-1.2l0.63-.65a1.452,1.452,0,0,1,1.04-.44,0.97,0.97,0,0,1,.17.01,8.722,8.722,0,0,0-7.28-13.54m11.98,22.13h0a0.2,0.2,0,0,1-.16-0.07l-5.52-6.31a0.213,0.213,0,0,1,.01-0.28l0.64-.67a0.227,0.227,0,0,1,.16-0.06,0.166,0.166,0,0,1,.12.05l6.65,5.12a0.209,0.209,0,0,1,.08.16,0.184,0.184,0,0,1-.05.16l-1.77,1.84a0.227,0.227,0,0,1-.16.06m-4.7-8.59a8.637,8.637,0,0,1-2.23,2.28,1.411,1.411,0,0,0,.34.73l5.51,6.3a1.468,1.468,0,0,0,1.05.49h0.03a1.452,1.452,0,0,0,1.04-.44l1.76-1.83h0a1.431,1.431,0,0,0-.15-2.11l-6.65-5.13a1.4,1.4,0,0,0-.7-0.29m-0.17-.01a1.452,1.452,0,0,0-1.04.44l-0.63.65a1.448,1.448,0,0,0-.39,1.2,8.637,8.637,0,0,0,2.23-2.28,1.028,1.028,0,0,0-.17-0.01" transform="translate(-1463 -1126.97)"/>
</svg>
