<?xml version="1.0" encoding="utf-8"?>
<!-- Generator: Adobe Illustrator 22.1.0, SVG Export Plug-In . SVG Version: 6.00 Build 0)  -->
<svg version="1.1" id="图层_1" xmlns="http://www.w3.org/2000/svg" xmlns:xlink="http://www.w3.org/1999/xlink" x="0px" y="0px"
	 viewBox="0 0 273.9 274" style="enable-background:new 0 0 273.9 274;" xml:space="preserve">
<style type="text/css">
	.st0{fill:#2795CF;}
	.st1{fill:#FEFEFE;}
	.st2{fill:#CBDFEC;}
	.st3{fill:#A9C6DE;}
</style>
<g>
	<g>
		<path class="st0" d="M0,136.7C0.1,61.1,61.4-0.1,137.1,0c75.6,0.1,137,61.8,136.8,137.6c-0.2,75.2-61.7,136.5-137,136.4
			C60.8,273.9-0.1,212.9,0,136.7z"/>
		<path class="st1" d="M210.4,84.6c0.8-0.3,2-0.4,2-0.4s-1.1,2.5-1.3,3c-5.2,12.8-10.4,25.5-15.7,38.2
			c-11.6,27.7-23.4,55.4-34.9,83.3c-1.8,4.3-2.7,3.8-5.2,0.7c-8.5-10.4-17.3-20.6-25.9-30.9c-3.4-2.8-6.5-5.9-9-9.6
			c-0.9-2.1,0.4-3.4,1.8-4.7c14.5-13.3,29.1-26.3,43.7-39.5c11.4-10.3,22.7-20.5,34-30.9C203.2,90.6,207,87.8,210.4,84.6z"/>
		<path class="st1" d="M99.4,151.4c-15.1-7.9-30.3-15.9-46.6-24.5c9.4-2.6,17.5-4.9,25.7-7.1C120.2,108.6,162,97.3,203.9,86
			c1.1-0.3,5.4-1.2,6.5-1.4c2.2,1.7-3.1,3.2-4,3.8c-3.8,2.7-7.7,5.3-11.6,7.7c-29.8,17.8-59.4,35.8-89.2,53.7
			C103.8,150.9,102,153.1,99.4,151.4z"/>
		<path class="st2" d="M99.4,151.4l112.4-66.6c0,0-70.2,62.9-84.5,76.2c-1.8,1.7-6.7,6.2-6.7,6.2s0.6,0.5,0.8,1.2
			c-5.4,10.3-9.3,21.3-14.5,31.7c-1.4,2.8-2.6,5.8-4.5,8.3c-0.5,0.5-1.2,2.3-1.8,0.5c-0.6-1.6-0.2-3.6-0.2-5.4
			C100,186.1,99.4,151.4,99.4,151.4z"/>
		<polygon class="st3" points="102.3,208.4 120.5,167.3 129.4,178.4 		"/>
	</g>
</g>
</svg>
