<svg id="组_44" data-name="组 44" xmlns="http://www.w3.org/2000/svg" xmlns:xlink="http://www.w3.org/1999/xlink" width="260.35" height="62.719" viewBox="0 0 260.35 62.719">
  <defs>
    <style>
      .cls-1 {
        fill: #fff;
        stroke-width: 4.645px;
        stroke: url(#linear-gradient);
      }

      .cls-1, .cls-2 {
        fill-rule: evenodd;
      }

      .cls-2 {
        fill: url(#linear-gradient-2);
      }
    </style>
    <linearGradient id="linear-gradient" x1="1520.84" y1="891.188" x2="1776.56" y2="891.188" gradientUnits="userSpaceOnUse">
      <stop offset="0" stop-color="#53cbed"/>
      <stop offset="1" stop-color="#c14fc4"/>
    </linearGradient>
    <linearGradient id="linear-gradient-2" x1="1581.34" y1="891" x2="1722.28" y2="891" xlink:href="#linear-gradient"/>
  </defs>
  <path id="矩形_29" data-name="矩形 29" class="cls-1" d="M1520.85,862.142h255.72V920.21H1520.85V862.142h0Z" transform="translate(-1518.53 -859.812)"/>
  <path id="积分兑换GO" class="cls-2" d="M1582.67,883.416c1.29-.154,2.3-0.292,3.02-0.413v2.814h-3.51v2.606h3.35a18.633,18.633,0,0,1-4.18,6.813l1.14,2.839a27.849,27.849,0,0,0,3.2-5.781v10.53h2.53V891.881q0.93,1.5,2.01,3.51l1.52-2.3a44.653,44.653,0,0,0-3.53-3.69v-0.981h2.81v-2.606h-2.81v-3.3c0.75-.172,1.69-0.421,2.81-0.748l-0.95-2.529a32.352,32.352,0,0,1-7.95,1.625Zm9.47,9.7h11.95v-12.8h-11.95v12.8Zm2.68-2.529v-7.716h6.61v7.716h-6.61Zm-0.44,3.613a27.891,27.891,0,0,1-4.05,7.226l2.33,1.652a32.256,32.256,0,0,0,4.07-7.742Zm4.99,1.239a63.256,63.256,0,0,1,4.07,7.536l2.3-1.6a60.306,60.306,0,0,0-4.23-7.3Zm15.84-15.924a27.137,27.137,0,0,1-3.3,4.9,17.035,17.035,0,0,1-4.54,3.742l1.47,2.4a33.523,33.523,0,0,0,5.08-4.439,29.621,29.621,0,0,0,3.56-5.239Zm0.57,12.053a14.224,14.224,0,0,1-2.2,5.264,15.407,15.407,0,0,1-5.03,3.975l1.68,2.168a17.109,17.109,0,0,0,5.75-4.93,20.531,20.531,0,0,0,2.48-6.477h6.14q-0.225,5.445-.87,7.071a2.769,2.769,0,0,1-2.82,1.6q-1.26,0-4.2-.1l0.69,2.581h4.83a4.107,4.107,0,0,0,3.12-1.291,8.758,8.758,0,0,0,1.42-4.31,71.345,71.345,0,0,0,.54-8.1h-16.18v2.555h4.65Zm5.55-11.1a20.607,20.607,0,0,0,8.02,9.936l1.83-2.116a16.951,16.951,0,0,1-7.56-9.11Zm15.71,13.188h4.08q-0.69,4.93-7.41,6.994l1.53,2.478q7.74-2.943,8.41-9.472h3.12v5.7c0,2.15.89,3.226,2.66,3.226h4.59a2.562,2.562,0,0,0,1.89-.646c0.44-.447.75-1.849,0.9-4.206l-2.55-.826a9.753,9.753,0,0,1-.24,2.684,0.526,0.526,0,0,1-.49.439h-3.27c-0.54,0-.8-0.4-0.8-1.213v-5.162h3.79v-9.239h-3.87a28.74,28.74,0,0,0,2.68-4.594l-2.71-.955a38.883,38.883,0,0,1-2.89,5.549h-4.75l1.71-.852a46.33,46.33,0,0,0-2.76-4.594l-2.38,1.162a27.69,27.69,0,0,1,2.58,4.284h-3.82v9.239Zm2.61-2.5v-4.207h10.99v4.207h-10.99Zm37.65-5.239a30.963,30.963,0,0,0,1.83-3.252v-1.91h-5.11c0.16-.327.37-0.834,0.65-1.522l-2.61-.336a12.117,12.117,0,0,1-5,5.781v-1.187h-2.35v-4.413h-2.69v4.413h-2.78V886.1h2.78v5.29a27.888,27.888,0,0,1-3.3.955l0.7,2.736c0.94-.327,1.81-0.646,2.6-0.955v5.161a0.8,0.8,0,0,1-.85.955,12.322,12.322,0,0,1-1.88-.155l0.59,2.555h2.22a2.328,2.328,0,0,0,2.61-2.658v-6.994c0.63-.292,1.44-0.7,2.42-1.213v-2.735c-0.7.395-1.51,0.817-2.42,1.264V886.1h2.35v-1.317l1.39,1.832v6.3h-1.57v2.477h5.44c-1.14,2.168-3.25,3.975-6.35,5.42l1.76,2.271q5.37-2.918,7.15-6.942a17,17,0,0,0,6.96,6.942l1.22-2.555a13.3,13.3,0,0,1-6.04-5.136h5.86v-2.477h-1.37V885.92h-4.21Zm-6.48,2.348h2.82a30.143,30.143,0,0,1-.47,4.646h-2.35v-4.646Zm4.93,4.646a35.57,35.57,0,0,0,.39-4.646h2.99v4.646h-3.38Zm-5.93-6.994a17.767,17.767,0,0,0,2.84-2.891h3.69c-0.67,1.187-1.27,2.151-1.78,2.891h-4.75Zm23.79-4.465a8.018,8.018,0,0,0-6.5,2.839,10.089,10.089,0,0,0-2.27,6.813,9.753,9.753,0,0,0,2.27,6.71,8.619,8.619,0,0,0,6.84,2.787,15.116,15.116,0,0,0,4.46-.619,10.439,10.439,0,0,0,3.36-1.755v-7.794h-7.9v2.581h4.88v3.794a8.108,8.108,0,0,1-1.99.851,9.6,9.6,0,0,1-2.48.31,6.165,6.165,0,0,1-4.95-1.858,9.2,9.2,0,0,1,.18-10.246,5.1,5.1,0,0,1,4.1-1.755,5.821,5.821,0,0,1,3.38.878,4.259,4.259,0,0,1,1.65,2.658h3.05a6.968,6.968,0,0,0-2.48-4.62,8.965,8.965,0,0,0-5.6-1.574h0Zm19.69,0a8.319,8.319,0,0,0-6.66,2.761,11.32,11.32,0,0,0,0,13.653,9.509,9.509,0,0,0,13.32.026,11.278,11.278,0,0,0,0-13.7,8.451,8.451,0,0,0-6.66-2.736h0Zm0,2.658a5.393,5.393,0,0,1,4.41,1.833,7.872,7.872,0,0,1,1.53,5.11,7.66,7.66,0,0,1-1.53,5.058,5.446,5.446,0,0,1-4.41,1.832,5.378,5.378,0,0,1-4.44-1.91,9.112,9.112,0,0,1,0-9.987,5.452,5.452,0,0,1,4.44-1.936h0Z" transform="translate(-1518.53 -859.812)"/>
</svg>
