<svg id="科技-线框" xmlns="http://www.w3.org/2000/svg" viewBox="0 0 1795.13 749.05"><defs><style>.cls-1{fill:#fff;}.cls-2{fill:#11b946;}</style></defs><title>绿色框</title><polygon class="cls-1" points="1785.31 18.57 1795.13 374.53 1793.69 606.21 1650.84 749.05 9.82 739.23 0 141.35 142.47 12.77 1785.31 10.46 1785.31 18.57"/><path class="cls-2" d="M1795.13,386.83V0L140.42,3h-2L0,141.35v607.7H1650.84l142.85-142.84,1.44-1.44V386.83Zm-148.36,352.4H362.49c-9.08-7.93-36.5-31.84-37.37-31.84H98.28L49.67,658.78V450.11L9.82,410.26V145.42L142.47,12.77l1294.67-2.31c11.14,9.72,33.14,28.83,33.92,28.83h226.85l48.61,48.61V296.58l38.79,38.79V600.7Z"/></svg>