<?xml version="1.0" encoding="utf-8"?>
<!-- Generator: Adobe Illustrator 22.1.0, SVG Export Plug-In . SVG Version: 6.00 Build 0)  -->
<svg version="1.1" id="图层_1" xmlns="http://www.w3.org/2000/svg" xmlns:xlink="http://www.w3.org/1999/xlink" x="0px" y="0px"
	 viewBox="0 0 399.2 439.4" style="enable-background:new 0 0 399.2 439.4;" xml:space="preserve">
<style type="text/css">
	.st0{fill:#5A73F1;}
	.st1{fill:#FCE1CA;}
	.st2{fill:#FEFEFE;}
	.st3{fill:#51D6B5;}
	.st4{fill:#FBC7A0;}
	.st5{fill:#F9C93C;}
	.st6{fill:#FBFDFE;}
	.st7{fill:#4DC3FD;}
	.st8{fill:#F99E1B;}
	.st9{fill:#FBE1CA;}
	.st10{fill:#27B482;}
	.st11{fill:#F7C83E;}
	.st12{fill:#FDFDFE;}
</style>
<g>
	<g>
		<path class="st0" d="M291.1,22.2c3.8,8.4,4.4,17.3,4.2,26.3c-0.2,10.3,0.3,20.7-0.2,31c-0.3,5.4,1.7,6.5,6.5,6.2
			c5.3-0.3,10.7-0.3,15.9,0.3c20.5,2.4,30.7,21.1,22.1,39.9c-0.2,0.4-0.3,0.9-0.5,1.4c-7.2,10.6-17.5,14.4-29.9,13
			c-4.8-0.5-5.6,1.6-5.4,5.7c0.1,3,1.3,3.7,3.9,3.6c4.5-0.2,9,0,13.4,1.2c10.7,2.8,17.3,11.1,18.5,23.4c2.3,25.7-10,45.4-33,51.1
			c-1.7,0.4-2.6,1.2-2.7,3c-1.1,15.8-5.7,30.6-13,44.6c-2.9,9.8-10.4,16.5-17.1,23.6c-2.7,2.9-3.2,5-1.1,8.1
			c1.5,2.3,3.4,4.6,3.3,7.7c0.3,2.6,2,4.6,3.3,6.5c3.2,4.7,3.5,9.2,0.1,13.8c-0.5,0.6-0.6,1.5-1.1,2.8c9.2-0.1,18,0.1,26.6,1.9
			c32,6.6,58.3,35.2,62.1,67.7c0.5,4.1,1.1,8.3,0.8,12.4c-0.3,3.6,0.7,5.1,4.6,4.9c5.6-0.3,11.3-0.2,17-0.1c6.4,0.1,10.4,3.7,10.3,9
			c-0.2,5-4.2,8.2-10.5,8.2c-93.8,0-187.5,0-281.3,0c-33.6,0-67.3,0-100.9,0c-5.7-2.5-7.9-6-6.8-10.6c1-4.4,4.4-6.6,10.3-6.6
			c5.5,0,11-0.2,16.5,0.1c3.9,0.2,5.1-0.9,5-4.9c-0.5-18.4,4.8-35.2,16-49.8c14.4-18.7,33.2-29.8,57.1-31.5
			c2.1-0.3,13.8,0.1,15.2-1.3c1.8-1.7-1.7-4.1-2.2-6.5c-0.6-3.1-0.2-5.9,1.4-8.6c3.2-5.4,6.1-11.1,9.6-16.4c1.8-2.8,1.4-4.4-1-6.6
			c-16.1-15-26.3-33.3-30.4-54.9c-0.9-4.9-0.1-10.6-2.3-14.6c-2.2-4-8.6-3.2-12.8-5.6c-14.3-8.3-21.7-20.6-22.4-37.1
			c-0.2-4.2-0.4-8.4,0.1-12.5c1.4-12,10.6-20.7,22.9-21.8c2.5-0.2,5-0.5,7.5-0.5c4.8-0.1,6.8-3.3,5.1-7.7c-0.8-2-2.4-1.4-3.8-1.5
			c-5-0.3-10,0.4-14.9-1c-13.1-3.8-21.1-15.4-20-29.1c1-12.4,11.2-22.5,24.1-24.2c6.3-0.8,12.6-0.5,19-0.4c3.3,0,4.3-1,4.3-4.3
			c-0.1-13-0.1-26,0-39c0.1-21,12.8-37.1,32.8-41.5c6.9-1.5,13.9-1.1,20.7,1.2c8.8,2.9,17.7,5.8,26.5,8.8
			c10.3,3.6,20.5,3.6,30.8,0.1c8.2-2.8,16.4-5.5,24.6-8.2c20.7-6.9,38.7-0.4,50.3,18.3C290.4,21.5,290.8,21.9,291.1,22.2z"/>
		<path class="st1" d="M211,308.4c-16.1,2.8-31.7,0.5-46.2-6.6c-32.7-15.9-50.4-42.1-50.9-78.8c-0.4-25.8-0.1-51.7-0.1-77.5
			c0-2.7-0.4-5.2,3.9-5.1c49.2,0.1,98.3,0.1,147.5,0.1c0.3,0,0.7,0.1,1,0.2c1.8,1.7,1.5,4,1.5,6.1c0,27,0.6,53.9-0.1,80.9
			c-0.6,21.9-9,41.1-23.6,57.5c-6.4,7.2-13.4,13.8-22,18.7C218.4,305.7,214.7,307,211,308.4z"/>
		<path class="st2" d="M289.6,422.4c-18.7,0-37.3-0.1-56,0.1c-3.7,0-5.5-1-6.2-4.6c-0.6-2.9-1.6-5.8-2.5-8.6
			c-2.6-8.5-2.1-9.7,5.1-14.3c1.4-0.8,1.7,0.4,2.4,0.8c6.6,4.2,10.7,3.1,14.6-3.9c6.7-12.1,13.5-24.1,20-36.3c1.5-2.7,3-4,6.2-3.4
			c10.1,1.9,20.6,0.1,30.7,2.8c28.5,7.5,48.5,34.6,47,64c-0.2,3.7-2.1,3.4-4.5,3.4C327.6,422.4,308.6,422.4,289.6,422.4z"/>
		<path class="st2" d="M110.4,422.4c-18.8,0-37.6,0-56.5,0c-2.6,0-4.7,0.3-4.7-3.7c0.1-31.6,19-54.4,43.9-62.6
			c8.2-2.7,16.6-3.2,25.1-3c1.8,0,3.8,0.5,5.5-0.1c6.4-2.1,9,1.3,11.6,6.4c5.5,10.7,11.5,21,17.3,31.5c4.1,7.3,8,8.5,14.9,4
			c1.9-1.2,2.4-0.9,3.2,0.8c0.3,0.7,1,1.6,1.7,1.7c6.1,1.5,4.6,5.4,3.2,9.4c-1.2,3.6-2.5,7.3-3.1,11c-0.6,4-2.7,4.5-6.2,4.5
			C147.7,422.3,129,422.4,110.4,422.4z"/>
		<path class="st3" d="M294.2,123.1c-25.3,0-50.5,0.1-75.8,0.1c-37.7,0-75.5-0.1-113.2-0.1c-5.7-4.8-5.9-14.3-0.3-19.7
			c6.8-0.1,13.7-0.2,20.5-0.2c54.2,0,108.3,0,162.5,0c2.2,0,4.3,0.1,6.5,0.2C300,108.4,299.9,118.2,294.2,123.1z"/>
		<path class="st4" d="M211,308.4c6.1-4.3,13.1-7.2,18.9-12c19.3-16,31.8-35.8,35.4-60.9c1.4-9.5,0.7-18.9,0.8-28.4
			c0.2-22.2,0.1-44.3,0.1-66.5c5.8-0.1,11.7-0.1,17.5-0.3c2.7-0.1,3.5,0.9,3.4,3.5c-0.5,29.8,1.3,59.6-0.9,89.4
			c-2.6,36-35.5,70.3-71.1,74.9C213.7,308.4,212.3,308.3,211,308.4z"/>
		<path class="st5" d="M153,18.8c9,3,17.9,6,26.9,9c13.4,4.5,26.6,4.5,40-0.3c8.7-3.1,17.6-5.9,26.4-8.9c5.7,2.2,7.6,7.5,9,12.5
			c2.1,7.5,2.7,15.3,0,23c-37.2,0-74.4,0-111.6,0c-1.7-0.7-1.9-2.3-1.8-3.8c0.1-9.4,0.7-18.6,5.7-26.9
			C148.8,21.2,150.3,19.2,153,18.8z"/>
		<path class="st6" d="M200,86.1c-24.1,0-48.3-0.1-72.4,0.1c-4.2,0-5.9-0.6-5.6-5.4c0.4-8.7,0.1-8.7,8.6-8.7
			c47.3,0,94.5,0,141.8-0.1c4.3,0,6.2,0.6,5.9,5.6c-0.4,8.5-0.1,8.5-8.4,8.5C246.6,86.1,223.3,86.1,200,86.1z"/>
		<path class="st7" d="M186.8,350.8c0,1.6-1,2.3-1.8,3.1c-6.3,6.4-12.8,12.6-19,19.1c-2.2,2.3-3.4,1.8-4.8-0.7
			c-7.8-14.4-15.7-28.9-23.7-43.3c-1.1-2-1.2-3.6,0.1-5.5c1.9-2.7,3.7-5.5,5.3-8.4c1.6-2.9,2.9-2.6,5.2-0.5
			c12.1,11.4,24.4,22.5,36.6,33.8C185.4,349.2,186.2,350.1,186.8,350.8z"/>
		<path class="st7" d="M236.2,373.7c-0.4-0.4-1-0.8-1.4-1.2c-6.7-6.4-13.4-13-20.2-19.3c-2.3-2.1-1.7-3.3,0.3-5.1
			c11.3-10.2,22.6-20.6,33.9-30.9c0.7-0.7,1.4-1.4,2.2-2.1c3.1-3,4.8-2.9,7.7,1.3c4.6,6.5,4.4,11.8,0.4,18.4
			c-7.1,11.8-13.5,24.1-20.2,36.1C238.2,372,238.1,373.6,236.2,373.7z"/>
		<path class="st8" d="M255.2,54.1c0-5.2,0-10.3-0.1-15.5c-0.1-7.9-3.9-14.2-8.9-20c16.2-4.8,29.9,4.5,31.6,21.3
			c1.4,14.3,1.4,14.4-12.6,14.3C261.8,54.2,258.5,54.1,255.2,54.1z"/>
		<path class="st2" d="M153,18.8c-7.5,7-9.2,16.2-9.5,25.8c-0.1,3.1,0,6.3,0.1,9.5c-6.1,0.1-12.3,0-18.4,0.2c-2.7,0.1-3.5-1-3.4-3.5
			c0.1-3.2,0-6.3-0.1-9.5C121.5,24.2,136.7,13.3,153,18.8z"/>
		<path class="st9" d="M96,187.8c0,5.3-0.2,10.7,0.1,16c0.2,4.4-1.5,4.2-4.5,2.7c-6.6-3.3-11.1-8.5-13-15.6
			c-1.5-5.8-1-11.9-0.5-17.9c0.3-3.4,3-5.1,6.2-5.6c10.7-1.8,11.7-0.9,11.7,10C96,180.8,96,184.3,96,187.8z"/>
		<path class="st1" d="M304,187.2c0-5.5,0.1-11,0-16.5c-0.1-2.4,0.5-3.8,3.3-3.6c2.5,0.2,5,0,7.5,0.1c3.5,0.1,6.7,1.9,7.1,5.2
			c0.8,8.2,1.7,16.6-3,24.3c-2.8,4.6-6.6,7.9-11.4,10.1c-2.3,1.1-3.6,1-3.5-2.2C304.1,198.9,304,193.1,304,187.2z"/>
		<path class="st10" d="M294.2,123.1c3.6-6.6,4-13.1,0.1-19.7c7.3,0,14.7-0.2,22-0.1c5.7,0.1,9.8,4.5,9.8,9.9c0,5.1-4.5,9.9-9.9,10
			C308.8,123.3,301.5,123.2,294.2,123.1z"/>
		<path class="st2" d="M104.8,103.4c-3.6,6.6-3.2,13.2,0.3,19.7c-7.1,0-14.3,0.2-21.4,0.1c-5.6-0.1-9.7-4.3-9.7-9.8
			c-0.1-5.7,4-10,9.9-10.1C90.9,103.2,97.8,103.4,104.8,103.4z"/>
		<path class="st11" d="M199.9,382.7c-3.8,0-7.6,0-11.4,0c-1.4,0-3,0.4-3.6-1.7c-0.6-1.8,0.2-2.9,1.3-4c4-4.2,8.1-8.3,12.1-12.5
			c1.5-1.6,2.6-1.5,4.1,0c4,4.2,8.1,8.3,12.3,12.3c1.4,1.3,1.8,2.7,1.1,4.4c-0.7,1.9-2.4,1.4-3.8,1.4
			C207.8,382.7,203.8,382.7,199.9,382.7z"/>
		<path class="st5" d="M189.3,422.4c2.1-7.2,4-13.8,5.9-20.4c0.7-2.5,2.5-2.3,4.3-2.1c2,0.2,4.4-0.7,5.2,2.4
			c1.6,5.9,3.4,11.8,5.2,17.6c0.6,2.1-0.3,2.6-2.2,2.6C201.7,422.4,195.8,422.4,189.3,422.4z"/>
		<path class="st12" d="M183.8,324.2c11.1,1.3,20.9,1.6,31.5-0.1c-4.6,5.5-9.7,9.1-14.2,13.5c-1.1,1.1-2,0.5-3-0.4
			C193.8,333.1,189.3,329.1,183.8,324.2z"/>
		<path class="st0" d="M198.9,279.1c-16-0.9-28.7-8.5-36.5-23.5c-3.1-5.8-1.7-10.7,3.2-13.3c4.8-2.5,9.3-0.4,12.5,5.5
			c4.4,8.3,11.4,12.9,20.8,13.4c9.7,0.5,16.9-4.1,22.1-12c0.6-1,1.1-2.1,1.7-3.1c2.8-4.6,7.2-6.1,11.4-3.9c4.8,2.4,6.3,7.1,3.9,12.3
			C231.3,269.2,215.9,279.1,198.9,279.1z"/>
		<path class="st0" d="M170.1,176.7c-0.1,2.6,0.4,5.3-0.6,7.9c-1.4,3.8-4.2,5.6-8,5.6c-3.8,0.1-6.9-1.8-8-5.5
			c-1.7-5.5-1.7-11.2,0.1-16.7c1.2-4,4.7-5.8,8.6-5.4c4.3,0.4,7.3,3.1,8,7.7C170.3,172.3,170.1,174.5,170.1,176.7z"/>
		<path class="st0" d="M246.9,176.6c-0.2,2.3-0.1,4.7-0.8,6.9c-1.3,4.4-4.3,6.8-8.8,6.6c-4.5-0.2-7.6-2.9-8.1-7.4
			c-0.5-4.3-0.4-8.7,0-12.9c0.4-4.2,4.7-7.8,8.7-7.5c4.3,0.4,7.5,2.6,8.3,7.3C246.6,172,246.7,174.3,246.9,176.6z"/>
	</g>
</g>
</svg>
