<?xml version="1.0" encoding="utf-8"?>
<!-- Generator: Adobe Illustrator 22.1.0, SVG Export Plug-In . SVG Version: 6.00 Build 0)  -->
<svg version="1.1" id="图层_1" xmlns="http://www.w3.org/2000/svg" xmlns:xlink="http://www.w3.org/1999/xlink" x="0px" y="0px"
	 viewBox="0 0 184.3 184.3" style="enable-background:new 0 0 184.3 184.3;" xml:space="preserve">
<style type="text/css">
	.st0{fill:url(#椭圆_3_拷贝_12_1_);}
	.st1{fill:url(#形状_2_拷贝_11_1_);}
</style>
<linearGradient id="椭圆_3_拷贝_12_1_" gradientUnits="userSpaceOnUse" x1="1182" y1="954.0054" x2="1366" y2="954.0054" gradientTransform="matrix(1 0 0 1 -1182 -861.8553)">
	<stop  offset="0" style="stop-color:#53CBED"/>
	<stop  offset="1" style="stop-color:#C14FC4"/>
</linearGradient>
<path id="椭圆_3_拷贝_12" class="st0" d="M92,0c50.9-0.1,92.2,41.1,92.3,92c0.1,50.9-41.1,92.2-92,92.3S0.1,143.2,0,92.3
	c0-0.1,0-0.1,0-0.1C0,41.3,41.1,0.1,92,0z"/>
<linearGradient id="形状_2_拷贝_11_1_" gradientUnits="userSpaceOnUse" x1="1356.455" y1="1036.6605" x2="1191.645" y2="871.8505" gradientTransform="matrix(1 0 0 1 -1182 -861.8553)">
	<stop  offset="0" style="stop-color:#E8C10E"/>
	<stop  offset="0.427" style="stop-color:#FFFD45"/>
	<stop  offset="0.506" style="stop-color:#EBC823"/>
	<stop  offset="0.573" style="stop-color:#FDFF27"/>
	<stop  offset="1" style="stop-color:#F3CB0F"/>
</linearGradient>
<path id="形状_2_拷贝_11" class="st1" d="M137.3,46c0,0-1.2-1.1-3.4-3.1c-1.3-1.3-2.7-2.4-4.2-3.5c-1.9-1.5-4-2.9-6.2-4.1
	c-13.3-7.8-28.9-10.4-44-7.3c-10,2.1-19.4,6.6-27.3,13c-8.9,7.4-15.8,16.9-19.9,27.7c-4.4,11.7-5.4,24.4-3,36.6
	c1.3,6.2,3.4,12.3,6.3,18c3,5.6,6.8,10.8,11.2,15.5c4.5,4.5,9.6,8.3,15.1,11.4c5.5,3,11.4,5.1,17.5,6.5c12,2.4,24.4,1.4,35.7-3.1
	c10.7-4.3,20-11.3,27-20.4c6.3-8.3,10.7-17.8,12.7-28c3-15.4,0.5-31.4-7.1-45.2c-1.2-2.2-2.5-4.3-4-6.3c-1-1.5-2.1-3-3.4-4.3
	C138.4,47.1,137.3,46,137.3,46l3.3-3.4c0,0,1.1,1.3,3.2,3.7c1.3,1.5,2.5,3,3.6,4.7c1.6,2.1,3,4.4,4.3,6.8c13.9,25,11.5,55.9-6,78.6
	c-11.5,15.1-28.8,24.6-47.7,26.3c-6.6,0.5-13.2,0.2-19.6-1.1c-6.6-1.4-12.9-3.8-18.8-6.9c-5.9-3.4-11.4-7.5-16.2-12.3
	c-9.6-9.9-16.1-22.3-18.8-35.9c-1.2-6.6-1.6-13.4-1.1-20.1c0.6-6.6,2.1-13,4.3-19.2c4.4-11.6,11.7-21.9,21.3-29.8
	c8.5-6.9,18.6-11.7,29.4-14c16.2-3.3,33-0.5,47.2,7.8c2.3,1.3,4.5,2.8,6.6,4.4c1.6,1.1,3.1,2.4,4.6,3.7c2.3,2.2,3.6,3.3,3.6,3.3
	L137.3,46z M145.1,152.5c-2,1.8-4,3.6-6.2,5.2l-2.3-3.2c2.1-1.5,4-3.2,5.9-5L145.1,152.5z M150.8,146.7l-2.9-2.7
	c1.7-1.9,3.3-4,4.8-6l3.1,2.3C154.3,142.5,152.6,144.7,150.8,146.7z M132.3,162.3c-2.3,1.4-4.7,2.7-7.1,3.8l-1.6-3.6
	c2.3-1.1,4.6-2.3,6.7-3.7L132.3,162.3z M160.3,133.5l-3.4-2c1.3-2.2,2.5-4.6,3.5-6.9l3.5,1.7C162.9,128.7,161.6,131.1,160.3,133.5
	L160.3,133.5z M117.8,169.2c-2.5,0.9-5.1,1.6-7.7,2.3l-0.9-3.9c2.5-0.6,4.9-1.3,7.3-2.2L117.8,169.2z M167,118.6l-3.7-1.3
	c0.8-2.5,1.5-5,2.1-7.5l3.8,0.9C168.5,113.3,167.8,116,167,118.6L167,118.6z M102.2,172.9c-2.6,0.3-5.3,0.6-8,0.6l-0.1-4
	c2.5-0.1,5.1-0.3,7.6-0.6L102.2,172.9z M170.5,102.6l-3.9-0.5c0.3-2.6,0.5-5.2,0.6-7.8l3.9,0.1C171.1,97.1,170.9,99.9,170.5,102.6
	L170.5,102.6z M86.2,173.3c-2.7-0.2-5.3-0.5-7.9-1l0.7-3.9c2.5,0.5,5,0.8,7.5,1L86.2,173.3z M170.9,86.2l-3.9,0.3
	c-0.2-2.6-0.5-5.2-0.9-7.8l3.8-0.7C170.4,80.7,170.7,83.4,170.9,86.2L170.9,86.2z M70.4,170.5c-2.6-0.7-5.1-1.7-7.6-2.6l1.4-3.7
	c2.4,1,4.8,1.8,7.2,2.5L70.4,170.5z M168.1,70.1l-3.8,1.1c-0.7-2.5-1.5-5-2.5-7.4l3.7-1.5C166.5,64.8,167.4,67.4,168.1,70.1
	L168.1,70.1z M55.5,164.4c-2.4-1.3-4.7-2.7-6.9-4.2l2.1-3.3c2.1,1.4,4.3,2.8,6.6,4L55.5,164.4z M162.2,54.8l-3.5,1.9
	c-1.2-2.3-2.5-4.6-3.9-6.7l3.3-2.2C159.6,50,160.9,52.4,162.2,54.8L162.2,54.8z M42.2,155.4c-2.1-1.7-4.1-3.6-6-5.5l2.8-2.8
	c1.8,1.8,3.7,3.6,5.6,5.2L42.2,155.4z M153.4,41.1l-3,2.5c-1.6-2-3.3-3.9-5.1-5.8l2.5-3.1l0.2,0.2C149.9,36.9,151.7,39,153.4,41.1
	L153.4,41.1z M33.9,141.3l-3,2.6c-1.7-2.1-3.3-4.3-4.8-6.6l3.3-2.2C30.7,137.1,32.3,139.3,33.9,141.3L33.9,141.3z M139.4,32.4
	c-2-1.6-4.1-3.2-6.2-4.6l2.2-3.3c2.2,1.5,4.4,3.1,6.5,4.8L139.4,32.4z M25.4,128.3l-3.5,1.9c-1.2-2.4-2.4-4.9-3.4-7.5l3.6-1.5
	C23.2,123.6,24.3,125.9,25.4,128.3L25.4,128.3z M126.6,23.8c-2.3-1.2-4.6-2.3-6.9-3.2l1.4-3.7c2.5,1,4.9,2.2,7.3,3.4L126.6,23.8z
	 M19.8,113.8l-3.8,1.1c-0.7-2.6-1.3-5.3-1.8-8l3.8-0.7C18.5,108.7,19.1,111.3,19.8,113.8L19.8,113.8z M112.5,18.1
	c-2.4-0.7-4.9-1.3-7.4-1.7l0.7-4c2.6,0.5,5.2,1.1,7.8,1.8L112.5,18.1z M17.1,98.4l-3.9,0.3C13,96,12.9,93.2,13,90.5l3.9,0.1
	C16.8,93.2,16.9,95.8,17.1,98.4L17.1,98.4z M97.5,15.4c-2.5-0.2-5.1-0.3-7.6-0.2l-0.1-4c2.7-0.1,5.4,0,8,0.2L97.5,15.4z M17.4,82.8
	l-3.9-0.5c0.3-2.8,0.8-5.5,1.4-8.1l3.8,0.9C18.2,77.6,17.7,80.2,17.4,82.8L17.4,82.8z M82.3,15.9c-2.5,0.3-5,0.8-7.5,1.4l-0.9-3.9
	c2.6-0.6,5.2-1.1,7.9-1.5L82.3,15.9z M20.8,67.6l-3.7-1.3c0.9-2.6,1.8-5.1,2.9-7.6l3.6,1.7C22.5,62.7,21.6,65.1,20.8,67.6L20.8,67.6
	z M67.5,19.4c-2.4,0.9-4.8,1.8-7.1,2.9l-1.7-3.6c2.4-1.1,4.9-2.2,7.4-3.1L67.5,19.4z M27.1,53.4l-3.3-2c1.3-2.4,2.8-4.7,4.4-6.9
	l3.2,2.4C29.8,49,28.4,51.2,27.1,53.4L27.1,53.4z M53.7,26c-2.2,1.3-4.3,2.8-6.3,4.3l-2.3-3.2c2.2-1.6,4.4-3.1,6.7-4.6L53.7,26z
	 M36.1,40.8l-2.9-2.7c1.8-2,3.7-4,5.7-5.8l2.6,3C39.6,37,37.8,38.9,36.1,40.8L36.1,40.8z M143.2,144.8c-27.3,28.2-72.3,29-100.5,1.7
	c-0.6-0.6-1.1-1.1-1.7-1.7C12.8,115.9,12.8,68.9,41,40c27.3-28.2,72.3-29,100.6-1.7c0.6,0.6,1.1,1.1,1.7,1.7
	C171.3,68.9,171.3,115.9,143.2,144.8L143.2,144.8z M41.5,40.5c-27.9,28.6-27.9,75.1,0,103.7c27,27.9,71.6,28.7,99.5,1.6
	c0.6-0.5,1.1-1.1,1.6-1.6c27.9-28.6,27.9-75.1,0-103.7c-27-27.9-71.5-28.7-99.4-1.7C42.6,39.4,42,40,41.5,40.5L41.5,40.5z
	 M150.4,152.2c-31.1,32.2-82.5,33.1-114.7,2c-0.7-0.6-1.3-1.3-1.9-1.9c-32.2-33-32.2-86.7,0-119.6c31.1-32.2,82.5-33.1,114.7-2
	c0.7,0.6,1.3,1.3,2,2C182.5,65.5,182.5,119.2,150.4,152.2L150.4,152.2z M34.3,33.1c-31.8,32.7-31.8,85.8,0,118.5
	c30.8,31.9,81.7,32.7,113.6,1.9c0.6-0.6,1.3-1.3,1.9-1.9c31.9-32.7,31.9-85.8,0-118.5C119,1.2,68.1,0.3,36.2,31.2
	C35.6,31.8,34.9,32.5,34.3,33.1L34.3,33.1z M92.2,89.2v-1.4c0.1-0.5,0.1-1,0-1.5V70.4v-0.1c-0.8-0.9-2.3-3.6-2.6-3.9
	c-2.1-0.4-13.1,4.1-13.9,4.7c-0.3,0.2-2.4,1.1-3.1,2.4c-0.9,1.6-1.9,11.4-2.3,12.7c-0.1-0.3,0.3-7.6-0.6-13c-0.4-2.1-1.4-4-2.7-5.7
	c-1.8-2.6-4.2-5.1-4-5.2c2,1.2,3.8,2.7,5.4,4.5c1.2,1.5,2.2,3.2,2.8,5c4.2-2.1,16.9-6.7,16.9-6.7s-17.9-1.2-18.5-1.7
	c-3.3-2.5-7.1-4.3-11-5.5c-5.4-1.7-12.3-2.2-14.4-5.7c3.4,10.6,2.1,15.3,6.6,23.8c4.8,9,12.4,11.5,12.4,11.5c-0.2-5.5-1-11-2.3-16.3
	c-1.4-5.3-4.2-10.2-3.9-10c2.5,1.7,4.5,4.2,5.7,7c1.9,5.2,2.1,12.5,2.9,16.6c0.5,2.9,1.3,5.7,2.3,8.4c0.2,0.4,0.4,0.8,0.6,1.2
	c1,1.8,2,3.5,3.2,5.2c2.4,3.5,5,6.8,7.9,9.9c4.8,4.9,10.7,9.5,11.7,10.6c0.3,0.2,0.7,0.3,1,0.3h0.1v-8.2c0.3-0.1,5.4,0,7.3-2.2
	c0.3-0.3,0.6-0.7,0.8-1C105.7,102,109.7,89,92.2,89.2 M58.3,77c0.2,1.4,0.6,2.8,1,4.2c-3.2-3.1-6-6.7-8.2-10.7
	c-1.5-2.9-0.9-7-1.9-8.4c0,0,4.1,0.9,6.6,6.2C57,71.1,57.9,74,58.3,77 M89.4,108.4c0.1,0.3,0.3,0.5,0.5,0.7s0.5,0.3,0.8,0.4
	s0.6,0.2,1,0.2h3.1v-1.2h-4.3l1.5-1.9h5.3v3.3c0,1.1-0.8,2-1.9,2l0,0h-3.8c-0.7,0-1.4-0.1-2-0.3c-0.6-0.2-1.1-0.5-1.6-0.9
	c-0.4-0.4-0.8-0.8-1-1.4c-0.3-0.5-0.4-1.1-0.4-1.7s0.1-1.2,0.4-1.7s0.6-1,1-1.3c0.5-0.4,1-0.7,1.6-0.8c0.6-0.2,1.3-0.3,2-0.3h5.9
	l-1.7,2.2h-4.3c-0.3,0-0.7,0.1-1,0.2s-0.5,0.2-0.8,0.4c-0.2,0.2-0.4,0.4-0.5,0.7c-0.1,0.3-0.2,0.5-0.2,0.8
	C89.2,107.9,89.2,108.1,89.4,108.4 M125.8,57.9c-4,1.2-7.7,3.1-11,5.5c-0.6,0.5-18.5,1.7-18.5,1.7s12.7,4.6,16.9,6.7
	c0.6-1.8,1.6-3.5,2.8-5c1.6-1.8,3.4-3.3,5.4-4.5c0.2,0.1-2.2,2.6-4,5.2c-1.3,1.7-2.2,3.6-2.7,5.7c-0.9,5.5-0.5,12.8-0.6,13
	c-0.3-1.3-1.3-11.1-2.3-12.7c-0.8-1.3-2.8-2.2-3.1-2.4c-0.8-0.6-11.8-5.1-13.9-4.7c-0.3,0.3-1.8,3-2.6,3.9l-0.1,0.1v18.8
	c-17.2-0.2-13.6,12.3-8.4,19.4c0.4,0.5,0.7,1,1.1,1.4c1.9,2.2,7,2.1,7.3,2.2v8.2h0.1c0.4,0,0.7-0.1,1-0.3c1-1,6.9-5.6,11.7-10.6
	c2.9-3.1,5.6-6.4,7.9-9.9c1.1-1.7,2.2-3.4,3.2-5.2c0.2-0.4,0.4-0.8,0.6-1.2c1-2.7,1.7-5.5,2.3-8.4c0.8-4.1,1-11.4,2.9-16.6
	c1.2-2.8,3.1-5.3,5.7-7c0.3-0.2-2.5,4.7-3.9,10c-1.3,5.3-2.1,10.8-2.3,16.3c0,0,7.6-2.5,12.4-11.5c4.5-8.5,3.2-13.2,6.6-23.8
	C138.1,55.7,131.2,56.2,125.8,57.9 M91.6,111.8c-0.7,0-1.4-0.1-2-0.3c-0.6-0.2-1.1-0.5-1.6-0.9c-0.4-0.4-0.8-0.8-1-1.4
	c-0.3-0.5-0.4-1.1-0.4-1.7s0.1-1.2,0.4-1.7s0.6-1,1-1.3c0.5-0.4,1-0.7,1.6-0.8c0.6-0.2,1.3-0.3,2-0.3h5.9l-1.7,2.2h-4.3
	c-0.3,0-0.7,0.1-1,0.2s-0.5,0.2-0.8,0.4c-0.2,0.2-0.4,0.4-0.5,0.7c-0.1,0.3-0.2,0.5-0.2,0.8s0.1,0.6,0.2,0.8
	c0.1,0.3,0.3,0.5,0.5,0.7s0.5,0.3,0.8,0.4s0.6,0.2,1,0.2h3.1v-1.2h-4.3l1.5-1.9h5.3v3.3c0,1.1-0.8,2-1.9,2l0,0L91.6,111.8
	 M133.2,70.5c-2.2,4-4.9,7.6-8.2,10.7c0.4-1.4,0.7-2.8,1-4.2c0.4-3,1.3-5.9,2.5-8.7c2.5-5.3,6.6-6.2,6.6-6.2
	C134.1,63.4,134.7,67.5,133.2,70.5 M61.8,98.1l6.8,5.5l1.4,12l4,7.9l2.9,3.2l6.5,22.6l-13.3-14.4l-3.2-13.2l-12.2-8.9v-6.9v-5.7
	L61.8,98.1z M112.3,112.7v2.4l-3.3,6.8c0,0-4.4,6.8-6.3,9.3s-10.6,10.2-10.6,10.2s-6.4-6.2-10.6-10.9c-2.4-2.7-4.5-5.6-6.4-8.6
	l-3.3-6.8v-2.4l2.3,1.1L76,116c0,0,14.2,6.2,16.1,7.1c1.9-0.9,16.1-7.1,16.1-7.1l1.9-2.2L112.3,112.7z M56.6,116.4
	c1.7,1.1,9.4,6.4,9.4,6.4l1.3,5.5l-10-8.7C57.3,119.5,56.6,116.8,56.6,116.4L56.6,116.4z M134.6,86.6l2.9-12.6l-0.6-1.3l-5.7,10.4
	l-10.5,7c0,0-3.4,7.9-4.9,12C117.8,100.2,134.6,86.6,134.6,86.6L134.6,86.6z M49.6,86.6L46.7,74l0.6-1.3c0,0,3.2,7.5,6,10.3
	s10.2,7.1,10.2,7.1s3.4,7.9,4.9,12C66.5,100.2,49.6,86.6,49.6,86.6L49.6,86.6z M122.5,98.1l-6.8,5.5l-1.4,12l-4,7.9l-3.3,3.8
	l-6.1,22l13.3-14.4l3.2-13.2l12.2-8.9v-6.9v-5.7L122.5,98.1z M127.8,116.4c-1.7,1.1-9.4,6.4-9.4,6.4l-1.4,5.4l10.1-8.7
	C127.1,119.5,127.8,116.8,127.8,116.4L127.8,116.4z M111.6,105.2l-1.2,5.2l-3.1,3.1l-6.8,3L111.6,105.2z M72.8,105.2l1.2,5.2
	l3.1,3.1l6.8,3L72.8,105.2z M83.7,108.7c0.1,0.7,0.3,1.3,0.6,1.9c0.1,0.1,0.1,0.2,0.2,0.4l-0.5,0.6h0.9c0.4,0.5,0.8,1,1.3,1.4
	c0.7,0.7,1.6,1.2,2.6,1.5s2,0.5,3,0.5h0.5v-2.7c-0.3-0.1-5.4,0-7.3-2.2C84.4,109.6,84,109.2,83.7,108.7 M86.6,107.5L86.6,107.5
	c0-0.6,0.1-1.2,0.4-1.7s0.6-1,1-1.3c0.5-0.4,1-0.7,1.6-0.8c0.6-0.2,1.3-0.3,2-0.3h5.9l-1.7,2.2h-4.3c-0.3,0-0.7,0.1-1,0.2
	s-0.5,0.2-0.8,0.4c-0.2,0.2-0.4,0.4-0.5,0.7c-0.1,0.3-0.2,0.5-0.2,0.8s0.1,0.6,0.2,0.8c0.1,0.3,0.3,0.5,0.5,0.7s0.5,0.3,0.8,0.4
	s0.6,0.2,1,0.2h3.1v-1.2h-4.3l1.5-1.9h5.3v3.3l0,0c0,1.1-0.8,2-1.9,2l0,0h-3.8c-0.7,0-1.4-0.1-2-0.3c-0.6-0.2-1.1-0.5-1.6-0.9
	c-0.4-0.4-0.8-0.8-1-1.4C86.8,108.6,86.6,108.1,86.6,107.5L86.6,107.5 M103.8,100.2H91.6c-1,0-2,0.1-2.9,0.4s-1.8,0.8-2.6,1.4
	c-1.6,1.3-2.6,3.4-2.5,5.5c0,0.4,0,0.8,0.1,1.2l0,0c0.4,0.5,0.7,1,1.1,1.4c1.9,2.2,7,2.1,7.3,2.2v2.7h3.3c2.8,0,5-2.3,5-5.1l0,0
	v-5.1L103.8,100.2 M81.1,133.7l10.6,10.5v5.7h-5.3L81.1,133.7z M103.5,133.7l-10.6,10.5v5.7h5.3L103.5,133.7z M92.2,89.2v-1.4
	c0.1-0.5,0.1-1,0-1.5V70.4v-0.1c-0.8-0.9-2.3-3.6-2.6-3.9c-2.1-0.4-13.1,4.1-13.9,4.7c-0.3,0.2-2.4,1.1-3.1,2.4
	c-0.9,1.6-1.9,11.4-2.3,12.7c-0.1-0.3,0.3-7.6-0.6-13c-0.4-2.1-1.4-4-2.7-5.7c-1.8-2.6-4.2-5.1-4-5.2c2,1.2,3.8,2.7,5.4,4.5
	c1.2,1.5,2.2,3.2,2.8,5c4.2-2.1,16.9-6.7,16.9-6.7s-17.9-1.2-18.5-1.7c-3.3-2.5-7.1-4.3-11-5.5c-5.4-1.7-12.3-2.2-14.4-5.7
	c3.4,10.6,2.1,15.3,6.6,23.8c4.8,9,12.4,11.5,12.4,11.5c-0.2-5.5-1-11-2.3-16.3c-1.4-5.3-4.2-10.2-3.9-10c2.5,1.7,4.5,4.2,5.7,7
	c1.9,5.2,2.1,12.5,2.9,16.6c0.5,2.9,1.3,5.7,2.3,8.4c0.2,0.4,0.4,0.8,0.6,1.2c1,1.8,2,3.5,3.2,5.2c2.4,3.5,5.1,6.8,8,9.9
	c4.8,4.9,10.7,9.5,11.7,10.6c0.3,0.2,0.7,0.3,1,0.3h0.1v-8.2c0.3-0.1,5.4,0,7.3-2.2c0.3-0.3,0.6-0.7,0.8-1
	C105.7,102,109.7,89,92.2,89.2L92.2,89.2z M58.3,77c0.2,1.4,0.6,2.8,1,4.2c-3.2-3.1-6-6.7-8.2-10.7c-1.5-2.9-0.9-7-1.9-8.4
	c0,0,4.1,0.9,6.6,6.2C57,71.1,57.9,74,58.3,77L58.3,77z M89.4,108.4c0.1,0.3,0.3,0.5,0.5,0.7s0.5,0.3,0.8,0.4s0.6,0.2,1,0.2h3.1
	v-1.2h-4.3l1.5-1.9h5.3v3.3c0,1.1-0.8,2-1.9,2l0,0h-3.8c-0.7,0-1.4-0.1-2-0.3c-0.6-0.2-1.1-0.5-1.6-0.9c-0.4-0.4-0.8-0.8-1-1.4
	c-0.3-0.5-0.4-1.1-0.4-1.7s0.1-1.2,0.4-1.7s0.6-1,1-1.3c0.5-0.4,1-0.7,1.6-0.8c0.6-0.2,1.3-0.3,2-0.3h5.9l-1.7,2.2h-4.3
	c-0.3,0-0.7,0.1-1,0.2s-0.5,0.2-0.8,0.4c-0.2,0.2-0.4,0.4-0.5,0.7c-0.1,0.3-0.2,0.5-0.2,0.8C89.2,107.9,89.2,108.1,89.4,108.4
	L89.4,108.4z M125.8,57.9c-4,1.2-7.7,3.1-11,5.5c-0.6,0.5-18.5,1.7-18.5,1.7s12.7,4.6,16.9,6.7c0.6-1.8,1.6-3.5,2.8-5
	c1.6-1.8,3.4-3.3,5.4-4.5c0.2,0.1-2.2,2.6-4,5.2c-1.3,1.7-2.2,3.6-2.7,5.7c-0.9,5.5-0.5,12.8-0.6,13c-0.3-1.3-1.3-11.1-2.3-12.7
	c-0.8-1.3-2.8-2.2-3.1-2.4c-0.8-0.6-11.8-5.1-13.9-4.7c-0.3,0.3-1.8,3-2.6,3.9l-0.1,0.1v18.8c-17.2-0.2-13.6,12.3-8.4,19.4
	c0.4,0.5,0.7,1,1.1,1.4c1.9,2.2,7,2.1,7.3,2.2v8.2h0.1c0.4,0,0.7-0.1,1-0.3c1-1,6.9-5.6,11.7-10.6c2.9-3.1,5.6-6.4,7.9-9.9
	c1.1-1.7,2.2-3.4,3.2-5.2c0.2-0.4,0.4-0.8,0.6-1.2c1-2.7,1.7-5.5,2.3-8.4c0.8-4.1,1-11.4,2.9-16.6c1.2-2.8,3.1-5.3,5.7-7
	c0.3-0.2-2.5,4.7-3.9,10c-1.3,5.4-2.1,10.8-2.3,16.3c0,0,7.6-2.5,12.4-11.5c4.5-8.5,3.2-13.2,6.6-23.8
	C138.1,55.7,131.3,56.2,125.8,57.9L125.8,57.9z M91.6,111.8c-0.7,0-1.4-0.1-2-0.3c-0.6-0.2-1.1-0.5-1.6-0.9c-0.4-0.4-0.8-0.8-1-1.4
	c-0.3-0.5-0.4-1.1-0.4-1.7s0.1-1.2,0.4-1.7s0.6-1,1-1.3c0.5-0.4,1-0.7,1.6-0.8c0.6-0.2,1.3-0.3,2-0.3h5.9l-1.7,2.2h-4.3
	c-0.3,0-0.7,0.1-1,0.2s-0.5,0.2-0.8,0.4c-0.2,0.2-0.4,0.4-0.5,0.7c-0.1,0.3-0.2,0.5-0.2,0.8s0.1,0.6,0.2,0.8
	c0.1,0.3,0.3,0.5,0.5,0.7s0.5,0.3,0.8,0.4s0.6,0.2,1,0.2h3.1v-1.2h-4.3l1.5-1.9h5.3v3.3c0,1.1-0.8,2-1.9,2l0,0L91.6,111.8
	L91.6,111.8z M133.2,70.5c-2.2,4-4.9,7.6-8.2,10.7c0.4-1.4,0.7-2.8,1-4.2c0.4-3,1.3-5.9,2.5-8.7c2.5-5.3,6.6-6.2,6.6-6.2
	C134.1,63.4,134.7,67.5,133.2,70.5L133.2,70.5z M61.8,98.1l6.8,5.5l1.4,12l4,7.9l2.9,3.2l6.5,22.6l-13.3-14.4l-3.2-13.2l-12.2-8.9
	v-6.9v-5.7L61.8,98.1z M112.3,112.7v2.4l-3.3,6.8c0,0-4.4,6.8-6.3,9.3s-10.6,10.2-10.6,10.2s-6.4-6.2-10.6-10.9
	c-2.4-2.7-4.5-5.6-6.4-8.6l-3.3-6.8v-2.4l2.3,1.1L76,116c0,0,14.2,6.2,16.1,7.1c1.9-0.9,16.1-7.1,16.1-7.1l1.9-2.2L112.3,112.7z
	 M56.6,116.4c1.7,1.1,9.4,6.4,9.4,6.4l1.3,5.5l-10-8.7C57.3,119.5,56.6,116.8,56.6,116.4L56.6,116.4z M134.6,86.6l2.9-12.6l-0.6-1.3
	l-5.7,10.4l-10.5,7c0,0-3.4,7.9-4.9,12C117.8,100.2,134.6,86.6,134.6,86.6L134.6,86.6z M49.6,86.6L46.7,74l0.6-1.3
	c0,0,3.2,7.5,6,10.3s10.2,7.1,10.2,7.1s3.4,7.9,4.9,12C66.5,100.2,49.6,86.6,49.6,86.6L49.6,86.6z M122.5,98.1l-6.8,5.5l-1.4,12
	l-4,7.9l-3.3,3.8l-6.1,22l13.3-14.4l3.2-13.2l12.2-8.9v-6.9v-5.7L122.5,98.1z M127.8,116.4c-1.7,1.1-9.4,6.4-9.4,6.4l-1.4,5.4
	l10.1-8.7C127.1,119.5,127.8,116.8,127.8,116.4L127.8,116.4z M111.6,105.2l-1.2,5.2l-3.1,3.1l-6.8,3L111.6,105.2z M72.8,105.2
	l1.2,5.2l3.1,3.1l6.8,3L72.8,105.2z M81.1,133.7l10.6,10.5v5.7h-5.3L81.1,133.7z M103.5,133.7l-10.6,10.5v5.7h5.3L103.5,133.7z
	 M44.1,54.5c-2.8,3.7-5.2,7.8-7.1,12.1c-1.7,3.8-3,7.7-3.9,11.8c-0.2,0.9-0.4,1.8-0.5,2.7c-0.2,0.8-0.3,1.7-0.4,2.5
	c-0.1,0.8-0.2,1.6-0.3,2.3c0,0.4-0.1,0.7-0.1,1.1s0,0.7-0.1,1c-0.1,0.7-0.1,1.3-0.1,1.9s0,1.2,0,1.7s0,1,0,1.4s0,0.8,0,1.2
	c0.1,1.4,0.1,2.2,0.1,2.2l0.8-0.1c0,0,0-0.7-0.1-2.2c0-0.3,0-0.7,0-1.2c0-0.4,0-0.9,0-1.4s0-1.1,0-1.7s0.1-1.2,0.1-1.9
	c0-0.3,0.1-0.7,0.1-1s0.1-0.7,0.1-1.1c0.1-0.7,0.1-1.5,0.3-2.2c0.1-0.8,0.3-1.6,0.4-2.5c0.1-0.8,0.3-1.7,0.5-2.6
	c0.9-4,2.2-7.9,3.8-11.6c1.8-4.1,4.1-8,6.7-11.6C44.3,55.1,44.2,54.8,44.1,54.5L44.1,54.5z M138.7,52.8c-1.3-1.6-2.6-3.1-4.1-4.6
	c-1.9-1.9-3.8-3.6-5.9-5.3c-1.1-0.9-2.2-1.6-3.3-2.4c-0.6-0.4-1.2-0.7-1.8-1.1l-0.9-0.6l-0.9-0.5c-5-2.9-10.3-5.1-15.9-6.4
	c-2.9-0.7-5.8-1.1-8.7-1.4c-5.9-0.5-11.9-0.1-17.7,1.1c-2.9,0.6-5.7,1.5-8.5,2.5c-5.4,2.1-10.5,4.9-15,8.4l-0.8,0.6l-0.8,0.7
	c-0.5,0.4-1.1,0.9-1.6,1.3c-1,0.9-2.1,1.8-3,2.8c-1.5,1.5-2.9,3.1-4.3,4.8l0,0c0.1,0.1,0.2,0.2,0.3,0.4c0.1,0,0.2,0.1,0.3,0.1
	c1.3-1.6,2.7-3.2,4.2-4.7c0.9-1,1.9-1.9,2.9-2.8c0.5-0.4,1-0.9,1.6-1.3l0.8-0.7l0.8-0.6c4.5-3.5,9.5-6.3,14.8-8.3
	c2.7-1,5.5-1.9,8.4-2.5c2.9-0.6,5.8-1,8.7-1.2c2.9-0.2,5.9-0.1,8.8,0.1c2.9,0.3,5.8,0.7,8.6,1.4c5.5,1.3,10.8,3.4,15.7,6.3l0.9,0.5
	l0.9,0.5c0.6,0.4,1.2,0.7,1.7,1.1c1.1,0.8,2.2,1.6,3.3,2.4c2.1,1.6,4,3.3,5.9,5.2c1.4,1.5,2.8,2.9,4,4.4
	C138.2,53.1,138.5,53,138.7,52.8L138.7,52.8z M152.3,86.3c0-0.4-0.1-0.8-0.1-1.2s-0.1-0.9-0.2-1.4s-0.1-1.1-0.2-1.7
	s-0.2-1.2-0.3-1.9c-0.1-0.3-0.1-0.6-0.2-1c-0.1-0.3-0.2-0.7-0.2-1.1c-0.2-0.7-0.3-1.5-0.6-2.2c-0.2-0.8-0.5-1.6-0.7-2.4
	s-0.6-1.7-0.9-2.6c-1.4-3.9-3.2-7.6-5.3-11.2c-1-1.7-2.1-3.3-3.3-4.9c-0.1,0.3-0.2,0.7-0.3,1c1.1,1.4,2,2.9,2.9,4.4
	c2.1,3.5,3.9,7.2,5.3,11c0.3,0.9,0.6,1.7,0.8,2.5c0.3,0.8,0.5,1.6,0.7,2.4s0.4,1.5,0.5,2.2c0.1,0.4,0.2,0.7,0.3,1.1s0.1,0.7,0.2,1
	c0.1,0.6,0.2,1.3,0.3,1.8s0.2,1.1,0.2,1.6s0.1,1,0.2,1.4s0.1,0.8,0.1,1.2c0.1,1.4,0.2,2.2,0.2,2.2l0.8-0.1
	C152.5,88.5,152.4,87.7,152.3,86.3L152.3,86.3z M36.3,90c0,0-0.8-0.4-1.7-0.9c-0.8-0.5-1.7-1-1.7-1s0,0.5-0.1,1.3c0,0.2,0,0.4,0,0.6
	s0,0.4,0,0.7c0,0.5,0,1,0,1.5c0,1,0,2,0.1,2.8c0,0.8,0,1.3,0,1.3s0.9-0.5,1.7-1s1.7-0.9,1.7-0.9s0-0.3,0-0.7c0-0.4,0-0.9,0-1.5
	s0-1.1,0-1.5S36.3,90,36.3,90 M38.8,75.3c0,0-0.7-0.7-1.4-1.3S36,72.6,36,72.6s-0.2,0.5-0.4,1.2c-0.1,0.4-0.3,0.8-0.4,1.3
	c-0.1,0.5-0.3,0.9-0.4,1.4c-0.1,0.5-0.3,1-0.4,1.4c-0.1,0.5-0.2,0.9-0.3,1.3c-0.2,0.8-0.3,1.3-0.3,1.3s0.9-0.3,1.9-0.5
	c0.9-0.3,1.9-0.4,1.9-0.4s0.1-0.3,0.1-0.7c0.1-0.4,0.2-0.9,0.4-1.4s0.3-1,0.4-1.4S38.8,75.3,38.8,75.3 M44.9,61.8c0,0-0.5-0.8-1-1.7
	c-0.5-0.8-1-1.7-1-1.7s-0.1,0.1-0.2,0.3c-0.2,0.2-0.3,0.5-0.5,0.8c-0.4,0.6-0.9,1.5-1.4,2.4s-1,1.8-1.3,2.4C39.2,65,39,65.4,39,65.4
	s1,0,1.9,0s1.9,0.1,1.9,0.1s0.5-0.9,1-1.9c0.2-0.4,0.5-0.9,0.7-1.2S44.9,61.8,44.9,61.8 M54.2,50.4c0,0-0.3-0.9-0.6-1.9
	s-0.5-1.9-0.5-1.9s-0.4,0.3-0.9,0.8c-0.6,0.5-1.3,1.2-2,1.9c-0.7,0.7-1.4,1.4-1.9,2c-0.3,0.3-0.5,0.5-0.6,0.7
	c-0.1,0.1-0.2,0.2-0.2,0.2s0.2,0.1,0.6,0.2s0.8,0.2,1.3,0.4c0.9,0.3,1.8,0.6,1.8,0.6s0.2-0.2,0.4-0.5c0.3-0.3,0.6-0.7,1-1.1
	s0.7-0.7,1-1C53.8,50.7,54,50.5,54.2,50.4 M66,41.7c0,0,0-1-0.1-2c0-1,0-2,0-2s-0.1,0.1-0.3,0.2s-0.5,0.2-0.8,0.4
	c-0.3,0.2-0.7,0.4-1.1,0.6s-0.9,0.5-1.3,0.7c-0.8,0.5-1.7,1-2.3,1.4c-0.6,0.4-1,0.7-1,0.7s0.8,0.5,1.7,1s1.6,1,1.6,1
	s0.9-0.5,1.8-1.1c0.4-0.3,0.9-0.5,1.2-0.7L66,41.7 M79.7,36.6c0,0,0.2-1,0.4-1.9c0.3-1,0.5-1.9,0.5-1.9s-0.5,0.1-1.2,0.2
	s-1.7,0.4-2.6,0.7s-1.9,0.6-2.6,0.8c-0.4,0.1-0.7,0.2-0.9,0.3c-0.1,0-0.2,0.1-0.3,0.1c0,0,0.7,0.7,1.3,1.4c0.7,0.7,1.3,1.5,1.3,1.5
	s0.3-0.1,0.6-0.2c0.4-0.1,0.9-0.3,1.4-0.4C78.6,36.8,79.7,36.6,79.7,36.6 M94.1,35.2l0.3-0.6c0.2-0.3,0.4-0.7,0.6-1.2
	c0.5-0.9,1-1.7,1-1.7s-0.5,0-1.2-0.1c-0.7,0-1.7,0-2.7-0.1c-0.3,0-0.5,0-0.8,0s-0.5,0-0.7,0c-0.5,0-0.9,0-1.3,0.1
	c-0.4,0-0.7,0-0.9,0c-0.1,0-0.2,0-0.3,0c0,0,0.1,0.2,0.3,0.5c0.2,0.3,0.4,0.8,0.7,1.2c0.5,0.9,0.9,1.8,0.9,1.8s0.3,0,0.7,0
	c0.4,0,0.9,0,1.4,0C93.1,35.2,94.1,35.2,94.1,35.2 M108.5,37.7c0,0,0.6-0.7,1.3-1.4c0.7-0.7,1.4-1.4,1.4-1.4s-0.5-0.2-1.2-0.4
	c-0.3-0.1-0.8-0.3-1.2-0.4c-0.5-0.1-0.9-0.2-1.4-0.4s-0.9-0.3-1.4-0.4s-0.9-0.2-1.2-0.3c-0.7-0.2-1.2-0.3-1.2-0.3s0.3,1,0.5,1.9
	s0.4,1.9,0.4,1.9s0.3,0.1,0.6,0.1c0.4,0.1,0.9,0.2,1.4,0.4c0.5,0.2,1,0.3,1.4,0.4S108.5,37.7,108.5,37.7 M121.7,43.9
	c0,0,0.8-0.5,1.6-1.1c0.4-0.3,0.8-0.5,1.1-0.7s0.5-0.3,0.5-0.3c-0.1-0.1-0.2-0.1-0.3-0.2c-0.2-0.1-0.4-0.3-0.8-0.5
	c-0.6-0.4-1.5-0.9-2.3-1.4c-0.9-0.5-1.7-1-2.4-1.3c-0.7-0.3-1.1-0.6-1.1-0.6s0,1,0,2c0,0.5,0,1,0,1.3c0,0.4,0,0.6,0,0.6
	s0.9,0.5,1.8,1c0.5,0.3,0.9,0.6,1.2,0.8S121.7,43.9,121.7,43.9 M132.9,53.4c0,0,0.9-0.3,1.8-0.6c0.9-0.3,1.9-0.5,1.9-0.5
	s-0.3-0.4-0.8-0.9s-1.2-1.3-1.9-2c-0.7-0.7-1.4-1.4-2-1.9c-0.3-0.3-0.5-0.5-0.7-0.6s-0.3-0.2-0.3-0.2s-0.1,0.2-0.1,0.6
	s-0.2,0.8-0.4,1.3c-0.3,0.9-0.6,1.9-0.6,1.9s0.2,0.2,0.5,0.4c0.1,0.1,0.3,0.3,0.5,0.5s0.3,0.4,0.5,0.6c0.4,0.4,0.7,0.7,1,1.1
	c0.1,0.1,0.3,0.3,0.3,0.3C132.8,53.3,132.9,53.4,132.9,53.4 M141.3,65.5c0,0,1-0.1,1.9-0.1c0.5,0,1,0,1.3,0s0.6,0,0.6,0
	c0-0.1-0.1-0.2-0.2-0.3c-0.1-0.2-0.3-0.5-0.4-0.8c-0.3-0.7-0.8-1.6-1.3-2.4c-0.5-0.9-1-1.8-1.4-2.4s-0.7-1-0.7-1s-0.5,0.9-1,1.7
	s-1,1.7-1,1.7l0.1,0.1c0.1,0.1,0.2,0.3,0.3,0.4c0.2,0.3,0.5,0.8,0.7,1.3c0.1,0.2,0.3,0.5,0.4,0.7s0.2,0.4,0.3,0.6
	C141.2,65.3,141.3,65.5,141.3,65.5 M146.4,79.5c0,0,0.2,0.1,0.6,0.1s0.8,0.2,1.3,0.3c0.9,0.2,1.9,0.5,1.9,0.5s-0.1-0.5-0.2-1.2
	c-0.2-0.7-0.4-1.7-0.7-2.7c-0.3-0.9-0.6-1.9-0.8-2.7c-0.1-0.4-0.2-0.7-0.3-0.9c-0.1-0.2-0.1-0.3-0.1-0.3s-0.7,0.7-1.4,1.4
	c-0.7,0.7-1.4,1.3-1.4,1.3s0.3,1,0.6,2.1C146.2,78.4,146.4,79.5,146.4,79.5 M32.4,96.2c0,0,0.1,0.8,0.2,2.2c0,0.4,0.1,0.8,0.1,1.2
	c0.1,0.4,0.1,0.9,0.2,1.4s0.2,1.1,0.2,1.6c0.1,0.6,0.2,1.2,0.3,1.8c0.1,0.3,0.1,0.7,0.2,1c0.1,0.3,0.2,0.7,0.2,1
	c0.2,0.7,0.3,1.4,0.5,2.2c0.2,0.8,0.4,1.6,0.7,2.4s0.6,1.7,0.8,2.5c1.4,3.8,3.1,7.5,5.3,11.1c2.5,4.1,5.5,7.9,8.8,11.3
	c1.8,1.9,3.8,3.6,5.9,5.2c1,0.9,2.2,1.6,3.3,2.4c0.6,0.4,1.1,0.7,1.7,1.1l0.9,0.6l0.9,0.5c4.9,2.9,10.2,5,15.7,6.3
	c2.8,0.7,5.7,1.1,8.6,1.4c2.9,0.2,5.9,0.3,8.8,0.1c2.9-0.2,5.8-0.6,8.7-1.2c2.8-0.6,5.6-1.5,8.4-2.5c5.3-2,10.3-4.8,14.8-8.3
	l0.8-0.6l0.8-0.7c0.5-0.4,1.1-0.9,1.6-1.3c1-0.9,2-1.8,2.9-2.8c1.9-1.8,3.6-3.8,5.2-5.9c2.9-3.8,5.4-8,7.4-12.4
	c1.7-3.7,2.9-7.6,3.8-11.6c0.2-0.9,0.4-1.8,0.5-2.6s0.3-1.7,0.4-2.4s0.2-1.5,0.3-2.3c0.1-0.4,0.1-0.7,0.1-1.1c0-0.3,0.1-0.7,0.1-1
	c0-0.7,0.1-1.3,0.1-1.9s0-1.1,0-1.7c0-0.5,0-1,0-1.4s0-0.8,0-1.2c-0.1-1.4-0.1-2.2-0.1-2.2l0.8-0.1c0,0,0,0.8,0.1,2.2
	c0,0.3,0,0.7,0,1.2s0,0.9,0,1.4s0,1.1,0,1.7s-0.1,1.2-0.1,1.9c0,0.3-0.1,0.7-0.1,1s-0.1,0.7-0.1,1.1c-0.1,0.7-0.2,1.5-0.3,2.3
	c-0.1,0.8-0.3,1.6-0.4,2.5c-0.1,0.8-0.3,1.7-0.5,2.6c-0.9,4.1-2.2,8-3.9,11.8c-3.1,6.9-7.4,13.2-12.7,18.5c-0.9,1-2,1.9-3,2.8
	c-0.5,0.4-1.1,0.9-1.6,1.3l-0.8,0.7l-0.8,0.6c-4.6,3.5-9.6,6.3-15,8.4c-5.5,2.1-11.4,3.4-17.3,3.8c-11.7,0.8-23.4-2-33.6-7.9
	l-0.9-0.5l-0.9-0.6c-0.6-0.3-1.2-0.7-1.8-1.1c-1.1-0.8-2.3-1.6-3.3-2.4c-2.1-1.6-4.1-3.4-5.9-5.3c-3.4-3.5-6.4-7.3-8.9-11.5
	c-2.1-3.6-3.9-7.3-5.3-11.2c-0.3-0.9-0.6-1.7-0.9-2.5c-0.3-0.8-0.5-1.6-0.7-2.4s-0.4-1.5-0.5-2.2c-0.1-0.4-0.2-0.7-0.2-1.1
	c-0.1-0.3-0.1-0.7-0.2-1c-0.1-0.6-0.2-1.3-0.3-1.9s-0.2-1.2-0.2-1.7c-0.1-0.5-0.1-1-0.2-1.4s-0.1-0.8-0.1-1.2
	c-0.1-1.4-0.2-2.2-0.2-2.2L32.4,96.2z M147.8,94.7c0,0,0.8,0.5,1.7,0.9c0.8,0.5,1.7,1,1.7,1s0-0.5,0.1-1.3c0-0.2,0-0.4,0.1-0.6
	c0-0.2,0-0.5,0-0.7c0-0.5,0-1,0-1.5c0-1,0-2-0.1-2.8s-0.1-1.3-0.1-1.3s-0.8,0.5-1.7,1c-0.8,0.5-1.7,0.9-1.7,0.9s0,0.3,0,0.7
	s0,0.9,0,1.5s0,1.1,0,1.5C147.8,94.4,147.8,94.7,147.8,94.7 M145.3,109.4c0,0,0.7,0.7,1.4,1.3s1.4,1.4,1.4,1.4s0.2-0.5,0.4-1.2
	c0.1-0.4,0.3-0.8,0.4-1.2c0.1-0.5,0.3-0.9,0.4-1.4s0.3-1,0.4-1.4c0.1-0.5,0.2-0.9,0.3-1.3c0.2-0.7,0.3-1.2,0.3-1.2s-0.9,0.3-1.9,0.5
	l-1.9,0.4c0,0-0.1,0.3-0.1,0.7c-0.1,0.4-0.2,0.9-0.4,1.4c-0.1,0.5-0.3,1-0.4,1.4S145.3,109.4,145.3,109.4 M139.2,122.9
	c0,0,0.5,0.8,1,1.7s0.9,1.7,0.9,1.7c0.1-0.1,0.1-0.2,0.2-0.3c0.1-0.2,0.3-0.4,0.5-0.8c0.4-0.7,0.9-1.5,1.4-2.4s1-1.8,1.3-2.4
	s0.6-1.1,0.6-1.1h-1.9c-0.9,0-1.9-0.1-1.9-0.1l-1,1.8c-0.3,0.5-0.5,0.9-0.7,1.3S139.2,122.9,139.2,122.9 M129.9,134.4
	c0,0,0.3,0.9,0.6,1.9c0.3,0.9,0.5,1.9,0.5,1.9s0.4-0.3,0.9-0.8c0.6-0.5,1.3-1.2,2-1.9c0.7-0.7,1.4-1.4,1.9-2
	c0.3-0.3,0.5-0.5,0.6-0.7s0.2-0.3,0.2-0.3s-0.2-0.1-0.6-0.2s-0.8-0.2-1.3-0.4c-0.9-0.3-1.8-0.6-1.8-0.6s-0.2,0.2-0.4,0.5
	c-0.3,0.3-0.6,0.7-1,1l-1,1C130.1,134.2,129.9,134.4,129.9,134.4 M118.1,143c0,0,0,1,0.1,2c0,1,0,2,0,2s0.1-0.1,0.3-0.2
	c0.2-0.1,0.5-0.2,0.8-0.4s0.7-0.4,1.1-0.6s0.9-0.4,1.3-0.7c0.8-0.5,1.7-1,2.3-1.4s1-0.7,1-0.7s-0.8-0.5-1.7-1s-1.6-1-1.6-1l-1.8,1.1
	c-0.4,0.3-0.9,0.5-1.2,0.7L118.1,143 M62.4,140.9c0,0-0.8,0.5-1.7,1.1c-0.4,0.3-0.8,0.5-1.1,0.7s-0.5,0.3-0.5,0.3
	c0.1,0.1,0.2,0.2,0.3,0.2c0.2,0.1,0.4,0.3,0.8,0.5c0.6,0.4,1.4,0.9,2.3,1.4s1.7,1,2.4,1.3c0.7,0.3,1.1,0.6,1.1,0.6s0-1,0-2
	c0-0.5,0-1,0-1.3c0-0.4,0-0.6,0-0.6s-0.9-0.5-1.8-1c-0.4-0.2-0.8-0.5-1.2-0.8C62.6,141,62.4,140.9,62.4,140.9 M51.2,131.4
	c0,0-0.9,0.3-1.8,0.6s-1.9,0.5-1.9,0.5s0.3,0.4,0.8,0.9c0.5,0.6,1.2,1.3,1.9,2c0.7,0.7,1.4,1.4,2,1.9c0.3,0.3,0.5,0.5,0.7,0.6
	c0.1,0.1,0.2,0.1,0.3,0.2c0,0,0.1-0.2,0.1-0.6c0.1-0.4,0.2-0.8,0.4-1.3c0.3-1,0.6-1.9,0.6-1.9l-0.5-0.4c-0.1-0.2-0.3-0.3-0.5-0.5
	s-0.4-0.4-0.5-0.6c-0.4-0.4-0.7-0.8-1-1c-0.1-0.2-0.3-0.3-0.3-0.3L51.2,131.4 M42.8,119.3c0,0-1,0-1.9,0.1c-0.5,0-1,0-1.3,0
	c-0.4,0-0.6,0-0.6,0c0,0.1,0.1,0.2,0.1,0.3c0.1,0.2,0.3,0.5,0.4,0.8c0.3,0.7,0.8,1.6,1.3,2.4s1,1.8,1.4,2.4c0.4,0.7,0.7,1.1,0.7,1.1
	s0.5-0.9,1-1.7s1-1.7,1-1.7s0-0.1-0.1-0.2s-0.1-0.2-0.2-0.4c-0.2-0.3-0.4-0.8-0.7-1.3c-0.1-0.2-0.3-0.5-0.4-0.7
	c-0.1-0.2-0.2-0.4-0.3-0.6C42.9,119.5,42.8,119.2,42.8,119.3 M37.7,105.3c0,0-0.2-0.1-0.6-0.2c-0.4-0.1-0.8-0.2-1.3-0.3
	c-0.9-0.2-1.9-0.5-1.9-0.5s0.1,0.5,0.2,1.3c0.2,0.7,0.4,1.7,0.7,2.7s0.6,1.9,0.8,2.7c0.1,0.4,0.2,0.7,0.3,0.9c0,0.1,0.1,0.2,0.1,0.3
	c0,0,0.7-0.7,1.4-1.4c0.7-0.7,1.4-1.4,1.4-1.4s-0.3-1-0.6-2.1C37.9,106.3,37.7,105.3,37.7,105.3"/>
</svg>
