<svg id="组_44" data-name="组 44" xmlns="http://www.w3.org/2000/svg" width="209.219" height="72.844" viewBox="0 0 209.219 72.844">
  <defs>
    <style>
      .cls-1 {
        fill: #343434;
        fill-rule: evenodd;
      }
    </style>
  </defs>
  <path id="形状_561" data-name="形状 561" class="cls-1" d="M630.088,480.629H532.4l-7.467-5.7H481.447l-6,5.7H449.2L435,466.42V422.141L449.131,408h69.757l9.426,7.2h48.7l8.63-7.2h44.448l14.131,14.141v44.348Zm-97.489-.6h97.24l13.78-13.789V422.389L629.839,408.6H585.857l-8.63,7.2H528.112l-9.426-7.2H449.379L435.6,422.389v43.782l13.849,13.858H475.21l6-5.7h43.924Zm95.006-5.4H534.421l-7.468-5.7h-47.9l-6,5.7H451.682l-10.689-10.7V424.625L451.613,414h65.25l9.426,7.2H579.18l8.63-7.2h39.8l10.62,10.627V464Zm-92.982-.6h92.734l10.269-10.276V424.873L627.357,414.6h-39.33l-8.63,7.2h-53.31l-9.426-7.2h-64.8l-10.268,10.276v38.814l10.337,10.345h20.888l6-5.7h48.339Zm40.83-60.272h-3.968l6.3-5.46h3.968Zm-6.427,0h-3.968l6.3-5.46h3.969Zm-6.427,0h-3.968l6.3-5.46H568.9Zm-6.427,0H529.73l-6.889-5.46h39.628ZM443.657,425.9v14.263l-2.392,4.258V424.73Zm162.82-9.074H592.223l-4.255-2.393h20.876Zm6.443,55H558.811l-3.956,2.394h59.833Zm-128.713,4.4h3.358l-5.328,4.619H478.88Zm5.438,0H493l-5.327,4.619h-3.357Zm5.437,0h3.358l-5.328,4.619h-3.357Zm5.438,0h22.372l5.828,4.619H495.193Z" transform="translate(-435 -408)"/>
</svg>
