<svg id="组_44" data-name="组 44" xmlns="http://www.w3.org/2000/svg" xmlns:xlink="http://www.w3.org/1999/xlink" width="38.156" height="44.813" viewBox="0 0 38.156 44.813">
  <defs>
    <style>
      .cls-1 {
        fill: #fff;
      }

      .cls-1, .cls-2 {
        fill-rule: evenodd;
      }

      .cls-2 {
        fill: url(#linear-gradient);
      }
    </style>
    <linearGradient id="linear-gradient" x1="889" y1="790.032" x2="927.156" y2="790.032" gradientUnits="userSpaceOnUse">
      <stop offset="0" stop-color="#53cbed"/>
      <stop offset="1" stop-color="#c14fc4"/>
    </linearGradient>
  </defs>
  <path id="形状_566" data-name="形状 566" class="cls-1" d="M902.1,768.784h14.842l8.731,9.6v23.573l-1.746.873-7.858.873-0.873,5.238-0.873,2.619h-22.7l-0.873-2.619-0.873-26.192,1.746-5.239,2.619-1.746h6.112l0.873-4.365Z" transform="translate(-889 -767.625)"/>
  <path id="形状_565" data-name="形状 565" class="cls-2" d="M899.016,774.927h-5.7A4.316,4.316,0,0,0,889,779.238v29.108a4.376,4.376,0,0,0,4.316,4.092h19.513a4.308,4.308,0,0,0,4.318-4.306v-3.009h5.695a4.308,4.308,0,0,0,4.326-4.3V779.214l-0.034-.117a4.357,4.357,0,0,0-1.187-2.21l-8.045-8.028a4.351,4.351,0,0,0-2.345-1.2l-0.035.018-0.063-.064H903.332a4.317,4.317,0,0,0-4.316,4.313v3Zm15.277,30.2v3.009h0a1.483,1.483,0,0,1-1.464,1.463H893.316a1.47,1.47,0,0,1-1.462-1.463V779.238a1.46,1.46,0,0,1,1.462-1.451h5.7v23.247a4.375,4.375,0,0,0,4.316,4.089h10.961Zm2.45-33.387h0l6.236,6.221h-4.747a1.5,1.5,0,0,1-1.489-1.506v-4.715Zm7.561,29.085h0a1.481,1.481,0,0,1-1.462,1.461h-19.51a1.469,1.469,0,0,1-1.454-1.461v-28.9a1.461,1.461,0,0,1,1.454-1.461h10.549v5.988a4.359,4.359,0,0,0,4.351,4.365H924.3v20Z" transform="translate(-889 -767.625)"/>
</svg>
