<svg xmlns="http://www.w3.org/2000/svg" width="35.28" height="24.71" viewBox="0 0 35.28 24.71">
  <defs>
    <style>
      .cls-1 {
        fill: #0eb5bc;
        fill-rule: evenodd;
      }
    </style>
  </defs>
  <path id="形状_9_拷贝" data-name="形状 9 拷贝" class="cls-1" d="M1621.07,2439.61h-26.92a4.18,4.18,0,0,1-4.18-4.16v-16.41a4.174,4.174,0,0,1,4.18-4.16h26.92a4.168,4.168,0,0,1,4.18,4.16v16.41A4.174,4.174,0,0,1,1621.07,2439.61Zm-26.92-23.23a2.667,2.667,0,0,0-2.67,2.66v16.41a2.665,2.665,0,0,0,2.67,2.65h26.92a2.665,2.665,0,0,0,2.67-2.65v-16.41a2.667,2.667,0,0,0-2.67-2.66h-26.92Zm0.84,19.06a0.758,0.758,0,0,1-.54-0.23,0.746,0.746,0,0,1,.01-1.06l9.3-9.07,5.38,5.24,10.07-9.62a0.75,0.75,0,1,1,1.04,1.08l-11.12,10.63-5.37-5.23-8.24,8.04A0.742,0.742,0,0,1,1594.99,2435.44Zm25.01-13.82h-7.65a0.758,0.758,0,0,1-.75-0.76h0a0.755,0.755,0,0,1,.75-0.75H1620a0.755,0.755,0,0,1,.75.75h0A0.758,0.758,0,0,1,1620,2421.62Zm0.75-.76v7.63a0.755,0.755,0,0,1-.75.75h0a0.758,0.758,0,0,1-.76-0.75v-7.63a0.758,0.758,0,0,1,.76-0.75h0A0.755,0.755,0,0,1,1620.75,2420.86Z" transform="translate(-1589.97 -2414.88)"/>
</svg>
