<svg id="组_70" data-name="组 70" xmlns="http://www.w3.org/2000/svg" width="627.88" height="861.75" viewBox="0 0 627.88 861.75">
  <defs>
    <style>
      .cls-1, .cls-2 {
        fill: #fff;
      }

      .cls-1, .cls-2, .cls-3 {
        fill-rule: evenodd;
      }

      .cls-1 {
        opacity: 0.5;
      }

      .cls-2 {
        opacity: 0.8;
      }

      .cls-3 {
        fill: #119b9b;
      }

      .cls-4 {
        font-size: 33.333px;
        fill: #009393;
        font-family: "PingFang SC";
        font-weight: 700;
        text-transform: uppercase;
      }
    </style>
  </defs>
  <path id="矩形_12_拷贝_3" data-name="矩形 12 拷贝 3" class="cls-1" d="M1773.43,2146.18H1576.62l-12.99,38.71H1146.34l-0.01,822.24h137.04l12.39-16.26,361.55-1.55,13.18,17.81h102.94V2146.18h0Z" transform="translate(-1146.34 -2146.16)"/>
  <path id="矩形_12_拷贝_7" data-name="矩形 12 拷贝 7" class="cls-2" d="M1757.18,2201.15H1161.04v788.17h596.14V2201.15h0Z" transform="translate(-1146.34 -2146.16)"/>
  <path id="形状_6_拷贝_3" data-name="形状 6 拷贝 3" class="cls-3" d="M1774.22,2146.17H1575.57c-4.43,12.62-8.61,25.32-12.97,37.96q-208.125.06-416.27,0.02v823.76h137.24c4.54-5.6,8.83-11.39,13.31-17.02,91.15-.39,182.31-0.26,273.46-0.42,28.95-.06,57.91.08,86.85-0.31,4.54,5.68,8.53,11.85,12.81,17.75h104.22V2146.17Zm-2.08,1.55c0.17,11.89.39,23.78,0.53,35.67v822.96q-50.85.03-101.69,0.01c-4.34-5.93-8.56-11.96-12.91-17.88-16.06.1-32.11,0.32-48.17,0.28q-108.15.06-216.28,0.19c-32.55.18-65.09-.17-97.61,0.36-4.38,5.69-8.83,11.33-13.2,17.02q-67.47.075-134.93,0.03c0-231.48,0-589.16.01-820.63q177.12,0.105,354.24.03c20.6-.08,41.2.16,61.79-0.12,4.14-12.66,8.54-25.23,12.75-37.87C1641.83,2147.65,1706.99,2147.75,1772.14,2147.72Zm-611.83,52.72q198.78-.06,397.56-0.03a4.571,4.571,0,0,0,.03,1.11l0.03,0.51c-0.01.05-.03,0.1-0.04,0.15-0.04-.06-0.07-0.11-0.11-0.17q-197.925-.105-395.85-0.02c0,220.62.03,567.44-.02,788.05,37.97,0.09,75.94.03,113.91,0.03,1.18-.17,1.68.33,1.49,1.49-38.99.16-77.99,0.03-116.99,0.07C1160.32,2769.96,1160.34,2422.1,1160.31,2200.44Zm599.16-.02q-65.505,0-131.01-.01c-0.83-.15-2.97,0-2.07,1.35,1.41,0.46,2.95.14,4.41,0.22q63.54,0,127.09.02c-0.04,220.62-.03,567.44,0,788.06-27.21.08-54.41-.04-81.61,0.05-0.02.37-.05,1.13-0.07,1.5q41.64,0.075,83.28.01C1759.47,2769.96,1759.49,2422.09,1759.47,2200.42Zm-201.78.85a2.835,2.835,0,1,0,2.84-2.84A2.836,2.836,0,0,0,1557.69,2201.27Z" transform="translate(-1146.34 -2146.16)"/>
  <text id="子幣" class="cls-4" transform="translate(554.934 39.327) scale(0.774 0.774)">子幣</text>
</svg>
