<svg xmlns="http://www.w3.org/2000/svg" width="35" height="25" viewBox="0 0 35 25">
  <defs>
    <style>
      .cls-1 {
        fill: #0eb5bc;
        fill-rule: evenodd;
      }
    </style>
  </defs>
  <path id="形状_9_拷贝" data-name="形状 9 拷贝" class="cls-1" d="M1620.86,2414.99h-26.71a4.17,4.17,0,0,0-4.14,4.21v16.59a4.176,4.176,0,0,0,4.14,4.21h26.71a4.183,4.183,0,0,0,4.14-4.21V2419.2A4.176,4.176,0,0,0,1620.86,2414.99Zm-26.71,23.49a2.676,2.676,0,0,1-2.65-2.69V2419.2a2.67,2.67,0,0,1,2.65-2.69h26.71a2.668,2.668,0,0,1,2.64,2.69v16.59a2.674,2.674,0,0,1-2.64,2.69h-26.71Zm0.83-19.28a0.758,0.758,0,0,0-.54.23,0.779,0.779,0,0,0,.02,1.08l9.22,9.17,5.34-5.3,9.99,9.73a0.725,0.725,0,0,0,1.05-.02,0.77,0.77,0,0,0-.02-1.08l-11.03-10.74-5.33,5.28-8.18-8.13A0.744,0.744,0,0,0,1594.98,2419.2Zm24.81,13.98h-7.59a0.758,0.758,0,0,0-.75.76h0a0.758,0.758,0,0,0,.75.76h7.59a0.758,0.758,0,0,0,.75-0.76h0A0.758,0.758,0,0,0,1619.79,2433.18Zm0.75,0.76v-7.71a0.758,0.758,0,0,0-.75-0.76h0a0.758,0.758,0,0,0-.75.76v7.71a0.758,0.758,0,0,0,.75.76h0A0.758,0.758,0,0,0,1620.54,2433.94Z" transform="translate(-1590 -2415)"/>
</svg>
