<svg xmlns="http://www.w3.org/2000/svg" width="38.56" height="38.19" viewBox="0 0 38.56 38.19">
  <defs>
    <style>
      .cls-1 {
        fill: #0eb5bc;
        fill-rule: evenodd;
      }
    </style>
  </defs>
  <path id="形状_11_拷贝" data-name="形状 11 拷贝" class="cls-1" d="M1705.36,2837.91h-12.72a2.648,2.648,0,0,0-2.65,2.65v13.14a2.655,2.655,0,0,0,2.65,2.65h12.72a2.652,2.652,0,0,0,2.64-2.65v-13.14A2.646,2.646,0,0,0,1705.36,2837.91Zm0.69,15.79a0.707,0.707,0,0,1-.69.7h-12.72a0.709,0.709,0,0,1-.7-0.7v-13.14a0.709,0.709,0,0,1,.7-0.7h12.72a0.707,0.707,0,0,1,.69.7v13.14Zm-6.74-21.95v4.97h-1.95v-4.97a0.694,0.694,0,0,0-.7-0.69h-12.72a0.691,0.691,0,0,0-.69.69v13.15a0.694,0.694,0,0,0,.69.7h4.41v1.95h-4.41a2.646,2.646,0,0,1-2.64-2.65v-13.15a2.646,2.646,0,0,1,2.64-2.65h12.72A2.655,2.655,0,0,1,1699.31,2831.75Zm6.5,29.64h-23.29a7.654,7.654,0,0,1-7.65-7.64v-22.88a7.656,7.656,0,0,1,7.65-7.65h23.29a7.654,7.654,0,0,1,7.64,7.65v22.88A7.652,7.652,0,0,1,1705.81,2861.39Zm-23.29-36.36a5.838,5.838,0,0,0-5.83,5.84v22.88a5.836,5.836,0,0,0,5.83,5.83h23.29a5.843,5.843,0,0,0,5.83-5.83v-22.88a5.845,5.845,0,0,0-5.83-5.84h-23.29Z" transform="translate(-1674.88 -2823.22)"/>
</svg>
