<svg id="组_53" data-name="组 53" xmlns="http://www.w3.org/2000/svg" width="246.406" height="373.03" viewBox="0 0 246.406 373.03">
  <defs>
    <style>
      .cls-1 {
        fill: #fff;
        opacity: 0.5;
      }

      .cls-1, .cls-2 {
        fill-rule: evenodd;
      }

      .cls-2 {
        fill: #c03bc7;
      }

      .cls-3 {
        font-size: 26.489px;
        fill: #bf51c5;
        font-family: "PingFang SC";
        font-weight: 700;
      }
    </style>
  </defs>
  <path id="形状_16" data-name="形状 16" class="cls-1" d="M109,1421h57l5,3H274l25,39-131,1-5-4H98l7-6,3-7,1-5-1-8-3-5-3-3Z" transform="translate(-58.25 -1410.59)"/>
  <path id="形状_12" data-name="形状 12" class="cls-2" d="M88.11,1470.34a29.87,29.87,0,1,1,21.362-50.74l-1.9,1.86a27.2,27.2,0,1,0,.887,37.08l1.986,1.76A29.9,29.9,0,0,1,88.11,1470.34Zm214.123-5.32H167.719l-4.983-4.27H97.177v-2.66h66.541l4.984,4.27H297.376l-23.54-36.76H170.081l-4.628-3.49H109.269l-5.242,4.67-1.766-1.98,6-5.34h58.083l4.628,3.48H275.29Zm-214.123-2.2a22.345,22.345,0,1,1,22.34-22.35A22.372,22.372,0,0,1,88.11,1462.82Zm0-42.04a19.69,19.69,0,1,0,19.683,19.69A19.713,19.713,0,0,0,88.11,1420.78Zm0,33.87a14.1,14.1,0,1,1,10.011-4.17A14,14,0,0,1,88.11,1454.65Zm0-25.55a11.447,11.447,0,1,0,8.058,3.32A11.372,11.372,0,0,0,88.11,1429.1Zm1.328,29.44H86.781v-5.22h2.656v5.22Zm0-30.77H86.781v-5.36h2.656v5.36Zm-14.1,14.03h-5.29v-2.66h5.29v2.66Zm30.833,0h-5.29v-2.66h5.29v2.66Zm-29.894,12.39-1.879-1.88,3.7-3.71,1.879,1.88Zm21.765-21.77-1.879-1.88,3.779-3.78,1.879,1.88Zm1.9,21.77-3.7-3.71,1.879-1.88,3.7,3.71Zm-21.764-21.77-3.779-3.78,1.879-1.88,3.779,3.78Zm200.685,308.9-2.41-1.11,25.011-54.05-13.306-12.82v-53l13.581,13.09V1473.18H304.4v166.49l-13.581-13.08v45.62l13.855,13.34Zm25.125-92.55-10.273-9.89v-3.68l10.273,9.88v3.69Zm0,9.71-10.273-9.89v-3.68l10.273,9.88v3.69Zm0,9.71-10.273-9.89v-3.69l10.273,9.89v3.69Zm0,9.7-10.273-9.88v-3.69l10.273,9.89v3.68Zm-6.014-172.28h-4.9v-32.43h4.9v32.43Zm0,7.76h-4.9v-5.74h4.9v5.74Zm0,6.96h-4.9v-5.75h4.9v5.75Zm0,6.96h-4.9v-5.75h4.9v5.75Zm0,6.96h-4.9v-5.75h4.9v5.75Zm0,6.96h-4.9v-5.75h4.9v5.75Zm0,25.07h-4.9v-14.72h4.9v14.72Zm0,16.94h-4.9V1568.5h4.9v14.72Zm0,16.94h-4.9v-14.72h4.9v14.72Zm0,16.94h-4.9v-14.72h4.9v14.72ZM74.861,1658.25h-4.9v-14.16h4.9v14.16Zm0,20.08h-4.9v-14.16h4.9v14.16Zm0,20.08h-4.9v-14.16h4.9v14.16Zm0,28-4.9-10.85v-11.23h4.9v22.08Zm-1.124-90.8H71.081V1496.88l16.867-16.57H286.972v2.66H89.034L73.737,1498v137.61Zm1.124,2.49h-4.9v-73.48h4.9v73.48Zm197.062-137.59h11.47m-11.47,5.82h11.47m-11.47,5.81h11.47m-11.47,5.81h11.47m-11.47,5.82h11.47m-11.47,5.81h11.47m-11.47,5.81h11.47m-11.47,5.82h11.47m-4.818,200.81H193.92l-6.9-7.09h-21.19l-5.856,7.09h-86.5l-12.5-25.78V1493.61l20.57-20.3,9.629-.02a42.863,42.863,0,0,0,11.139-2.18,28.652,28.652,0,0,0,8.034-4.94l0.38-.35,50.5-.03,8.017,7.47,116.4-.07v-0.01h17.423l0,2.66-14.768.01v80.52l-9.725,11.41v174.24Zm-83.533-2.65h80.877V1566.8l9.724-11.41v-79.54l-117.444.07-8.017-7.47-48.44.02a30.9,30.9,0,0,1-8.489,5.13,45.367,45.367,0,0,1-11.975,2.35H91.214l-8.578.02L63.63,1494.72v220.91l11.506,23.74h83.59l5.856-7.1h23.563Zm-42.428,43.93H91.882l-15.266-34.88H78.1l14.672,33.52h56.567l-3.778-3.78H100.321v-1.36h45.8Zm0.754,0.31H91.678l-0.082-.19-15.458-35.31H78.3l0.082,0.18,14.59,33.34h55.609l-3.154-3.16h-45.42v-1.98H146.25Zm-61.281-.62H151.86l-5.868-5.87H100.633v0.73h45.055l4.4,4.4H92.566l-0.082-.18-14.59-33.34h-0.8Zm4.811-2.06a3.45,3.45,0,1,1,3.45-3.45A3.449,3.449,0,0,1,96.9,1780.93Zm0-5.76a2.31,2.31,0,1,0,2.309,2.31A2.314,2.314,0,0,0,96.9,1775.17Zm0,6.08a3.765,3.765,0,1,1,3.763-3.77A3.77,3.77,0,0,1,96.9,1781.25Zm0-6.91a3.14,3.14,0,1,0,3.138,3.14A3.144,3.144,0,0,0,96.9,1774.34Zm0,5.76a2.62,2.62,0,1,1,2.621-2.62A2.62,2.62,0,0,1,96.9,1780.1Zm0-4.61a2,2,0,1,0,2,1.99A1.994,1.994,0,0,0,96.9,1775.49Zm98.478,7.13H156l-4.931-5.14h39.372Zm0.733,0.31H155.871l-5.531-5.76h40.238Zm-39.972-.62h38.506l-4.331-4.52H151.806Zm104.2,0.99H199.6l6.494-6.5h45.8v1.36H206.659l-3.778,3.78h56.567l14.672-33.52H275.6Zm0.205,0.31H198.849l7.118-7.12h46.242v1.98H206.788l-3.153,3.16h55.609l14.671-33.52h2.164Zm-60.182-.62h59.773l14.993-34.26h-0.8l-14.672,33.52H202.127l4.4-4.4h45.054v-0.73H206.226Zm54.962-2.06a3.45,3.45,0,1,1,3.447-3.45A3.454,3.454,0,0,1,255.32,1780.93Zm0-5.75a2.305,2.305,0,1,0,2.306,2.3A2.3,2.3,0,0,0,255.32,1775.18Zm0,6.06a3.76,3.76,0,1,1,3.759-3.76A3.76,3.76,0,0,1,255.32,1781.24Zm0-6.89a3.135,3.135,0,1,0,3.135,3.13A3.133,3.133,0,0,0,255.32,1774.35Zm0,5.75a2.62,2.62,0,1,1,2.618-2.62A2.619,2.619,0,0,1,255.32,1780.1Zm0-4.61a2,2,0,1,0,1.994,1.99A1.992,1.992,0,0,0,255.32,1775.49ZM215.7,1755.86H164.925l-6.08-6.08H78.177l-0.5-1.36h81.731l6.08,6.08H215.7v1.36Zm0.312,0.31H164.8l-6.08-6.08H77.96l-0.731-1.98h82.308l6.08,6.08h50.4v1.98Zm-50.958-.62h50.333v-0.74H165.359l-6.081-6.08H78.125l0.27,0.73h80.58Zm0.152,0.31H80.41v-1.36h84.8v1.36Zm0.312,0.31H80.1v-1.98h85.421v1.98Zm-84.8-.62h84.172v-0.74H80.722v0.74Zm37.149-.95h-5.5l-2.752-5.5h5.5Zm0.505,0.32h-6.2l-3.065-6.13h6.2Zm-5.815-.63h4.8l-2.439-4.88h-4.805Zm14.223,0.31h-5.5l-2.752-5.5h5.5Zm0.506,0.32h-6.2l-3.064-6.13h6.2Zm-5.816-.63h4.8l-2.44-4.88h-4.8Zm14.223,0.31h-5.5l-2.752-5.5h5.5Zm0.506,0.32H130l-3.064-6.13h6.2Zm-5.816-.63h4.805l-2.439-4.88h-4.8Zm14.224,0.31h-5.5l-2.752-5.5h5.5Zm0.505,0.32h-6.2l-3.064-6.13h6.2Zm-5.816-.63h4.8l-2.439-4.88h-4.805Zm14.224,0.31h-5.5l-2.752-5.5h5.5Zm0.5,0.32h-6.2l-3.064-6.13h6.2Zm-5.816-.63h4.805l-2.439-4.88h-4.805Zm14.224,0.31h-5.5l-2.751-5.5h5.5Zm0.5,0.32h-6.2l-3.064-6.13h6.2Zm-5.816-.63h4.805l-2.439-4.88h-4.8Zm30.739,1.57H137.089v-1.36H187.3l6.08-6.08h81.089l-0.43,1.36h-80.1Zm0.129,0.31H136.777v-1.98h50.4l6.08-6.08H274.9l-0.627,1.98h-80.2Zm-50.592-.62h50.333l6.08-6.09h80l0.231-.73H193.512l-6.08,6.08H137.4v0.74Zm134.324,0.31H187.583v-1.36h84.143v1.36Zm0.313,0.31H187.271v-1.98h84.768v1.98Zm-84.143-.62h83.518v-0.74H187.9v0.74Zm47.023-.95h5.5l2.752-5.5h-5.5Zm5.7,0.32h-6.2l3.065-6.13h6.2Zm-5.191-.63h4.805l2.44-4.88h-4.805Zm-9.418.31h5.5l2.752-5.5h-5.5Zm5.7,0.32h-6.2l3.064-6.13h6.2Zm-5.191-.63h4.805l2.439-4.88h-4.8Zm-9.418.31h5.5l2.752-5.5h-5.5Zm5.7,0.32h-6.2l3.064-6.13h6.2Zm-5.191-.63h4.8l2.439-4.88h-4.805Zm-9.419.31h5.5l2.752-5.5h-5.5Zm5.7,0.32h-6.2l3.064-6.13h6.2Zm-5.191-.63h4.805l2.439-4.88h-4.805Zm-9.419.31h5.5l2.751-5.5h-5.5Zm5.7,0.32h-6.2l3.064-6.13h6.2Zm-5.191-.63h4.805l2.439-4.88h-4.8Zm-9.419.31h5.5l2.751-5.5h-5.5Zm5.7,0.32h-6.2l3.064-6.13h6.2Zm-5.191-.63h4.8l2.439-4.88H193.3ZM156.6,1782.62h39.372l4.931-5.14H161.534Zm39.5,0.31H155.87l5.531-5.76h40.238Zm-38.772-.62h38.506l4.331-4.52H161.667Zm-5.715-6.11a3.57,3.57,0,1,1,3.573-3.57A3.575,3.575,0,0,1,151.621,1776.2Zm0-6.54a2.97,2.97,0,1,0,2.968,2.97A2.971,2.971,0,0,0,151.621,1769.66Zm0,6.86a3.89,3.89,0,1,1,3.886-3.89A3.9,3.9,0,0,1,151.621,1776.52Zm0-6.55a2.66,2.66,0,1,0,2.656,2.66A2.666,2.666,0,0,0,151.621,1769.97Zm48.185,6.23a3.57,3.57,0,1,1,3.574-3.57A3.575,3.575,0,0,1,199.806,1776.2Zm0-6.54a2.97,2.97,0,1,0,2.969,2.97A2.971,2.971,0,0,0,199.806,1769.66Zm0,6.86a3.89,3.89,0,1,1,3.886-3.89A3.9,3.9,0,0,1,199.806,1776.52Zm0-6.55a2.66,2.66,0,1,0,2.656,2.66A2.666,2.666,0,0,0,199.806,1769.97ZM167,1739.12h19.055l5.519,5.63-5,4.89H167l-4.582-5.26Zm-12.522-264.71a3.7,3.7,0,1,1-3.7-3.7A3.7,3.7,0,0,1,154.482,1474.41Zm-13.408,0a3.7,3.7,0,1,1-3.7-3.7A3.7,3.7,0,0,1,141.074,1474.41Zm-13.437,0a3.7,3.7,0,1,1-3.7-3.7A3.7,3.7,0,0,1,127.637,1474.41Zm-37.008-36.96a3,3,0,0,0-2.107-.96,1.121,1.121,0,0,0-1.387,1.18c0,1.73,5.139,1.64,5.139,5.33a3.642,3.642,0,0,1-3.049,3.8v2.04h-2v-1.94a6.576,6.576,0,0,1-3.477-1.5l1.336-2.06a4.521,4.521,0,0,0,2.758,1.13c1.062,0,1.525-.41,1.525-1.25,0-1.87-5.122-1.92-5.122-5.41a3.525,3.525,0,0,1,2.981-3.69v-2.02h2v1.99a4.857,4.857,0,0,1,2.912,1.61Z" transform="translate(-58.25 -1410.59)"/>
  <text id="Investment_Authority" data-name="Investment Authority" class="cls-3" transform="translate(58.232 38.311) scale(0.629 0.629)">Investment Authority</text>
</svg>
