<svg xmlns="http://www.w3.org/2000/svg" width="246.531" height="373.16" viewBox="0 0 246.531 373.16">
  <defs>
    <style>
      .cls-1 {
        fill: #c03bc7;
        fill-rule: evenodd;
      }
    </style>
  </defs>
  <path id="形状_20" data-name="形状 20" class="cls-1" d="M275.374,1423.13H171.017l-4.631-3.49H109.349a29.888,29.888,0,1,0,.712,41.3H162.78l4.987,4.28H302.324Zm-187.25,44.75a27.22,27.22,0,0,1,0-54.44,26.953,26.953,0,0,1,18.725,7.47l-3.65,3.26a22.348,22.348,0,1,0-5.688,36.77h8.763A27.2,27.2,0,0,1,88.124,1467.88Zm19.693-27.22a19.69,19.69,0,1,1-19.693-19.69A19.722,19.722,0,0,1,107.817,1440.66Zm55.944,17.63h-61.9a22.33,22.33,0,0,0,3.188-32.21l4.243-3.78H165.5l4.625,3.48H273.917l23.55,36.78H168.749Zm-61.6-18.96a13.876,13.876,0,0,0-3.2-7.62l2.881-2.89-1.881-1.88-2.888,2.89a13.967,13.967,0,0,0-7.619-3.14v-4.1H86.8v4.1a13.986,13.986,0,0,0-7.625,3.14l-2.888-2.89-1.875,1.88,2.881,2.89a13.876,13.876,0,0,0-3.2,7.62H70.055v2.66H74.08a13.926,13.926,0,0,0,3.144,7.7l-2.812,2.81,1.875,1.88,2.806-2.81a13.965,13.965,0,0,0,7.706,3.22v3.95h2.656v-3.95a14.063,14.063,0,0,0,7.706-3.21l2.8,2.8,1.881-1.88-2.812-2.81a13.932,13.932,0,0,0,3.144-7.7h4.018v-2.66h-4.031Zm-5.906,9.47a11.448,11.448,0,1,1,3.319-8.06A11.359,11.359,0,0,1,96.255,1448.8Zm207.828,200.24-10.277-9.89v-3.69l10.277,9.89v3.69Zm0,9.71-10.277-9.89v-3.69l10.277,9.89v3.69Zm0,9.71-10.277-9.89v-3.69l10.277,9.89v3.69Zm0,9.71-10.277-9.89v-3.69l10.277,9.89v3.69Zm-6.016-170.33v5.75h-4.906v-5.75h4.906Zm0,6.96v5.75h-4.906v-5.75h4.906Zm0,6.97v5.74h-4.906v-5.74h4.906Zm0,6.96v5.74h-4.906v-5.74h4.906Zm0,6.96v5.74h-4.906v-5.74h4.906Zm0,30.83h-4.906V1551.8h4.906v14.72Zm0,16.94h-4.906v-14.72h4.906v14.72Zm0,16.95h-4.906v-14.73h4.906v14.73Zm0,16.94h-4.906v-14.72h4.906v14.72ZM74.872,1658.52H69.966v-14.16h4.906v14.16Zm0,20.08H69.966v-14.16h4.906v14.16Zm0,20.09H69.966v-14.16h4.906v14.16Zm0,28.02-4.906-10.86v-11.23h4.906v22.09ZM283.48,1501.17H272.006v-0.89H283.48v0.89Zm0,5.82H272.006v-0.89H283.48v0.89Zm0,5.81H272.006v-0.88H283.48v0.88Zm0,5.82H272.006v-0.89H283.48v0.89Zm0,5.81H272.006v-0.88H283.48v0.88Zm0,5.82H272.006v-0.89H283.48v0.89Zm0,5.81H272.006v-0.88H283.48v0.88Zm0,5.82H272.006v-0.89H283.48v0.89Zm7.425,130.6v-45.63l13.587,13.09V1473.38H285.73v0.01l-116.438.07-8.025-7.47-50.518.03-0.382.34a28.5,28.5,0,0,1-8.031,4.95,43.419,43.419,0,0,1-11.144,2.18l-9.638.02L60.98,1493.82v222.71l12.5,25.79h86.537l5.857-7.1h21.2l6.9,7.1h84.687l0.288-.7,25.818-55.79Zm-14.9-105.45v172.63H195.1l-6.9-7.09H164.624l-5.857,7.09H75.149l-11.513-23.74V1494.93l19.013-18.76,8.581-.02H91.3a45.159,45.159,0,0,0,11.975-2.36,30.79,30.79,0,0,0,8.493-5.12l48.457-.02,8.018,7.47,117.488-.07v4.46H87.961l-16.869,16.58v67.76H69.968v73.52h4.906v-73.52H73.749v-66.64l15.3-15.04H285.73v72.45Zm2.656,168.89V1568.01l9.725-11.41v-80.55h4.775v29.78h4.906v-29.79h3.769v157.64l-13.587-13.08v53.01l13.312,12.83Zm-85.356,12.49-6.081,6.08H165.661l-6.081-6.08H76.149l15.462,35.33,0.081,0.19h61.719l-7.125-7.13H100.542a3.765,3.765,0,1,0,0,1.99h44.925l3.157,3.15H92.992l-11.144-25.47H270.467l-11.143,25.47H203.692l3.157-3.15h44.925a3.755,3.755,0,1,0,0-1.99h-45.75l-7.119,7.13h61.712l15.544-35.52H193.305Zm-96.388,31.38a2,2,0,1,1,1.994-2A2,2,0,0,1,96.917,1779.79Zm-15.937-25.3-1.794-4.1h30.6l2.05,4.1H80.98Zm37.062,0-2.056-4.1H118.7l2.056,4.1h-2.713Zm8.913,0-2.05-4.1h2.712l2.05,4.1h-2.712Zm8.919,0-2.05-4.1h2.712l2.05,4.1h-2.712Zm8.918,0-2.056-4.1h2.713l2.056,4.1h-2.713Zm8.913,0-2.05-4.1h2.712l2.05,4.1h-2.712ZM255.4,1775.8a2,2,0,1,1-1.994,1.99A1.991,1.991,0,0,1,255.4,1775.8Zm-56.219-21.31h-2.713l2.057-4.1h2.706Zm8.919,0h-2.713l2.05-4.1h2.713Zm8.912,0H214.3l2.056-4.1h2.712Zm8.919,0h-2.713l2.05-4.1h2.713Zm8.919,0h-2.713l2.05-4.1H236.9Zm6.2,0,2.056-4.1H273.13l-1.794,4.1H241.049Zm-39.35,22.99-5.532,5.76H155.911l-5.531-5.76H201.7Zm-50.038-8.43a3.89,3.89,0,1,0,3.888,3.89A3.9,3.9,0,0,0,151.661,1769.05Zm0,6.55a2.66,2.66,0,1,1,2.656-2.66A2.662,2.662,0,0,1,151.661,1775.6Zm48.2-6.55a3.89,3.89,0,1,0,3.888,3.89A3.9,3.9,0,0,0,199.861,1769.05Zm0,6.55a2.66,2.66,0,1,1,2.656-2.66A2.667,2.667,0,0,1,199.861,1775.6Zm-32.812-36.18h19.062l5.521,5.63-5,4.89H167.049l-4.584-5.26Zm-12.525-264.8a3.7,3.7,0,1,1-3.7-3.7A3.694,3.694,0,0,1,154.524,1474.62Zm-13.413,0a3.7,3.7,0,1,1-3.7-3.7A3.693,3.693,0,0,1,141.111,1474.62Zm-13.444,0a3.7,3.7,0,1,1-3.7-3.7A3.693,3.693,0,0,1,127.667,1474.62Zm-35.375-31.43a3.654,3.654,0,0,1-3.05,3.81v2.03H87.236v-1.93a6.6,6.6,0,0,1-3.481-1.51l1.337-2.06a4.53,4.53,0,0,0,2.763,1.13c1.063,0,1.525-.41,1.525-1.25,0-1.86-5.125-1.91-5.125-5.42a3.521,3.521,0,0,1,2.981-3.68v-2.02h2.006v1.98a4.878,4.878,0,0,1,2.912,1.62l-1.506,1.75a3.018,3.018,0,0,0-2.113-.96,1.122,1.122,0,0,0-1.387,1.18C87.149,1439.59,92.292,1439.5,92.292,1443.19Z" transform="translate(-58.25 -1410.78)"/>
</svg>
