<svg xmlns="http://www.w3.org/2000/svg" width="31.32" height="27.75" viewBox="0 0 31.32 27.75">
  <defs>
    <style>
      .cls-1 {
        fill: #54c2e3;
        fill-rule: evenodd;
      }
    </style>
  </defs>
  <path id="形状_3" data-name="形状 3" class="cls-1" d="M1348.6,93.628a1.3,1.3,0,0,1-.78-0.258l-14.2-10.3a1.382,1.382,0,0,1-.53-0.842,1.4,1.4,0,0,1,.11-0.833l5.29-14.542a1.353,1.353,0,0,1,1.29-.983,1.327,1.327,0,0,1,1.27.991l3.43,8.313h8.5l3.42-8.478a1.3,1.3,0,0,1,1.21-.815,1.323,1.323,0,0,1,1.17.7l0.03,0.058,0.02,0.061,5.44,14.1a1.432,1.432,0,0,1,.1.49,1.282,1.282,0,0,1-.28.792l-0.1.116-14.6,11.161A1.275,1.275,0,0,1,1348.6,93.628Zm-12.9-12.04,12.88,9.35L1361.72,80.9l-4.13-10.7-2.98,7.387h-11.74l-3.04-7.344Z" transform="translate(-1333.06 -65.875)"/>
</svg>
