<svg id="组_51" data-name="组 51" xmlns="http://www.w3.org/2000/svg" xmlns:xlink="http://www.w3.org/1999/xlink" width="709.906" height="416.657" viewBox="0 0 709.906 416.657">
  <defs>
    <style>
      .cls-1 {
        fill: #fff;
      }

      .cls-1, .cls-2, .cls-4, .cls-5 {
        fill-rule: evenodd;
      }

      .cls-2, .cls-5 {
        fill: none;
      }

      .cls-2 {
        stroke-width: 7.742px;
        stroke: url(#linear-gradient);
      }

      .cls-3 {
        font-size: 44.295px;
        text-anchor: middle;
        font-family: "PingFang SC";
        font-weight: 700;
      }

      .cls-3, .cls-4 {
        fill: red;
      }

      .cls-5 {
        stroke: red;
        stroke-width: 3.097px;
      }
    </style>
    <linearGradient id="linear-gradient" x1="74.156" y1="771.359" x2="776.281" y2="771.359" gradientUnits="userSpaceOnUse">
      <stop offset="0" stop-color="#53cbed"/>
      <stop offset="1" stop-color="#c14fc4"/>
    </linearGradient>
  </defs>
  <path id="矩形_29_拷贝_4" data-name="矩形 29 拷贝 4" class="cls-1" d="M74.548,566.783H356.3l17.009,45.671H775.968V930.246l-174.277-1.131-34.268,46.446H291.344l-32.82-45.671H74.548V566.783Z" transform="translate(-70.25 -563.031)"/>
  <path id="矩形_29" data-name="矩形 29" class="cls-2" d="M74.142,567.482l281.752-.561,17.1,45.637,402.658-.8h0l0.63,316.66,0,1.132-174.278-.785-34.176,46.513-276.078.55L258.84,930.221l-183.975.366L74.233,613.152Z" transform="translate(-70.25 -563.031)"/>
  <text id="未驗證成功" class="cls-3" transform="translate(168.429 48.892) scale(0.774 0.774)">未驗證成功</text>
  <path id="圆角矩形_2" data-name="圆角矩形 2" class="cls-4" d="M115.434,590.626a1.517,1.517,0,0,1,2.146,0l15.881,15.879a1.517,1.517,0,1,1-2.146,2.146l-15.881-15.879A1.517,1.517,0,0,1,115.434,590.626Z" transform="translate(-70.25 -563.031)"/>
  <path id="圆角矩形_2_拷贝" data-name="圆角矩形 2 拷贝" class="cls-4" d="M133.461,590.626a1.517,1.517,0,0,1,0,2.146L117.58,608.651a1.519,1.519,0,0,1-2.146,0h0a1.517,1.517,0,0,1,0-2.146l15.881-15.879A1.517,1.517,0,0,1,133.461,590.626Z" transform="translate(-70.25 -563.031)"/>
  <path id="椭圆_3" data-name="椭圆 3" class="cls-5" d="M124.1,582.864a16.074,16.074,0,1,1-16.077,16.074A16.074,16.074,0,0,1,124.1,582.864Z" transform="translate(-70.25 -563.031)"/>
</svg>
