<svg xmlns="http://www.w3.org/2000/svg" width="35" height="25" viewBox="0 0 35 25">
  <defs>
    <style>
      .cls-1 {
        fill: #da4aef;
        fill-rule: evenodd;
      }
    </style>
  </defs>
  <path id="形状_9" data-name="形状 9" class="cls-1" d="M897.857,2415.99H871.145a4.175,4.175,0,0,0-4.14,4.21v16.59a4.182,4.182,0,0,0,4.14,4.21h26.712a4.18,4.18,0,0,0,4.14-4.21V2420.2A4.174,4.174,0,0,0,897.857,2415.99Zm-26.712,23.49a2.672,2.672,0,0,1-2.643-2.69V2420.2a2.666,2.666,0,0,1,2.643-2.69h26.712a2.666,2.666,0,0,1,2.644,2.69v16.59a2.672,2.672,0,0,1-2.644,2.69H871.145Zm0.834-19.28a0.752,0.752,0,0,0-.535.23,0.776,0.776,0,0,0,.012,1.08l9.224,9.17,5.339-5.3,9.988,9.73a0.735,0.735,0,0,0,1.058-.02,0.777,0.777,0,0,0-.023-1.08l-11.033-10.74-5.328,5.28-8.178-8.13A0.766,0.766,0,0,0,871.979,2420.2Zm24.81,13.98H889.2a0.755,0.755,0,0,0-.749.76h0a0.755,0.755,0,0,0,.749.76h7.586a0.755,0.755,0,0,0,.748-0.76h0A0.755,0.755,0,0,0,896.789,2434.18Zm0.748,0.76v-7.71a0.755,0.755,0,0,0-.748-0.76h0a0.755,0.755,0,0,0-.749.76v7.71a0.755,0.755,0,0,0,.749.76h0A0.755,0.755,0,0,0,897.537,2434.94Z" transform="translate(-867 -2416)"/>
</svg>
