<svg xmlns="http://www.w3.org/2000/svg" width="38.563" height="38.19" viewBox="0 0 38.563 38.19">
  <defs>
    <style>
      .cls-1 {
        fill: #dd51e2;
        fill-rule: evenodd;
      }
    </style>
  </defs>
  <path id="形状_11" data-name="形状 11" class="cls-1" d="M983.355,2837.91H970.638a2.646,2.646,0,0,0-2.648,2.65v13.14a2.652,2.652,0,0,0,2.648,2.65h12.717A2.653,2.653,0,0,0,986,2853.7v-13.14A2.647,2.647,0,0,0,983.355,2837.91Zm0.7,15.79a0.707,0.707,0,0,1-.7.7H970.638a0.707,0.707,0,0,1-.7-0.7v-13.14a0.707,0.707,0,0,1,.7-0.7h12.717a0.707,0.707,0,0,1,.7.7v13.14Zm-6.743-21.95v4.97h-1.951v-4.97a0.694,0.694,0,0,0-.7-0.69H961.944a0.7,0.7,0,0,0-.7.69v13.15a0.7,0.7,0,0,0,.7.7h4.408v1.95h-4.408a2.653,2.653,0,0,1-2.648-2.65v-13.15a2.653,2.653,0,0,1,2.648-2.65h12.717A2.652,2.652,0,0,1,977.309,2831.75Zm6.5,29.64H960.518a7.652,7.652,0,0,1-7.643-7.64v-22.88a7.654,7.654,0,0,1,7.643-7.65h23.287a7.654,7.654,0,0,1,7.644,7.65v22.88A7.652,7.652,0,0,1,983.805,2861.39Zm-23.287-36.36a5.842,5.842,0,0,0-5.831,5.84v22.88a5.84,5.84,0,0,0,5.831,5.83h23.287a5.84,5.84,0,0,0,5.832-5.83v-22.88a5.843,5.843,0,0,0-5.832-5.84H960.518Z" transform="translate(-952.875 -2823.22)"/>
</svg>
