<svg xmlns="http://www.w3.org/2000/svg" width="35.281" height="24.71" viewBox="0 0 35.281 24.71">
  <defs>
    <style>
      .cls-1 {
        fill: #da4aef;
        fill-rule: evenodd;
      }
    </style>
  </defs>
  <path id="形状_9" data-name="形状 9" class="cls-1" d="M898.074,2440.61H871.147a4.174,4.174,0,0,1-4.173-4.16v-16.41a4.167,4.167,0,0,1,4.173-4.16h26.927a4.167,4.167,0,0,1,4.173,4.16v16.41A4.173,4.173,0,0,1,898.074,2440.61Zm-26.927-23.23a2.663,2.663,0,0,0-2.664,2.66v16.41a2.661,2.661,0,0,0,2.664,2.65h26.927a2.661,2.661,0,0,0,2.664-2.65v-16.41a2.663,2.663,0,0,0-2.664-2.66H871.147Zm0.841,19.06a0.759,0.759,0,0,1-.539-0.23,0.746,0.746,0,0,1,.012-1.06l9.3-9.07,5.381,5.24,10.068-9.62a0.751,0.751,0,1,1,1.044,1.08l-11.122,10.63-5.37-5.23-8.244,8.04A0.732,0.732,0,0,1,871.988,2436.44ZM897,2422.62H889.35a0.758,0.758,0,0,1-.754-0.76h0a0.756,0.756,0,0,1,.754-0.75H897a0.756,0.756,0,0,1,.754.75h0A0.758,0.758,0,0,1,897,2422.62Zm0.754-.76v7.63a0.756,0.756,0,0,1-.754.75h0a0.757,0.757,0,0,1-.755-0.75v-7.63a0.757,0.757,0,0,1,.755-0.75h0A0.756,0.756,0,0,1,897.751,2421.86Z" transform="translate(-866.969 -2415.88)"/>
</svg>
