<svg id="组_69" data-name="组 69" xmlns="http://www.w3.org/2000/svg" xmlns:xlink="http://www.w3.org/1999/xlink" width="627.91" height="861.75" viewBox="0 0 627.91 861.75">
  <defs>
    <style>
      .cls-1, .cls-2 {
        fill: #fff;
      }

      .cls-1, .cls-2, .cls-3 {
        fill-rule: evenodd;
      }

      .cls-1 {
        opacity: 0.5;
      }

      .cls-2 {
        opacity: 0.8;
      }

      .cls-3 {
        fill: #d459d8;
      }

      .cls-4 {
        font-size: 33.333px;
        fill: #bd4dc1;
        font-family: "PingFang SC";
        font-weight: 700;
        text-transform: uppercase;
      }
    </style>
    <filter id="filter" x="449" y="2164" width="52" height="25" filterUnits="userSpaceOnUse">
      <feFlood result="flood" flood-color="#d773da"/>
      <feComposite result="composite" operator="in" in2="SourceGraphic"/>
      <feBlend result="blend" in2="SourceGraphic"/>
    </filter>
  </defs>
  <path id="矩形_12_拷贝_2" data-name="矩形 12 拷贝 2" class="cls-1" d="M433.548,2146.18H630.359l13,38.71h417.3v822.24H923.613l-12.387-16.26-361.549-1.55-13.18,17.81H433.548V2146.18h0Z" transform="translate(-432.75 -2146.16)"/>
  <path id="矩形_12_拷贝_6" data-name="矩形 12 拷贝 6" class="cls-2" d="M449.806,2201.15H1045.94v788.17H449.806V2201.15h0Z" transform="translate(-432.75 -2146.16)"/>
  <path id="形状_6_拷贝_2" data-name="形状 6 拷贝 2" class="cls-3" d="M432.765,2146.17H631.418c4.426,12.62,8.605,25.32,12.961,37.96q208.134,0.06,416.271.02v823.76H923.41c-4.534-5.6-8.829-11.39-13.309-17.02-91.145-.39-182.306-0.26-273.458-0.42-28.945-.06-57.906.08-86.851-0.31-4.534,5.68-8.527,11.85-12.813,17.75H432.765V2146.17Zm2.077,1.55c-0.17,11.89-.388,23.78-0.527,35.67v822.96q50.847,0.03,101.687.01c4.341-5.93,8.566-11.96,12.907-17.88,16.061,0.1,32.115.32,48.177,0.28q108.148,0.06,216.281.19c32.541,0.18,65.083-.17,97.609.36,4.38,5.69,8.83,11.33,13.2,17.02q67.462,0.075,134.922.03V2185.73q-177.129.105-354.25,0.03c-20.6-.08-41.2.16-61.789-0.12-4.139-12.66-8.542-25.23-12.751-37.87C565.149,2147.65,500,2147.75,434.842,2147.72Zm611.828,52.72q-198.78-.06-397.56-0.03a4.379,4.379,0,0,1-.026,1.11c-0.011.17-.021,0.34-0.031,0.51,0.014,0.05.03,0.1,0.043,0.15,0.035-.06.07-0.11,0.105-0.17q197.925-.105,395.859-0.02c-0.01,220.62-.04,567.44.01,788.05-37.96.09-75.94,0.03-113.908,0.03-1.178-.17-1.674.33-1.488,1.49,38.991,0.16,77.986.03,116.986,0.07C1046.66,2769.96,1046.64,2422.1,1046.67,2200.44Zm-599.162-.02q65.511,0,131.02-.01c0.829-.15,2.969,0,2.062,1.35-1.411.46-2.946,0.14-4.4,0.22q-63.545,0-127.089.02c0.031,220.62.023,567.44,0,788.06,27.2,0.08,54.409-.04,81.61.05,0.015,0.37.046,1.13,0.062,1.5q-41.638.075-83.277,0.01C447.516,2769.96,447.493,2422.09,447.508,2200.42Zm201.783,0.85a2.834,2.834,0,1,1-2.834-2.84A2.834,2.834,0,0,1,649.291,2201.27Z" transform="translate(-432.75 -2146.16)"/>
  <text id="母幣" class="cls-4" transform="translate(15.877 39.327) scale(0.774 0.774)">母幣</text>
</svg>
