<svg id="组_68" data-name="组 68" xmlns="http://www.w3.org/2000/svg" width="627.88" height="735.53" viewBox="0 0 627.88 735.53">
  <defs>
    <style>
      .cls-1, .cls-2 {
        fill: #fff;
      }

      .cls-1, .cls-2, .cls-4 {
        fill-rule: evenodd;
      }

      .cls-1 {
        opacity: 0.5;
      }

      .cls-2 {
        opacity: 0.8;
      }

      .cls-3 {
        font-size: 33.333px;
        fill: #009393;
        font-family: "PingFang SC";
        font-weight: 700;
        text-transform: uppercase;
      }

      .cls-4 {
        fill: #119b9b;
      }
    </style>
  </defs>
  <path id="矩形_12_拷贝_5" data-name="矩形 12 拷贝 5" class="cls-1" d="M1772.9,1124.19H1576.09l-12.99,38.71H1145.81l-0.01,696.04h137.04l12.39-16.26,361.54-1.55,13.18,17.81H1772.9V1124.19h0Z" transform="translate(-1145.81 -1123.41)"/>
  <path id="矩形_12_拷贝" data-name="矩形 12 拷贝" class="cls-2" d="M1758.19,1178.38h-596.9v662.75h596.9V1178.38h0Z" transform="translate(-1145.81 -1123.41)"/>
  <text id="用戶數量統計" class="cls-3" transform="translate(450.946 37.089) scale(0.774 0.774)">用戶數量統計</text>
  <path id="形状_6_拷贝" data-name="形状 6 拷贝" class="cls-4" d="M1773.69,1123.41H1575.03c-4.42,12.61-8.6,25.32-12.96,37.96q-208.125.06-416.27,0.01v697.56h137.24c4.54-5.59,8.83-11.38,13.31-17.02,91.15-.38,182.31-0.25,273.46-0.41,28.94-.06,57.9.07,86.85-0.31,4.53,5.68,8.53,11.85,12.81,17.74h104.22V1123.41Zm-2.08,1.55c0.17,11.89.39,23.78,0.53,35.66v696.77q-50.85.015-101.69,0c-4.34-5.93-8.57-11.96-12.91-17.87-16.06.09-32.11,0.32-48.17,0.28q-108.15.06-216.29,0.19c-32.54.17-65.08-.17-97.61,0.35-4.37,5.69-8.82,11.33-13.2,17.03q-67.455.075-134.92,0.02,0-347.22.01-694.42,177.12,0.1,354.24.03c20.6-.09,41.2.15,61.79-0.13,4.14-12.65,8.54-25.23,12.75-37.86C1641.3,1124.89,1706.46,1124.99,1771.61,1124.96Zm-611.83,52.72q198.78-.06,397.56-0.03a4.585,4.585,0,0,0,.03,1.11l0.03,0.51a0.833,0.833,0,0,0-.04.15c-0.04-.06-0.07-0.12-0.11-0.17q-197.925-.12-395.86-0.02,0.015,330.93-.01,661.85c37.97,0.08,75.94.02,113.91,0.03,1.18-.17,1.67.33,1.49,1.49-38.99.15-77.99,0.03-116.99,0.07Q1159.79,1510.165,1159.78,1177.68Zm599.16-.02q-65.505-.015-131.02-0.01c-0.83-.15-2.97,0-2.06,1.34,1.41,0.47,2.95.14,4.4,0.23q63.555,0,127.09.01-0.045,330.945,0,661.86c-27.2.08-54.41-.03-81.61,0.06-0.01.37-.04,1.12-0.06,1.49,27.76,0.06,55.52.02,83.28,0.02Q1758.93,1510.17,1758.94,1177.66Zm-201.78.84a2.835,2.835,0,1,0,2.83-2.83A2.836,2.836,0,0,0,1557.16,1178.5Z" transform="translate(-1145.81 -1123.41)"/>
</svg>
