<svg xmlns="http://www.w3.org/2000/svg" width="11.343" height="11.53" viewBox="0 0 11.343 11.53">
  <defs>
    <style>
      .cls-1 {
        fill: #dd51e2;
        fill-rule: evenodd;
      }
    </style>
  </defs>
  <path id="形状_11_拷贝_2" data-name="形状 11 拷贝 2" class="cls-1" d="M663.93,1426.44h-5.391a1.121,1.121,0,0,0-1.123,1.12v5.57a1.13,1.13,0,0,0,1.123,1.13h5.391a1.13,1.13,0,0,0,1.123-1.13v-5.57A1.121,1.121,0,0,0,663.93,1426.44Zm0.3,6.69a0.3,0.3,0,0,1-.3.3h-5.391a0.3,0.3,0,0,1-.295-0.3v-5.57a0.3,0.3,0,0,1,.295-0.29h5.391a0.3,0.3,0,0,1,.3.29v5.57Zm-2.858-9.3v2.1H660.54v-2.1a0.3,0.3,0,0,0-.295-0.3h-5.391a0.3,0.3,0,0,0-.3.3v5.57a0.3,0.3,0,0,0,.3.3h1.868v0.83h-1.868a1.13,1.13,0,0,1-1.123-1.13v-5.57a1.121,1.121,0,0,1,1.123-1.12h5.391A1.121,1.121,0,0,1,661.367,1423.83Z" transform="translate(-653.719 -1422.72)"/>
</svg>
