<svg id="组_51" data-name="组 51" xmlns="http://www.w3.org/2000/svg" width="627.91" height="735.53" viewBox="0 0 627.91 735.53">
  <defs>
    <style>
      .cls-1, .cls-2 {
        fill: #fff;
      }

      .cls-1, .cls-2, .cls-4 {
        fill-rule: evenodd;
      }

      .cls-1 {
        opacity: 0.5;
      }

      .cls-2 {
        opacity: 0.8;
      }

      .cls-3 {
        font-size: 25px;
        font-family: "PingFang SC";
        font-weight: 700;
        text-transform: uppercase;
      }

      .cls-3, .cls-4 {
        fill: #d459d8;
      }
    </style>
  </defs>
  <path id="矩形_12" data-name="矩形 12" class="cls-1" d="M433.548,1124.19H630.359l13,38.71h417.3v696.04H923.613l-12.387-16.26-361.549-1.55-13.18,17.81H433.548V1124.19h0Z" transform="translate(-432.75 -1124.19)"/>
  <path id="矩形_12_拷贝_4" data-name="矩形 12 拷贝 4" class="cls-2" d="M449.806,1178.38H1045.94v662.75H449.806V1178.38h0Z" transform="translate(-432.75 -1124.19)"/>
  <text id="Community_coffers" data-name="Community coffers" class="cls-3" transform="translate(18.75 24.244) scale(0.774 0.774)">Community<tspan dy="30">coffers</tspan></text>
  <path id="形状_6" data-name="形状 6" class="cls-4" d="M432.765,1124.18H631.418c4.426,12.62,8.605,25.32,12.961,37.96q208.134,0.06,416.271.02v697.56H923.41c-4.534-5.6-8.829-11.39-13.309-17.02-91.145-.39-182.306-0.26-273.458-0.42-28.945-.05-57.906.08-86.85-0.31-4.535,5.68-8.527,11.85-12.814,17.75H432.765V1124.18Zm2.077,1.55c-0.17,11.89-.387,23.78-0.527,35.67v696.76q50.847,0.03,101.687.01c4.341-5.93,8.566-11.96,12.907-17.87,16.061,0.09,32.115.31,48.177,0.27q108.148,0.06,216.281.19c32.542,0.18,65.083-.17,97.61.36,4.379,5.69,8.829,11.33,13.2,17.03q67.462,0.06,134.922.02V1163.74q-177.127.1-354.25,0.03c-20.6-.08-41.2.16-61.789-0.12-4.139-12.66-8.542-25.23-12.751-37.86C565.149,1125.66,500,1125.76,434.842,1125.73Zm611.828,52.72q-198.78-.06-397.56-0.03a4.379,4.379,0,0,1-.026,1.11c-0.011.17-.021,0.34-0.031,0.52,0.014,0.04.03,0.09,0.043,0.14,0.035-.06.07-0.11,0.105-0.17q197.925-.105,395.859-0.02-0.015,330.93.01,661.85c-37.96.09-75.94,0.03-113.908,0.03-1.178-.17-1.674.33-1.488,1.49,38.991,0.16,77.986.03,116.986,0.07Q1046.66,1510.935,1046.67,1178.45Zm-599.162-.01q65.511-.015,131.02-0.02c0.83-.15,2.969,0,2.062,1.35-1.411.46-2.946,0.14-4.4,0.22q-63.545,0-127.089.02,0.046,330.93,0,661.86c27.2,0.08,54.409-.04,81.61.05,0.015,0.38.046,1.13,0.062,1.5q-41.638.075-83.277,0.01Q447.528,1510.94,447.508,1178.44Zm201.783,0.84a2.834,2.834,0,1,1-2.834-2.84A2.834,2.834,0,0,1,649.291,1179.28Z" transform="translate(-432.75 -1124.19)"/>
</svg>
