<svg xmlns="http://www.w3.org/2000/svg" width="24.38" height="24.375" viewBox="0 0 24.38 24.375">
  <defs>
    <style>
      .cls-1 {
        fill: #d73fee;
        fill-rule: evenodd;
      }
    </style>
  </defs>
  <path id="形状_4" data-name="形状 4" class="cls-1" d="M1639.71,75.811a12.217,12.217,0,0,0-8.14-7.049,11.84,11.84,0,0,0-1.56-.3,12.528,12.528,0,0,0-1.53-.094,12.307,12.307,0,0,0-1.48.089,11.892,11.892,0,0,0-1.59.3,11.762,11.762,0,0,0-1.67.569,12.2,12.2,0,0,0-6.49,6.486,11.955,11.955,0,0,0-.9,3.519c-0.03.313-.05,0.629-0.05,0.947v0.558a12,12,0,0,0,.95,4.466,12.167,12.167,0,0,0,2.61,3.874,12.09,12.09,0,0,0,3.88,2.612,11.736,11.736,0,0,0,1.67.569,11.893,11.893,0,0,0,1.59.3,12.328,12.328,0,0,0,1.48.089,12.528,12.528,0,0,0,1.53-.094,11.856,11.856,0,0,0,1.56-.3,12.23,12.23,0,0,0,5.53-3.174,12.925,12.925,0,0,0,1.13-1.3,12.427,12.427,0,0,0,1.48-2.575,12.119,12.119,0,0,0,.76-2.555A12.167,12.167,0,0,0,1639.71,75.811Zm-11.3-5.2,0.09-.076,0.09,0.076a13.017,13.017,0,0,1,4.11,8.717h-8.4A13.016,13.016,0,0,1,1628.41,70.613Zm-3.89.823a16.234,16.234,0,0,0-1.56,3.286,17.793,17.793,0,0,0-.92,4.607h-3.43A9.977,9.977,0,0,1,1624.52,71.437Zm-5.93,10.139h3.44a17.648,17.648,0,0,0,.93,4.813,16.232,16.232,0,0,0,1.56,3.286A9.963,9.963,0,0,1,1618.59,81.576Zm10,8.922-0.09.076-0.09-.075a13.05,13.05,0,0,1-4.13-8.922h8.44A13.05,13.05,0,0,1,1628.59,90.5Zm9.64-7.975a10.013,10.013,0,0,1-5.73,7.127,16.037,16.037,0,0,0,1.54-3.261,17.648,17.648,0,0,0,.93-4.813h3.26v0.947Zm-3.27-3.192a17.793,17.793,0,0,0-.92-4.607,16.036,16.036,0,0,0-1.54-3.261,9.979,9.979,0,0,1,5.85,7.868h-3.39Z" transform="translate(-1616.28 -68.375)"/>
</svg>
