<svg id="组_42" data-name="组 42" xmlns="http://www.w3.org/2000/svg" xmlns:xlink="http://www.w3.org/1999/xlink" width="93" height="22.625" viewBox="0 0 93 22.625">
  <defs>
    <style>
      .cls-1, .cls-2 {
        fill-rule: evenodd;
      }

      .cls-1 {
        fill: url(#linear-gradient);
      }

      .cls-2 {
        fill: #fff;
      }
    </style>
    <linearGradient id="linear-gradient" x1="1699.34" y1="261.906" x2="1792.34" y2="261.906" gradientUnits="userSpaceOnUse">
      <stop offset="0" stop-color="#53cbed"/>
      <stop offset="1" stop-color="#c14fc4"/>
    </linearGradient>
  </defs>
  <path id="形状_1" data-name="形状 1" class="cls-1" d="M1743.19,273.223h9.6l39.56-.166-7-11.067,7-11.066-39.56-.327h-9.6l-9.26,11.291Zm-17.29,0h12.79l-9.21-11.335,9.21-11.291H1725.9l-9.26,11.291Zm-17.29,0h12.79l-9.21-11.335,9.21-11.291h-12.79l-9.26,11.291Z" transform="translate(-1699.34 -250.594)"/>
  <path id="返回" class="cls-2" d="M1748.68,255.088a18.736,18.736,0,0,1,2.82,2.8l0.87-.876a21.889,21.889,0,0,0-2.86-2.73Zm14.46,14.389,0.29-1.236q-0.51.035-1.89,0.068c-1.1.023-1.9,0.035-2.42,0.035q-1.515,0-3.27-.035a5.831,5.831,0,0,1-2.23-.412,3.91,3.91,0,0,1-1.3-1.081,2.857,2.857,0,0,0-.4-0.395V260h-3.54v1.133h2.41v5.22a6.675,6.675,0,0,0-2.34,2.627l0.91,0.842q1.365-2.37,1.95-2.37a0.86,0.86,0,0,1,.64.429,3.948,3.948,0,0,0,1.77,1.254,10.037,10.037,0,0,0,2.61.309c1.41,0.023,2.4.034,2.96,0.034h3.85Zm-1.08-15.248a33.647,33.647,0,0,1-7.77.962v3.777a14.048,14.048,0,0,1-1.7,7.264l1.11,0.549q1.62-2.557,1.72-7.572h5.8a12.993,12.993,0,0,1-1.68,3.3c-0.83-.722-1.78-1.466-2.86-2.233l-0.71.876a32.633,32.633,0,0,1,2.86,2.267,13.921,13.921,0,0,1-3.7,3.022l0.72,1a14.919,14.919,0,0,0,3.86-3.211,26.947,26.947,0,0,1,2.67,2.936l0.81-1a31.443,31.443,0,0,0-2.77-2.885,14.813,14.813,0,0,0,2-4.258v-0.859h-7l-0.02-1.889a30.83,30.83,0,0,0,7.25-.978ZM1769.4,265h6.4v-6.181h-6.4V265Zm1.18-1.116V259.93h4.04v3.949h-4.04Zm-4.74-8.826V269.46h1.21v-0.635h11.11v0.635h1.21V255.053h-13.53Zm1.21,1.134h11.11v11.5h-11.11v-11.5Z" transform="translate(-1699.34 -250.594)"/>
</svg>
