<svg id="组_47" data-name="组 47" xmlns="http://www.w3.org/2000/svg" xmlns:xlink="http://www.w3.org/1999/xlink" width="78.97" height="24.656" viewBox="0 0 78.97 24.656">
  <defs>
    <style>
      .cls-1 {
        fill: #e6e6e6;
      }

      .cls-1, .cls-3, .cls-4, .cls-5 {
        fill-rule: evenodd;
      }

      .cls-2 {
        filter: url(#filter);
      }

      .cls-3 {
        fill: none;
        stroke-width: 2px;
        stroke: url(#linear-gradient);
      }

      .cls-4 {
        fill: url(#linear-gradient-2);
      }

      .cls-5 {
        fill: #bc50c3;
      }
    </style>
    <filter id="filter" filterUnits="userSpaceOnUse">
      <feFlood result="flood" flood-color="#44c1e6"/>
      <feComposite result="composite" operator="in" in2="SourceGraphic"/>
      <feBlend result="blend" in2="SourceGraphic"/>
    </filter>
    <linearGradient id="linear-gradient" x1="1615.09" y1="261.422" x2="1691.75" y2="261.422" gradientUnits="userSpaceOnUse">
      <stop offset="0" stop-color="#53cbed"/>
      <stop offset="1" stop-color="#c14fc4"/>
    </linearGradient>
    <linearGradient id="linear-gradient-2" x1="1621.97" y1="261.453" x2="1650.78" y2="261.453" xlink:href="#linear-gradient"/>
  </defs>
  <path id="矩形_31" data-name="矩形 31" class="cls-1" d="M1624.82,250.079h66.93v22.67h-66.93l-9.72-11.225Z" transform="translate(-1613.78 -249.094)"/>
  <g id="组_46" data-name="组 46" class="cls-2">
    <path id="矩形_31_拷贝" data-name="矩形 31 拷贝" class="cls-3" d="M1624.82,250.079h66.93v22.67h-66.93l-9.72-11.225Z" transform="translate(-1613.78 -249.094)"/>
    <path id="形状_1" data-name="形状 1" class="cls-4" d="M1641.42,269.75h9.37l-6.75-8.308,6.75-8.277h-9.37l-6.79,8.277Zm-12.68,0h9.38l-6.75-8.308,6.75-8.277h-9.38l-6.79,8.277Z" transform="translate(-1613.78 -249.094)"/>
    <path id="返回" class="cls-5" d="M1653.62,253.879a19.7,19.7,0,0,1,2.94,2.933l0.92-.918a22.952,22.952,0,0,0-3-2.861Zm15.15,15.078,0.29-1.3c-0.35.024-1.01,0.048-1.97,0.072-1.15.024-2,.036-2.54,0.036q-1.59,0-3.42-.036a6.175,6.175,0,0,1-2.35-.432,4.069,4.069,0,0,1-1.35-1.133,2.969,2.969,0,0,0-.43-0.414v-6.729h-3.7v1.188h2.52v5.469a7.083,7.083,0,0,0-2.45,2.753l0.95,0.882c0.95-1.656,1.64-2.483,2.05-2.483a0.917,0.917,0,0,1,.67.449,4.1,4.1,0,0,0,1.85,1.314,10.472,10.472,0,0,0,2.73.324c1.48,0.024,2.52.036,3.11,0.036h4.04Zm-1.13-15.977a35.425,35.425,0,0,1-8.15,1.007v3.958a14.714,14.714,0,0,1-1.78,7.611l1.16,0.576q1.7-2.68,1.8-7.935h6.08a13.708,13.708,0,0,1-1.76,3.455q-1.305-1.134-3-2.339l-0.74.917a35.893,35.893,0,0,1,3,2.375,14.6,14.6,0,0,1-3.88,3.167l0.76,1.044a15.644,15.644,0,0,0,4.04-3.365,28.068,28.068,0,0,1,2.8,3.077l0.85-1.044a32.694,32.694,0,0,0-2.91-3.022,15.751,15.751,0,0,0,2.1-4.463v-0.9h-7.34l-0.02-1.979a32.4,32.4,0,0,0,7.6-1.026Zm7.69,11.281h6.7v-6.477h-6.7v6.477Zm1.23-1.17v-4.138h4.23v4.138h-4.23Zm-4.97-9.248v15.1h1.27v-0.666h11.64v0.666h1.27v-15.1h-14.18Zm1.27,1.188h11.64v12.055h-11.64V255.031Z" transform="translate(-1613.78 -249.094)"/>
  </g>
</svg>
