<svg id="组_49" data-name="组 49" xmlns="http://www.w3.org/2000/svg" xmlns:xlink="http://www.w3.org/1999/xlink" width="76.75" height="25" viewBox="0 0 76.75 25">
  <defs>
    <style>
      .cls-1 {
        fill: #e6e6e6;
      }

      .cls-1, .cls-3, .cls-5 {
        fill-rule: evenodd;
      }

      .cls-2 {
        filter: url(#filter);
      }

      .cls-3 {
        fill: none;
        stroke-width: 2px;
        stroke: url(#linear-gradient);
      }

      .cls-4 {
        font-size: 12.5px;
        fill: #0b0b0b;
        font-family: "PingFang SC";
        font-weight: 500;
        text-transform: uppercase;
      }
    </style>
    <filter id="filter" filterUnits="userSpaceOnUse">
      <feFlood result="flood" flood-color="#d83cef"/>
      <feComposite result="composite" operator="in" in2="SourceGraphic"/>
      <feBlend result="blend" in2="SourceGraphic"/>
    </filter>
    <linearGradient id="linear-gradient" x1="1702.19" y1="261.5" x2="1776.94" y2="261.5" gradientUnits="userSpaceOnUse">
      <stop offset="0" stop-color="#53cbed"/>
      <stop offset="1" stop-color="#c14fc4"/>
    </linearGradient>
  </defs>
  <path id="矩形_31" data-name="矩形 31" class="cls-1" d="M1701.4,250h75.53v22.986H1701.4V250Z" transform="translate(-1701.19 -249)"/>
  <g id="组_48" data-name="组 48" class="cls-2">
    <path id="矩形_31_拷贝" data-name="矩形 31 拷贝" class="cls-3" d="M1702.19,250h74.74v22.986h-74.74V250Z" transform="translate(-1701.19 -249)"/>
    <text id="首页" class="cls-4" transform="translate(34.559 18.13) scale(1.285)">首页</text>
    <path id="形状_4" data-name="形状 4" class="cls-5" d="M1728.99,258.974l-0.01-.009v0h-0.01l-2.37-2.4v0l-0.01,0-4.29-4.329-9.3,9.419,1.48,1.506,0.9-.908a0.2,0.2,0,0,1,.15-0.066,0.189,0.189,0,0,1,.19.191V269h4.77v-4.607a0.2,0.2,0,0,1,.19-0.192h3.25a0.189,0.189,0,0,1,.19.192V269h4.77v-6.634a0.227,0.227,0,0,1,.05-0.135,0.2,0.2,0,0,1,.28,0l0.91,0.921,1.49-1.506Zm-4.9,1.209a2.5,2.5,0,0,1-3.56,0l-0.01-.013a2.529,2.529,0,0,1-.72-1.782,2.581,2.581,0,0,1,.73-1.8,2.506,2.506,0,0,1,3.56,0A2.579,2.579,0,0,1,1724.09,260.183Z" transform="translate(-1701.19 -249)"/>
  </g>
</svg>
