<svg id="图层_1" data-name="图层 1" xmlns="http://www.w3.org/2000/svg" viewBox="0 0 330.79 105.01"><defs><style>.cls-1{fill:#33b3ba;}</style></defs><title>绿色框</title><path class="cls-1" d="M463,459.05H165.93l-17.12-18.2V371.44l.14-.14L165.77,354H461.85l17.75,18.24v69.57Zm-296.66-1H462.6l16-16.6V372.68L461.43,355H166.19l-16.38,16.81v68.6Z" transform="translate(-148.81 -354.04)"/><polygon class="cls-1" points="105.78 0.5 91.45 12.78 5.16 12.78 17.12 0.5 105.78 0.5"/><polygon class="cls-1" points="223.99 0.5 238.32 12.78 324.62 12.78 312.66 0.5 223.99 0.5"/><polygon class="cls-1" points="224.93 104.51 239.26 92.24 325.55 92.24 313.6 104.51 224.93 104.51"/><polygon class="cls-1" points="105.78 104.51 91.45 92.24 5.16 92.24 17.12 104.51 105.78 104.51"/><polygon class="cls-1" points="226.56 7.57 104.23 7.57 107.85 4.3 222.73 4.3 226.56 7.57"/><polygon class="cls-1" points="104.23 97.74 226.56 97.74 222.94 101.01 108.06 101.01 104.23 97.74"/></svg>