<?xml version="1.0" encoding="utf-8"?>
<!-- Generator: Adobe Illustrator 22.1.0, SVG Export Plug-In . SVG Version: 6.00 Build 0)  -->
<svg version="1.1" id="图层_1" xmlns="http://www.w3.org/2000/svg" xmlns:xlink="http://www.w3.org/1999/xlink" x="0px" y="0px"
	 viewBox="0 0 330 340.5" style="enable-background:new 0 0 330 340.5;" xml:space="preserve">
<style type="text/css">
	.st0{fill:#3DD0FC;}
	.st1{fill:#FFFFFF;}
	.st2{fill:#C83ECC;}
	.st3{fill:none;stroke:#FFFFFF;stroke-width:7;stroke-miterlimit:10;}
	.st4{fill:none;stroke:#000000;stroke-width:0.1;stroke-miterlimit:10;}
	.st5{fill:#E7242B;}
	.st6{fill:#7F7F7F;}
	.st7{opacity:0.61;}
	.st8{fill:#222323;stroke:#FFFFFF;stroke-width:7;stroke-miterlimit:10;}
	.st9{fill:#222323;}
</style>
<g>
	<g>
		<g>
			<g>
				<path class="st0" d="M95.2,261.5h22.6v22.1H93.5c-3.1,0-5.9-0.5-8.5-1.4c-2.6-0.9-4.9-2.2-6.7-3.8c-1.9-1.6-3.4-3.5-4.4-5.7
					c-1.1-2.2-1.6-4.6-1.6-7.2c0-2.6,0.5-4.9,1.6-7.1c1.1-2.1,2.6-4,4.4-5.5c1.9-1.5,4.1-2.7,6.7-3.5c2.6-0.8,5.4-1.2,8.5-1.2h25.3
					l-7.1,9.2H93.5c-1.5,0-2.9,0.2-4.1,0.6c-1.3,0.4-2.4,1-3.3,1.8s-1.7,1.7-2.2,2.7c-0.5,1-0.8,2.2-0.8,3.5c0,1.3,0.3,2.4,0.8,3.5
					c0.5,1,1.2,1.9,2.2,2.7c0.9,0.7,2,1.3,3.3,1.7c1.3,0.4,2.7,0.6,4.2,0.6h13.4v-5.1H88.6L95.2,261.5z"/>
				<path class="st1" d="M121.2,287H93.5c-3.4,0-6.7-0.5-9.6-1.6c-3-1.1-5.6-2.5-7.8-4.4c-2.2-1.9-4-4.2-5.3-6.8
					c-1.3-2.7-2-5.6-2-8.7c0-3.1,0.7-6,2-8.6c1.3-2.6,3.1-4.8,5.3-6.6c2.2-1.8,4.9-3.2,7.9-4.2c2.9-0.9,6.1-1.4,9.5-1.4h32.3
					L115.6,258h5.6V287z M93.5,251.6c-2.7,0-5.2,0.4-7.5,1.1c-2.2,0.7-4.1,1.7-5.6,2.9c-1.5,1.2-2.7,2.7-3.5,4.4
					c-0.8,1.7-1.2,3.5-1.2,5.5c0,2.1,0.4,3.9,1.3,5.7c0.9,1.8,2.1,3.3,3.6,4.6c1.6,1.3,3.5,2.4,5.7,3.2c2.2,0.8,4.7,1.2,7.4,1.2
					h20.9v-15.3H96.8l-0.9,1h14.4v12H93.5c-1.9,0-3.6-0.3-5.2-0.8c-1.7-0.5-3.1-1.3-4.4-2.3c-0.8-0.6-1.4-1.3-2-2.1h-0.6l0.3-0.4
					c-0.3-0.4-0.6-0.9-0.8-1.4c-0.7-1.5-1.1-3.2-1.1-5c0-1.8,0.4-3.5,1.2-5c0.7-1.5,1.8-2.7,3.1-3.8c1.3-1,2.7-1.9,4.4-2.4
					c1.6-0.5,3.4-0.8,5.2-0.8h16.6l1.8-2.4H93.5z M91,261.1c-0.2,0-0.4,0.1-0.5,0.2c-0.9,0.3-1.6,0.7-2.2,1.2c-0.6,0.5-1,1-1.3,1.6
					c-0.3,0.6-0.4,1.2-0.4,1.9c0,0.2,0,0.3,0,0.5L91,261.1z"/>
			</g>
		</g>
		<g>
			<g>
				<path class="st0" d="M165.2,274.5l-7,9.1h-34.1v-35.4h41l-7.1,9.2h-22.9v4.2h28l-6.3,8h-21.7v4.8H165.2z"/>
				<path class="st1" d="M159.8,287h-39.2v-42.2H172l-10.3,13.4h8.5L160.1,271h12.1L159.8,287z M127.5,280.1h29l1.7-2.3h-26.5v-11.7
					h23.5l0.9-1.2h-24.4V254h24.6l1.8-2.4h-30.6V280.1z"/>
			</g>
		</g>
		<g>
			<g>
				<path class="st0" d="M204.8,284.1c-0.7,0-1.4-0.1-2.1-0.3c-0.7-0.2-1.5-0.7-2.3-1.6l-21.7-19.5v20.8h-9.9v-29.4
					c0-1.2,0.2-2.2,0.5-3c0.3-0.8,0.8-1.5,1.3-2.1c0.5-0.5,1.2-0.9,1.9-1.2c0.7-0.2,1.5-0.4,2.2-0.4c0.7,0,1.3,0.1,2,0.3
					c0.7,0.2,1.5,0.7,2.4,1.6l21.7,19.5v-20.8h10v29.3c0,1.2-0.2,2.2-0.5,3c-0.3,0.8-0.8,1.5-1.3,2.1c-0.5,0.5-1.2,0.9-1.9,1.2
					C206.3,284,205.6,284.1,204.8,284.1z"/>
				<path class="st1" d="M204.8,287.6c-1.1,0-2.1-0.2-3.2-0.5c-1.2-0.4-2.3-1.2-3.6-2.3l-15.9-14.3V287h-16.8v-32.8
					c0-1.6,0.2-3,0.7-4.3c0.5-1.3,1.2-2.4,2.1-3.3c0.9-0.9,2-1.5,3.2-1.9c2.1-0.7,4.3-0.8,6.5,0c1.2,0.4,2.4,1.1,3.6,2.3l15.9,14.3
					v-16.5h16.8v32.7c0,1.6-0.3,3-0.7,4.3c-0.5,1.3-1.2,2.4-2.1,3.3c-0.9,0.9-2,1.6-3.3,2C207.1,287.4,205.9,287.6,204.8,287.6z
					 M175.3,255.1l27.5,24.7c0.7,0.7,1,0.8,1,0.8c0.7,0.2,1.5,0.2,2.2,0c0.2-0.1,0.4-0.2,0.6-0.4c0.2-0.2,0.4-0.5,0.6-0.9
					c0.2-0.4,0.3-1,0.3-1.7v-25.9h-3.1v25l-27.4-24.6c-0.8-0.7-1.2-0.9-1.2-0.9c-0.7-0.2-1.4-0.2-2.1,0c-0.2,0.1-0.4,0.2-0.6,0.4
					c-0.2,0.2-0.4,0.5-0.5,0.9c-0.2,0.4-0.3,1-0.3,1.8v25.9h3.1V255.1z"/>
			</g>
		</g>
		<g>
			<g>
				<path class="st0" d="M258.4,274.5l-7,9.1h-34.1v-35.4h41l-7.1,9.2h-22.9v4.2h28l-6.3,8h-21.7v4.8H258.4z"/>
				<path class="st1" d="M253,287h-39.2l0.4-44.7h52.8l-12.2,15.9h8.5L253.3,271h12.1L253,287z M220.7,280.1h29l1.7-2.3h-26.5v-11.7
					h23.5l0.9-1.2h-24.4V254h24.6l1.8-2.4h-30.6V280.1z"/>
			</g>
		</g>
		<g>
			<g>
				<path class="st2" d="M66.2,309.9c0,2-0.4,3.8-1.2,5.4c-0.8,1.6-1.9,3-3.4,4.1c-1.5,1.1-3.3,2-5.5,2.6c-2.1,0.6-4.6,1-7.4,1H30.3
					v9H19.4V314h30.5c1.7,0,3-0.4,3.9-1.1c0.9-0.7,1.4-1.7,1.4-3c0-1.2-0.5-2.2-1.4-2.9c-0.9-0.7-2.2-1.1-3.9-1.1H19.4l7.2-9.2h22.2
					c2.8,0,5.2,0.3,7.4,1c2.1,0.7,4,1.6,5.4,2.7c1.5,1.2,2.6,2.6,3.4,4.2C65.8,306.2,66.2,308,66.2,309.9z"/>
				<path class="st1" d="M33.7,335.5H16v-24.9h33.9c1.3,0,1.7-0.3,1.8-0.4c0.1,0,0.1-0.1,0.1-0.1l0,0c0,0,0-0.1,0-0.2
					c0-0.1,0-0.2,0-0.2c-0.2-0.1-0.6-0.4-1.9-0.4l-37.5-1.2L25,293.2h23.9c3.1,0,5.9,0.4,8.3,1.1c2.6,0.8,4.8,1.9,6.6,3.3
					c1.9,1.5,3.4,3.3,4.4,5.4c1,2.1,1.5,4.4,1.5,6.9c0,2.5-0.5,4.8-1.5,6.9c-1,2.1-2.5,3.9-4.4,5.3c-1.8,1.4-4,2.4-6.6,3.2
					c-2.5,0.7-5.2,1.1-8.3,1.1H33.7V335.5z M22.8,328.6h4.1v-9h21.9c2.4,0,4.6-0.3,6.4-0.8c1.7-0.5,3.2-1.2,4.4-2.1
					c1.1-0.8,1.9-1.7,2.4-2.9c0.6-1.1,0.8-2.4,0.8-3.9c0-1.5-0.3-2.8-0.8-3.9c-0.5-1.2-1.3-2.1-2.4-3c-1.1-0.9-2.6-1.6-4.3-2.1
					c-1.8-0.6-4-0.8-6.4-0.8H28.3l-1.9,2.4h23.4c2.5,0,4.5,0.6,6,1.8c1.8,1.4,2.7,3.4,2.7,5.6c0,2.3-0.9,4.2-2.7,5.6
					c-1.5,1.2-3.6,1.9-6.1,1.9h-27V328.6z"/>
			</g>
		</g>
		<g>
			<g>
				<path class="st2" d="M110.1,323L103,332H71.7v-35.4h11V323H110.1z"/>
				<path class="st1" d="M104.7,335.5H68.3v-44.7h17.8v28.7h31L104.7,335.5z M75.2,328.6h26.2l1.8-2.3H79.3v-26.3h-4.1V328.6z"/>
			</g>
		</g>
		<g>
			<g>
				<path class="st2" d="M127,332l6.6-9.1h8.9c1.1,0,2.2,0,3.3,0c1.1,0,2.1,0,3,0.1c-0.5-0.6-1.1-1.4-1.7-2.4
					c-0.7-1-1.3-1.9-1.9-2.7l-6.3-9.4L122.2,332h-13l22.7-32c0.7-1,1.7-1.9,2.8-2.8c1.1-0.8,2.6-1.2,4.3-1.2c1.7,0,3,0.4,4.2,1.1
					c1.1,0.8,2.1,1.7,2.8,2.8l22.1,32H127z"/>
				<path class="st1" d="M174.6,335.5h-72l26.5-37.4c1-1.3,2.2-2.5,3.6-3.6c1.7-1.2,3.8-1.9,6.3-1.9c2.4,0,4.4,0.6,6.1,1.7
					c1.4,1,2.7,2.2,3.7,3.7L174.6,335.5z M133.7,328.6h27.9L143.2,302c-0.5-0.8-1.2-1.4-1.9-2c-0.5-0.4-1.3-0.5-2.2-0.5
					c-1,0-1.8,0.2-2.3,0.6c-0.8,0.6-1.5,1.3-2,2l-18.8,26.6h4.6l18.4-26.1L148,316c0.6,0.8,1.2,1.7,1.9,2.7c0.6,0.9,1.1,1.6,1.6,2.2
					l4.8,6.2l-7.7-0.6c-0.8-0.1-1.7-0.1-2.7-0.1h-10.4L133.7,328.6z M135.3,319.5h6.9l-3.4-5L135.3,319.5z"/>
			</g>
		</g>
		<g>
			<g>
				<path class="st2" d="M210.2,296.7l-21,23.7V332h-11v-11.7l-21.6-23.6h14.1l8.5,9.8c0.3,0.3,0.7,0.7,1.1,1.2
					c0.5,0.5,0.9,1.1,1.4,1.6c0.5,0.6,1,1.1,1.4,1.6c0.4,0.5,0.7,0.9,0.9,1.1c0.4-0.5,0.9-1.2,1.5-2c0.7-0.8,1.6-2,2.9-3.6l8-9.8
					H210.2z"/>
				<path class="st1" d="M192.6,335.5h-17.8v-13.8l-25.5-30.8h20.9l11.6,13.5c0.2,0.3,0.6,0.7,1.1,1.2c0.3,0.4,0.7,0.8,1,1.2
					c0.5-0.7,1.2-1.4,1.9-2.3l9.1-11h23l-25.2,28.4V335.5z M181.6,328.6h4.2v-9.6l16.8-19H198l-7,8.5c-1.2,1.5-2.2,2.7-2.9,3.5
					c-0.6,0.8-1.1,1.4-1.4,1.9l-2.8,3.9l-2.8-4c0-0.1-0.2-0.3-0.7-0.9c-0.4-0.5-0.9-1-1.4-1.6c-0.5-0.6-1-1.1-1.4-1.6
					c-0.5-0.5-0.8-0.9-1.1-1.3l-7.5-8.7h-4.7l17.2,18.9V328.6z"/>
			</g>
		</g>
		<g>
			<g>
				<path class="st2" d="M255,323l-7,9.1h-34.1v-35.4h41l-7.1,9.2h-22.9v4.2h28l-6.3,8h-21.7v4.8H255z"/>
				<path class="st1" d="M252.4,335.5h-42v-42.2h51.4l-10.4,13.4h8.5l-10.1,12.9h12.1L252.4,335.5z M217.3,328.6h29l1.7-2.3h-26.5
					v-11.7h23.5l0.9-1.2h-24.4v-11.1h24.6l1.8-2.4h-30.6V328.6z"/>
			</g>
		</g>
		<g>
			<g>
				<path class="st2" d="M308.9,332h-14.7l-7.9-9.4h-16.8v9.4h-11V314h30.8c1.7,0,3.1-0.4,4.3-1.1c1.2-0.7,1.7-1.7,1.7-2.9
					c0-1.4-0.5-2.4-1.6-3.1c-1.1-0.7-2.5-1-4.4-1h-30.8l7.1-9.2h22.7c2,0,4.1,0.2,6.2,0.6c2.2,0.4,4.1,1,5.9,2
					c1.8,1,3.2,2.2,4.4,3.9c1.1,1.6,1.7,3.7,1.7,6.2c0,1.4-0.2,2.7-0.6,3.9c-0.4,1.2-1,2.3-1.8,3.3c-0.8,1-1.8,1.8-2.9,2.5
					c-1.1,0.7-2.4,1.2-3.9,1.5c0.6,0.5,1.3,1,2,1.7c0.7,0.7,1.7,1.7,3,2.9L308.9,332z"/>
				<path class="st1" d="M316.9,335.5h-24.2l-7.9-9.4H273v9.4h-17.8v-24.9h34.2c1,0,1.9-0.2,2.5-0.6c0,0,0.1,0,0.1-0.1
					c0-0.1,0-0.2,0-0.2c-0.2-0.1-0.9-0.4-2.6-0.4h-37.8l12.5-16h24.4c2.2,0,4.5,0.2,6.8,0.6c2.5,0.4,4.8,1.2,6.9,2.3
					c2.2,1.2,4.1,2.8,5.5,4.9c1.6,2.2,2.3,5,2.3,8.2c0,1.7-0.3,3.4-0.8,5c-0.5,1.6-1.4,3.1-2.4,4.4c-0.9,1.1-2,2.1-3.2,2.9
					c0.4,0.3,0.7,0.7,1.1,1.1L316.9,335.5z M295.8,328.6h5.1l-1-1.1c-1.1-1.1-2.1-2.1-2.8-2.8c-0.7-0.6-1.2-1.1-1.7-1.5l-6-4.6
					l7.5-1.5c1-0.2,2-0.6,2.8-1c0.8-0.5,1.5-1.1,2-1.7c0.5-0.7,1-1.4,1.3-2.3c0.3-0.9,0.5-1.8,0.5-2.8c0-1.8-0.4-3.2-1.1-4.3
					c-0.8-1.2-1.9-2.1-3.2-2.8c-1.4-0.8-3.1-1.3-4.8-1.6c-1.9-0.3-3.9-0.5-5.7-0.5h-21.1l-1.8,2.4h23.8c2.6,0,4.7,0.5,6.3,1.6
					c2,1.3,3.1,3.4,3.1,6c0,2.4-1.2,4.5-3.4,5.8c-1.7,1-3.7,1.6-6.1,1.6H262v11.2h4.1v-9.4H288L295.8,328.6z"/>
			</g>
		</g>
	</g>
	<g>
		<path d="M91.6,259h22.6v22.1H89.9c-3.1,0-5.9-0.5-8.5-1.4c-2.6-0.9-4.9-2.2-6.7-3.8c-1.9-1.6-3.4-3.5-4.4-5.7
			c-1.1-2.2-1.6-4.6-1.6-7.2c0-2.6,0.5-4.9,1.6-7.1c1.1-2.1,2.6-4,4.4-5.5c1.9-1.5,4.1-2.7,6.7-3.5c2.6-0.8,5.4-1.2,8.5-1.2h25.3
			l-7.1,9.2H89.9c-1.5,0-2.9,0.2-4.1,0.6c-1.3,0.4-2.4,1-3.3,1.8c-0.9,0.8-1.7,1.7-2.2,2.7c-0.5,1-0.8,2.2-0.8,3.5
			c0,1.3,0.3,2.4,0.8,3.5c0.5,1,1.2,1.9,2.2,2.7c0.9,0.7,2,1.3,3.3,1.7c1.3,0.4,2.7,0.6,4.2,0.6h13.4v-5.1H85L91.6,259z"/>
		<path class="st1" d="M117.6,284.6H89.9c-3.4,0-6.7-0.5-9.7-1.6c-3-1.1-5.6-2.5-7.8-4.4c-2.2-1.9-4-4.2-5.3-6.8
			c-1.3-2.7-2-5.6-2-8.7c0-3.1,0.7-6,2-8.6c1.3-2.6,3.1-4.8,5.3-6.6c2.2-1.8,4.9-3.2,7.9-4.1c2.9-0.9,6.1-1.4,9.6-1.4h32.3
			L112,255.6h5.6V284.6z M89.9,249.2c-2.7,0-5.2,0.4-7.5,1.1c-2.2,0.7-4.1,1.7-5.6,2.9c-1.5,1.2-2.7,2.7-3.5,4.4
			c-0.8,1.7-1.2,3.5-1.2,5.5c0,2.1,0.4,3.9,1.3,5.7c0.9,1.8,2,3.3,3.6,4.6c1.6,1.3,3.5,2.4,5.7,3.2c2.2,0.8,4.7,1.2,7.4,1.2h20.9
			v-15.3H93.2l-0.9,1h14.4v12H89.9c-1.9,0-3.6-0.3-5.2-0.8c-1.7-0.5-3.1-1.3-4.4-2.3c-0.8-0.6-1.4-1.3-2-2.1h-0.6l0.3-0.4
			c-0.3-0.4-0.6-0.9-0.8-1.4c-0.7-1.5-1.1-3.2-1.1-5c0-1.8,0.4-3.5,1.2-5c0.7-1.5,1.8-2.7,3.1-3.8c1.3-1,2.7-1.9,4.4-2.4
			c1.6-0.5,3.4-0.8,5.2-0.8h16.6l1.8-2.4H89.9z M87.4,258.7c-0.2,0-0.3,0.1-0.5,0.2c-0.9,0.3-1.6,0.7-2.2,1.2c-0.6,0.5-1,1-1.3,1.6
			c-0.3,0.6-0.4,1.2-0.4,1.9c0,0.2,0,0.3,0,0.5L87.4,258.7z"/>
	</g>
	<g>
		<path d="M161.6,272l-7,9.1h-34.1v-35.4h41l-7.1,9.2h-22.9v4.2h28l-6.3,8h-21.7v4.8H161.6z"/>
		<path class="st1" d="M156.2,284.6h-39.2v-42.2h51.4l-10.3,13.4h8.5l-10.1,12.9h12.1L156.2,284.6z M123.9,277.7h29l1.7-2.3h-26.5
			v-11.7h23.5l0.9-1.2h-24.4v-11.1h24.6l1.8-2.4h-30.6V277.7z"/>
	</g>
	<g>
		<path d="M201.2,281.7c-0.7,0-1.4-0.1-2.1-0.3c-0.7-0.2-1.5-0.7-2.3-1.6l-21.7-19.5v20.8h-9.9v-29.4c0-1.2,0.2-2.2,0.5-3
			c0.3-0.8,0.8-1.5,1.3-2.1c0.5-0.5,1.2-0.9,1.9-1.2c0.7-0.2,1.5-0.4,2.2-0.4c0.7,0,1.3,0.1,2,0.3c0.7,0.2,1.5,0.7,2.4,1.6
			l21.7,19.5v-20.8h10V275c0,1.2-0.2,2.2-0.5,3c-0.3,0.8-0.8,1.5-1.3,2.1c-0.5,0.5-1.2,0.9-1.9,1.2
			C202.7,281.6,202,281.7,201.2,281.7z"/>
		<path class="st1" d="M201.2,285.1c-1.1,0-2.1-0.2-3.2-0.5c-1.2-0.4-2.3-1.1-3.5-2.3L178.6,268v16.5h-16.8v-32.8
			c0-1.6,0.3-3,0.7-4.3c0.5-1.3,1.2-2.4,2.1-3.3c0.9-0.9,2-1.5,3.2-1.9c2.1-0.7,4.3-0.8,6.5,0c1.2,0.4,2.3,1.1,3.6,2.3l15.9,14.3
			v-16.5h16.8V275c0,1.6-0.2,3-0.7,4.3c-0.5,1.3-1.2,2.4-2.1,3.3c-0.9,0.9-2,1.6-3.3,2C203.5,285,202.3,285.1,201.2,285.1z
			 M171.7,252.7l27.5,24.7c0.7,0.7,1,0.8,1,0.8c0.7,0.2,1.5,0.2,2.2,0c0.2-0.1,0.4-0.2,0.6-0.4c0.2-0.2,0.4-0.5,0.6-0.9
			c0.2-0.4,0.3-1,0.3-1.8v-25.9h-3.2v25l-27.4-24.6c-0.8-0.7-1.2-0.9-1.2-0.9c-0.8-0.3-1.4-0.2-2.1,0c-0.2,0.1-0.4,0.2-0.6,0.4
			c-0.2,0.2-0.4,0.5-0.5,0.9c-0.2,0.4-0.3,1-0.3,1.8v25.9h3.1V252.7z"/>
	</g>
	<g>
		<path d="M254.8,272l-7,9.1h-34.1v-35.4h41l-7.1,9.2h-22.9v4.2h28l-6.3,8h-21.7v4.8H254.8z"/>
		<path class="st1" d="M249.4,284.6h-39.2v-42.2h51.4l-10.3,13.4l-1.6,12.9L249.4,284.6z M217.1,277.7h29l1.7-2.3h-26.5v-11.7h23.5
			l0.9-1.2h-24.4v-11.1h24.6l1.8-2.4h-30.6V277.7z"/>
	</g>
	<g>
		<path d="M62.6,307.5c0,2-0.4,3.8-1.2,5.4c-0.8,1.6-1.9,3-3.4,4.1c-1.5,1.1-3.3,2-5.5,2.6c-2.2,0.6-4.6,1-7.4,1H26.7v9H15.8v-18.1
			h30.5c1.7,0,3-0.4,3.9-1.1c0.9-0.7,1.4-1.7,1.4-3c0-1.2-0.5-2.2-1.4-2.9c-0.9-0.7-2.2-1.1-3.9-1.1H15.8l7.2-9.2h22.2
			c2.8,0,5.2,0.3,7.4,1c2.2,0.7,4,1.6,5.4,2.7c1.5,1.2,2.6,2.6,3.4,4.2C62.2,303.7,62.6,305.5,62.6,307.5z"/>
		<path class="st1" d="M30.1,335.5H12.4v-27.4h33.9c1.2,0,1.7-0.3,1.8-0.4c0.1,0,0.1-0.1,0.1-0.1l0,0c0,0,0-0.1,0-0.2
			c0-0.1,0-0.2,0-0.2c-0.2-0.1-0.6-0.4-1.9-0.4H8.8l12.6-16h23.9c3.1,0,5.9,0.4,8.3,1.1c2.6,0.8,4.8,1.9,6.6,3.3
			c1.9,1.5,3.4,3.3,4.4,5.4c1,2.1,1.5,4.4,1.5,6.9c0,2.5-0.5,4.8-1.5,6.9c-1,2.1-2.5,3.9-4.4,5.3c-1.8,1.4-4,2.4-6.6,3.2
			c-2.5,0.7-5.3,1.1-8.3,1.1H30.1V335.5z M19.2,326.2h4.1v-9h21.9c2.4,0,4.6-0.3,6.4-0.8c1.7-0.5,3.2-1.2,4.4-2.1
			c1.1-0.8,1.8-1.7,2.4-2.9c0.6-1.1,0.8-2.4,0.8-3.9c0-1.5-0.3-2.8-0.8-3.9c-0.6-1.2-1.3-2.1-2.4-3c-1.1-0.9-2.6-1.6-4.3-2.1
			c-1.8-0.6-4-0.8-6.4-0.8H24.7l-1.9,2.4h23.4c2.5,0,4.5,0.6,6,1.8c1.8,1.4,2.7,3.4,2.7,5.6c0,2.3-0.9,4.2-2.7,5.6
			c-1.6,1.2-3.6,1.9-6.1,1.9h-27V326.2z"/>
	</g>
	<g>
		<path d="M106.5,320.5l-7.1,9.1H68.2v-35.4h10.9v26.3H106.5z"/>
		<path class="st1" d="M101.3,335.5l-36.5,0v-44.7h17.8v26.3h31L101.3,335.5z M71.6,326.2h26.2l1.8-2.3H75.7v-26.3h-4.1V326.2z"/>
	</g>
	<g>
		<path d="M123.4,329.6l6.6-9.1h8.9c1.1,0,2.2,0,3.3,0c1.1,0,2.1,0,3,0.1c-0.5-0.6-1.1-1.4-1.7-2.4c-0.7-1-1.3-1.9-1.9-2.7l-6.3-9.4
			l-16.6,23.5h-13l22.7-32c0.7-1,1.7-1.9,2.8-2.8c1.1-0.8,2.6-1.2,4.3-1.2c1.7,0,3,0.4,4.2,1.1c1.1,0.8,2.1,1.7,2.8,2.8l22.1,32
			H123.4z"/>
		<path class="st1" d="M171.1,333H99l26.5-37.4c1-1.3,2.2-2.5,3.6-3.5c1.7-1.2,3.8-1.9,6.3-1.9c2.3,0,4.4,0.6,6.1,1.7
			c1.5,1,2.7,2.2,3.7,3.7L171.1,333z M130.1,326.2H158l-18.4-26.6c-0.5-0.8-1.2-1.4-1.9-1.9c-0.5-0.4-1.3-0.5-2.2-0.5
			c-1,0-1.8,0.2-2.3,0.6c-0.8,0.6-1.5,1.3-2,2l-18.8,26.6h4.6l18.4-26.1l9.1,13.5c0.6,0.8,1.2,1.7,1.9,2.7c0.6,0.9,1.1,1.6,1.6,2.2
			l4.8,6.2l-7.8-0.6c-0.8-0.1-1.7-0.1-2.7-0.1h-10.4L130.1,326.2z M131.7,317.1h6.9l-3.4-5L131.7,317.1z"/>
	</g>
	<g>
		<path d="M206.6,294.2l-21,23.7v11.7h-11v-11.7L153,294.2h14.1l8.5,9.8c0.3,0.3,0.7,0.7,1.1,1.2c0.5,0.5,0.9,1,1.4,1.6
			c0.5,0.6,1,1.1,1.4,1.6c0.4,0.5,0.7,0.9,0.9,1.1c0.4-0.5,0.9-1.2,1.5-2c0.7-0.8,1.6-2,2.9-3.6l8-9.8H206.6z"/>
		<path class="st1" d="M189,335.5h-17.8v-16.3l-25.9-28.4h23.4l10.6,12.2c0.3,0.4,0.7,0.8,1,1.2c0.5-0.7,1.2-1.4,1.9-2.3l9.1-11h23
			L189,319.2V335.5z M178,326.2h4.2v-9.6l16.8-19h-4.5l-7,8.5c-1.2,1.5-2.2,2.7-2.9,3.5c-0.6,0.8-1.1,1.4-1.4,1.9l-2.8,3.9l-2.8-3.9
			c-0.1-0.2-0.4-0.5-0.7-0.9c-0.4-0.5-0.9-1-1.4-1.6c-0.5-0.6-1-1.1-1.4-1.6l-1.1-1.3l-7.5-8.7h-4.7l17.2,18.9V326.2z"/>
	</g>
	<g>
		<path d="M251.4,320.5l-7,9.1h-34.1v-35.4h41l-7.1,9.2h-22.9v4.2h28l-6.3,8h-21.7v4.8H251.4z"/>
		<path class="st1" d="M246,335.2l-39.2,0.2v-44.7h51.4l-10.3,13.4h8.5l-10.1,12.9h12.1L246,335.2z M213.7,326.2h29l1.7-2.3h-26.5
			v-11.7h23.5l0.9-1.2h-24.4V300h24.6l1.8-2.4h-30.6V326.2z"/>
	</g>
	<g>
		<path d="M305.3,329.6h-14.7l-7.9-9.4H266v9.4H255v-18.1h30.8c1.7,0,3.1-0.4,4.3-1.1c1.2-0.7,1.7-1.7,1.7-2.9
			c0-1.4-0.5-2.4-1.6-3.1c-1.1-0.7-2.5-1-4.4-1H255l7.1-9.2h22.7c2,0,4.1,0.2,6.2,0.6c2.2,0.4,4.1,1,5.9,2c1.8,1,3.2,2.2,4.4,3.9
			c1.1,1.6,1.7,3.7,1.7,6.2c0,1.4-0.2,2.7-0.6,3.9c-0.4,1.2-1,2.3-1.8,3.3c-0.8,1-1.8,1.8-2.9,2.5s-2.4,1.2-3.9,1.5
			c0.6,0.5,1.3,1,2,1.7c0.7,0.7,1.7,1.7,3,2.9L305.3,329.6z"/>
		<path class="st1" d="M314.7,335.5h-23.6l-9.9-11.8h-11.8v11.8h-17.8v-27.4h34.2c1.1,0,1.9-0.2,2.5-0.6c0,0,0.1,0,0.1-0.1
			c0-0.1,0-0.2,0-0.2c-0.2-0.1-0.9-0.4-2.6-0.4H248l12.5-16h24.4c2.2,0,4.5,0.2,6.8,0.6c2.5,0.4,4.8,1.2,6.9,2.3
			c2.2,1.2,4.1,2.8,5.5,4.9c1.6,2.2,2.3,5,2.3,8.2c0,1.8-0.3,3.4-0.8,5c-0.5,1.6-1.4,3.1-2.4,4.4c-0.9,1.1-2,2.1-3.2,2.9
			c0.4,0.3,0.7,0.7,1.1,1.1L314.7,335.5z M292.3,326.2h5.1l-1-1.1c-1.1-1.1-2.1-2.1-2.8-2.8c-0.6-0.6-1.2-1.1-1.7-1.5l-6-4.6
			l7.5-1.4c1-0.2,2-0.5,2.8-1c0.8-0.5,1.5-1.1,2-1.7c0.6-0.7,1-1.4,1.3-2.3c0.3-0.9,0.5-1.8,0.5-2.8c0-1.8-0.4-3.2-1.1-4.3
			c-0.8-1.2-1.9-2.1-3.2-2.8c-1.4-0.8-3.1-1.3-4.8-1.6c-1.9-0.3-3.9-0.5-5.7-0.5h-21.1L262,300h23.8c2.6,0,4.7,0.5,6.3,1.6
			c2,1.3,3.1,3.4,3.1,6c0,2.4-1.2,4.5-3.4,5.8c-1.7,1-3.7,1.6-6.1,1.6h-27.4v11.2h4.1v-9.4h21.8L292.3,326.2z"/>
	</g>
	<g>
		<path class="st3" d="M5.7,334.7"/>
	</g>
	<g>
		<path class="st0" d="M95.2,261.5h22.6v22.1H93.5c-3.1,0-5.9-0.5-8.5-1.4c-2.6-0.9-4.9-2.2-6.7-3.8c-1.9-1.6-3.4-3.5-4.4-5.7
			c-1.1-2.2-1.6-4.6-1.6-7.2c0-2.6,0.5-4.9,1.6-7.1c1.1-2.1,2.6-4,4.4-5.5c1.9-1.5,4.1-2.7,6.7-3.5c2.6-0.8,5.4-1.2,8.5-1.2h25.3
			l-7.1,9.2H93.5c-1.5,0-2.9,0.2-4.1,0.6c-1.3,0.4-2.4,1-3.3,1.8s-1.7,1.7-2.2,2.7c-0.5,1-0.8,2.2-0.8,3.5c0,1.3,0.3,2.4,0.8,3.5
			c0.5,1,1.2,1.9,2.2,2.7c0.9,0.7,2,1.3,3.3,1.7c1.3,0.4,2.7,0.6,4.2,0.6h13.4v-5.1H88.6L95.2,261.5z"/>
	</g>
	<g>
		<path class="st0" d="M165.2,274.5l-7,9.1h-34.1v-35.4h41l-7.1,9.2h-22.9v4.2h28l-6.3,8h-21.7v4.8H165.2z"/>
	</g>
	<g>
		<path class="st0" d="M204.8,284.1c-0.7,0-1.4-0.1-2.1-0.3c-0.7-0.2-1.5-0.7-2.3-1.6l-21.7-19.5v20.8h-9.9v-29.4
			c0-1.2,0.2-2.2,0.5-3c0.3-0.8,0.8-1.5,1.3-2.1c0.5-0.5,1.2-0.9,1.9-1.2c0.7-0.2,1.5-0.4,2.2-0.4c0.7,0,1.3,0.1,2,0.3
			c0.7,0.2,1.5,0.7,2.4,1.6l21.7,19.5v-20.8h10v29.3c0,1.2-0.2,2.2-0.5,3c-0.3,0.8-0.8,1.5-1.3,2.1c-0.5,0.5-1.2,0.9-1.9,1.2
			C206.3,284,205.6,284.1,204.8,284.1z"/>
	</g>
	<g>
		<path class="st0" d="M258.4,274.5l-7,9.1h-34.1v-35.4h41l-7.1,9.2h-22.9v4.2h28l-6.3,8h-21.7v4.8H258.4z"/>
	</g>
	<g>
		<path class="st2" d="M66.2,309.9c0,2-0.4,3.8-1.2,5.4c-0.8,1.6-1.9,3-3.4,4.1c-1.5,1.1-3.3,2-5.5,2.6c-2.1,0.6-4.6,1-7.4,1H30.3v9
			H19.4V314h30.5c1.7,0,3-0.4,3.9-1.1c0.9-0.7,1.4-1.7,1.4-3c0-1.2-0.5-2.2-1.4-2.9c-0.9-0.7-2.2-1.1-3.9-1.1H19.4l7.2-9.2h22.2
			c2.8,0,5.2,0.3,7.4,1c2.1,0.7,4,1.6,5.4,2.7c1.5,1.2,2.6,2.6,3.4,4.2C65.8,306.2,66.2,308,66.2,309.9z"/>
	</g>
	<g>
		<path class="st2" d="M110.1,323L103,332H71.7v-35.4h11V323H110.1z"/>
	</g>
	<g>
		<path class="st2" d="M127,332l6.6-9.1h8.9c1.1,0,2.2,0,3.3,0c1.1,0,2.1,0,3,0.1c-0.5-0.6-1.1-1.4-1.7-2.4c-0.7-1-1.3-1.9-1.9-2.7
			l-6.3-9.4L122.2,332h-13l22.7-32c0.7-1,1.7-1.9,2.8-2.8c1.1-0.8,2.6-1.2,4.3-1.2c1.7,0,3,0.4,4.2,1.1c1.1,0.8,2.1,1.7,2.8,2.8
			l22.1,32H127z"/>
	</g>
	<g>
		<path class="st2" d="M210.2,296.7l-21,23.7V332h-11v-11.7l-21.6-23.6h14.1l8.5,9.8c0.3,0.3,0.7,0.7,1.1,1.2
			c0.5,0.5,0.9,1.1,1.4,1.6c0.5,0.6,1,1.1,1.4,1.6c0.4,0.5,0.7,0.9,0.9,1.1c0.4-0.5,0.9-1.2,1.5-2c0.7-0.8,1.6-2,2.9-3.6l8-9.8
			H210.2z"/>
	</g>
	<g>
		<path class="st2" d="M255,323l-7,9.1h-34.1v-35.4h41l-7.1,9.2h-22.9v4.2h28l-6.3,8h-21.7v4.8H255z"/>
	</g>
	<g>
		<path class="st2" d="M308.9,332h-14.7l-7.9-9.4h-16.8v9.4h-11V314h30.8c1.7,0,3.1-0.4,4.3-1.1c1.2-0.7,1.7-1.7,1.7-2.9
			c0-1.4-0.5-2.4-1.6-3.1c-1.1-0.7-2.5-1-4.4-1h-30.8l7.1-9.2h22.7c2,0,4.1,0.2,6.2,0.6c2.2,0.4,4.1,1,5.9,2c1.8,1,3.2,2.2,4.4,3.9
			c1.1,1.6,1.7,3.7,1.7,6.2c0,1.4-0.2,2.7-0.6,3.9c-0.4,1.2-1,2.3-1.8,3.3c-0.8,1-1.8,1.8-2.9,2.5c-1.1,0.7-2.4,1.2-3.9,1.5
			c0.6,0.5,1.3,1,2,1.7c0.7,0.7,1.7,1.7,3,2.9L308.9,332z"/>
	</g>
	<path d="M91.6,259h22.6v22.1H89.9c-3.1,0-5.9-0.5-8.5-1.4c-2.6-0.9-4.9-2.2-6.7-3.8c-1.9-1.6-3.4-3.5-4.4-5.7
		c-1.1-2.2-1.6-4.6-1.6-7.2c0-2.6,0.5-4.9,1.6-7.1c1.1-2.1,2.6-4,4.4-5.5c1.9-1.5,4.1-2.7,6.7-3.5c2.6-0.8,5.4-1.2,8.5-1.2h25.3
		l-7.1,9.2H89.9c-1.5,0-2.9,0.2-4.1,0.6c-1.3,0.4-2.4,1-3.3,1.8c-0.9,0.8-1.7,1.7-2.2,2.7c-0.5,1-0.8,2.2-0.8,3.5
		c0,1.3,0.3,2.4,0.8,3.5c0.5,1,1.2,1.9,2.2,2.7c0.9,0.7,2,1.3,3.3,1.7c1.3,0.4,2.7,0.6,4.2,0.6h13.4v-5.1H85L91.6,259z"/>
	<path d="M161.6,272l-7,9.1h-34.1v-35.4h41l-7.1,9.2h-22.9v4.2h28l-6.3,8h-21.7v4.8H161.6z"/>
	<path d="M201.2,281.7c-0.7,0-1.4-0.1-2.1-0.3c-0.7-0.2-1.5-0.7-2.3-1.6l-21.7-19.5v20.8h-9.9v-29.4c0-1.2,0.2-2.2,0.5-3
		c0.3-0.8,0.8-1.5,1.3-2.1c0.5-0.5,1.2-0.9,1.9-1.2c0.7-0.2,1.5-0.4,2.2-0.4c0.7,0,1.3,0.1,2,0.3c0.7,0.2,1.5,0.7,2.4,1.6l21.7,19.5
		v-20.8h10V275c0,1.2-0.2,2.2-0.5,3c-0.3,0.8-0.8,1.5-1.3,2.1c-0.5,0.5-1.2,0.9-1.9,1.2C202.7,281.6,202,281.7,201.2,281.7z"/>
	<path d="M254.8,272l-7,9.1h-34.1v-35.4h41l-7.1,9.2h-22.9v4.2h28l-6.3,8h-21.7v4.8H254.8z"/>
	<path d="M62.6,307.5c0,2-0.4,3.8-1.2,5.4c-0.8,1.6-1.9,3-3.4,4.1c-1.5,1.1-3.3,2-5.5,2.6c-2.2,0.6-4.6,1-7.4,1H26.7v9H15.8v-18.1
		h30.5c1.7,0,3-0.4,3.9-1.1c0.9-0.7,1.4-1.7,1.4-3c0-1.2-0.5-2.2-1.4-2.9c-0.9-0.7-2.2-1.1-3.9-1.1H15.8l7.2-9.2h22.2
		c2.8,0,5.2,0.3,7.4,1c2.2,0.7,4,1.6,5.4,2.7c1.5,1.2,2.6,2.6,3.4,4.2C62.2,303.7,62.6,305.5,62.6,307.5z"/>
	<path d="M106.5,320.5l-7.1,9.1H68.2v-35.4h10.9v26.3H106.5z"/>
	<path d="M123.4,329.6l6.6-9.1h8.9c1.1,0,2.2,0,3.3,0c1.1,0,2.1,0,3,0.1c-0.5-0.6-1.1-1.4-1.7-2.4c-0.7-1-1.3-1.9-1.9-2.7l-6.3-9.4
		l-16.6,23.5h-13l22.7-32c0.7-1,1.7-1.9,2.8-2.8c1.1-0.8,2.6-1.2,4.3-1.2c1.7,0,3,0.4,4.2,1.1c1.1,0.8,2.1,1.7,2.8,2.8l22.1,32
		H123.4z"/>
	<path d="M206.6,294.2l-21,23.7v11.7h-11v-11.7L153,294.2h14.1l8.5,9.8c0.3,0.3,0.7,0.7,1.1,1.2c0.5,0.5,0.9,1,1.4,1.6
		c0.5,0.6,1,1.1,1.4,1.6c0.4,0.5,0.7,0.9,0.9,1.1c0.4-0.5,0.9-1.2,1.5-2c0.7-0.8,1.6-2,2.9-3.6l8-9.8H206.6z"/>
	<path d="M251.4,320.5l-7,9.1h-34.1v-35.4h41l-7.1,9.2h-22.9v4.2h28l-6.3,8h-21.7v4.8H251.4z"/>
	<path d="M305.3,329.6h-14.7l-7.9-9.4H266v9.4H255v-18.1h30.8c1.7,0,3.1-0.4,4.3-1.1c1.2-0.7,1.7-1.7,1.7-2.9c0-1.4-0.5-2.4-1.6-3.1
		c-1.1-0.7-2.5-1-4.4-1H255l7.1-9.2h22.7c2,0,4.1,0.2,6.2,0.6c2.2,0.4,4.1,1,5.9,2c1.8,1,3.2,2.2,4.4,3.9c1.1,1.6,1.7,3.7,1.7,6.2
		c0,1.4-0.2,2.7-0.6,3.9c-0.4,1.2-1,2.3-1.8,3.3c-0.8,1-1.8,1.8-2.9,2.5s-2.4,1.2-3.9,1.5c0.6,0.5,1.3,1,2,1.7
		c0.7,0.7,1.7,1.7,3,2.9L305.3,329.6z"/>
	<path class="st4" d="M5.7,334.7"/>
</g>
<g>
	<g>
		<g>
			<path d="M161.7,89.4v-2.9c0.2-0.3,0.2-2.4,0-3v-33c-1.6-1.8-5-7.5-5.6-8.2c-4.5-0.8-27.7,8.4-29.5,9.6c-0.7,0.4-5,2.3-6.6,5
				c-2,3.3-4.1,23.6-4.8,26.3c-0.2-0.6,0.7-15.6-1.3-26.9c-1-5.7-4.4-10.2-5.6-11.8c-3.9-5.4-9-10.6-8.6-10.7c0.1,0,6.9,4,11.5,9.3
				c4,4.5,5.9,10.4,5.9,10.4c8.9-4.3,35.8-13.8,35.8-13.8s-38.1-2.4-39.3-3.5c-0.6-0.6-10-7.4-23.4-11.4c-11.5-3.4-26-4.5-30.6-11.8
				c7.3,22,4.4,31.7,14,49.2C83.8,80.6,100,85.8,100,85.8S99.5,68.2,95.1,52c-3-11-9-21.1-8.4-20.7c2.3,1.6,8.9,6.5,12,14.6
				c4.1,10.7,4.5,25.9,6.2,34.3c1.9,9.4,4.4,16.8,4.8,17.4c0.4,0.8,0.9,1.6,1.3,2.5c2,3.7,4.3,7.3,6.7,10.7
				c1.4,1.9,8.1,11.7,16.9,20.5c10.2,10.2,22.6,19.7,24.8,21.9c0.8,0.5,1.6,0.7,2.3,0.7V137c-0.6-0.2,11.3,0.3,15.6-4.5
				C189.4,118.7,200.8,89,161.7,89.4z"/>
		</g>
	</g>
	<g>
		<g>
			<path d="M161.6,89.4v-39c1.6-1.8,5-7.5,5.6-8.2c4.5-0.8,27.7,8.4,29.5,9.6c0.7,0.4,5,2.3,6.6,5c2,3.3,4.1,23.6,4.8,26.3
				c0.2-0.6-0.7-15.6,1.3-26.9c1-5.7,4.4-10.2,5.6-11.8c3.9-5.4,9-10.6,8.6-10.7c-0.1,0-6.9,4-11.5,9.3c-4,4.5-5.9,10.4-5.9,10.4
				c-8.9-4.3-35.8-13.8-35.8-13.8s38.1-2.4,39.3-3.5c0.6-0.6,10-7.4,23.4-11.4c11.5-3.4,26-4.5,30.6-11.8c-7.3,22-4.4,31.7-14,49.2
				c-10.2,18.7-26.3,23.8-26.3,23.8s0.4-17.7,4.8-33.8c3-11,9-21.1,8.4-20.7c-2.3,1.6-8.9,6.5-12,14.6c-4.1,10.7-4.5,25.9-6.2,34.3
				c-1.9,9.4-4.4,16.8-4.8,17.4c-0.4,0.8-0.9,1.6-1.3,2.5c-2,3.7-4.3,7.3-6.7,10.7c-1.4,1.9-8.1,11.7-16.9,20.5
				c-10.2,10.2-22.6,19.7-24.8,21.9c-0.8,0.5-1.6,0.7-2.3,0.7V137c0.6-0.2-11.3,0.3-15.6-4.5C133.9,118.7,122.5,89,161.6,89.4z"/>
			<path class="st1" d="M155.1,160.5v-17.6c-5-0.7-10.5-2.3-13.9-6.2c-7.1-8.1-17.5-25.6-11.1-39.6c3.8-8.3,12.2-13,25-14V48
				l1.6-1.8c0.5-0.6,1.7-2.3,2.6-3.8L138.2,35l31.8-2c15.2-1,32.3-2.3,36.8-3c3.6-2.5,12.5-8.1,24.4-11.7c3.3-1,6.7-1.8,10-2.5
				c6.7-1.5,15.1-3.4,17-6.5l1.2-1.9c0,0,3.4-3.8,7.5-1.9c4.2,1.9,3.9,6.4,3.9,6.4l-0.9,2.9c-2.9,8.7-4.1,15.3-5.2,21.7
				c-1.6,9-3.1,17.5-9.2,28.6c-11.3,20.7-29.3,26.7-30,26.9l-3.3,1.1c-0.9,3.3-1.9,6.2-2.6,7.6l0,0c-0.5,0.8-0.9,1.7-1.4,2.5
				c-1.9,3.5-4.3,7.2-7.1,11.3l-0.4,0.6c-2.1,3-8.7,12.2-17.1,20.7c-7.3,7.4-15.8,14.4-20.8,18.6c-1.7,1.4-3.5,2.9-4,3.4l-0.5,0.5
				l-0.6,0.4c-1.7,1.1-3.7,1.6-5.6,1.7L155.1,160.5z M160.9,95.9c-6.2,0-16.3,0.9-19,6.7c-2.9,6.3,2.3,18,9,25.6
				c0.1,0.1,1.8,1.9,10.2,2.3c5.8,0.2,6.8,4.4,6.9,5.7l0.6,4.6c4.6-3.9,10.4-8.9,15.4-14c7.7-7.8,13.8-16.3,15.7-19.1l0.4-0.6
				c1.9-2.7,3.5-5.2,4.9-7.6l-3.5-14.7c-0.3-1.1-0.5-3-1-6.9c-0.6-4.6-2-15.1-3-17.7c-0.3-0.4-1.2-1-3.3-2.1
				c-0.5-0.2-0.8-0.5-1.1-0.6c-2.8-1.5-16.5-6.7-22.8-8.3c-0.9,1.3-1.6,2.5-2.3,3.5v43.4l-6.6-0.1C161.3,95.9,161.1,95.9,160.9,95.9
				z M242.6,28.8c1.2,2.8-0.3,5.7-1.1,7.3c-1.7,3.4-5.1,10.3-7.1,17.6c-1.9,7.1-3.1,14.6-3.7,20.6c4.3-3.2,9.2-8.2,13.2-15.5
				c5.1-9.3,6.3-16.1,7.8-24.7c0.5-2.5,0.9-5.1,1.5-8c-3,0.9-6.2,1.6-9.3,2.3C243.6,28.6,243.1,28.7,242.6,28.8z M193.1,57.3
				c0,0,0,0,0.1,0.1C193.1,57.3,193.1,57.3,193.1,57.3C193.1,57.3,193.1,57.3,193.1,57.3z M200.5,43.8c0.8,0.3,1.6,0.7,2.4,1
				c0.3-0.5,0.5-0.9,0.8-1.3C202.7,43.6,201.7,43.7,200.5,43.8z M205.7,30.8c-0.1,0.1-0.3,0.2-0.4,0.3
				C205.3,31.1,205.5,30.9,205.7,30.8z"/>
			<path class="st1" d="M160.8,160.4c-1.9,0-3.8-0.6-5.6-1.7l-0.6-0.4l-0.5-0.5c-0.5-0.5-2.3-1.9-4-3.4
				c-5.1-4.2-13.5-11.2-20.8-18.6c-8.5-8.5-15-17.7-17.1-20.7l-0.4-0.6c-2.8-4.1-5.2-7.8-7.1-11.3c-0.5-0.8-0.9-1.7-1.4-2.5l0,0
				c-0.7-1.4-1.7-4.2-2.6-7.6L97.2,92c-0.8-0.2-18.7-6.2-30-26.9c-6.1-11.2-7.6-19.6-9.2-28.6c-1.1-6.4-2.3-12.9-5.2-21.7l-0.9-2.9
				c0,0-0.2-4.6,3.9-6.4s7.5,1.9,7.5,1.9l1.2,1.9c1.9,3.1,10.3,5,17,6.5c3.3,0.8,6.7,1.5,10,2.5c11.9,3.5,20.9,9.1,24.4,11.7
				c4.5,0.7,21.6,2,36.8,3l31.8,2l-21.1,7.4c1,1.5,2.1,3.2,2.6,3.8l1.6,1.8v35.1c12.8,1,21.2,5.7,25,14c6.4,14-3.9,31.5-11.1,39.6
				c-3.5,3.9-8.9,5.5-13.9,6.2v17.6L160.8,160.4z M161,95.9l-6.6,0.1V52.6c-0.7-1-1.5-2.2-2.3-3.5c-6.3,1.6-20,6.8-22.8,8.3
				c-0.2,0.1-0.6,0.4-1.1,0.6c-2.1,1.1-3,1.8-3.3,2.1c-1,2.7-2.4,13.2-3,17.7c-0.5,3.9-0.8,5.8-1,6.9l-3.5,14.7
				c1.4,2.4,3.1,4.9,4.9,7.6l0.4,0.6c2,2.8,8,11.3,15.7,19.1c5.1,5.1,10.8,10.1,15.4,14l0.6-4.6c0.2-1.3,1.2-5.5,6.9-5.7
				c8.4-0.4,10.1-2.2,10.2-2.3c6.7-7.6,11.9-19.3,9-25.6c-2.6-5.8-12.7-6.7-19-6.7C161.5,95.9,161.3,95.9,161,95.9z M78.5,28.5
				c-3.1-0.7-6.3-1.4-9.3-2.3c0.6,2.9,1.1,5.5,1.5,8c1.5,8.6,2.8,15.4,7.8,24.7c4,7.3,9,12.3,13.2,15.5c-0.7-6-1.8-13.5-3.7-20.6
				c-2-7.3-5.5-14.3-7.1-17.6c-0.8-1.6-2.2-4.5-1.1-7.3C79.5,28.7,79,28.6,78.5,28.5z M129.5,57.3c0,0-0.1,0-0.1,0.1
				C129.4,57.3,129.5,57.3,129.5,57.3C129.5,57.3,129.5,57.3,129.5,57.3z M118.9,43.4c0.3,0.4,0.5,0.9,0.8,1.3
				c0.8-0.3,1.6-0.7,2.4-1C120.9,43.7,119.8,43.6,118.9,43.4z M117.3,31.1c-0.1-0.1-0.3-0.2-0.4-0.3
				C117.1,30.9,117.2,31.1,117.3,31.1z"/>
		</g>
	</g>
	<g>
		<polygon points="97.3,107.7 111.6,119 114.7,143.9 123.1,160.3 129.3,166.9 143.1,213.6 114.9,183.8 108,156.4 82.1,138.1 
			82.2,123.9 82.1,112.1 		"/>
		<path class="st1" d="M150.3,215l-8.2-27.9l-0.8-2.8l-3.2-11l-0.5-1.7l-2.4-8l-6.6-7.1L121,142l-0.3-2.2l-0.1-0.9l-0.8-6.5l-0.1-1
			l-0.9-7.3l-1-8.5l-6.6-5.2l-3.1-2.5l-1.4-1.1l-8-6.3l-4.6,1.3l-7.7,2.2l-10.8,3.2l0.1,16.6l-0.1,17.6l4.1,2.9l7.4,5.2l15.2,10.8
			l1.3,5.2l2.7,10.9L109,187l32.6,34.5h10.6L150.3,215z M105.5,122.5l2.8,23.3l2.3,4.5l-22-15.6l0.1-10.9l-0.1-6.8l7.2-2.1
			L105.5,122.5z M120.8,180.6l-5.2-20.7l2.2,4.2l5.8,6.1l5.7,19.2L120.8,180.6z"/>
	</g>
	<g>
		<path d="M204.5,138v4.9l-7,14c0,0-9.3,14-13.5,19.1s-22.4,21.1-22.4,21.1s-13.5-12.8-22.4-22.5c-7.8-8.5-13.5-17.8-13.5-17.8
			l-7-14V138l4.9,2.2l3.9,4.5c0,0,30.1,12.9,34,14.7c4-1.8,34.1-14.7,34.1-14.7l3.9-4.5L204.5,138z"/>
		<path class="st1" d="M161.4,205.9l-4.3-4.1c-0.6-0.5-13.8-13-22.7-22.8c-8.1-8.9-14-18.4-14.2-18.8l-0.3-0.5l-7.7-15.3V128
			l15.3,6.8l3.9,4.4c5.1,2.2,22.9,9.8,30.1,13c7.3-3.2,25.1-10.8,30.2-13l3.9-4.4L211,128v16.4l-8.1,16c-0.4,0.6-9.5,14.3-13.9,19.7
			c-4.4,5.4-21.3,20.2-23.2,21.9L161.4,205.9z M131.3,153.6c0.9,1.4,6,9.4,12.6,16.6c5.6,6.1,13.1,13.5,17.8,18
			c6.8-6.1,14.9-13.6,17.2-16.4c3.6-4.4,11.5-16.2,12.9-18.3l0.2-0.4c-9,3.9-25,10.7-27.8,12l-2.7,1.2l-2.7-1.2
			c-2.7-1.2-18.7-8.1-27.7-12L131.3,153.6z"/>
	</g>
	<g>
		<path class="st5" d="M86.2,145.6c3.5,2.3,19.9,13.2,19.9,13.2l2.7,11.3L87.7,152C87.7,152,86.2,146.4,86.2,145.6z"/>
		<path class="st1" d="M119.9,188.1L82,155.7l-0.5-1.9c-1.7-6.5-1.7-7.4-1.7-8.1v-12.1l10.1,6.7c3.5,2.3,19.9,13.2,19.9,13.2
			l2.1,1.4L119.9,188.1z"/>
	</g>
	<g>
		<path d="M251.7,83.9l6.2-26.1l-1.2-2.7l-12.1,21.6L222.3,91c0,0-7.2,16.4-10.4,24.7C215.9,112.1,251.7,83.9,251.7,83.9z"/>
		<path class="st1" d="M196.1,138.9l9.8-25.5c3.2-8.4,10.2-24.4,10.5-25l0.8-1.8L239.7,72l17.6-31.3l7.5,16.4l-7.3,30.5l-1.8,1.4
			c-14.3,11.3-36.7,29-39.5,31.6L196.1,138.9z"/>
	</g>
	<g>
		<path d="M71.4,83.9l-6.2-26.1l1.2-2.7c0,0,6.7,15.6,12.8,21.3c6,5.7,21.7,14.7,21.7,14.7s7.2,16.4,10.4,24.7
			C107.2,112.1,71.4,83.9,71.4,83.9z"/>
		<path class="st1" d="M127.1,138.9l-20.2-18.3C104,118,81.7,100.3,67.4,89l-1.8-1.4l-7.3-30.5l8.2-18l5.8,13.4
			C74.8,58,80,68.2,83.6,71.7C88.1,75.9,99.9,83,104,85.4l1.9,1.1l0.9,2c0.3,0.7,7.3,16.6,10.5,25L127.1,138.9z"/>
	</g>
	<g>
		<polygon points="226,107.7 211.7,119 208.6,143.9 200.2,160.3 193.2,168.2 180.2,213.6 208.4,183.8 215.3,156.4 241.2,138.1 
			241.1,123.9 241.2,112.1 		"/>
		<path class="st1" d="M247.7,107.3l-11-3.2l-7.6-2.2l-4.5-1.3l-9.4,7.4l-0.2,0.2l-2.5,2l-6.9,5.5l-0.9,7.4l-1,8.3l-0.1,0.9
			l-0.8,6.6l-0.2,1.3l-0.2,1.9l-7.5,14.7l-7.4,8.3l-2.3,8l-0.8,2.7l-2.8,9.8l-0.9,3.2L173,215l-1.9,6.5h10.5l32.6-34.5l2.7-10.7
			l2.7-10.8l1.3-5.2l15.4-10.9l7.4-5.2l4-2.8l-0.1-17.5L247.7,107.3z M234.7,134.7l-22,15.6l2.3-4.5l2.8-23.3l9.7-7.6l7.2,2.1l0,6.9
			L234.7,134.7z M199,171.4l6.6-7.4l2.1-4.1l-5.2,20.7l-8.8,9.3L199,171.4z"/>
	</g>
	<g>
		<path class="st5" d="M237.2,145.6c-3.5,2.3-19.9,13.2-19.9,13.2l-2.9,11.3l21.3-18C235.7,152,237.2,146.4,237.2,145.6z"/>
		<path class="st1" d="M203,188.2l8.7-33.4l2.1-1.4c0,0,16.4-10.8,19.9-13.2l10.1-6.7v12.1c0,0.7,0,1.7-1.7,8.1l-0.5,2L203,188.2z"
			/>
	</g>
	<g>
		<g>
			<polygon class="st6" points="202.9,122.4 200.4,133.1 193.8,139.6 179.4,145.8 			"/>
		</g>
		<g>
			<polygon class="st1" points="150.8,165.1 214.5,101.7 206.3,136.4 197.4,145.1 			"/>
		</g>
	</g>
	<g>
		<g>
			<polygon class="st6" points="120.7,122.4 123.2,133.1 129.8,139.6 144.2,145.8 			"/>
		</g>
		<g>
			<polygon class="st1" points="172.8,165.1 126.2,145.1 117.3,136.4 109.2,101.7 			"/>
		</g>
	</g>
	<g>
		<path class="st5" d="M70.6,33.2c0,0,8.7,1.9,14,12.8c2.7,5.6,4.3,12.5,5.2,18c0.9,5.2,2.1,8.7,2.1,8.7S80.5,62.3,74.6,50.6
			C71.5,44.5,72.6,36,70.6,33.2z"/>
		<path class="st1" d="M106.3,94.8L87.5,77.5c-0.5-0.5-12.3-11.4-18.7-24c-2.2-4.4-2.7-9.1-3.2-13c-0.1-1.3-0.3-3.1-0.5-3.8
			l-9.8-13.5L72,26.9c1.2,0.3,12,2.9,18.5,16.3c2.5,5.2,4.5,11.8,5.8,19.7c0.8,4.5,1.8,7.6,1.8,7.7L106.3,94.8z"/>
	</g>
	<g>
		<path class="st5" d="M252.7,33.2c0,0-8.7,1.9-14,12.8c-2.7,5.6-4.3,12.5-5.2,18c-0.9,5.2-2.1,8.7-2.1,8.7s11.4-10.5,17.3-22.2
			C251.8,44.5,250.7,36,252.7,33.2z"/>
		<path class="st1" d="M216.8,95l8.5-24.4c0,0,1.1-3.1,1.8-7.7c1.3-7.9,3.3-14.6,5.8-19.7c6.5-13.4,17.3-16.1,18.5-16.3l16.7-3.6
			l-9.8,13.5c-0.2,0.7-0.4,2.5-0.5,3.8c-0.4,3.8-0.9,8.6-3.2,13c-6.4,12.6-18.2,23.5-18.7,24L216.8,95z"/>
	</g>
	<g class="st7">
		<g>
			<path class="st6" d="M161.3,125.1h11.2v6.9c0,2.3-1.8,4.1-4.1,4.1h-8c-1.5,0-2.9-0.2-4.2-0.7c-1.3-0.5-2.4-1.1-3.3-1.9
				c-0.9-0.8-1.7-1.7-2.2-2.8c-0.5-1.1-0.8-2.3-0.8-3.6c0-1.3,0.3-2.4,0.8-3.5c0.5-1.1,1.3-2,2.2-2.7c0.9-0.8,2.1-1.3,3.3-1.8
				c1.3-0.4,2.7-0.6,4.2-0.6h12.6l-3.5,4.6h-9.1c-0.7,0-1.4,0.1-2,0.3s-1.2,0.5-1.6,0.9c-0.5,0.4-0.8,0.8-1.1,1.4
				c-0.3,0.5-0.4,1.1-0.4,1.7s0.1,1.2,0.4,1.7c0.3,0.5,0.6,1,1.1,1.3c0.5,0.4,1,0.7,1.6,0.9c0.6,0.2,1.3,0.3,2.1,0.3h6.6V129h-9.1
				L161.3,125.1z"/>
			<path class="st1" d="M168.5,142.5h-8c-2.2,0-4.4-0.4-6.4-1c-2.1-0.7-3.9-1.8-5.4-3.1c-1-0.9-1.9-1.9-2.7-3h-1.8l1.1-1.3
				c-0.1-0.2-0.3-0.5-0.4-0.7c-1-2-1.5-4.1-1.5-6.4c0-2.3,0.5-4.5,1.5-6.4c0.9-1.9,2.3-3.5,3.9-4.8c1.6-1.3,3.4-2.3,5.5-2.9
				c1.9-0.6,4-0.9,6.2-0.9h25.8l-7.2,9.4v10.6C179.1,137.8,174.3,142.5,168.5,142.5z"/>
		</g>
	</g>
	<g>
		<path class="st8" d="M59.2,13.6"/>
	</g>
	<g>
		<polygon points="138.2,181.4 160.7,203.2 160.7,215 149.5,215 		"/>
		<path class="st1" d="M166.6,199.9l-3.9-3.8l-0.8-0.8l-24.5-23.7l-4.5-4.3l-9.4-9.1l1.4,4.2l3.1,9.2l13.5,40.5l3.2,9.5h22.4v-21.1
			L166.6,199.9z M154.2,208.5L154.2,208.5l-1.3-3.9l1.3,1.3V208.5z"/>
	</g>
	<g>
		<polygon points="185.7,181.4 163.2,203.2 163.2,215 174.4,215 		"/>
		<path class="st1" d="M189.3,168.8L185,173L162,195.3l-1.1,1.1l-3.5,3.4l-0.6,0.5v21.1h22.4l3.5-10.5l13.6-40.8l3-8.8l1.1-3.2
			L189.3,168.8z M169.8,208.5L169.8,208.5l0-2.6l1.4-1.3L169.8,208.5z"/>
	</g>
	<g>
		<path d="M161.7,89.4v-2.9c0.2-0.3,0.2-2.4,0-3v-33c-1.6-1.8-5-7.5-5.6-8.2c-4.5-0.8-27.7,8.4-29.5,9.6c-0.7,0.4-5,2.3-6.6,5
			c-2,3.3-4.1,23.6-4.8,26.3c-0.2-0.6,0.7-15.6-1.3-26.9c-1-5.7-4.4-10.2-5.6-11.8c-3.9-5.4-9-10.6-8.6-10.7c0.1,0,6.9,4,11.5,9.3
			c4,4.5,5.9,10.4,5.9,10.4c8.9-4.3,35.8-13.8,35.8-13.8s-38.1-2.4-39.3-3.5c-0.6-0.6-10-7.4-23.4-11.4c-11.5-3.4-26-4.5-30.6-11.8
			c7.3,22,4.4,31.7,14,49.2C83.8,80.6,100,85.8,100,85.8S99.5,68.2,95.1,52c-3-11-9-21.1-8.4-20.7c2.3,1.6,8.9,6.5,12,14.6
			c4.1,10.7,4.5,25.9,6.2,34.3c1.9,9.4,4.4,16.8,4.8,17.4c0.4,0.8,0.9,1.6,1.3,2.5c2,3.7,4.3,7.3,6.7,10.7
			c1.4,1.9,8.1,11.7,16.9,20.5c10.2,10.2,22.6,19.7,24.8,21.9c0.8,0.5,1.6,0.7,2.3,0.7V137c-0.6-0.2,11.3,0.3,15.6-4.5
			C189.4,118.7,200.8,89,161.7,89.4z"/>
	</g>
	<g>
		<path d="M161.6,89.4v-39c1.6-1.8,5-7.5,5.6-8.2c4.5-0.8,27.7,8.4,29.5,9.6c0.7,0.4,5,2.3,6.6,5c2,3.3,4.1,23.6,4.8,26.3
			c0.2-0.6-0.7-15.6,1.3-26.9c1-5.7,4.4-10.2,5.6-11.8c3.9-5.4,9-10.6,8.6-10.7c-0.1,0-6.9,4-11.5,9.3c-4,4.5-5.9,10.4-5.9,10.4
			c-8.9-4.3-35.8-13.8-35.8-13.8s38.1-2.4,39.3-3.5c0.6-0.6,10-7.4,23.4-11.4c11.5-3.4,26-4.5,30.6-11.8c-7.3,22-4.4,31.7-14,49.2
			c-10.2,18.7-26.3,23.8-26.3,23.8s0.4-17.7,4.8-33.8c3-11,9-21.1,8.4-20.7c-2.3,1.6-8.9,6.5-12,14.6c-4.1,10.7-4.5,25.9-6.2,34.3
			c-1.9,9.4-4.4,16.8-4.8,17.4c-0.4,0.8-0.9,1.6-1.3,2.5c-2,3.7-4.3,7.3-6.7,10.7c-1.4,1.9-8.1,11.7-16.9,20.5
			c-10.2,10.2-22.6,19.7-24.8,21.9c-0.8,0.5-1.6,0.7-2.3,0.7V137c0.6-0.2-11.3,0.3-15.6-4.5C133.9,118.7,122.5,89,161.6,89.4z"/>
	</g>
	<polygon points="97.3,107.7 111.6,119 114.7,143.9 123.1,160.3 129.3,166.9 143.1,213.6 114.9,183.8 108,156.4 82.1,138.1 
		82.2,123.9 82.1,112.1 	"/>
	<path d="M204.5,138v4.9l-7,14c0,0-9.3,14-13.5,19.1s-22.4,21.1-22.4,21.1s-13.5-12.8-22.4-22.5c-7.8-8.5-13.5-17.8-13.5-17.8l-7-14
		V138l4.9,2.2l3.9,4.5c0,0,30.1,12.9,34,14.7c4-1.8,34.1-14.7,34.1-14.7l3.9-4.5L204.5,138z"/>
	<path class="st5" d="M86.2,145.6c3.5,2.3,19.9,13.2,19.9,13.2l2.7,11.3L87.7,152C87.7,152,86.2,146.4,86.2,145.6z"/>
	<path d="M251.7,83.9l6.2-26.1l-1.2-2.7l-12.1,21.6L222.3,91c0,0-7.2,16.4-10.4,24.7C215.9,112.1,251.7,83.9,251.7,83.9z"/>
	<path d="M71.4,83.9l-6.2-26.1l1.2-2.7c0,0,6.7,15.6,12.8,21.3c6,5.7,21.7,14.7,21.7,14.7s7.2,16.4,10.4,24.7
		C107.2,112.1,71.4,83.9,71.4,83.9z"/>
	<polygon points="226,107.7 211.7,119 208.6,143.9 200.2,160.3 193.2,168.2 180.2,213.6 208.4,183.8 215.3,156.4 241.2,138.1 
		241.1,123.9 241.2,112.1 	"/>
	<path class="st5" d="M237.2,145.6c-3.5,2.3-19.9,13.2-19.9,13.2l-2.9,11.3l21.3-18C235.7,152,237.2,146.4,237.2,145.6z"/>
	<polygon points="202.9,122.4 200.4,133.1 193.8,139.6 179.4,145.8 	"/>
	<polygon points="120.7,122.4 123.2,133.1 129.8,139.6 144.2,145.8 	"/>
	<path class="st5" d="M70.6,33.2c0,0,8.7,1.9,14,12.8c2.7,5.6,4.3,12.5,5.2,18c0.9,5.2,2.1,8.7,2.1,8.7S80.5,62.3,74.6,50.6
		C71.5,44.5,72.6,36,70.6,33.2z"/>
	<path class="st5" d="M252.7,33.2c0,0-8.7,1.9-14,12.8c-2.7,5.6-4.3,12.5-5.2,18c-0.9,5.2-2.1,8.7-2.1,8.7s11.4-10.5,17.3-22.2
		C251.8,44.5,250.7,36,252.7,33.2z"/>
	<g class="st7">
		<g>
			<path class="st6" d="M161.3,125.1h11.2v6.9c0,2.3-1.8,4.1-4.1,4.1h-8c-1.5,0-2.9-0.2-4.2-0.7c-1.3-0.5-2.4-1.1-3.3-1.9
				c-0.9-0.8-1.7-1.7-2.2-2.8c-0.5-1.1-0.8-2.3-0.8-3.6c0-1.3,0.3-2.4,0.8-3.5c0.5-1.1,1.3-2,2.2-2.7c0.9-0.8,2.1-1.3,3.3-1.8
				c1.3-0.4,2.7-0.6,4.2-0.6h12.6l-3.5,4.6h-9.1c-0.7,0-1.4,0.1-2,0.3s-1.2,0.5-1.6,0.9c-0.5,0.4-0.8,0.8-1.1,1.4
				c-0.3,0.5-0.4,1.1-0.4,1.7s0.1,1.2,0.4,1.7c0.3,0.5,0.6,1,1.1,1.3c0.5,0.4,1,0.7,1.6,0.9c0.6,0.2,1.3,0.3,2.1,0.3h6.6V129h-9.1
				L161.3,125.1z"/>
		</g>
	</g>
	<path class="st9" d="M59.2,13.6"/>
	<polygon points="138.2,181.4 160.7,203.2 160.7,215 149.5,215 	"/>
	<polygon points="185.7,181.4 163.2,203.2 163.2,215 174.4,215 	"/>
</g>
</svg>
