<svg id="组_43" data-name="组 43" xmlns="http://www.w3.org/2000/svg" xmlns:xlink="http://www.w3.org/1999/xlink" width="209.219" height="72.844" viewBox="0 0 209.219 72.844">
  <defs>
    <style>
      .cls-1, .cls-2 {
        fill-rule: evenodd;
      }

      .cls-1 {
        fill: url(#linear-gradient);
      }

      .cls-2 {
        fill: #fff;
      }
    </style>
    <linearGradient id="linear-gradient" x1="97" y1="351.344" x2="305.906" y2="351.344" gradientUnits="userSpaceOnUse">
      <stop offset="0" stop-color="#53cbed"/>
      <stop offset="1" stop-color="#c14fc4"/>
    </linearGradient>
  </defs>
  <path id="形状_562" data-name="形状 562" class="cls-1" d="M111.074,315.44l69.634-.147,9.529,7.184h49.257l8.21-7.184h44.273L305.9,329.22l-0.147,43.833L291.83,387.42l-97.488-.147-7.623-5.717-42.954-.147-6.3,5.864-26.5-.488L97,372.827l0.293-43.314Z" transform="translate(-97 -315)"/>
  <path id="形状_561" data-name="形状 561" class="cls-2" d="M292.088,387.629H194.4l-7.467-5.7H143.447l-6,5.7H111.2L97,373.42V329.141L111.131,315h69.757l9.426,7.2h48.7l8.63-7.2h44.448l14.131,14.141v44.348Zm-97.489-.6h97.24l13.78-13.789V329.389L291.839,315.6H247.857l-8.63,7.2H190.112l-9.426-7.2H111.379L97.6,329.389v43.782l13.849,13.858H137.21l6-5.7h43.924Zm95.006-5.4H196.421l-7.468-5.7h-47.9l-6,5.7H113.682l-10.689-10.7V331.625L113.613,321h65.25l9.426,7.2H241.18l8.63-7.2h39.8l10.62,10.627V371Zm-92.982-.6h92.734l10.269-10.276V331.873L289.357,321.6h-39.33l-8.63,7.2h-53.31l-9.426-7.2h-64.8l-10.268,10.276v38.814l10.337,10.345h20.888l6-5.7h48.339Zm40.83-60.272h-3.968l6.3-5.46h3.968Zm-6.427,0h-3.968l6.3-5.46h3.969Zm-6.427,0h-3.968l6.3-5.46H230.9Zm-6.427,0H191.73l-6.889-5.46h39.628ZM105.657,332.9v14.263l-2.392,4.258V331.73Zm162.82-9.074H254.223l-4.255-2.393h20.876Zm6.443,55H220.811l-3.956,2.394h59.833Zm-128.713,4.4h3.358l-5.328,4.619H140.88Zm5.438,0H155l-5.327,4.619h-3.357Zm5.437,0h3.358l-5.328,4.619h-3.357Zm5.438,0h22.372l5.828,4.619H157.193Z" transform="translate(-97 -315)"/>
</svg>
