<?xml version="1.0" encoding="utf-8"?>
<!-- Generator: Adobe Illustrator 22.1.0, SVG Export Plug-In . SVG Version: 6.00 Build 0)  -->
<svg version="1.1" id="组_42" xmlns="http://www.w3.org/2000/svg" xmlns:xlink="http://www.w3.org/1999/xlink" x="0px" y="0px"
	 viewBox="0 0 18.3 33.4" style="enable-background:new 0 0 18.3 33.4;" xml:space="preserve">
<style type="text/css">
	.st0{fill:#6C6C6C;}
</style>
<path id="圆角矩形_3_拷贝" class="st0" d="M0.5,30.5l14.6-14.6c0.7-0.7,1.8-0.7,2.4,0c0.7,0.7,0.7,1.8,0,2.4L2.9,32.9
	c-0.7,0.7-1.7,0.7-2.4,0.1C-0.2,32.3-0.2,31.2,0.5,30.5C0.4,30.5,0.5,30.5,0.5,30.5z"/>
<path id="圆角矩形_3_拷贝_2" class="st0" d="M0.5,3.8l14.6,14.6c0.7,0.7,1.8,0.7,2.4,0c0.7-0.7,0.7-1.7,0-2.4L2.9,1.4
	c-0.7-0.7-1.8-0.7-2.4,0C-0.2,2-0.2,3.1,0.5,3.8z"/>
</svg>
